<svg width="146" height="117" viewBox="0 0 146 117" fill="none" xmlns="http://www.w3.org/2000/svg">
<mask id="path-1-outside-1_1391_292647" maskUnits="userSpaceOnUse" x="-2.5" y="-2" width="151" height="121" fill="black">
<rect fill="white" x="-2.5" y="-2" width="151" height="121"/>
<path d="M37.4062 0C48.5 0 57.1719 3.95833 63.4219 11.875C70.8698 21.25 74.5938 36.7969 74.5938 58.5156C74.5938 80.1823 70.8438 95.7552 63.3438 105.234C57.1458 113.047 48.5 116.953 37.4062 116.953C26.2604 116.953 17.276 112.682 10.4531 104.141C3.63021 95.5469 0.21875 80.2604 0.21875 58.2812C0.21875 36.7188 3.96875 21.1979 11.4688 11.7188C17.6667 3.90625 26.3125 0 37.4062 0ZM37.4062 18.2031C34.75 18.2031 32.3802 19.0625 30.2969 20.7812C28.2135 22.4479 26.599 25.4688 25.4531 29.8438C23.9427 35.5208 23.1875 45.0781 23.1875 58.5156C23.1875 71.9531 23.8646 81.1979 25.2188 86.25C26.5729 91.25 28.2656 94.5833 30.2969 96.25C32.3802 97.9167 34.75 98.75 37.4062 98.75C40.0625 98.75 42.4323 97.9167 44.5156 96.25C46.599 94.5312 48.2135 91.4844 49.3594 87.1094C50.8698 81.4844 51.625 71.9531 51.625 58.5156C51.625 45.0781 50.9479 35.8594 49.5938 30.8594C48.2396 25.8073 46.5208 22.4479 44.4375 20.7812C42.4062 19.0625 40.0625 18.2031 37.4062 18.2031ZM145.531 115H123.578V32.2656C115.557 39.7656 106.104 45.3125 95.2188 48.9062V28.9844C100.948 27.1094 107.172 23.5677 113.891 18.3594C120.609 13.099 125.219 6.97917 127.719 0H145.531V115Z"/>
</mask>
<path d="M63.4219 11.875L61.8521 13.1143L61.8559 13.1191L63.4219 11.875ZM63.3438 105.234L64.9106 106.477L64.9122 106.475L63.3438 105.234ZM10.4531 104.141L8.88676 105.384L8.89046 105.389L10.4531 104.141ZM11.4688 11.7188L9.90193 10.4757L9.90031 10.4778L11.4688 11.7188ZM30.2969 20.7812L31.5463 22.343L31.558 22.3336L31.5696 22.324L30.2969 20.7812ZM25.4531 29.8438L27.3859 30.358L27.3879 30.3505L25.4531 29.8438ZM25.2188 86.25L23.2869 86.7678L23.2883 86.7728L25.2188 86.25ZM30.2969 96.25L29.0282 97.7962L29.0378 97.804L29.0475 97.8117L30.2969 96.25ZM44.5156 96.25L45.765 97.8117L45.7768 97.8023L45.7884 97.7927L44.5156 96.25ZM49.3594 87.1094L47.4278 86.5907L47.4246 86.6027L49.3594 87.1094ZM49.5938 30.8594L47.6619 31.3772L47.6633 31.3822L49.5938 30.8594ZM44.4375 20.7812L43.1456 22.308L43.1666 22.3258L43.1881 22.343L44.4375 20.7812ZM37.4062 2C47.9578 2 56.0227 5.73036 61.8521 13.1143L64.9916 10.6357C58.3211 2.18631 49.0422 -2 37.4062 -2V2ZM61.8559 13.1191C68.8718 21.9503 72.5938 36.9242 72.5938 58.5156H76.5938C76.5938 36.6695 72.8678 20.5497 64.9878 10.6309L61.8559 13.1191ZM72.5938 58.5156C72.5938 80.0484 68.8481 95.0542 61.7753 103.993L64.9122 106.475C72.8394 96.4562 76.5938 80.3162 76.5938 58.5156H72.5938ZM61.7769 103.991C56.0045 111.268 47.9677 114.953 37.4062 114.953V118.953C49.0323 118.953 58.2872 114.826 64.9106 106.477L61.7769 103.991ZM37.4062 114.953C26.8547 114.953 18.4506 110.948 12.0158 102.892L8.89046 105.389C16.1014 114.416 25.6662 118.953 37.4062 118.953V114.953ZM12.0195 102.897C5.64671 94.8703 2.21875 80.1899 2.21875 58.2812H-1.78125C-1.78125 80.3309 1.61371 96.2235 8.88677 105.384L12.0195 102.897ZM2.21875 58.2812C2.21875 36.8554 5.96343 21.9002 13.0372 12.9597L9.90031 10.4778C1.97407 20.4957 -1.78125 36.5821 -1.78125 58.2812H2.21875ZM13.0356 12.9618C18.808 5.68554 26.8448 2 37.4062 2V-2C25.7802 -2 16.5253 2.12696 9.90193 10.4757L13.0356 12.9618ZM37.4062 16.2031C34.2771 16.2031 31.4592 17.2296 29.0241 19.2385L31.5696 22.324C33.3012 20.8954 35.2229 20.2031 37.4062 20.2031V16.2031ZM29.0475 19.2195C26.4654 21.2852 24.7048 24.807 23.5184 29.337L27.3879 30.3505C28.4931 26.1305 29.9617 23.6107 31.5463 22.343L29.0475 19.2195ZM23.5204 29.3295C21.9369 35.2813 21.1875 45.069 21.1875 58.5156H25.1875C25.1875 45.0873 25.9485 35.7604 27.3859 30.358L23.5204 29.3295ZM21.1875 58.5156C21.1875 71.9384 21.8561 81.4297 23.2869 86.7678L27.1506 85.7322C25.8731 80.9662 25.1875 71.9679 25.1875 58.5156H21.1875ZM23.2883 86.7728C24.6627 91.8476 26.4869 95.7109 29.0282 97.7962L31.5655 94.7038C30.0444 93.4557 28.4831 90.6524 27.1492 85.7272L23.2883 86.7728ZM29.0475 97.8117C31.4837 99.7607 34.2937 100.75 37.4062 100.75V96.75C35.2063 96.75 33.2767 96.0726 31.5463 94.6883L29.0475 97.8117ZM37.4062 100.75C40.5188 100.75 43.3288 99.7607 45.765 97.8117L43.2662 94.6883C41.5358 96.0726 39.6062 96.75 37.4062 96.75V100.75ZM45.7884 97.7927C48.3491 95.6802 50.1068 92.1496 51.2941 87.6161L47.4246 86.6027C46.3203 90.8192 44.8488 93.3823 43.2429 94.7073L45.7884 97.7927ZM51.291 87.628C52.8759 81.7253 53.625 71.9605 53.625 58.5156H49.625C49.625 71.9457 48.8636 81.2434 47.4278 86.5907L51.291 87.628ZM53.625 58.5156C53.625 45.0951 52.9568 35.626 51.5242 30.3365L47.6633 31.3822C48.9391 36.0927 49.625 45.0612 49.625 58.5156H53.625ZM51.5256 30.3416C50.1504 25.2111 48.2976 21.3081 45.6869 19.2195L43.1881 22.343C44.744 23.5877 46.3288 26.4035 47.6619 31.3772L51.5256 30.3416ZM45.7294 19.2545C43.3377 17.2308 40.5364 16.2031 37.4062 16.2031V20.2031C39.5886 20.2031 41.4748 20.8942 43.1456 22.308L45.7294 19.2545ZM145.531 115V117H147.531V115H145.531ZM123.578 115H121.578V117H123.578V115ZM123.578 32.2656H125.578V27.6574L122.212 30.8048L123.578 32.2656ZM95.2188 48.9062H93.2188V51.6727L95.8457 50.8054L95.2188 48.9062ZM95.2188 28.9844L94.5967 27.0836L93.2188 27.5345V28.9844H95.2188ZM113.891 18.3594L115.116 19.9401L115.124 19.9341L113.891 18.3594ZM127.719 0V-2H126.311L125.836 -0.674453L127.719 0ZM145.531 0H147.531V-2H145.531V0ZM145.531 113H123.578V117H145.531V113ZM125.578 115V32.2656H121.578V115H125.578ZM122.212 30.8048C114.412 38.0981 105.214 43.5001 94.5918 47.0071L95.8457 50.8054C106.994 47.1249 116.702 41.4331 124.944 33.7265L122.212 30.8048ZM97.2188 48.9062V28.9844H93.2188V48.9062H97.2188ZM95.8408 30.8852C101.857 28.9161 108.284 25.2359 115.116 19.9401L112.665 16.7787C106.059 21.8996 100.039 25.3026 94.5967 27.0836L95.8408 30.8852ZM115.124 19.9341C122.094 14.4769 126.956 8.06019 129.602 0.674453L125.836 -0.674453C123.482 5.89814 119.125 11.721 112.658 16.7846L115.124 19.9341ZM127.719 2H145.531V-2H127.719V2ZM143.531 0V115H147.531V0H143.531Z" fill="#E86B31" mask="url(#path-1-outside-1_1391_292647)"/>
</svg>
