<svg width="376" height="325" viewBox="0 0 376 325" fill="none" xmlns="http://www.w3.org/2000/svg">
<path opacity="0.26" d="M122.127 22.9625C116.132 11.0166 88.0279 23.7305 66.3222 39.1929C44.6166 54.6553 24.7988 82.1753 30.7942 94.1212C36.7896 106.066 66.3283 94.7786 88.034 79.3162C109.741 63.8538 128.123 34.9074 122.127 22.9625Z" fill="#637D8B" fill-opacity="0.2"/>
<path opacity="0.26" d="M122.128 22.961C120.042 18.8046 115.276 17.6397 109.038 18.5307C109.271 18.8594 109.482 19.2109 109.672 19.5882C115.667 31.5341 97.2844 60.4794 75.5787 75.9418C61.4006 86.0416 43.8839 94.3563 31.7656 95.5823C39.4616 105.02 67.3101 94.0773 88.0345 79.3136C109.742 63.8522 128.125 34.9058 122.128 22.961Z" fill="#BEE8ED" fill-opacity="0.3"/>
<path opacity="0.26" d="M350.437 325.001C366.178 301.273 388.828 259.356 366.927 241.021C335.503 214.713 384.762 170.194 366.078 129.722C347.393 89.2497 308.325 155.018 233.587 73.0617C158.849 -8.89453 126.575 78.1204 55.2336 107.463C-16.1079 136.805 56.9324 181.324 14.4668 215.726C-18.2214 242.207 12.4955 299.855 28.3742 325.001H350.437Z" fill="#637D8B" fill-opacity="0.2"/>
<path opacity="0.26" d="M350.437 325.001C366.179 301.274 388.828 259.356 366.928 241.021C335.503 214.714 384.763 170.194 366.078 129.723C347.394 89.2502 308.326 155.018 233.587 73.0622C222.582 60.9943 212.498 52.5938 203.074 47.1289C208.198 54.2198 213.012 64.026 216.884 77.5555C233.87 136.915 242.929 163.221 294.454 163.221C345.978 163.221 240.665 242.817 277.468 261.704C298.777 272.64 285.919 302.118 271.316 325.001H350.437Z" fill="#B9DDED" fill-opacity="0.33"/>
<path d="M211.029 200.996C211.344 201.112 213.047 201.738 215.898 202.373L211.029 200.996Z" fill="#DF653B"/>
<path d="M258.249 78.2927C254.045 76.3277 250.334 72.8929 247.696 68.5268C246.748 66.9577 245.915 65.1932 245.809 63.2634C245.703 61.3336 246.502 59.226 248.014 58.522C248.904 58.1075 249.899 58.2181 250.848 58.3618C253.552 58.7701 256.233 59.3872 258.87 60.2079C254.388 58.3649 249.987 56.1033 246.115 52.8431C243.888 50.9671 241.738 48.5442 241.177 45.3647C240.915 43.8783 241.107 42.1211 242.119 41.1959C242.63 40.7287 243.278 40.5385 243.911 40.4011C245.687 40.0176 247.513 39.969 249.301 40.2574C246.19 39.8408 243.747 36.9693 241.728 34.1185C239.181 30.5235 236.79 26.4519 236.364 21.7747C236.111 18.991 236.9 15.6679 239.109 14.7097C241.145 13.8259 243.394 15.3991 244.756 17.4064C246.117 19.4138 246.96 21.878 248.403 23.8027C248.305 21.9566 248.21 20.0795 248.556 18.2768C248.902 16.4731 249.758 14.721 251.135 13.8631C253.092 12.6424 255.622 13.5757 257.178 15.4435C258.735 17.3114 259.501 19.9058 260.035 22.46C260.969 26.9274 261.337 31.5313 261.681 36.1166C263.114 35.0602 263.253 32.1928 264.867 31.6161C265.542 31.3752 266.273 31.646 266.895 32.0399C269.31 33.5655 270.656 36.7792 271.233 39.9618C271.81 43.1444 271.772 46.4428 272.235 49.6523C272.273 49.9158 272.335 50.2156 272.535 50.3386C272.795 50.4999 273.1 50.2611 273.311 50.0192C274.003 49.2316 274.632 48.2238 275.569 47.9964C277.059 47.6346 278.272 49.4269 278.865 51.0942C281.238 57.7695 279.993 65.3927 278.712 72.4794C278.11 75.8109 276.606 79.8483 274.196 81.6851C274.196 81.6851 263.389 80.6959 258.249 78.2927Z" fill="#DF653B"/>
<path d="M265.999 61.577C266.295 55.4496 266.157 49.3066 265.584 43.207C265.55 42.8504 265.089 42.9341 265.122 43.2897C265.669 49.1184 265.817 54.9854 265.564 60.8421C262.023 53.1817 258.255 45.6691 254.269 38.323C253.544 36.9875 252.811 35.6582 252.072 34.3341C252.356 31.657 252.641 28.9798 252.926 26.3026C252.964 25.946 252.499 25.885 252.462 26.2406C252.2 28.7028 251.938 31.1649 251.676 33.6271C249.927 30.5106 248.14 27.4242 246.314 24.3707C246.14 24.0793 245.779 24.4328 245.952 24.7232C247.883 27.9523 249.768 31.2197 251.612 34.5202C251.621 34.547 251.634 34.5719 251.652 34.5915C253.665 38.1969 255.625 41.8446 257.531 45.5306C255.546 45.725 253.59 45.173 251.889 43.9254C251.635 43.7393 251.359 44.189 251.616 44.3771C253.475 45.7405 255.604 46.3255 257.776 46.065C257.786 46.064 257.795 46.0609 257.804 46.0578C262.436 55.0475 266.745 64.2718 270.718 73.6997C264.669 72.7746 259.407 68.762 254.455 64.7617C254.207 64.5612 253.932 65.0119 254.182 65.2134C259.282 69.3336 264.712 73.4516 270.969 74.2961C271.158 74.7468 271.35 75.1965 271.537 75.6482C273.607 80.6335 275.581 85.6746 277.464 90.7653C277.585 91.093 278.012 90.8676 277.891 90.54C275.822 84.9428 273.636 79.4076 271.339 73.9395C271.332 73.9137 271.322 73.8889 271.309 73.8661C269.59 69.776 267.805 65.7241 265.962 61.7114C265.983 61.6752 265.996 61.6318 265.999 61.577Z" fill="#5D1F72"/>
<path d="M275.542 37.6105C279.498 22.6391 288.037 9.25222 299.031 0C302.951 14.3957 303.198 30.2767 299.735 45.1851C297.002 56.9522 291.895 69.0407 284.686 78.1751C275.699 89.5618 273.221 64.6146 273.078 58.6215C272.91 51.572 273.737 44.4388 275.542 37.6105Z" fill="#5D1F72"/>
<path d="M279.416 85.547C279.899 78.9833 280.61 72.4393 281.538 65.9314C283.604 63.647 285.908 61.7813 288.491 60.3187C288.651 60.2277 288.506 59.9672 288.348 60.0582C285.849 61.4722 283.62 63.2656 281.606 65.4373C282.289 60.7094 283.095 56.0021 284.01 51.3197C286.803 48.8245 289.49 46.1949 292.071 43.4267C292.202 43.2872 292 43.0805 291.87 43.22C289.379 45.892 286.789 48.4306 284.1 50.8463C285.247 45.0299 286.579 39.257 288.08 33.5326C290.893 30.8213 293.707 28.1101 296.52 25.3978C296.656 25.2665 296.454 25.0598 296.319 25.191C293.619 27.7927 290.921 30.3934 288.222 32.9951C290.574 24.0974 293.341 15.3228 296.534 6.72381C296.602 6.53982 296.359 6.39717 296.29 6.58323C293.074 15.2452 290.288 24.084 287.924 33.0468C286.611 29.704 285.677 26.2371 285.101 22.6214C285.07 22.426 284.804 22.5201 284.835 22.7134C285.431 26.4624 286.418 30.0533 287.802 33.5109C286.31 39.2022 284.985 44.9421 283.844 50.7243C281.754 46.6 280.241 42.1987 279.298 37.5473C279.259 37.353 278.993 37.4471 279.032 37.6393C280.003 42.4303 281.574 46.9535 283.753 51.1853C283.742 51.2112 283.739 51.238 283.74 51.2649C282.817 55.9846 282.007 60.729 281.32 65.4942C279.412 63.2387 277.738 60.7931 276.283 58.1408C276.191 57.9723 275.954 58.1397 276.046 58.3082C277.551 61.0515 279.282 63.5674 281.266 65.889C280.334 72.4145 279.621 78.9761 279.138 85.5594C279.125 85.7589 279.401 85.7444 279.416 85.547Z" fill="#DF653B"/>
<path d="M312.854 80.6245C324.786 77.8429 337.661 80.1851 348.806 86.723C340.739 96.858 330.041 104.101 318.369 107.331C309.157 109.881 298.678 110.28 289.284 107.345C277.571 103.687 293.455 90.2912 297.47 87.5106C302.192 84.2402 307.411 81.8938 312.854 80.6245Z" fill="#5D1F72"/>
<path d="M281.944 105.508C286.623 103.079 291.39 100.881 296.228 98.9075C298.693 99.8957 300.979 101.297 303.113 103.147C303.245 103.261 303.358 103.007 303.227 102.893C301.163 101.104 298.959 99.7417 296.593 98.7546C300.111 97.3291 303.67 96.0319 307.26 94.8504C310.19 96.4474 313.163 97.8832 316.186 99.1556C316.339 99.2197 316.39 98.9334 316.238 98.8693C313.321 97.6413 310.452 96.2603 307.622 94.7285C312.085 93.271 316.602 92.012 321.159 90.9381C324.244 92.4596 327.33 93.9801 330.416 95.5016C330.566 95.575 330.617 95.2887 330.468 95.2164C327.508 93.7568 324.548 92.2973 321.587 90.8388C328.679 89.1871 335.87 87.9891 343.13 87.281C343.285 87.2655 343.276 86.9688 343.118 86.9833C335.806 87.6965 328.563 88.9049 321.421 90.5742C323.117 87.833 325.063 85.4008 327.27 83.2498C327.39 83.133 327.209 82.918 327.091 83.0327C324.803 85.2623 322.794 87.7989 321.052 90.66C316.521 91.7298 312.031 92.9816 307.592 94.4287C309.477 90.5928 311.805 87.1901 314.554 84.2276C314.669 84.1036 314.488 83.8886 314.374 84.0105C311.542 87.0619 309.157 90.5732 307.237 94.5445C307.215 94.5455 307.196 94.5548 307.178 94.5683C303.559 95.759 299.974 97.0676 296.428 98.5065C297.122 95.6691 298.048 92.9744 299.211 90.3985C299.285 90.2352 299.067 90.0801 298.993 90.2435C297.79 92.9072 296.841 95.6877 296.137 98.6284C291.285 100.607 286.505 102.812 281.813 105.248C281.671 105.32 281.803 105.581 281.944 105.508Z" fill="#DF653B"/>
<path d="M281.795 73.4066C282.415 66.1948 284.815 59.2135 288.619 53.5543C289.986 51.5211 291.607 49.5943 293.67 48.7323C295.734 47.8702 298.32 48.3436 299.634 50.4264C300.408 51.6534 300.646 53.2328 300.834 54.7523C301.366 59.0802 301.664 63.4504 301.723 67.8238C302.11 60.2275 302.982 52.6023 305.135 45.437C306.373 41.3148 308.235 37.1119 311.496 35.0943C313.021 34.1505 315.006 33.8136 316.379 35.0436C317.072 35.6648 317.515 36.5982 317.893 37.5285C318.953 40.1354 319.667 42.9417 319.999 45.8112C319.327 40.8486 321.573 36.0328 323.948 31.8786C326.944 26.64 330.516 21.4697 335.458 19.1202C338.4 17.7206 342.305 17.7413 344.149 20.8092C345.848 23.6373 344.948 27.685 343.252 30.5162C341.558 33.3474 339.178 35.5429 337.603 38.4712C339.58 37.6526 341.59 36.8256 343.68 36.7088C345.77 36.592 347.99 37.2825 349.422 39.0997C351.46 41.6848 351.358 45.9352 349.886 49.0186C348.415 52.1009 345.864 54.2241 343.275 55.974C338.746 59.0347 333.863 61.2684 328.99 63.4577C330.66 65.2924 333.833 64.4696 335.046 66.7571C335.553 67.7132 335.522 68.9412 335.318 70.0462C334.528 74.3317 331.514 77.5763 328.255 79.6199C324.997 81.6634 321.389 82.7973 318.059 84.6723C317.785 84.8264 317.482 85.031 317.419 85.3845C317.337 85.8455 317.708 86.2301 318.048 86.4699C319.156 87.2544 320.482 87.8622 321.07 89.2297C322.002 91.4025 320.489 93.9277 318.886 95.4482C312.471 101.532 303.714 102.365 295.53 102.948C291.682 103.222 286.739 102.355 283.865 99.2934C283.865 99.2934 281.037 82.2236 281.795 73.4066Z" fill="#DF653B"/>
<path d="M302.809 79.3391C309.592 77.5809 316.235 75.1446 322.674 72.0529C323.051 71.872 322.792 71.1878 322.417 71.3676C316.264 74.3228 309.925 76.6723 303.453 78.4006C310.518 70.152 317.342 61.6089 323.903 52.7867C325.096 51.1824 326.279 49.5689 327.454 47.9461C330.473 47.4189 333.494 46.8907 336.514 46.3625C336.916 46.2922 336.814 45.5521 336.413 45.6224C333.636 46.1082 330.859 46.593 328.081 47.0788C330.845 43.2471 333.56 39.3668 336.228 35.4389C336.482 35.0637 335.966 34.6326 335.712 35.0079C332.891 39.1621 330.014 43.2595 327.084 47.3042C327.058 47.329 327.037 47.3579 327.021 47.391C323.82 51.8078 320.555 56.1584 317.229 60.4398C316.299 57.4402 316.193 54.2162 316.938 51.1349C317.049 50.6739 316.46 50.4103 316.347 50.8754C315.534 54.242 315.666 57.7472 316.736 61.0114C316.741 61.0269 316.748 61.0393 316.754 61.0538C308.635 71.4679 300.143 81.4674 291.307 91.0225C290.127 81.333 292.597 71.7449 295.163 62.6394C295.292 62.1826 294.702 61.9211 294.572 62.38C291.929 71.7573 289.405 81.6442 290.748 91.6262C290.324 92.082 289.904 92.5409 289.48 92.9947C284.797 97.9996 280.019 102.875 275.153 107.628C274.84 107.934 275.24 108.513 275.553 108.207C280.903 102.982 286.143 97.6007 291.271 92.0706C291.297 92.0499 291.32 92.0262 291.34 91.9972C295.175 87.8595 298.944 83.6339 302.649 79.3319C302.695 79.3495 302.748 79.3546 302.809 79.3391Z" fill="#5D1F72"/>
<path d="M295.021 57.5703H71.9375V178.335H295.021V57.5703Z" fill="white"/>
<path d="M161.018 78.1875H89.2715V160.563H161.018V78.1875Z" fill="#DF653B"/>
<path opacity="0.44" d="M161.019 121.2L133.279 88.1523H114.188C114.188 88.1523 118.532 112.996 112.137 136.045C110.706 141.201 106.192 142.313 105.48 149.647L117.922 160.565H161.019V121.2Z" fill="#5D1F72"/>
<path d="M135.224 101.043H112.238V105.879H135.224V101.043Z" fill="white"/>
<path d="M141.984 143.879H105.479V149.648H141.984V143.879Z" fill="white"/>
<path d="M132.332 98.3628C132.494 93.4643 132.853 89.6832 133.278 88.1523H129.264V93.9201H125.836V88.1523H121.627V93.9201H118.202V88.1523H114.188C114.613 89.6832 114.972 93.4653 115.133 98.3628H132.332Z" fill="white"/>
<path d="M132.282 108.562H115.18C114.883 121.675 113.201 136.838 108.684 141.251H138.779C134.261 136.837 132.578 121.675 132.282 108.562Z" fill="white"/>
<path d="M220.505 237.371L234.157 268.953L228.457 272.256L204.823 236.639C204.311 235.867 204.131 234.839 204.353 233.884L211.887 200.797C214.592 201.682 223.159 204.06 235.257 203.074C235.146 205.91 233.968 211.43 227.757 218.86C222.928 224.644 220.931 231.769 220.266 234.748C220.07 235.632 220.156 236.567 220.505 237.371Z" fill="#455A64"/>
<path d="M229.296 271.725C229.284 275.242 224.325 279.871 224.325 279.871C224.325 279.871 224.266 280.941 225.33 281.639C226.235 282.233 233.471 277.362 235.595 275.907C235.962 275.656 236.135 275.133 235.994 274.657C235.464 272.864 233.982 269.687 233.662 269.156L229.296 271.725Z" fill="black"/>
<path d="M235.924 203.024C231.435 214.073 195.156 228.863 195.156 228.863L180.096 250.514L173.996 250.219C173.996 250.219 185.088 219.175 186.564 215.658C187.852 212.588 206.376 202.89 211.026 200.492C211.803 200.787 221.401 204.325 235.924 203.024Z" fill="#455A64"/>
<path d="M174.358 250.23C172.896 253.571 166.196 255.149 166.196 255.149C166.196 255.149 165.698 256.133 166.423 257.42C167.04 258.515 175.935 258.115 178.557 257.973C179.009 257.948 179.39 257.551 179.451 257.016C179.686 254.999 179.664 251.164 179.578 250.472L174.358 250.23Z" fill="black"/>
<path d="M187.014 123.639C187.014 123.639 186.78 118.323 185.897 118.218C185.014 118.112 185.061 120.104 185.061 120.104C185.061 120.104 183.587 116.064 182.763 116.377C181.433 116.88 182.149 119.905 183.974 125.164L187.014 123.639Z" fill="#E4897B"/>
<path d="M232.786 158.939L206.511 119.273L202.531 120.678C202.531 120.678 218.893 161.793 223.61 165.129C228.327 168.466 232.786 158.939 232.786 158.939Z" fill="#DF653B"/>
<path d="M203.236 120.409C203.236 120.409 200.544 116.161 201.163 115.403C201.781 114.645 202.822 116.206 202.822 116.206C202.822 116.206 201.767 111.985 202.566 111.591C203.857 110.956 204.942 113.822 206.387 119.244L203.236 120.409Z" fill="#E4897B"/>
<path d="M218.751 140.814C218.751 140.814 215.769 138.722 216.927 135.202C216.946 135.146 216.976 135.098 216.999 135.047C217.879 133.188 219.879 132.899 221.339 134.135C221.634 134.386 222.104 134.518 222.831 134.427C225.739 134.065 230.124 135.823 229.994 143.529C229.864 151.235 226.261 152.58 225.002 152.735L224.969 150.744L218.751 140.814Z" fill="#472E03"/>
<path d="M224.678 146.359C224.678 146.359 226.241 144.885 226.599 146.631C226.958 148.377 226.371 150.355 224.972 150.743L225.135 153.846H220.121V151.247C220.121 151.247 216.698 150.082 217.158 145.701C217.559 141.873 218.753 140.812 218.753 140.812C218.753 140.812 221.487 143.26 224.6 143.202C224.6 143.202 224.027 145.739 224.678 146.359Z" fill="#E4897B"/>
<path d="M221.617 152.139C222.224 152.01 224.026 149.527 224.026 149.527C221.573 151.674 220.119 151.247 220.119 151.247V153.846H221.335C221.337 152.912 221.407 152.184 221.617 152.139Z" fill="#F48C6C"/>
<path d="M235.924 203.022C220.77 204.384 210.978 200.467 210.978 200.467L214.324 171.777C214.324 171.777 200.763 163.699 197.519 161.065C194.366 158.505 183.516 125.416 183.516 125.416L187.348 123.484L202.088 152.284C202.088 152.284 210.12 153.524 213.336 153.587C216.553 153.652 225.988 153.716 225.988 153.716C225.988 153.716 236.055 156.673 234.665 168.001C232.822 183.017 235.924 203.022 235.924 203.022Z" fill="url(#paint0_linear_1571_47827)"/>
<path d="M215.9 201.874C217.091 192.063 219.658 170.379 219.178 169.692C218.556 168.802 206.606 162.722 200.257 160.349C193.946 157.991 184.095 125.561 183.98 125.184L183.959 125.195L183.629 125.767C184.786 129.273 194.553 158.659 197.518 161.067C200.761 163.701 214.322 171.779 214.322 171.779L210.977 200.469C210.977 200.469 212.733 201.168 215.9 201.874Z" fill="#E86B31" fill-opacity="0.4"/>
<path d="M211.03 200.496C206.386 202.892 187.853 212.591 186.57 215.665C185.091 219.177 173.994 250.214 173.994 250.214L176.666 250.348C179.907 241.605 187.666 220.894 189.429 218.329C191.672 215.066 215.9 201.872 215.9 201.872L211.03 200.496Z" fill="#0F4360"/>
<path d="M341.051 241.807C334.696 248.858 324.916 249.126 318.295 242.43L317.678 241.807L328.715 215.051L341.051 241.807Z" fill="#DF653B"/>
<path opacity="0.19" d="M328.715 215.051L328.657 215.191L328.718 215.107L333.066 241.807C330.829 244.29 328.162 245.914 325.363 246.706C330.794 248.263 336.718 246.614 341.051 241.807L328.715 215.051Z" fill="#1E5A82"/>
<path d="M341.053 241.809H317.68V325.002H341.053V241.809Z" fill="#5D1F72"/>
<path opacity="0.06" d="M341.051 241.809H332.617V325.002H341.051V241.809Z" fill="black"/>
<path d="M334.39 227.358L328.715 215.051L323.639 227.358H334.39Z" fill="#5D1F72"/>
<path d="M192.661 120.163C202.286 120.163 210.089 110.867 210.089 99.3997C210.089 87.9326 202.286 78.6367 192.661 78.6367C183.035 78.6367 175.232 87.9326 175.232 99.3997C175.232 110.867 183.035 120.163 192.661 120.163Z" fill="#5D1F72"/>
<path d="M205.321 107.442C209.05 96.8704 204.88 84.6993 196.006 80.2569C187.132 75.8146 176.916 80.7832 173.187 91.3547C169.458 101.926 173.629 114.097 182.503 118.54C191.376 122.982 201.593 118.013 205.321 107.442Z" fill="#DF653B"/>
<path d="M189.256 115.257C196.607 115.257 202.566 108.158 202.566 99.4002C202.566 90.6425 196.607 83.543 189.256 83.543C181.905 83.543 175.945 90.6425 175.945 99.4002C175.945 108.158 181.905 115.257 189.256 115.257Z" fill="white"/>
<path d="M189.258 87.5586C183.767 87.5586 179.316 92.8612 179.316 99.4022C179.316 105.943 183.767 111.246 189.258 111.246C194.748 111.246 199.199 105.943 199.199 99.4022C199.199 92.8612 194.749 87.5586 189.258 87.5586ZM189.258 107.444C185.53 107.444 182.508 103.844 182.508 99.4022C182.508 94.9606 185.53 91.3604 189.258 91.3604C192.986 91.3604 196.008 94.9606 196.008 99.4022C196.009 103.844 192.986 107.444 189.258 107.444ZM189.258 103.204C187.496 103.204 186.067 101.502 186.067 99.4022C186.067 97.3028 187.496 95.6004 189.258 95.6004C191.02 95.6004 192.449 97.3028 192.449 99.4022C192.449 101.502 191.021 103.204 189.258 103.204Z" fill="#DF653B"/>
<path d="M266.873 98.2874H195.456V95.0117L188.689 99.6663L195.456 104.322V101.046H266.873V98.2874Z" fill="#5D1F72"/>
<path d="M274.797 88.8594H252.9L245.025 98.2915H266.923L274.797 88.8594Z" fill="#DF653B"/>
<path d="M245.025 101H266.923L274.797 110.431H252.9L245.025 101Z" fill="#DF653B"/>
<path d="M276.636 171.828H249.344V194.363H276.636V171.828Z" fill="#DF653B"/>
<path d="M255.898 175.254C253.039 178.66 253.039 184.182 255.898 187.586C258.757 190.992 263.392 190.992 266.25 187.586L255.898 175.254Z" fill="#DF653B"/>
<path d="M269.731 191.762C272.59 188.356 272.59 182.834 269.731 179.429C266.872 176.024 262.237 176.024 259.379 179.429L269.731 191.762Z" fill="#5D1F72"/>
<path d="M280.772 151.52H259.871V172.016H280.772V151.52Z" fill="#DF653B"/>
<path d="M268.471 167.119L274.162 163.553C274.975 163.043 274.975 161.656 274.162 161.146L268.471 157.58C267.711 157.104 266.799 157.76 266.799 158.783V165.916C266.799 166.938 267.711 167.594 268.471 167.119Z" fill="#5D1F72"/>
<path d="M284.908 194.238H257.615V227.392H284.908V194.238Z" fill="#5D1F72"/>
<path d="M261.984 200.125V220.838H262.688H279.834H280.539V200.125H261.984ZM278.93 202.08V213.02L276.722 210.389L270.097 218.291L266.032 213.458L263.591 216.366V202.08H278.93Z" fill="#DF653B"/>
<path d="M269.775 208.07C269.775 206.944 269.009 206.031 268.065 206.031C267.12 206.031 266.354 206.944 266.354 208.07C266.354 209.195 267.12 210.108 268.065 210.108C269.009 210.108 269.775 209.195 269.775 208.07Z" fill="#DF653B"/>
<path d="M41.9253 196.542C53.474 192.376 60.0013 177.846 56.5045 164.087C53.0077 150.329 40.8109 142.553 29.2623 146.719C17.7136 150.885 11.1863 165.415 14.6831 179.173C18.1799 192.932 30.3767 200.708 41.9253 196.542Z" fill="#DF653B"/>
<path d="M50.2944 171.631C50.2944 171.631 43.7116 179.379 35.5906 179.379C27.4703 179.379 20.8867 171.631 20.8867 171.631C20.8867 171.631 27.4695 163.883 35.5906 163.883C43.7116 163.884 50.2944 171.631 50.2944 171.631Z" fill="white"/>
<path d="M39.4132 171.968C39.4132 169.452 37.7013 167.414 35.5904 167.414C33.4786 167.414 31.7676 169.453 31.7676 171.968C31.7676 174.483 33.4794 176.523 35.5904 176.523C37.7022 176.523 39.4132 174.484 39.4132 171.968Z" fill="#DF653B"/>
<path opacity="0.5" d="M50.294 171.629C50.294 171.629 43.7156 179.375 35.5928 179.375C27.9732 179.375 21.7193 172.564 20.9688 171.721L41.8276 196.576C48.878 194.078 54.4353 187.457 56.5315 179.058L50.294 171.629Z" fill="#5D1F72"/>
<path d="M328.095 169.117C340.504 169.117 350.564 157.133 350.564 142.35C350.564 127.566 340.504 115.582 328.095 115.582C315.686 115.582 305.627 127.566 305.627 142.35C305.627 157.133 315.686 169.117 328.095 169.117Z" fill="#DF653B"/>
<path d="M343.124 145.658V139.038L338.993 137.931C338.832 137.367 338.642 136.819 338.423 136.291L340.687 132.028L336.758 127.348L333.181 130.045C332.738 129.784 332.277 129.558 331.804 129.367L330.875 124.445H325.319L324.389 129.367C323.916 129.559 323.456 129.784 323.012 130.045L319.434 127.348L315.506 132.028L317.769 136.291C317.551 136.819 317.361 137.367 317.2 137.931L313.068 139.038V145.658L317.2 146.765C317.361 147.329 317.551 147.877 317.769 148.405L315.506 152.667L319.434 157.348L323.012 154.651C323.456 154.911 323.916 155.138 324.389 155.33L325.319 160.251H330.875L331.804 155.33C332.278 155.138 332.738 154.912 333.181 154.651L336.758 157.348L340.687 152.667L338.423 148.405C338.642 147.877 338.832 147.328 338.993 146.765L343.124 145.658ZM328.096 147.915C325.515 147.915 323.423 145.423 323.423 142.348C323.423 139.273 325.515 136.781 328.096 136.781C330.677 136.781 332.769 139.273 332.769 142.348C332.769 145.422 330.677 147.915 328.096 147.915Z" fill="white"/>
<path d="M243.063 303.662V280.875H201.488V258.098H159.912V279.233V279.299V302.021V302.075V324.863H201.487H201.488H242.625H243.063H284.2V303.662H243.063Z" fill="#DF653B"/>
<path d="M201.488 280.875V325L243.064 280.875H201.488Z" fill="#5D1F72"/>
<path d="M243.062 303.66L284.2 324.861V303.66H243.062Z" fill="#DF653B"/>
<path opacity="0.46" d="M201.487 287.643V324.867H180.532L172.451 315.23V311.561L175.361 304.283L170.08 283.15L188.954 272.812C189.209 273.016 195.138 280.071 201.487 287.643Z" fill="#DF653B"/>
<path d="M188.321 311.562H172.451V315.231H177.011V315.654C177.011 317.875 178.522 319.675 180.386 319.675C182.249 319.675 183.761 317.874 183.761 315.654V315.231H188.32V311.562H188.321Z" fill="white"/>
<path d="M180.686 290.23H180.087H178.484V309.651H182.289V290.23H180.686Z" fill="white"/>
<path d="M175.396 284.23C174.32 284.23 173.445 285.272 173.445 286.552C173.445 287.833 174.32 288.874 175.396 288.874H177.344V286.552C177.344 285.272 176.47 284.23 175.396 284.23Z" fill="white"/>
<path d="M179.365 269.48C172.156 270.076 166.391 277.173 166.107 285.775C165.938 290.9 167.672 295.544 170.535 298.79C172.644 301.18 173.9 304.443 173.9 307.91V309.651H177.346V290.23H175.397C173.694 290.23 172.308 288.581 172.308 286.552C172.308 284.524 173.694 282.874 175.397 282.874C177.099 282.874 178.484 284.524 178.484 286.552V288.873H180.086H180.685H182.288V286.552C182.288 284.524 183.672 282.874 185.375 282.874C187.078 282.874 188.463 284.524 188.463 286.552C188.463 288.58 187.078 290.23 185.375 290.23H183.426V309.651H186.871V307.977C186.871 304.548 188.031 301.243 190.135 298.903C192.928 295.797 194.676 291.374 194.676 286.462C194.675 276.657 187.718 268.788 179.365 269.48Z" fill="white"/>
<path d="M187.325 286.552C187.325 285.272 186.45 284.23 185.374 284.23C184.299 284.23 183.426 285.272 183.426 286.552V288.874H185.374C186.449 288.874 187.325 287.833 187.325 286.552Z" fill="white"/>
<path d="M149.248 223.273H63.8594V325H149.248V223.273Z" fill="#DF653B"/>
<path d="M63.8594 223.273L149.248 325H63.8594V223.273Z" fill="#DF653B"/>
<path d="M106.553 274.137L63.8594 325.001H149.248L106.553 274.137Z" fill="#5D1F72"/>
<path d="M304.447 280.064L306.162 315.957H300.948L292.603 281.803C291.998 271.089 291.281 245.473 291.102 238.855C296.614 239.983 303.687 240.319 306.17 240.411C307.885 253.492 304.447 280.064 304.447 280.064Z" fill="#455A64"/>
<path d="M306.212 240.758C306.212 240.758 305.58 253.799 294.156 255.538C285.069 256.93 274.565 264.067 274.565 264.067L263.703 296.3L257.219 296.168L262.858 255.712L284.488 236.266C287.414 239.315 300.435 240.169 305.264 240.383L306.212 240.758Z" fill="#455A64"/>
<path d="M265.577 257.863L288.065 235.858L285.207 235.621L262.861 255.712L257.223 296.167L258.72 296.196L265.577 257.863Z" fill="#0F4360"/>
<path d="M291.896 183.922C292.265 187.106 294.692 188.913 297.614 188.665L297.543 193.127L303.344 191.782C303.344 191.782 302.858 188.657 303.271 186.823C300.706 187.431 300.138 184.709 300.138 184.709C301.643 183.712 301.005 181.777 300.458 181.327C299.908 180.878 299.227 181.68 299.227 181.68C299.227 181.68 298.719 185.106 298.42 183.861C298.151 182.744 297.904 179.457 296.589 179.42C294.395 179.357 293.752 178.961 293.752 178.961C293.201 178.714 292.779 178.338 292.462 177.879C292.189 179.198 291.604 181.391 291.896 183.922Z" fill="#E4897B"/>
<path d="M299.225 181.679C299.225 181.679 299.907 180.876 300.456 181.325C301.004 181.776 301.642 183.709 300.137 184.707C300.137 184.707 300.641 189.009 303.114 189.075C303.114 189.075 306.652 175.818 302.721 172.741C292.991 165.126 289.472 177.137 293.109 178.769C293.109 178.769 294.393 179.357 296.587 179.419C297.902 179.457 298.149 182.743 298.418 183.861C298.717 185.103 299.225 181.679 299.225 181.679Z" fill="#472E03"/>
<path d="M298.844 189.408C299.182 189.106 300.109 187.031 300.109 187.031C299.378 187.935 297.614 188.661 297.614 188.661L297.543 193.124L298.648 192.867C298.641 191.237 298.675 189.56 298.844 189.408Z" fill="#F48C6C"/>
<path d="M304.785 191.55C304.785 191.55 309.936 195.717 308.416 209.319C306.896 222.921 304.933 235.904 307.086 240.438C307.086 240.438 287.834 240.026 284.414 236.18C284.414 236.18 286.826 217.685 292.014 203.756C293.743 199.113 293.534 195.444 297.206 192.696C298.803 191.5 302.11 191.166 304.785 191.55Z" fill="url(#paint1_linear_1571_47827)"/>
<path d="M300.985 215.406C300.985 215.406 294.905 229.892 293.469 230.797C292.033 231.703 273.71 231.301 273.71 231.301C273.71 231.301 266.787 233.414 264.676 227.78H273.71L287.305 225.667L291.95 210.578L300.985 215.406Z" fill="#E4897B"/>
<path d="M300.944 315.957C299.531 319.328 292.926 320.969 292.926 320.969C292.926 320.969 292.443 321.964 293.186 323.235C293.82 324.318 302.708 323.73 305.326 323.533C305.779 323.499 306.152 323.094 306.207 322.558C306.412 320.535 306.254 316.648 306.158 315.957H300.944Z" fill="black"/>
<path d="M257.664 296.142C256.252 299.512 249.647 301.154 249.647 301.154C249.647 301.154 249.163 302.148 249.907 303.419C250.54 304.502 259.428 303.914 262.047 303.716C262.499 303.682 262.873 303.278 262.928 302.742C263.132 300.72 262.974 296.831 262.879 296.141H257.664V296.142Z" fill="black"/>
<path d="M289.801 213.36C289.801 213.36 291.537 208.313 293.065 203.545C294.862 197.938 296.761 192.507 300.971 193.076C309.241 194.196 302.616 217.541 302.616 217.541L289.801 213.36Z" fill="url(#paint2_linear_1571_47827)"/>
<path d="M301.907 193.301C301.907 193.301 301.907 193.311 301.907 193.331C308.714 196.044 302.612 217.536 302.612 217.536L300.386 216.807C298.814 220.472 294.625 230.058 293.469 230.798C292.854 231.179 289.175 231.331 285.145 231.373C284.97 232.43 284.828 233.336 284.715 234.074C287.876 234.004 293.658 233.793 294.37 233.186C295.356 232.346 301.907 221.179 301.907 221.179L304.448 220.846C304.448 220.846 306.495 209.761 306.631 202.117C306.776 194.475 301.907 193.301 301.907 193.301Z" fill="url(#paint3_linear_1571_47827)"/>
<path d="M116.6 264.337C117.677 268.426 124.848 271.686 124.848 271.686C124.848 271.686 125.24 272.906 124.213 274.174C123.337 275.255 113.444 272.689 110.532 271.906C110.029 271.77 109.67 271.236 109.69 270.622C109.766 268.306 110.531 263.973 110.742 263.219L116.6 264.337Z" fill="black"/>
<path d="M144.555 246.723C146.577 250.267 154.233 250.923 154.233 250.923C154.233 250.923 154.904 251.957 154.227 253.524C153.651 254.86 143.556 255.804 140.579 256.054C140.065 256.098 139.592 255.709 139.463 255.115C138.974 252.872 138.657 248.46 138.677 247.665L144.555 246.723Z" fill="black"/>
<path d="M84.5247 171.644C84.5247 171.644 83.0671 130.366 85.0106 124H89.8677C89.8677 124 91.3253 164.507 93.4293 169.908C95.5351 175.308 84.5247 171.644 84.5247 171.644Z" fill="url(#paint4_linear_1571_47827)"/>
<path d="M101.709 204.453C101.709 204.453 128.788 204.876 134.12 208.105C139.453 211.334 144.976 246.667 144.976 246.667L138.182 248.016L130.244 222.646C130.244 222.646 104.375 221.927 101.709 204.453Z" fill="#455A64"/>
<path d="M84.2608 204.967C84.2608 204.967 83.5945 223.059 93.8152 223.486C104.036 223.913 118.701 224.056 118.701 224.056L110.035 263.089L117.478 264.656C117.478 264.656 131.921 220.779 132.032 216.506C132.143 212.232 103.359 204.285 103.359 204.285L84.2608 204.967Z" fill="#455A64"/>
<path d="M96.2331 165.352C96.2331 165.352 103.319 172.054 101.732 178.411C100.146 184.768 104.87 204.666 104.87 204.666L84.2814 205.042C84.2814 205.042 87.0214 186.83 84.5703 178.755C82.1193 170.68 86.552 162.774 96.2331 165.352Z" fill="url(#paint5_linear_1571_47827)"/>
<path d="M86.3366 170.936C86.3366 170.936 87.9947 164.149 95.7826 170.077C103.571 176.004 107.582 177.261 107.582 177.261L123.773 161.73L127.776 164.307L109.386 186.452C109.385 186.453 82.5511 183.823 86.3366 170.936Z" fill="url(#paint6_linear_1571_47827)"/>
<path d="M94.5848 162.606L94.3627 165.332H89.6375V161.106C89.6375 161.106 87.2073 159.944 87.5153 157.813C87.8233 155.681 89.7234 156.879 89.7234 156.879C91.9871 156.777 91.9871 153.23 91.9871 153.23C93.2703 154.296 97.1261 153.315 97.1261 153.315C99.1685 161.305 94.5848 162.606 94.5848 162.606Z" fill="#E4897B"/>
<path d="M89.8124 165.332H89.6406V161.105C89.6406 161.105 90.4796 162.695 89.8124 165.332Z" fill="#F48C6C"/>
<path d="M94.5851 162.607L94.363 165.333H93.1197C93.15 164.334 93.1145 163.449 92.9071 163.323C92.4065 163.022 91.0625 161.523 91.0625 161.523C92.1549 162.276 94.5851 162.607 94.5851 162.607Z" fill="#F48C6C"/>
<path d="M97.1287 153.316C97.1287 153.316 93.2729 154.297 91.9897 153.231C91.9897 153.231 91.9897 156.778 89.726 156.88C89.726 156.88 87.8259 155.682 87.5179 157.813C87.2099 159.945 89.6401 161.106 89.6401 161.106C89.6401 161.106 90.4791 162.696 89.8119 165.333C89.595 166.176 89.2306 167.121 88.6345 168.163C86.9062 171.186 87.3357 172.36 88.887 175.954C90.4383 179.554 81.6761 185.659 78.7443 179.915C75.8082 174.177 77.8194 173.708 80.3364 167.115C82.8535 160.522 82.9723 160.171 82.4318 156.679C81.886 153.181 83.7983 148.212 88.7603 146.345C93.541 144.544 99.2561 146.856 97.1287 153.316Z" fill="#472E03"/>
<path opacity="0.2" d="M104.875 204.664L101.283 204.725C100.796 196.838 99.3885 187.598 95.5319 185.737C92.3919 184.223 90.1907 181.59 88.7148 179.16C91.8461 182.138 97.111 183.968 101.547 185.046C102.188 193.341 104.875 204.664 104.875 204.664Z" fill="#DF653B"/>
<path opacity="0.67" d="M117.478 264.656C117.478 264.656 131.921 220.779 132.032 216.506C132.143 212.232 103.359 204.285 103.359 204.285L102.463 204.317L101.281 204.725C101.281 204.725 126.668 215.19 127.801 217.213C128.81 219.016 118.732 256.336 116.522 264.454L117.478 264.656Z" fill="#0F4360"/>
<path d="M127.619 164.211C127.619 164.211 135.486 161.584 133.978 160.637C133.772 160.508 128.441 160.577 125.98 160.617C125.187 160.629 124.425 160.989 123.821 161.634L123.803 161.747L127.619 164.211Z" fill="#E4897B"/>
<path d="M89.3821 124.49L89.1591 116.902C86.5596 116.986 85.7562 122.751 85.5723 124.49H89.3821Z" fill="#E4897B"/>
<path d="M43.0215 291.925L43.2323 292.549C45.4005 291.862 48.498 290.403 50.8137 287.345C54.7606 282.131 60.4896 276.795 63.2808 270.337C67.0949 261.514 80.303 250.312 80.303 250.312C80.303 250.312 66.249 253.39 58.0238 264.45C49.7995 275.51 49.5852 281.56 48.8286 285.1C48.0217 288.879 45.1993 290.901 43.0215 291.925Z" fill="#9DD5FC"/>
<path d="M43.0664 292.058L43.2321 292.549C45.4004 291.862 48.4978 290.403 50.8135 287.345C54.7604 282.131 60.4894 276.795 63.2806 270.337C67.0947 261.514 80.3028 250.312 80.3028 250.312C80.3028 250.312 63.8203 258.453 60.5979 265.514C57.3746 272.577 58.7325 271.787 55.2116 277.752C51.6907 283.716 50.7381 285.484 48.2974 288.311C46.7348 290.119 44.4893 291.379 43.0664 292.058Z" fill="#DF653B"/>
<path d="M42.1694 290.827C42.1694 290.827 43.0457 287.978 40.3664 279.071C37.6863 270.165 33.69 262.064 32.8857 251.736C32.0814 241.408 36.03 213.472 35.7358 211.79C35.4417 210.109 44.1094 240.181 41.9082 253.805C39.7079 267.43 39.976 271.83 41.4171 278.172C42.8583 284.513 43.6062 289.752 43.3945 291.399L42.1694 290.827Z" fill="#9DD5FC"/>
<path d="M39.4294 272.077C40.7517 276.01 43.0596 286.189 42.6891 288.919C42.6544 289.173 42.5156 289.079 42.2917 288.699C42.2214 286.917 41.8145 283.885 40.3664 279.073C37.6863 270.167 33.69 262.067 32.8857 251.738C32.0814 241.41 36.03 213.475 35.7358 211.793C35.7358 211.793 38.4585 233.163 36.7753 248.998C35.571 260.335 38.1071 268.145 39.4294 272.077Z" fill="#DF653B"/>
<path d="M44.3914 288.426C44.3914 288.426 41.2575 273.905 46.1579 261.527C51.0583 249.15 58.939 233.299 59.0293 226.941C59.0293 226.941 61.4361 257.2 54.9722 265.581C48.5074 273.962 43.9228 275.208 45.2069 288.393L44.3914 288.426Z" fill="#9DD5FC"/>
<path d="M51.1464 259.413C43.9476 269.583 43.4826 281.499 44.679 287.062C44.7719 287.495 44.9419 287.762 45.1641 287.907C44.0422 275.184 48.5886 273.857 54.971 265.581C61.4349 257.201 59.028 226.941 59.028 226.941C59.028 226.941 58.3452 249.242 51.1464 259.413Z" fill="#DF653B"/>
<path d="M40.3369 288.513L37.7131 280.159C27.9913 249.665 7.19922 250.806 7.19922 250.806C9.40215 251.093 21.4007 260.119 23.8162 269.019C24.9502 273.2 28.8346 275.844 32.2149 277.511C34.653 278.713 36.5653 281.085 37.5093 284.02C38.317 286.531 38.8124 288.782 38.8124 288.782L40.3369 288.513Z" fill="#9DD5FC"/>
<path d="M27.5418 269.063C30.3747 274.342 33.6604 276.264 36.5132 276.728C26.3853 249.769 7.19922 250.806 7.19922 250.806C7.63477 250.863 8.46163 251.271 9.51321 251.942C13.6935 254.174 22.5382 259.74 27.5418 269.063Z" fill="#DF653B"/>
<path d="M57.2492 286.543H33.5341C30.703 286.543 28.5591 289.59 29.0536 292.911L33.312 321.52C33.6122 323.533 35.0811 325 36.7973 325H53.9869C55.7031 325 57.1729 323.533 57.4722 321.52L61.7306 292.911C62.2243 289.59 60.0803 286.543 57.2492 286.543Z" fill="#DF653B"/>
<path d="M61.6289 290.49C61.0944 288.245 59.3643 286.543 57.2482 286.543H33.533C31.4177 286.543 29.6868 288.244 29.1523 290.49H61.6289Z" fill="#DF653B"/>
<path d="M57.2507 286.543H51.2007C54.0318 286.543 56.1757 289.59 55.6812 292.911L51.4228 321.52C51.1235 323.533 49.6537 325 47.9375 325H53.9875C55.7037 325 57.1735 323.533 57.4728 321.52L61.7312 292.911C62.2258 289.59 60.0818 286.543 57.2507 286.543Z" fill="#DF653B"/>
<defs>
<linearGradient id="paint0_linear_1571_47827" x1="184.427" y1="157.854" x2="236.114" y2="158.512" gradientUnits="userSpaceOnUse">
<stop stop-color="#FB8D48"/>
<stop offset="0.2" stop-color="#ED7136"/>
<stop offset="0.3999" stop-color="#C54E47"/>
<stop offset="0.4" stop-color="#C14F49"/>
<stop offset="0.6" stop-color="#9D3863"/>
<stop offset="0.8" stop-color="#5E1F72"/>
</linearGradient>
<linearGradient id="paint1_linear_1571_47827" x1="295.5" y1="237" x2="289.839" y2="205.7" gradientUnits="userSpaceOnUse">
<stop stop-color="#FB8D48"/>
<stop offset="0.2" stop-color="#ED7136"/>
<stop offset="0.3999" stop-color="#C54E47"/>
<stop offset="0.4" stop-color="#C14F49"/>
<stop offset="0.6" stop-color="#9D3863"/>
<stop offset="0.8" stop-color="#5E1F72"/>
</linearGradient>
<linearGradient id="paint2_linear_1571_47827" x1="297" y1="222.5" x2="297.109" y2="196.467" gradientUnits="userSpaceOnUse">
<stop stop-color="#FB8D48"/>
<stop offset="0.2" stop-color="#ED7136"/>
<stop offset="0.3999" stop-color="#C54E47"/>
<stop offset="0.4" stop-color="#C14F49"/>
<stop offset="0.6" stop-color="#9D3863"/>
<stop offset="0.8" stop-color="#5E1F72"/>
</linearGradient>
<linearGradient id="paint3_linear_1571_47827" x1="303" y1="234" x2="295.667" y2="210.613" gradientUnits="userSpaceOnUse">
<stop stop-color="#FB8D48"/>
<stop offset="0.2" stop-color="#ED7136"/>
<stop offset="0.3999" stop-color="#C54E47"/>
<stop offset="0.4" stop-color="#C14F49"/>
<stop offset="0.6" stop-color="#9D3863"/>
<stop offset="0.8" stop-color="#5E1F72"/>
</linearGradient>
<linearGradient id="paint4_linear_1571_47827" x1="84.1686" y1="145.036" x2="93.7334" y2="145.073" gradientUnits="userSpaceOnUse">
<stop stop-color="#FB8D48"/>
<stop offset="0.2" stop-color="#ED7136"/>
<stop offset="0.3999" stop-color="#C54E47"/>
<stop offset="0.4" stop-color="#C14F49"/>
<stop offset="0.6" stop-color="#9D3863"/>
<stop offset="0.8" stop-color="#5E1F72"/>
</linearGradient>
<linearGradient id="paint5_linear_1571_47827" x1="84.2708" y1="182.158" x2="104.947" y2="182.367" gradientUnits="userSpaceOnUse">
<stop stop-color="#FB8D48"/>
<stop offset="0.2" stop-color="#ED7136"/>
<stop offset="0.3999" stop-color="#C54E47"/>
<stop offset="0.4" stop-color="#C14F49"/>
<stop offset="0.6" stop-color="#9D3863"/>
<stop offset="0.8" stop-color="#5E1F72"/>
</linearGradient>
<linearGradient id="paint6_linear_1571_47827" x1="86.6977" y1="172.375" x2="127.889" y2="173.725" gradientUnits="userSpaceOnUse">
<stop stop-color="#FB8D48"/>
<stop offset="0.2" stop-color="#ED7136"/>
<stop offset="0.3999" stop-color="#C54E47"/>
<stop offset="0.4" stop-color="#C14F49"/>
<stop offset="0.6" stop-color="#9D3863"/>
<stop offset="0.8" stop-color="#5E1F72"/>
</linearGradient>
</defs>
</svg>
