<svg width="164" height="117" viewBox="0 0 164 117" fill="none" xmlns="http://www.w3.org/2000/svg">
<mask id="path-1-outside-1_1391_295324" maskUnits="userSpaceOnUse" x="-1.5" y="-1" width="166" height="119" fill="black">
<rect fill="white" x="-1.5" y="-1" width="166" height="119"/>
<path d="M37.4062 0C48.5 0 57.1719 3.95833 63.4219 11.875C70.8698 21.25 74.5938 36.7969 74.5938 58.5156C74.5938 80.1823 70.8438 95.7552 63.3438 105.234C57.1458 113.047 48.5 116.953 37.4062 116.953C26.2604 116.953 17.276 112.682 10.4531 104.141C3.63021 95.5469 0.21875 80.2604 0.21875 58.2812C0.21875 36.7188 3.96875 21.1979 11.4688 11.7188C17.6667 3.90625 26.3125 0 37.4062 0ZM37.4062 18.2031C34.75 18.2031 32.3802 19.0625 30.2969 20.7812C28.2135 22.4479 26.599 25.4688 25.4531 29.8438C23.9427 35.5208 23.1875 45.0781 23.1875 58.5156C23.1875 71.9531 23.8646 81.1979 25.2188 86.25C26.5729 91.25 28.2656 94.5833 30.2969 96.25C32.3802 97.9167 34.75 98.75 37.4062 98.75C40.0625 98.75 42.4323 97.9167 44.5156 96.25C46.599 94.5312 48.2135 91.4844 49.3594 87.1094C50.8698 81.4844 51.625 71.9531 51.625 58.5156C51.625 45.0781 50.9479 35.8594 49.5938 30.8594C48.2396 25.8073 46.5208 22.4479 44.4375 20.7812C42.4062 19.0625 40.0625 18.2031 37.4062 18.2031ZM163.5 94.6094V115H86.5469C87.3802 107.292 89.8802 100 94.0469 93.125C98.2135 86.1979 106.443 77.0312 118.734 65.625C128.63 56.4062 134.698 50.1562 136.938 46.875C139.958 42.3438 141.469 37.8646 141.469 33.4375C141.469 28.5417 140.141 24.7917 137.484 22.1875C134.88 19.5312 131.26 18.2031 126.625 18.2031C122.042 18.2031 118.396 19.5833 115.688 22.3438C112.979 25.1042 111.417 29.6875 111 36.0938L89.125 33.9062C90.4271 21.8229 94.5156 13.151 101.391 7.89062C108.266 2.63021 116.859 0 127.172 0C138.474 0 147.354 3.04688 153.812 9.14062C160.271 15.2344 163.5 22.8125 163.5 31.875C163.5 37.0312 162.562 41.9531 160.688 46.6406C158.865 51.276 155.948 56.1458 151.938 61.25C149.281 64.6354 144.49 69.5052 137.562 75.8594C130.635 82.2135 126.234 86.4323 124.359 88.5156C122.536 90.599 121.052 92.6302 119.906 94.6094H163.5Z"/>
</mask>
<path d="M63.4219 11.875L62.637 12.4946L62.6389 12.497L63.4219 11.875ZM63.3438 105.234L64.1272 105.856L64.128 105.855L63.3438 105.234ZM10.4531 104.141L9.66994 104.762L9.67179 104.765L10.4531 104.141ZM11.4688 11.7188L10.6853 11.0972L10.6845 11.0983L11.4688 11.7188ZM30.2969 20.7812L30.9216 21.5621L30.9274 21.5574L30.9333 21.5526L30.2969 20.7812ZM25.4531 29.8438L26.4195 30.1009L26.4205 30.0971L25.4531 29.8438ZM25.2188 86.25L24.2528 86.5089L24.2535 86.5114L25.2188 86.25ZM30.2969 96.25L29.6625 97.0231L29.6722 97.0309L30.2969 96.25ZM44.5156 96.25L45.1403 97.0309L45.1462 97.0262L45.152 97.0214L44.5156 96.25ZM49.3594 87.1094L48.3936 86.85L48.392 86.856L49.3594 87.1094ZM49.5938 30.8594L48.6278 31.1183L48.6285 31.1208L49.5938 30.8594ZM44.4375 20.7812L43.7916 21.5446L43.8021 21.5535L43.8128 21.5621L44.4375 20.7812ZM37.4062 1C48.2289 1 56.5973 4.84435 62.637 12.4946L64.2068 11.2554C57.7465 3.07232 48.7711 -1 37.4062 -1V1ZM62.6389 12.497C69.8708 21.6002 73.5938 36.8605 73.5938 58.5156H75.5938C75.5938 36.7332 71.8688 20.8998 64.2049 11.253L62.6389 12.497ZM73.5938 58.5156C73.5938 80.1153 69.8459 95.4047 62.5595 104.614L64.128 105.855C71.8416 96.1057 75.5938 80.2492 75.5938 58.5156H73.5938ZM62.5603 104.613C56.5751 112.157 48.2339 115.953 37.4062 115.953V117.953C48.7661 117.953 57.7165 113.937 64.1272 105.856L62.5603 104.613ZM37.4062 115.953C26.5575 115.953 17.8633 111.815 11.2345 103.517L9.67179 104.765C16.6887 113.549 25.9633 117.953 37.4062 117.953V115.953ZM11.2363 103.519C4.63846 95.2086 1.21875 80.2252 1.21875 58.2812H-0.78125C-0.78125 80.2957 2.62196 95.8852 9.66995 104.762L11.2363 103.519ZM1.21875 58.2812C1.21875 36.7871 4.96609 21.549 12.253 12.3392L10.6845 11.0983C2.97141 20.8468 -0.78125 36.6504 -0.78125 58.2812H1.21875ZM12.2522 12.3403C18.2374 4.79589 26.5786 1 37.4062 1V-1C26.0464 -1 17.096 3.01661 10.6853 11.0972L12.2522 12.3403ZM37.4062 17.2031C34.5135 17.2031 31.9197 18.146 29.6605 20.0099L30.9333 21.5526C32.8407 19.979 34.9865 19.2031 37.4062 19.2031V17.2031ZM29.6722 20.0004C27.3395 21.8665 25.6519 25.1379 24.4858 29.5904L26.4205 30.0971C27.546 25.7996 29.0876 23.0293 30.9216 21.5621L29.6722 20.0004ZM24.4867 29.5866C22.9398 35.4011 22.1875 45.0735 22.1875 58.5156H24.1875C24.1875 45.0827 24.9456 35.6406 26.4195 30.1009L24.4867 29.5866ZM22.1875 58.5156C22.1875 71.9457 22.8603 81.3138 24.2528 86.5089L26.1847 85.9911C24.8688 81.082 24.1875 71.9605 24.1875 58.5156H22.1875ZM24.2535 86.5114C25.6178 91.5488 27.3762 95.1471 29.6626 97.0231L30.9312 95.4769C29.155 94.0195 27.528 90.9512 26.184 85.9886L24.2535 86.5114ZM29.6722 97.0309C31.932 98.8387 34.5218 99.75 37.4062 99.75V97.75C34.9782 97.75 32.8284 96.9946 30.9216 95.4691L29.6722 97.0309ZM37.4062 99.75C40.2907 99.75 42.8805 98.8387 45.1403 97.0309L43.8909 95.4691C41.9841 96.9946 39.8343 97.75 37.4062 97.75V99.75ZM45.152 97.0214C47.474 95.1057 49.1602 91.817 50.3267 87.3627L48.392 86.856C47.2669 91.1518 45.7239 93.9568 43.8792 95.4786L45.152 97.0214ZM50.3252 87.3687C51.8729 81.6049 52.625 71.9568 52.625 58.5156H50.625C50.625 71.9494 49.8667 81.3639 48.3936 86.85L50.3252 87.3687ZM52.625 58.5156C52.625 45.0866 51.9523 35.7427 50.559 30.598L48.6285 31.1208C49.9435 35.976 50.625 45.0696 50.625 58.5156H52.625ZM50.5597 30.6005C49.195 25.5092 47.4092 21.878 45.0622 20.0004L43.8128 21.5621C45.6324 23.0178 47.2842 26.1054 48.6278 31.1183L50.5597 30.6005ZM45.0834 20.0179C42.872 18.1466 40.2995 17.2031 37.4062 17.2031V19.2031C39.8255 19.2031 41.9405 19.9784 43.7916 21.5446L45.0834 20.0179ZM163.5 94.6094H164.5V93.6094H163.5V94.6094ZM163.5 115V116H164.5V115H163.5ZM86.5469 115L85.5527 114.893L85.4329 116H86.5469V115ZM94.0469 93.125L94.9021 93.6433L94.9038 93.6404L94.0469 93.125ZM118.734 65.625L119.415 66.358L119.416 66.3567L118.734 65.625ZM136.938 46.875L137.764 47.4388L137.77 47.4297L136.938 46.875ZM137.484 22.1875L136.77 22.8876L136.777 22.8946L136.784 22.9016L137.484 22.1875ZM111 36.0938L110.9 37.0888L111.931 37.1918L111.998 36.1587L111 36.0938ZM89.125 33.9062L88.1308 33.7991L88.0228 34.801L89.0255 34.9013L89.125 33.9062ZM160.688 46.6406L159.759 46.2692L159.757 46.2747L160.688 46.6406ZM151.938 61.25L151.151 60.6322L151.151 60.6327L151.938 61.25ZM137.562 75.8594L138.238 76.5963L137.562 75.8594ZM124.359 88.5156L123.616 87.8466L123.607 87.8571L124.359 88.5156ZM119.906 94.6094L119.041 94.1083L118.172 95.6094H119.906V94.6094ZM162.5 94.6094V115H164.5V94.6094H162.5ZM163.5 114H86.5469V116H163.5V114ZM87.5411 115.107C88.3581 107.55 90.8084 100.398 94.9021 93.6433L93.1917 92.6067C88.952 99.6021 86.4023 107.033 85.5527 114.893L87.5411 115.107ZM94.9038 93.6404C98.9938 86.8409 107.134 77.7536 119.415 66.358L118.054 64.892C105.751 76.3089 97.4333 85.555 93.1899 92.6096L94.9038 93.6404ZM119.416 66.3567C129.29 57.1581 135.449 50.8301 137.763 47.4387L136.112 46.3113C133.947 49.4824 127.97 55.6544 118.053 64.8933L119.416 66.3567ZM137.77 47.4297C140.875 42.7722 142.469 38.1033 142.469 33.4375H140.469C140.469 37.6259 139.042 41.9153 136.105 46.3203L137.77 47.4297ZM142.469 33.4375C142.469 28.3614 141.088 24.3197 138.184 21.4734L136.784 22.9016C139.194 25.2637 140.469 28.7219 140.469 33.4375H142.469ZM138.198 21.4874C135.362 18.5945 131.459 17.2031 126.625 17.2031V19.2031C131.062 19.2031 134.398 20.468 136.77 22.8876L138.198 21.4874ZM126.625 17.2031C121.827 17.2031 117.905 18.6562 114.974 21.6434L116.401 23.0441C118.887 20.5105 122.257 19.2031 126.625 19.2031V17.2031ZM114.974 21.6434C112.018 24.6564 110.425 29.5299 110.002 36.0288L111.998 36.1587C112.409 29.8451 113.941 25.552 116.401 23.0441L114.974 21.6434ZM111.1 35.0987L89.2245 32.9112L89.0255 34.9013L110.9 37.0888L111.1 35.0987ZM90.1192 34.0134C91.4041 22.09 95.4167 13.7208 101.998 8.68481L100.783 7.09644C93.6146 12.5813 89.4501 21.5559 88.1308 33.7991L90.1192 34.0134ZM101.998 8.68481C108.667 3.58206 117.036 1 127.172 1V-1C116.683 -1 107.864 1.67836 100.783 7.09644L101.998 8.68481ZM127.172 1C138.291 1 146.9 3.99342 153.126 9.86796L154.499 8.41329C147.808 2.10033 138.657 -1 127.172 -1V1ZM153.126 9.86796C159.38 15.7684 162.5 23.0814 162.5 31.875H164.5C164.5 22.5436 161.162 14.7003 154.499 8.41329L153.126 9.86796ZM162.5 31.875C162.5 36.9068 161.586 41.7024 159.759 46.2692L161.616 47.012C163.539 42.2038 164.5 37.1557 164.5 31.875H162.5ZM159.757 46.2747C157.978 50.7969 155.119 55.5827 151.151 60.6322L152.724 61.8678C156.777 56.709 159.751 51.7552 161.618 47.0066L159.757 46.2747ZM151.151 60.6327C148.549 63.9492 143.809 68.7725 136.887 75.1225L138.238 76.5963C145.17 70.2379 150.014 65.3216 152.724 61.8673L151.151 60.6327ZM136.887 75.1225C129.968 81.4685 125.529 85.7209 123.616 87.8467L125.103 89.1846C126.939 87.1437 131.303 82.9586 138.238 76.5963L136.887 75.1225ZM123.607 87.8571C121.75 89.9794 120.225 92.0629 119.041 94.1083L120.772 95.1104C121.879 93.1975 123.323 91.2185 125.112 89.1741L123.607 87.8571ZM119.906 95.6094H163.5V93.6094H119.906V95.6094Z" fill="#E86B31" mask="url(#path-1-outside-1_1391_295324)"/>
</svg>
