<svg width="165" height="118" viewBox="0 0 165 118" fill="none" xmlns="http://www.w3.org/2000/svg">
<mask id="path-1-outside-1_1391_295331" maskUnits="userSpaceOnUse" x="-1.5" y="-0.314453" width="168" height="119" fill="black">
<rect fill="white" x="-1.5" y="-0.314453" width="168" height="119"/>
<path d="M37.4062 0.685547C48.5 0.685547 57.1719 4.64388 63.4219 12.5605C70.8698 21.9355 74.5938 37.4824 74.5938 59.2012C74.5938 80.8678 70.8438 96.4408 63.3438 105.92C57.1458 113.732 48.5 117.639 37.4062 117.639C26.2604 117.639 17.276 113.368 10.4531 104.826C3.63021 96.2324 0.21875 80.946 0.21875 58.9668C0.21875 37.4043 3.96875 21.8835 11.4688 12.4043C17.6667 4.5918 26.3125 0.685547 37.4062 0.685547ZM37.4062 18.8887C34.75 18.8887 32.3802 19.748 30.2969 21.4668C28.2135 23.1335 26.599 26.1543 25.4531 30.5293C23.9427 36.2064 23.1875 45.7637 23.1875 59.2012C23.1875 72.6387 23.8646 81.8835 25.2188 86.9355C26.5729 91.9355 28.2656 95.2689 30.2969 96.9355C32.3802 98.6022 34.75 99.4355 37.4062 99.4355C40.0625 99.4355 42.4323 98.6022 44.5156 96.9355C46.599 95.2168 48.2135 92.1699 49.3594 87.7949C50.8698 82.1699 51.625 72.6387 51.625 59.2012C51.625 45.7637 50.9479 36.5449 49.5938 31.5449C48.2396 26.4928 46.5208 23.1335 44.4375 21.4668C42.4062 19.748 40.0625 18.8887 37.4062 18.8887ZM88.5781 85.2949L109.828 82.7168C110.505 88.1335 112.328 92.2741 115.297 95.1387C118.266 98.0033 121.859 99.4355 126.078 99.4355C130.609 99.4355 134.411 97.7168 137.484 94.2793C140.609 90.8418 142.172 86.2064 142.172 80.373C142.172 74.8522 140.688 70.4772 137.719 67.248C134.75 64.0189 131.13 62.4043 126.859 62.4043C124.047 62.4043 120.688 62.9512 116.781 64.0449L119.203 46.1543C125.141 46.3105 129.672 45.0345 132.797 42.3262C135.922 39.5658 137.484 35.9199 137.484 31.3887C137.484 27.5345 136.339 24.4616 134.047 22.1699C131.755 19.8783 128.708 18.7324 124.906 18.7324C121.156 18.7324 117.953 20.0345 115.297 22.6387C112.641 25.2428 111.026 29.0449 110.453 34.0449L90.2188 30.6074C91.625 23.6803 93.7344 18.1595 96.5469 14.0449C99.4115 9.87826 103.37 6.62305 108.422 4.2793C113.526 1.88346 119.229 0.685547 125.531 0.685547C136.312 0.685547 144.958 4.12305 151.469 10.998C156.833 16.623 159.516 22.9772 159.516 30.0605C159.516 40.1126 154.021 48.1335 143.031 54.123C149.594 55.5293 154.828 58.6803 158.734 63.5762C162.693 68.472 164.672 74.3835 164.672 81.3105C164.672 91.3626 161 99.9303 153.656 107.014C146.312 114.097 137.172 117.639 126.234 117.639C115.87 117.639 107.276 114.67 100.453 108.732C93.6302 102.743 89.6719 94.9303 88.5781 85.2949Z"/>
</mask>
<path d="M63.4219 12.5605L62.637 13.1802L62.6389 13.1826L63.4219 12.5605ZM63.3438 105.92L64.1272 106.541L64.128 106.54L63.3438 105.92ZM10.4531 104.826L9.66994 105.448L9.67179 105.45L10.4531 104.826ZM11.4688 12.4043L10.6853 11.7828L10.6845 11.7838L11.4688 12.4043ZM30.2969 21.4668L30.9216 22.2477L30.9274 22.243L30.9333 22.2382L30.2969 21.4668ZM25.4531 30.5293L26.4195 30.7864L26.4205 30.7827L25.4531 30.5293ZM25.2188 86.9355L24.2528 87.1945L24.2535 87.197L25.2188 86.9355ZM30.2969 96.9355L29.6625 97.7087L29.6722 97.7164L30.2969 96.9355ZM44.5156 96.9355L45.1403 97.7164L45.1462 97.7117L45.152 97.7069L44.5156 96.9355ZM49.3594 87.7949L48.3936 87.5356L48.392 87.5416L49.3594 87.7949ZM49.5938 31.5449L48.6278 31.8038L48.6285 31.8063L49.5938 31.5449ZM44.4375 21.4668L43.7916 22.2302L43.8021 22.2391L43.8128 22.2477L44.4375 21.4668ZM37.4062 1.68555C48.2289 1.68555 56.5973 5.52989 62.637 13.1802L64.2068 11.9409C57.7465 3.75787 48.7711 -0.314453 37.4062 -0.314453V1.68555ZM62.6389 13.1826C69.8708 22.2857 73.5938 37.5461 73.5938 59.2012H75.5938C75.5938 37.4187 71.8688 21.5854 64.2049 11.9385L62.6389 13.1826ZM73.5938 59.2012C73.5938 80.8009 69.8459 96.0902 62.5595 105.299L64.128 106.54C71.8416 96.7913 75.5938 80.9348 75.5938 59.2012H73.5938ZM62.5603 105.298C56.5751 112.843 48.2339 116.639 37.4062 116.639V118.639C48.7661 118.639 57.7165 114.622 64.1272 106.541L62.5603 105.298ZM37.4062 116.639C26.5575 116.639 17.8633 112.501 11.2345 104.202L9.67179 105.45C16.6887 114.235 25.9633 118.639 37.4062 118.639V116.639ZM11.2363 104.204C4.63846 95.8941 1.21875 80.9107 1.21875 58.9668H-0.78125C-0.78125 80.9812 2.62196 96.5707 9.66995 105.448L11.2363 104.204ZM1.21875 58.9668C1.21875 37.4726 4.96609 22.2346 12.253 13.0248L10.6845 11.7838C2.97141 21.5323 -0.78125 37.336 -0.78125 58.9668H1.21875ZM12.2522 13.0258C18.2374 5.48144 26.5786 1.68555 37.4062 1.68555V-0.314453C26.0464 -0.314453 17.096 3.70216 10.6853 11.7828L12.2522 13.0258ZM37.4062 17.8887C34.5135 17.8887 31.9197 18.8316 29.6605 20.6954L30.9333 22.2382C32.8407 20.6645 34.9865 19.8887 37.4062 19.8887V17.8887ZM29.6722 20.6859C27.3395 22.5521 25.6519 25.8234 24.4858 30.2759L26.4205 30.7827C27.546 26.4852 29.0876 23.7148 30.9216 22.2477L29.6722 20.6859ZM24.4867 30.2722C22.9398 36.0866 22.1875 45.7591 22.1875 59.2012H24.1875C24.1875 45.7682 24.9456 36.3262 26.4195 30.7864L24.4867 30.2722ZM22.1875 59.2012C22.1875 72.6313 22.8603 81.9993 24.2528 87.1945L26.1847 86.6766C24.8688 81.7676 24.1875 72.6461 24.1875 59.2012H22.1875ZM24.2535 87.197C25.6178 92.2343 27.3762 95.8327 29.6626 97.7086L30.9312 96.1625C29.155 94.7051 27.528 91.6368 26.184 86.6741L24.2535 87.197ZM29.6722 97.7164C31.932 99.5242 34.5218 100.436 37.4062 100.436V98.4355C34.9782 98.4355 32.8284 97.6802 30.9216 96.1547L29.6722 97.7164ZM37.4062 100.436C40.2907 100.436 42.8805 99.5242 45.1403 97.7164L43.8909 96.1547C41.9841 97.6802 39.8343 98.4355 37.4062 98.4355V100.436ZM45.152 97.7069C47.474 95.7913 49.1602 92.5025 50.3267 88.0483L48.392 87.5416C47.2669 91.8373 45.7239 94.6423 43.8792 96.1642L45.152 97.7069ZM50.3252 88.0543C51.8729 82.2904 52.625 72.6424 52.625 59.2012H50.625C50.625 72.635 49.8667 82.0494 48.3936 87.5356L50.3252 88.0543ZM52.625 59.2012C52.625 45.7721 51.9523 36.4283 50.559 31.2835L48.6285 31.8063C49.9435 36.6616 50.625 45.7552 50.625 59.2012H52.625ZM50.5597 31.286C49.195 26.1947 47.4092 22.5636 45.0622 20.6859L43.8128 22.2477C45.6324 23.7034 47.2842 26.7909 48.6278 31.8038L50.5597 31.286ZM45.0834 20.7034C42.872 18.8322 40.2995 17.8887 37.4062 17.8887V19.8887C39.8255 19.8887 41.9405 20.6639 43.7916 22.2302L45.0834 20.7034ZM88.5781 85.2949L88.4577 84.3022L87.4726 84.4217L87.5845 85.4077L88.5781 85.2949ZM109.828 82.7168L110.82 82.5928L110.697 81.6041L109.708 81.7241L109.828 82.7168ZM115.297 95.1387L114.603 95.8583L115.297 95.1387ZM137.484 94.2793L136.744 93.6066L136.739 93.6128L137.484 94.2793ZM116.781 64.0449L115.79 63.9108L115.586 65.418L117.051 65.0079L116.781 64.0449ZM119.203 46.1543L119.229 45.1546L118.333 45.131L118.212 46.0201L119.203 46.1543ZM132.797 42.3262L133.452 43.0819L133.459 43.0756L132.797 42.3262ZM110.453 34.0449L110.286 35.0308L111.326 35.2076L111.447 34.1588L110.453 34.0449ZM90.2188 30.6074L89.2387 30.4085L89.0333 31.4204L90.0513 31.5933L90.2188 30.6074ZM96.5469 14.0449L95.7228 13.4784L95.7213 13.4806L96.5469 14.0449ZM108.422 4.2793L108.843 5.18644L108.847 5.18453L108.422 4.2793ZM151.469 10.998L150.743 11.6856L150.745 11.6882L151.469 10.998ZM143.031 54.123L142.553 53.245L140.184 54.5357L142.822 55.1009L143.031 54.123ZM158.734 63.5762L157.953 64.1999L157.957 64.2049L158.734 63.5762ZM100.453 108.732L99.7934 109.484L99.7967 109.487L100.453 108.732ZM88.6986 86.2876L109.949 83.7095L109.708 81.7241L88.4577 84.3022L88.6986 86.2876ZM108.836 82.8408C109.532 88.4106 111.423 92.7902 114.603 95.8583L115.991 94.4191C113.233 91.758 111.478 87.8563 110.82 82.5928L108.836 82.8408ZM114.603 95.8583C117.762 98.9072 121.607 100.436 126.078 100.436V98.4355C122.112 98.4355 118.769 97.0993 115.991 94.4191L114.603 95.8583ZM126.078 100.436C130.9 100.436 134.971 98.5912 138.23 94.9458L136.739 93.6128C133.852 96.8424 130.319 98.4355 126.078 98.4355V100.436ZM138.224 94.952C141.556 91.2867 143.172 86.389 143.172 80.373H141.172C141.172 86.0237 139.662 90.3969 136.744 93.6066L138.224 94.952ZM143.172 80.373C143.172 74.669 141.634 70.0293 138.455 66.5713L136.983 67.9248C139.741 70.9252 141.172 75.0354 141.172 80.373H143.172ZM138.455 66.5713C135.303 63.1424 131.418 61.4043 126.859 61.4043V63.4043C130.842 63.4043 134.197 64.8953 136.983 67.9248L138.455 66.5713ZM126.859 61.4043C123.925 61.4043 120.47 61.9735 116.512 63.082L117.051 65.0079C120.905 63.9289 124.168 63.4043 126.859 63.4043V61.4043ZM117.772 64.1791L120.194 46.2884L118.212 46.0201L115.79 63.9108L117.772 64.1791ZM119.177 47.154C125.256 47.3139 130.07 46.0128 133.452 43.0819L132.142 41.5705C129.274 44.0562 125.025 45.3072 119.229 45.1546L119.177 47.154ZM133.459 43.0756C136.819 40.1076 138.484 36.1787 138.484 31.3887H136.484C136.484 35.6612 135.025 39.0239 132.135 41.5767L133.459 43.0756ZM138.484 31.3887C138.484 27.3232 137.268 23.977 134.754 21.4628L133.34 22.877C135.409 24.9462 136.484 27.7459 136.484 31.3887H138.484ZM134.754 21.4628C132.242 18.9513 128.924 17.7324 124.906 17.7324V19.7324C128.493 19.7324 131.268 20.8052 133.34 22.877L134.754 21.4628ZM124.906 17.7324C120.897 17.7324 117.442 19.1355 114.597 21.9246L115.997 23.3527C118.465 20.9335 121.416 19.7324 124.906 19.7324V17.7324ZM114.597 21.9246C111.727 24.7379 110.049 28.7835 109.46 33.9311L111.447 34.1588C112.003 29.3064 113.554 25.7478 115.997 23.3527L114.597 21.9246ZM110.621 33.059L90.3862 29.6215L90.0513 31.5933L110.286 35.0308L110.621 33.059ZM91.1988 30.8064C92.5887 23.9595 94.6598 18.5777 97.3724 14.6092L95.7213 13.4806C92.8089 17.7413 90.6613 23.4012 89.2387 30.4085L91.1988 30.8064ZM97.3709 14.6115C100.124 10.6071 103.936 7.46267 108.843 5.18643L108.001 3.37216C102.803 5.78342 98.699 9.14945 95.7228 13.4784L97.3709 14.6115ZM108.847 5.18453C113.803 2.8581 119.359 1.68555 125.531 1.68555V-0.314453C119.1 -0.314453 113.249 0.908825 107.997 3.37406L108.847 5.18453ZM125.531 1.68555C136.08 1.68555 144.448 5.03851 150.743 11.6856L152.195 10.3105C145.469 3.20758 136.545 -0.314453 125.531 -0.314453V1.68555ZM150.745 11.6882C155.951 17.147 158.516 23.2603 158.516 30.0605H160.516C160.516 22.6941 157.716 16.0991 152.192 10.3079L150.745 11.6882ZM158.516 30.0605C158.516 39.6517 153.314 47.38 142.553 53.245L143.51 55.0011C154.728 48.887 160.516 40.5735 160.516 30.0605H158.516ZM142.822 55.1009C149.176 56.4624 154.201 59.498 157.953 64.1999L159.516 62.9525C155.455 57.8626 150.012 54.5962 143.241 53.1452L142.822 55.1009ZM157.957 64.2049C161.757 68.9046 163.672 74.5879 163.672 81.3105H165.672C165.672 74.1791 163.629 68.0394 159.512 62.9474L157.957 64.2049ZM163.672 81.3105C163.672 91.0866 160.114 99.3959 152.962 106.294L154.35 107.733C161.886 100.465 165.672 91.6387 165.672 81.3105H163.672ZM152.962 106.294C145.819 113.184 136.933 116.639 126.234 116.639V118.639C137.41 118.639 146.806 115.01 154.35 107.733L152.962 106.294ZM126.234 116.639C116.074 116.639 107.724 113.734 101.11 107.978L99.7967 109.487C106.828 115.606 115.666 118.639 126.234 118.639V116.639ZM101.113 107.981C94.4902 102.167 90.6395 94.5889 89.5717 85.1821L87.5845 85.4077C88.7042 95.2718 92.7702 103.319 99.7934 109.484L101.113 107.981Z" fill="#E86B31" mask="url(#path-1-outside-1_1391_295331)"/>
</svg>
