<svg width="601" height="506" viewBox="0 0 601 506" fill="none" xmlns="http://www.w3.org/2000/svg">
<path d="M32.3296 334.617C16.2485 334.942 3.18562 324.326 3.31192 310.95L5.71806 56.1231C5.84436 42.7469 19.1047 32.4572 35.1758 33.1814L545.469 56.1732C558.102 56.7423 568.232 66.7685 568.121 78.526L566.006 302.518C565.895 314.275 555.578 324.047 542.937 324.303L32.3296 334.617Z" fill="url(#paint0_linear_1391_279375)"/>
<path d="M545.401 63.1264L35.0997 40.9981C24.5696 40.5415 15.929 47.4936 15.8437 56.5283L13.4428 310.8C13.3575 319.835 21.8651 327 32.4011 326.804L543.001 317.353C551.302 317.2 558.067 310.611 558.142 302.637L560.262 78.2148C560.337 70.2408 553.697 63.4861 545.401 63.1264Z" fill="url(#paint1_linear_1391_279375)"/>
<path d="M545.264 63.1205L34.963 40.9923C24.4329 40.5357 15.7923 47.4878 15.707 56.5227L13.3061 310.794C13.2208 319.829 21.7283 326.994 32.2644 326.799L542.864 317.348C551.165 317.194 557.93 310.606 558.006 302.632L560.125 78.2092C560.2 70.2349 553.56 63.4802 545.264 63.1205Z" fill="url(#paint2_linear_1391_279375)"/>
<mask id="mask0_1391_279375" style="mask-type:luminance" maskUnits="userSpaceOnUse" x="13" y="40" width="548" height="287">
<path d="M545.262 63.1147L34.9611 40.9864C24.4309 40.5298 15.7904 47.4819 15.705 56.5168L13.3042 310.788C13.2188 319.823 21.7264 326.988 32.2624 326.793L542.862 317.342C551.163 317.188 557.928 310.6 558.004 302.626L560.123 78.2033C560.198 70.2291 553.558 63.4744 545.262 63.1147Z" fill="white"/>
</mask>
<g mask="url(#mask0_1391_279375)">
<path d="M-109.703 402.644L-111.298 401.741L242.451 42.9837L243.836 43.8816L-109.703 402.644Z" fill="url(#paint3_linear_1391_279375)"/>
<path d="M65.1616 371.657L63.461 371.032L266.215 40.3125L267.764 40.9831L65.1616 371.657Z" fill="url(#paint4_linear_1391_279375)"/>
<path d="M230.417 355.245L228.659 355.037L289.999 39.6252L291.679 39.9236L230.417 355.245Z" fill="url(#paint5_linear_1391_279375)"/>
<path d="M384.654 352.357L313.752 40.8458L315.408 40.6875L386.301 352.092L384.654 352.357Z" fill="url(#paint6_linear_1391_279375)"/>
<path d="M531.735 361.776L337.331 43.8635L338.815 43.3265L533.133 361.143L531.735 361.776Z" fill="url(#paint7_linear_1391_279375)"/>
<path d="M670.157 382.312L360.545 48.6086L361.838 47.8383L671.309 381.469L670.157 382.312Z" fill="url(#paint8_linear_1391_279375)"/>
<path d="M637.634 125.226L-56.3231 106.443L-56.3145 104.969L637.58 123.934L637.634 125.226Z" fill="url(#paint9_linear_1391_279375)"/>
<path d="M635.399 71.8143L-55.9636 45.5052L-55.9551 44.043L635.346 70.532L635.399 71.8143Z" fill="url(#paint10_linear_1391_279375)"/>
<path d="M640.516 194.026L-56.7822 185.032L-56.7734 183.541L640.462 192.722L640.516 194.026Z" fill="url(#paint11_linear_1391_279375)"/>
<path d="M643.426 263.47L-57.2467 264.464L-57.238 262.958L643.37 262.154L643.426 263.47Z" fill="url(#paint12_linear_1391_279375)"/>
<path d="M646.358 333.59L-57.7206 344.779L-57.7115 343.256L646.302 332.261L646.358 333.59Z" fill="url(#paint13_linear_1391_279375)"/>
<path d="M563.977 279.675L426.74 280.31L393.757 254.153L320.607 254.119L283.908 254.101L207.584 254.066L172.758 281.487L12.7832 282.228L6.84463 339.153L285.316 335.003L322.206 334.454L570.593 330.752L563.977 279.675Z" fill="url(#paint14_linear_1391_279375)"/>
<path opacity="0.5" d="M563.981 279.674L426.774 280.309L393.799 254.152L320.666 254.118L283.976 254.101L207.67 254.064L172.852 281.486L12.9161 282.227L6.97941 339.151L285.384 335.002L322.266 334.452L570.595 330.751L563.981 279.674Z" fill="url(#paint15_linear_1391_279375)"/>
<path d="M262.743 285.004C262.881 293.662 254.36 300.76 243.673 300.85C232.942 300.941 224.117 293.936 224.001 285.214C223.885 276.502 232.505 269.427 243.214 269.4C253.879 269.375 262.605 276.356 262.743 285.004Z" fill="url(#paint16_linear_1391_279375)"/>
<path d="M387.314 284.32C387.52 292.771 379.463 299.698 369.28 299.784C359.057 299.87 350.588 293.033 350.402 284.521C350.216 276.018 358.366 269.113 368.57 269.088C378.732 269.063 387.108 275.879 387.314 284.32Z" fill="url(#paint17_linear_1391_279375)"/>
<path d="M286.876 288.301C286.915 290.521 284.748 292.336 282.032 292.355C279.314 292.373 277.078 290.585 277.041 288.361C277.003 286.138 279.177 284.324 281.894 284.31C284.607 284.295 286.837 286.082 286.876 288.301Z" fill="url(#paint18_linear_1391_279375)"/>
<path d="M310.156 288.156C310.198 290.366 308.053 292.173 305.362 292.191C302.668 292.21 300.449 290.43 300.408 288.215C300.367 286.002 302.519 284.197 305.211 284.182C307.901 284.168 310.113 285.947 310.156 288.156Z" fill="url(#paint19_linear_1391_279375)"/>
<path d="M333.232 288.017C333.277 290.217 331.154 292.016 328.487 292.034C325.817 292.052 323.615 290.28 323.571 288.076C323.526 285.872 325.656 284.075 328.324 284.061C330.99 284.047 333.186 285.818 333.232 288.017Z" fill="url(#paint20_linear_1391_279375)"/>
<path d="M335.197 277.065C335.216 277.937 334.269 278.647 333.212 278.652L278.547 278.884C277.468 278.888 276.48 278.177 276.465 277.295L276.459 276.94C276.444 276.058 277.355 275.341 278.434 275.338L333.116 275.142C334.172 275.139 335.172 275.843 335.19 276.714L335.197 277.065Z" fill="url(#paint21_linear_1391_279375)"/>
<path d="M184.836 299.895C184.876 303.696 181.072 306.814 176.33 306.859L51.3521 308.04C46.376 308.087 42.3328 304.96 42.329 301.057C42.3253 297.156 46.359 293.967 51.3303 293.933L176.192 293.077C180.929 293.044 184.796 296.096 184.836 299.895Z" fill="url(#paint22_linear_1391_279375)"/>
<path d="M454.943 292.965C454.991 294.624 453.453 295.985 451.49 296L451.042 296.001C449.077 296.016 447.201 294.68 447.153 293.018L447.148 292.846C447.101 291.184 448.907 289.829 450.871 289.817L451.187 289.814C453.149 289.801 454.89 291.134 454.938 292.793L454.943 292.965Z" fill="url(#paint23_linear_1391_279375)"/>
<path d="M472.253 292.853C472.302 294.507 470.613 295.858 468.663 295.873L468.274 295.876C466.322 295.891 464.512 294.562 464.462 292.906L464.457 292.734C464.408 291.078 466.064 289.723 468.015 289.71L468.423 289.71C470.372 289.697 472.198 291.028 472.248 292.681L472.253 292.853Z" fill="url(#paint24_linear_1391_279375)"/>
<path d="M488.696 292.863C488.747 294.512 487.199 295.714 485.262 295.696L485.172 295.695C483.233 295.676 481.821 294.564 481.771 292.914L481.766 292.671C481.715 291.021 483.162 289.639 485.1 289.627L485.197 289.607C487.133 289.594 488.64 290.982 488.691 292.63L488.696 292.863Z" fill="url(#paint25_linear_1391_279375)"/>
<path d="M510.046 309.845L505.712 309.889L505.05 289.47L509.378 289.443L510.046 309.845Z" fill="url(#paint26_linear_1391_279375)"/>
<path d="M518.706 309.727L515.239 309.778L514.566 289.399L518.028 289.365L518.706 309.727Z" fill="url(#paint27_linear_1391_279375)"/>
<path d="M528.244 309.637L523.91 309.68L523.226 289.339L527.554 289.312L528.244 309.637Z" fill="url(#paint28_linear_1391_279375)"/>
<path d="M537.78 309.539L533.446 309.582L532.749 289.28L537.078 289.254L537.78 309.539Z" fill="url(#paint29_linear_1391_279375)"/>
<path d="M546.452 309.437L542.984 309.489L542.277 289.225L545.739 289.189L546.452 309.437Z" fill="url(#paint30_linear_1391_279375)"/>
<path opacity="0.5" d="M111.829 98.4393C111.908 112.254 97.5994 123.081 79.7634 122.594C61.8091 122.104 47.1522 110.352 47.1343 96.3732C47.1166 82.4209 61.6939 71.6636 79.5864 72.3179C97.3616 72.9679 111.75 84.6505 111.829 98.4393Z" fill="url(#paint31_linear_1391_279375)"/>
<path d="M113.083 169.736L40.829 168.394L40.8145 150.885L98.249 152.138L113.083 169.736Z" fill="url(#paint32_linear_1391_279375)"/>
<path d="M113.282 203.693L40.8604 202.801L40.8457 185.209L98.414 186.105L113.282 203.693Z" fill="url(#paint33_linear_1391_279375)"/>
</g>
<path opacity="0.7" d="M471.393 108.399C475.209 108.435 478.327 105.896 478.357 102.729C478.387 99.5614 475.318 96.9646 471.502 96.9285C467.685 96.8925 464.568 99.4309 464.538 102.598C464.508 105.766 467.577 108.363 471.393 108.399Z" fill="url(#paint34_linear_1391_279375)"/>
<path opacity="0.7" d="M31.4148 237.207C35.231 237.243 38.3488 234.705 38.3787 231.537C38.4086 228.37 35.3393 225.773 31.5231 225.737C27.7069 225.701 24.589 228.24 24.5591 231.407C24.5292 234.574 27.5986 237.171 31.4148 237.207Z" fill="url(#paint35_linear_1391_279375)"/>
<path opacity="0.7" d="M492.885 93.2355C495.137 93.2568 496.977 91.7587 496.995 89.8894C497.013 88.0201 495.201 86.4875 492.949 86.4662C490.697 86.445 488.857 87.9431 488.839 89.8124C488.821 91.6817 490.633 93.2143 492.885 93.2355Z" fill="url(#paint36_linear_1391_279375)"/>
<path opacity="0.7" d="M537.094 204.529C539.346 204.55 541.186 203.052 541.204 201.182C541.222 199.313 539.41 197.78 537.158 197.759C534.906 197.738 533.066 199.236 533.048 201.105C533.03 202.975 534.842 204.507 537.094 204.529Z" fill="url(#paint37_linear_1391_279375)"/>
<path opacity="0.7" d="M163.616 79.8098C165.868 79.831 167.708 78.3329 167.725 76.4636C167.743 74.5943 165.932 73.0617 163.68 73.0405C161.427 73.0192 159.587 74.5173 159.57 76.3866C159.552 78.2559 161.363 79.7885 163.616 79.8098Z" fill="url(#paint38_linear_1391_279375)"/>
<path opacity="0.7" d="M130.395 213.107C132.647 213.128 134.487 211.63 134.505 209.76C134.522 207.891 132.711 206.359 130.459 206.337C128.207 206.316 126.367 207.814 126.349 209.683C126.331 211.553 128.143 213.085 130.395 213.107Z" fill="url(#paint39_linear_1391_279375)"/>
<path opacity="0.7" d="M100.855 243.361C103.877 243.39 106.345 241.379 106.369 238.871C106.393 236.363 103.962 234.307 100.94 234.278C97.9185 234.25 95.4496 236.26 95.4259 238.768C95.4022 241.276 97.8327 243.332 100.855 243.361Z" fill="url(#paint40_linear_1391_279375)"/>
<path d="M38.6734 334.672C22.5923 334.997 9.52937 324.38 9.65567 311.004L12.0618 56.1777C12.1881 42.8016 25.4484 32.5119 41.5196 33.2361L551.813 56.2279C564.446 56.797 574.576 66.8231 574.465 78.5807L572.35 302.572C572.239 314.33 561.922 324.102 549.281 324.357L38.6734 334.672Z" fill="#EEA07B"/>
<path d="M551.745 63.1811L41.4435 41.0528C30.9134 40.5962 22.2728 47.5483 22.1875 56.583L19.7866 310.854C19.7013 319.889 28.2088 327.054 38.7448 326.859L549.345 317.408C557.645 317.254 564.411 310.666 564.486 302.692L566.605 78.2695C566.681 70.2955 560.041 63.5408 551.745 63.1811Z" fill="#EEA07B"/>
<mask id="mask1_1391_279375" style="mask-type:luminance" maskUnits="userSpaceOnUse" x="19" y="41" width="548" height="286">
<path d="M551.606 63.1772L41.3048 41.0489C30.7747 40.5923 22.1341 47.5444 22.0488 56.5793L19.6479 310.851C19.5626 319.886 28.0701 327.051 38.6062 326.856L549.206 317.404C557.507 317.251 564.272 310.663 564.347 302.688L566.466 78.2658C566.542 70.2916 559.902 63.5369 551.606 63.1772Z" fill="white"/>
</mask>
<g mask="url(#mask1_1391_279375)">
<path d="M-103.36 402.72L-104.954 401.817L248.795 43.0599L250.18 43.9578L-103.36 402.72Z" fill="white"/>
<path d="M71.5056 371.739L69.8048 371.114L272.559 40.3946L274.108 41.0651L71.5056 371.739Z" fill="white"/>
<path d="M236.759 355.316L235.001 355.107L296.341 39.6955L298.021 39.9939L236.759 355.316Z" fill="white"/>
<path d="M390.984 352.431L320.082 40.9201L321.738 40.7617L392.631 352.166L390.984 352.431Z" fill="white"/>
<path d="M538.069 361.852L343.665 43.9397L345.149 43.4026L539.467 361.219L538.069 361.852Z" fill="white"/>
<path d="M676.491 382.386L366.879 48.6828L368.172 47.9125L677.643 381.543L676.491 382.386Z" fill="white"/>
<path d="M643.974 125.298L-49.9832 106.515L-49.9746 105.041L643.92 124.006L643.974 125.298Z" fill="white"/>
<path d="M641.743 71.8866L-49.6201 45.5775L-49.6113 44.1152L641.69 70.6042L641.743 71.8866Z" fill="white"/>
<path d="M646.86 194.095L-50.4385 185.1L-50.4297 183.609L646.805 192.791L646.86 194.095Z" fill="white"/>
<path d="M649.769 263.544L-50.903 264.539L-50.8943 263.032L649.714 262.228L649.769 263.544Z" fill="white"/>
<path d="M652.702 333.655L-51.3768 344.844L-51.3677 343.32L652.646 332.326L652.702 333.655Z" fill="white"/>
<path opacity="0.5" d="M427.157 287.89L429.794 289.982L433.161 289.967L561.9 289.37L566.047 321.392L328.465 324.933L291.583 325.483L23.9789 329.471L27.903 291.844L179.238 291.143L182.536 291.128L185.127 289.087L217.332 263.723L290.313 263.758L327.004 263.775L396.797 263.808L427.157 287.89Z" fill="url(#paint41_linear_1391_279375)" stroke="url(#paint42_linear_1391_279375)" stroke-width="19.1778"/>
<path d="M269.081 285.068C269.219 293.726 260.699 300.825 250.011 300.915C239.28 301.005 230.455 294 230.339 285.278C230.223 276.567 238.843 269.491 249.552 269.465C260.217 269.439 268.943 276.421 269.081 285.068Z" fill="url(#paint43_linear_1391_279375)"/>
<path d="M393.652 284.385C393.858 292.836 385.8 299.763 375.618 299.849C365.395 299.935 356.926 293.097 356.74 284.585C356.554 276.083 364.704 269.177 374.907 269.152C385.07 269.127 393.446 275.943 393.652 284.385Z" fill="url(#paint44_linear_1391_279375)"/>
<path d="M293.214 288.366C293.253 290.586 291.086 292.401 288.37 292.419C285.652 292.438 283.416 290.65 283.378 288.426C283.341 286.202 285.515 284.389 288.232 284.374C290.945 284.36 293.175 286.147 293.214 288.366Z" fill="url(#paint45_linear_1391_279375)"/>
<path d="M316.493 288.221C316.536 290.43 314.391 292.237 311.7 292.256C309.006 292.274 306.787 290.494 306.746 288.28C306.705 286.067 308.857 284.261 311.549 284.247C314.238 284.233 316.451 286.012 316.493 288.221Z" fill="url(#paint46_linear_1391_279375)"/>
<path d="M339.569 288.081C339.615 290.281 337.492 292.08 334.825 292.098C332.155 292.117 329.953 290.344 329.908 288.14C329.864 285.937 331.994 284.139 334.662 284.125C337.328 284.111 339.524 285.882 339.569 288.081Z" fill="url(#paint47_linear_1391_279375)"/>
<path d="M341.536 277.129C341.554 278.001 340.607 278.711 339.55 278.716L284.885 278.948C283.806 278.953 282.818 278.241 282.803 277.359L282.797 277.004C282.782 276.123 283.693 275.406 284.772 275.402L339.454 275.207C340.51 275.203 341.51 275.907 341.528 276.779L341.536 277.129Z" fill="url(#paint48_linear_1391_279375)"/>
<path d="M191.174 299.959C191.214 303.76 187.41 306.879 182.668 306.924L57.69 308.105C52.7139 308.152 48.6707 305.024 48.6669 301.121C48.6632 297.22 52.6969 294.032 57.6682 293.998L182.53 293.142C187.267 293.109 191.133 296.161 191.174 299.959Z" fill="url(#paint49_linear_1391_279375)"/>
<path d="M461.28 293.029C461.329 294.689 459.791 296.049 457.828 296.065L457.38 296.065C455.415 296.08 453.538 294.744 453.491 293.082L453.486 292.91C453.439 291.249 455.245 289.894 457.209 289.881L457.524 289.878C459.487 289.865 461.228 291.198 461.276 292.857L461.28 293.029Z" fill="url(#paint50_linear_1391_279375)"/>
<path d="M478.591 292.917C478.64 294.571 476.951 295.922 475.001 295.937L474.612 295.94C472.66 295.956 470.849 294.627 470.8 292.97L470.795 292.799C470.746 291.143 472.401 289.787 474.353 289.774L474.761 289.774C476.71 289.761 478.536 291.092 478.586 292.746L478.591 292.917Z" fill="url(#paint51_linear_1391_279375)"/>
<path d="M495.034 292.928C495.085 294.576 493.537 295.778 491.599 295.76L491.51 295.759C489.571 295.741 488.159 294.629 488.108 292.978L488.104 292.735C488.053 291.085 489.5 289.704 491.438 289.691L491.535 289.671C493.471 289.659 494.977 291.046 495.029 292.694L495.034 292.928Z" fill="url(#paint52_linear_1391_279375)"/>
<path d="M516.383 309.912L512.05 309.955L511.388 289.536L515.716 289.51L516.383 309.912Z" fill="url(#paint53_linear_1391_279375)"/>
<path d="M525.044 309.791L521.577 309.842L520.904 289.463L524.366 289.429L525.044 309.791Z" fill="url(#paint54_linear_1391_279375)"/>
<path d="M534.58 309.701L530.246 309.744L529.562 289.403L533.891 289.377L534.58 309.701Z" fill="url(#paint55_linear_1391_279375)"/>
<path d="M544.12 309.604L539.785 309.646L539.089 289.345L543.418 289.318L544.12 309.604Z" fill="url(#paint56_linear_1391_279375)"/>
<path d="M552.79 309.501L549.323 309.554L548.615 289.29L552.078 289.253L552.79 309.501Z" fill="url(#paint57_linear_1391_279375)"/>
<path d="M119.424 169.803L47.1708 168.46L47.1562 150.951L104.591 152.205L119.424 169.803Z" fill="url(#paint58_linear_1391_279375)"/>
</g>
<path opacity="0.7" d="M477.739 108.461C481.555 108.497 484.673 105.959 484.703 102.791C484.733 99.6239 481.663 97.0271 477.847 96.991C474.031 96.955 470.913 99.4934 470.883 102.661C470.853 105.828 473.923 108.425 477.739 108.461Z" fill="white"/>
<path opacity="0.7" d="M37.7546 237.268C41.5708 237.304 44.6887 234.765 44.7186 231.598C44.7485 228.431 41.6791 225.834 37.8629 225.798C34.0467 225.762 30.9289 228.3 30.899 231.467C30.8691 234.635 33.9384 237.232 37.7546 237.268Z" fill="white"/>
<path opacity="0.7" d="M499.233 93.2922C501.485 93.3134 503.325 91.8153 503.343 89.946C503.36 88.0767 501.549 86.5441 499.297 86.5229C497.044 86.5016 495.204 87.9997 495.187 89.869C495.169 91.7383 496.981 93.2709 499.233 93.2922Z" fill="white"/>
<path opacity="0.7" d="M547.505 201.779C547.883 199.937 546.39 198.184 544.169 197.864C541.949 197.543 539.842 198.777 539.464 200.618C539.086 202.46 540.579 204.213 542.8 204.533C545.02 204.854 547.126 203.621 547.505 201.779Z" fill="white"/>
<path opacity="0.7" d="M173.955 77.3259C174.49 75.5116 173.15 73.6758 170.962 73.2255C168.774 72.7753 166.567 73.8811 166.033 75.6954C165.498 77.5097 166.838 79.3455 169.026 79.7957C171.214 80.246 173.421 79.1402 173.955 77.3259Z" fill="white"/>
<path opacity="0.7" d="M136.739 213.163C138.991 213.185 140.831 211.686 140.849 209.817C140.866 207.948 139.055 206.415 136.803 206.394C134.55 206.373 132.71 207.871 132.693 209.74C132.675 211.609 134.486 213.142 136.739 213.163Z" fill="white"/>
<path opacity="0.7" d="M107.194 243.42C110.216 243.448 112.685 241.438 112.709 238.93C112.733 236.422 110.302 234.365 107.28 234.337C104.258 234.308 101.789 236.318 101.766 238.827C101.742 241.335 104.173 243.391 107.194 243.42Z" fill="white"/>
<path d="M138.125 398.35C138.078 398.399 138.029 398.451 137.986 398.502C131.992 404.895 129.712 412.72 130.878 420.193C132.024 427.548 136.506 434.563 144.087 439.527C148.424 442.366 153.305 444.226 158.358 445.154C158.359 445.159 158.362 445.156 158.362 445.156C168.615 447.044 179.542 445.064 187.928 439.528C190.021 438.145 191.955 436.544 193.68 434.726C195.963 432.32 197.716 429.706 198.958 426.986C200.996 422.51 201.646 417.737 200.963 413.09C199.876 405.655 195.368 398.553 187.717 393.543C180.099 388.555 170.788 386.573 161.863 387.404C155.836 387.96 149.991 389.798 144.966 392.855C142.451 394.384 140.146 396.219 138.125 398.35Z" fill="url(#paint59_linear_1391_279375)"/>
<path d="M138.126 398.35C138.079 398.399 138.03 398.451 137.987 398.502C138.569 399.186 139.31 399.93 140.218 400.738C149.451 408.941 159.158 408.836 165.615 421.015C171.117 431.397 179.363 440.185 187.93 439.528C190.022 438.145 191.956 436.544 193.681 434.726C195.964 432.319 197.718 429.706 198.96 426.985C193.641 427.295 183.761 426.918 179.192 420.627C172.77 411.785 172.709 405.945 158.67 400.067C149.626 396.278 146.068 394.763 144.967 392.854C142.453 394.384 140.147 396.219 138.126 398.35Z" fill="url(#paint60_linear_1391_279375)"/>
<path d="M130.879 420.189C132.024 427.544 136.506 434.559 144.088 439.523C148.424 442.363 153.306 444.222 158.358 445.15C157.431 444.444 156.604 443.614 155.897 442.644C149.474 433.801 149.413 427.962 135.374 422.084C133.69 421.379 132.198 420.755 130.879 420.189Z" fill="url(#paint61_linear_1391_279375)"/>
<path d="M161.863 387.404C163.453 389.469 166.41 391.579 171.318 393.272C184.141 397.692 186.936 406.978 196.697 411.878C198.345 412.704 199.755 413.065 200.962 413.09C199.876 405.655 195.368 398.554 187.717 393.544C180.099 388.555 170.788 386.574 161.863 387.404Z" fill="url(#paint62_linear_1391_279375)"/>
<path d="M113.177 380.639C108.076 386.015 115.615 398.516 130.915 412.222C137.282 417.926 144.99 423.838 153.689 429.534C162.326 435.189 170.985 440.004 179.094 443.804C198.79 453.022 215.265 456.231 220.384 450.836C222.193 448.929 222.415 446.133 221.268 442.703C219.071 436.14 211.859 427.269 201.151 417.931C201.142 418.219 201.124 418.51 201.098 418.796C210.05 427.555 214.149 435.258 210.816 438.771C207.977 441.763 200.328 441.118 190.507 437.654C182.169 434.729 172.265 429.77 162.403 423.313C150.622 415.599 141.347 407.339 136.23 400.544C132.019 394.934 130.633 390.319 133.004 387.821C135.872 384.799 143.642 385.494 153.61 389.043C154.178 388.868 154.741 388.711 155.317 388.566C155.547 388.508 155.774 388.452 156.004 388.399C135.637 378.616 118.433 375.1 113.177 380.639Z" fill="url(#paint63_linear_1391_279375)"/>
<path opacity="0.2" d="M113.177 380.639C108.076 386.015 115.615 398.516 130.915 412.222C137.282 417.926 144.99 423.838 153.689 429.534C162.326 435.189 170.985 440.004 179.094 443.804C198.79 453.022 215.265 456.231 220.384 450.836C222.193 448.929 222.415 446.133 221.268 442.703C219.71 444.839 217.424 446.413 214.114 445.731C205.821 444.029 205.278 442.242 198.337 445.589C191.397 448.937 175.471 439.314 170.113 433.57C164.756 427.825 160.47 422.534 148.964 419.473C137.458 416.412 125.554 407.126 126.914 400.314C128.274 393.501 124.744 387.73 120.16 384.968C115.576 382.205 123.774 378.627 130.757 381.709C137.74 384.79 144.629 384.067 148.558 385.413C150.244 385.99 152.868 387.281 155.317 388.566C155.547 388.508 155.773 388.452 156.004 388.399C135.637 378.616 118.433 375.1 113.177 380.639Z" fill="url(#paint64_linear_1391_279375)"/>
<path d="M70.0486 393.526C76.6116 393.588 81.9737 389.222 82.0251 383.775C82.0766 378.328 76.7979 373.862 70.2349 373.8C63.6719 373.738 58.3099 378.103 58.2584 383.551C58.207 388.998 63.4857 393.464 70.0486 393.526Z" fill="url(#paint65_linear_1391_279375)"/>
<path d="M273.41 22.2446C279.973 22.3065 285.335 17.9409 285.386 12.4937C285.438 7.0465 280.159 2.58042 273.596 2.51846C267.033 2.45649 261.671 6.82209 261.62 12.2693C261.568 17.7165 266.847 22.1826 273.41 22.2446Z" fill="url(#paint66_linear_1391_279375)"/>
<path d="M524.105 166.156C530.998 166.221 536.63 161.636 536.684 155.915C536.738 150.194 531.194 145.503 524.301 145.438C517.408 145.373 511.777 149.958 511.723 155.679C511.668 161.4 517.212 166.091 524.105 166.156Z" fill="url(#paint67_linear_1391_279375)"/>
<path d="M283.186 140.287L336.456 157.296C338.906 158.078 340.221 159.927 339.619 161.525L321.838 208.727C321.058 210.799 318.244 211.784 315.425 210.864L284.306 210.69C281.747 210.675 279.306 209.88 277.42 208.45L254.347 190.931C251.57 190.025 250.297 187.722 251.431 185.785L277.292 141.601C278.169 140.104 280.767 139.515 283.186 140.287Z" fill="url(#paint68_linear_1391_279375)"/>
<path d="M286.241 143.519L333.244 159.161L339.219 106.406C339.487 104.028 337.922 101.687 335.32 100.511C335.289 100.496 335.261 100.454 335.262 100.451L335.296 100.373L331.193 99.0364L331.157 99.1138C328.3 98.4798 325.094 99.3273 323.397 101.262L286.241 143.519Z" fill="url(#paint69_linear_1391_279375)"/>
<path opacity="0.3" d="M286.241 143.519L309.861 151.379C319.93 137.572 319.767 115.237 328.446 110.415C332.453 108.189 334.412 104.073 335.32 100.511C335.289 100.496 335.261 100.454 335.262 100.451L335.296 100.373L331.193 99.0364L331.157 99.1138C328.3 98.4798 325.094 99.3273 323.397 101.262L286.241 143.519Z" fill="url(#paint70_linear_1391_279375)"/>
<path d="M287.087 146.057L198.604 117.757L187.379 130.464C187.379 130.464 221.323 166.206 253.597 173.166C285.588 180.065 286.555 156.182 287.087 146.057Z" fill="url(#paint71_linear_1391_279375)"/>
<path d="M200.148 116.011L189.181 128.426C189.181 128.426 223.025 163.776 255.076 170.7C263.703 172.564 270.121 172.242 274.847 170.383C287.242 165.523 287.789 151.365 288.144 144.131L200.148 116.011Z" fill="url(#paint72_linear_1391_279375)"/>
<path opacity="0.3" d="M197.297 119.234L189.178 128.426C189.178 128.426 223.022 163.776 255.074 170.7C263.701 172.564 270.178 172.136 274.901 170.279L281.811 153.034C281.811 153.034 270.538 146 257.378 150.915C243.638 156.046 228.693 147.721 216.755 133.885C210.719 126.89 204.498 121.502 197.297 119.234Z" fill="url(#paint73_linear_1391_279375)"/>
<path d="M196.787 111.183C196.02 112.027 196.489 113.065 197.838 113.496C199.189 113.927 200.898 113.585 201.652 112.735L217.873 94.4657C218.537 93.7186 218.05 92.7928 216.79 92.3945C215.53 91.9961 213.965 92.2729 213.29 93.0157L196.787 111.183Z" fill="url(#paint74_linear_1391_279375)"/>
<path d="M180.194 120.432C167.153 134.385 159.848 148.038 164.793 150.018C164.85 150.041 164.908 150.063 164.968 150.082C170.263 151.803 185.494 140.527 197.919 126.119C209.316 112.903 214.19 101.791 209.638 100.347C209.586 100.33 209.531 100.318 209.48 100.301L209.476 100.3C209.294 100.243 209.082 100.219 208.863 100.202C203.798 99.7793 191.694 108.126 180.194 120.432Z" fill="url(#paint75_linear_1391_279375)"/>
<path d="M183.507 118.184C182.901 118.834 183.108 119.682 184.055 119.986L196.07 123.838C197.019 124.143 198.32 123.777 198.895 123.115C199.467 122.455 199.228 121.605 198.286 121.304L186.364 117.486C185.425 117.185 184.11 117.536 183.507 118.184Z" fill="url(#paint76_linear_1391_279375)"/>
<path opacity="0.3" d="M180.146 120.412C167.104 134.366 160.107 148.118 164.685 149.979L209.388 100.268L209.481 100.298C209.296 100.239 209.052 100.215 208.843 100.192C203.778 99.7691 191.648 108.108 180.146 120.412Z" fill="url(#paint77_linear_1391_279375)"/>
<path d="M333.398 160.874L424.664 190.063L422.624 206.163C422.624 206.163 366.258 213.272 336.038 199.906C306.514 186.849 325.454 168.675 333.398 160.874Z" fill="url(#paint78_linear_1391_279375)"/>
<path d="M424.945 187.853L422.953 203.578C422.953 203.578 366.997 210.478 336.972 197.235C328.964 193.703 324.457 189.828 322.466 185.777C317.245 175.192 328.502 164.417 334.198 158.854L424.945 187.853Z" fill="url(#paint79_linear_1391_279375)"/>
<path opacity="0.3" d="M424.429 191.929L422.954 203.574C422.954 203.574 366.997 210.474 336.972 197.231C328.965 193.699 324.501 189.712 322.51 185.663L331.577 169.002C331.577 169.002 345.848 170.134 351.689 181.238C357.815 192.886 376.116 195.227 396.929 191.731C407.513 189.954 416.879 189.476 424.429 191.929Z" fill="url(#paint80_linear_1391_279375)"/>
<path d="M429.942 161.554C430.057 160.609 431.223 160.187 432.548 160.606C433.874 161.025 434.866 162.13 434.763 163.079L432.254 186.326C432.138 187.409 430.886 187.922 429.461 187.467C428.036 187.012 426.989 185.765 427.12 184.687L429.942 161.554Z" fill="url(#paint81_linear_1391_279375)"/>
<path d="M436.912 202.798C435.246 220.98 429.313 235.59 423.733 234.162C423.669 234.145 423.605 234.128 423.541 234.107C417.922 232.281 415.617 214.863 418.169 196.785C420.504 180.24 426.138 169.053 430.927 170.573C430.981 170.59 431.035 170.612 431.089 170.629L431.093 170.63C431.284 170.691 431.471 170.795 431.657 170.908C435.989 173.5 438.378 186.805 436.912 202.798Z" fill="url(#paint82_linear_1391_279375)"/>
<path d="M436.226 199.165C436.146 200.009 435.258 200.53 434.255 200.208L421.552 196.135C420.552 195.814 419.846 194.784 419.961 193.953C420.075 193.125 420.984 192.622 421.976 192.94L434.575 196.975C435.57 197.293 436.305 198.324 436.226 199.165Z" fill="url(#paint83_linear_1391_279375)"/>
<path opacity="0.3" d="M436.927 202.798C435.261 220.98 429.596 235.677 423.763 234.166L431.115 170.632L431.095 170.626C431.29 170.688 431.482 170.804 431.665 170.906C435.997 173.498 438.393 186.805 436.927 202.798Z" fill="url(#paint84_linear_1391_279375)"/>
<path d="M293.135 186.217C297.32 187.574 302.446 184.795 308.197 178.154C313.116 172.474 317.798 164.722 321.376 156.483C324.792 148.616 326.816 141.186 327.183 135.434C327.583 129.163 325.998 125.502 322.484 124.392C318.972 123.282 314.787 125.115 309.919 129.96C305.458 134.399 300.839 140.982 296.882 148.651C292.739 156.681 289.802 164.968 288.736 171.872C287.488 179.952 288.955 184.861 293.135 186.217Z" fill="url(#paint85_linear_1391_279375)"/>
<path d="M298.734 149.243C290.156 166.074 287.623 182.624 293.879 184.652C300.144 186.682 311.941 173.09 319.516 155.888C326.412 140.23 327.261 127.172 321.96 125.496C316.666 123.822 306.543 133.918 298.734 149.243Z" fill="url(#paint86_linear_1391_279375)"/>
<path d="M285.647 138.437L338.582 155.322C341.017 156.099 342.33 157.928 341.742 159.506L324.375 206.087C323.614 208.13 320.831 209.097 318.033 208.185L287.202 207.963C284.667 207.943 282.244 207.156 280.367 205.742L257.396 188.421C254.639 187.523 253.362 185.248 254.472 183.338L279.811 139.728C280.67 138.249 283.243 137.67 285.647 138.437Z" fill="url(#paint87_linear_1391_279375)"/>
<path d="M250.324 183.245C245.152 191.978 241.344 200.689 239.343 207.936C239.27 208.2 239.199 208.461 239.132 208.719C239.388 210.092 242.305 212.044 246.418 213.494C246.642 213.572 246.865 213.65 247.093 213.725C251.943 215.322 256.482 215.606 257.654 214.455C257.675 214.432 257.697 214.408 257.72 214.382C263.253 208.212 268.936 199.926 273.657 190.842C282.282 174.246 284.906 160.265 280.897 156.459C280.486 156.065 280.002 155.775 279.445 155.596C273.527 153.696 260.882 165.417 250.324 183.245Z" fill="url(#paint88_linear_1391_279375)"/>
<path d="M239.235 208.086C239.124 208.278 239.092 208.491 239.133 208.72C239.402 210.167 242.63 212.256 247.094 213.726C251.943 215.323 256.483 215.607 257.655 214.456C257.676 214.433 257.698 214.41 257.721 214.383C257.768 214.329 257.809 214.269 257.842 214.207C258.597 212.78 255.058 210.269 249.949 208.59C245.035 206.975 240.412 206.704 239.344 207.937C239.301 207.983 239.267 208.032 239.235 208.086Z" fill="url(#paint89_linear_1391_279375)"/>
<path opacity="0.3" d="M250.324 183.249C245.152 191.982 241.344 200.692 239.343 207.94C239.27 208.204 239.199 208.465 239.132 208.723C239.388 210.096 242.305 212.047 246.418 213.498C246.273 212.758 246.091 212.025 245.87 211.298C242.509 200.307 262.062 178.441 274.047 167.044C278.906 162.425 280.566 158.938 280.897 156.463C280.486 156.069 280.002 155.779 279.445 155.6C273.527 153.699 260.882 165.42 250.324 183.249Z" fill="url(#paint90_linear_1391_279375)"/>
<path d="M251.532 211.346L245.902 209.626C242.908 208.712 239.397 209.383 237.002 211.342L234.705 213.222C233.853 213.918 234.081 215.039 235.145 215.365L254.167 221.188C255.235 221.514 256.411 220.823 256.421 219.867L256.446 217.289C256.473 214.602 254.529 212.262 251.532 211.346Z" fill="url(#paint91_linear_1391_279375)"/>
<path d="M256.009 221.006C255.149 222.756 249.474 222.662 243.343 220.784C237.218 218.908 233.033 215.983 233.983 214.265C234.926 212.56 240.573 212.683 246.608 214.529C252.648 216.376 256.862 219.271 256.009 221.006Z" fill="url(#paint92_linear_1391_279375)"/>
<path d="M253.36 220.199C252.699 221.525 248.388 221.451 243.738 220.027C239.09 218.603 235.907 216.384 236.621 215.076C237.33 213.776 241.624 213.868 246.219 215.273C250.818 216.68 254.017 218.882 253.36 220.199Z" fill="url(#paint93_linear_1391_279375)"/>
<path d="M303.49 200.56C299.527 209.753 296.886 218.91 295.825 226.518C295.785 226.795 295.748 227.069 295.715 227.34C296.131 228.775 299.209 230.786 303.389 232.259C303.617 232.338 303.844 232.417 304.075 232.493C308.99 234.112 313.441 234.359 314.441 233.141C314.459 233.116 314.477 233.092 314.497 233.063C319.124 226.544 323.637 217.809 327.116 208.252C333.469 190.8 334.305 176.155 329.94 172.22C329.493 171.812 328.987 171.515 328.423 171.334C322.438 169.411 311.578 181.8 303.49 200.56Z" fill="url(#paint94_linear_1391_279375)"/>
<path d="M295.736 226.679C295.65 226.88 295.646 227.104 295.713 227.343C296.152 228.855 299.549 231.007 304.073 232.497C308.988 234.115 313.44 234.362 314.44 233.144C314.458 233.12 314.476 233.095 314.495 233.067C314.534 233.01 314.566 232.947 314.591 232.881C315.15 231.379 311.4 228.789 306.223 227.088C301.244 225.452 296.712 225.218 295.823 226.521C295.788 226.57 295.76 226.622 295.736 226.679Z" fill="url(#paint95_linear_1391_279375)"/>
<path opacity="0.3" d="M303.49 200.56C299.527 209.753 296.886 218.91 295.825 226.518C295.785 226.795 295.748 227.069 295.715 227.34C296.131 228.775 299.209 230.786 303.389 232.259C303.157 231.485 302.891 230.72 302.587 229.962C297.973 218.494 314.319 195.402 324.578 183.355C328.736 178.473 329.922 174.81 329.94 172.22C329.493 171.812 328.987 171.515 328.423 171.334C322.438 169.411 311.578 181.8 303.49 200.56Z" fill="url(#paint96_linear_1391_279375)"/>
<path d="M308.097 229.948L302.408 228.21C299.383 227.285 296.049 228.027 293.957 230.105L291.95 232.098C291.206 232.837 291.566 234.007 292.641 234.337L311.867 240.224C312.946 240.554 314.006 239.816 313.898 238.815L313.607 236.116C313.304 233.302 311.126 230.874 308.097 229.948Z" fill="url(#paint97_linear_1391_279375)"/>
<path d="M313.635 240.017C313.013 241.859 307.477 241.823 301.281 239.924C295.089 238.027 290.658 235.012 291.374 233.201C292.083 231.406 297.594 231.473 303.693 233.339C309.797 235.206 314.253 238.19 313.635 240.017Z" fill="url(#paint98_linear_1391_279375)"/>
<path d="M310.958 239.2C310.477 240.596 306.272 240.565 301.572 239.126C296.875 237.687 293.505 235.398 294.039 234.02C294.571 232.651 298.762 232.7 303.405 234.12C308.052 235.542 311.436 237.813 310.958 239.2Z" fill="url(#paint99_linear_1391_279375)"/>
<path d="M284.97 145.71C284.34 146.844 285.159 148.195 286.804 148.722L331.892 163.157C333.555 163.689 335.28 163.146 335.743 161.951L335.814 161.768C336.273 160.582 335.311 159.202 333.669 158.677L289.136 144.446C287.511 143.926 285.691 144.412 285.066 145.537L284.97 145.71Z" fill="url(#paint100_linear_1391_279375)"/>
<path d="M308.064 236.041C308.064 236.041 312.435 248.656 310.143 255.875C309.326 253.879 308.178 253.116 308.178 253.116C308.178 253.116 290.964 283.9 284.759 288.793C287.399 259.269 292.226 246.81 292.226 246.81L284.763 250.705C284.763 250.705 291.711 234.969 299.418 233.207C299.418 233.207 306.168 234.763 308.064 236.041Z" fill="url(#paint101_linear_1391_279375)"/>
<path d="M250.239 216.858C250.239 216.858 254.61 229.472 252.319 236.691C251.501 234.695 250.353 233.932 250.353 233.932C250.353 233.932 233.14 264.717 226.935 269.61C229.574 240.085 234.401 227.627 234.401 227.627L226.939 231.521C226.939 231.521 233.887 215.785 241.594 214.024C241.594 214.024 248.344 215.579 250.239 216.858Z" fill="url(#paint102_linear_1391_279375)"/>
<path d="M527.678 488.836L401.635 459.128L365.932 464.906L365.887 469.714L482.031 504.231L527.678 488.836Z" fill="url(#paint103_linear_1391_279375)"/>
<path d="M504.831 475.848C515.574 479.86 530.122 485.377 549.803 485.072C562.335 484.878 569.18 484.772 573.694 481.264C588.727 469.583 563.131 430.583 511.324 353.061C494.756 328.269 483.852 313.331 461.755 306.157C436.668 298.013 412.403 304.827 403.492 307.33C397.204 309.095 346.131 324.199 336.249 364.259C328.173 396.997 350.852 433.236 392.862 450.591C395.393 447.682 397.924 444.772 400.455 441.863C396.644 436.671 389.339 425.105 389.275 409.492C389.206 392.758 397.462 373.03 404.194 373.334C414.926 373.818 401.8 424.292 438.353 451.754C444.269 456.199 440.588 451.853 504.831 475.848Z" fill="url(#paint104_linear_1391_279375)"/>
<path d="M355.009 388.636C357.45 375.259 365.04 333.662 396.264 323.76C420.746 315.997 444.733 332.484 456.355 322.495C461.057 318.453 461.503 311.995 460.445 305.756C460.88 305.889 461.315 306.015 461.75 306.157C483.847 313.33 494.751 328.268 511.319 353.061C563.125 430.583 588.722 469.582 573.689 481.264C569.175 484.771 562.33 484.877 549.798 485.072C530.117 485.377 515.57 479.86 504.826 475.847C440.583 451.852 444.264 456.198 438.348 451.754C401.795 424.292 414.921 373.818 404.189 373.334C397.456 373.03 389.201 392.757 389.27 409.492C389.334 425.105 396.64 436.671 400.45 441.863C397.919 444.772 395.388 447.681 392.857 450.591C377.283 444.156 364.372 435.122 354.693 424.637C352.981 413.997 352.603 401.826 355.009 388.636Z" fill="url(#paint105_linear_1391_279375)"/>
<path d="M529.611 471.262L521.174 468.275C521.174 468.275 568.885 428.949 480.866 347.007C480.866 347.007 437.57 300.087 459.29 304.329C487.428 309.825 533.417 321.445 575.497 370.03C617.577 418.616 592.783 460.552 529.611 471.262Z" fill="url(#paint106_linear_1391_279375)"/>
<path d="M529.613 471.262C529.613 471.262 524.972 466.309 513.85 465.57C502.727 464.83 484.962 470.801 481.425 475.164C477.887 479.527 481.197 482.247 485.697 482.096C490.196 481.945 496.428 476.87 504.831 475.85C513.235 474.829 529.922 485.353 529.613 471.262Z" fill="#F5D1B7"/>
<path d="M414.573 306.714C417.217 305.026 417.794 301.908 415.883 299.627L410.256 292.911L416.277 283.862L437.038 297.035C442.55 300.532 449 302.866 455.83 303.835L459.292 304.326C459.292 304.326 439.089 313.196 428.747 316.016C418.404 318.836 406.21 312.051 406.21 312.051L414.573 306.714Z" fill="url(#paint107_linear_1391_279375)"/>
<path d="M390.883 265.743L389.53 265.501C383.958 264.507 378.151 268.757 376.56 274.994L376.47 275.344C374.88 281.582 378.107 287.444 383.68 288.439L385.033 288.681C387.844 289.182 391.432 284.454 393.048 278.12C394.664 271.787 393.694 266.245 390.883 265.743Z" fill="url(#paint108_linear_1391_279375)"/>
<path d="M396.222 278.694C394.454 285.627 389.764 290.666 385.611 289.925C381.459 289.184 379.417 282.943 381.185 276.01C382.953 269.077 387.862 264.077 392.015 264.819C396.167 265.56 397.99 271.761 396.222 278.694Z" fill="url(#paint109_linear_1391_279375)"/>
<path d="M385.395 289.881L386.981 290.165L393.384 265.058L391.799 264.775L385.395 289.881Z" fill="url(#paint110_linear_1391_279375)"/>
<path d="M397.699 278.953C395.93 285.886 391.131 290.905 386.978 290.164C382.826 289.423 380.893 283.202 382.661 276.269C384.43 269.336 389.229 264.316 393.382 265.058C397.534 265.799 399.467 272.02 397.699 278.953Z" fill="url(#paint111_linear_1391_279375)"/>
<path opacity="0.6" d="M394.271 278.342C393.31 282.111 390.7 284.841 388.442 284.437C386.184 284.034 385.133 280.652 386.095 276.882C387.056 273.112 389.666 270.383 391.924 270.786C394.182 271.19 395.233 274.572 394.271 278.342Z" fill="url(#paint112_linear_1391_279375)"/>
<path d="M421.693 292.783C421.693 292.783 442.789 280.409 438.105 274.996C433.42 269.582 426.66 270.566 424.381 268.711C422.102 266.856 411.829 256.329 398.495 258.995C385.161 261.661 380.339 250.007 377.625 258.798C374.912 267.588 370.363 283.116 389.328 283.63C408.293 284.144 421.693 292.783 421.693 292.783Z" fill="#26264F"/>
<path d="M419.266 294.576C419.266 294.576 412.631 302.382 399.325 301.155C387.435 300.057 385.579 280.295 393.136 276.442C395.659 275.156 400.728 274.791 404.861 275.82C407.304 276.428 408.136 277.211 412.15 278.148C415.857 279.014 416.9 278.755 418.022 279.496C419.427 280.424 420.466 282.596 418.17 288.264C420.435 286.662 423.162 286.127 425.104 286.885C425.414 287.007 426.237 287.453 426.703 288.096C428.388 290.423 425.615 293.182 419.266 294.576Z" fill="#F5D1B7"/>
<path d="M426.952 271.56L425.864 275.979L424.141 275.685L425.228 271.266C425.864 268.685 425.632 266.136 424.716 263.885C424.109 262.372 423.175 260.996 421.992 259.831C420.321 258.186 418.133 256.97 415.584 256.405L415.514 256.388L407.05 254.499C403.053 253.61 398.874 254.275 395.283 256.394C394.272 256.99 393.348 257.677 392.522 258.439C392.254 258.674 392.005 258.917 391.765 259.177C391.273 259.082 390.426 258.919 389.845 258.798C390.324 258.238 390.842 257.695 391.419 257.192C392.305 256.374 393.298 255.638 394.389 255.002C394.647 254.857 394.895 254.711 395.153 254.575C398.672 252.725 402.634 252.067 406.485 252.693C406.839 252.745 407.194 252.814 407.538 252.891L412.47 253.994L416.072 254.797C419.507 255.566 422.351 257.362 424.311 259.779C425.15 260.786 425.82 261.905 426.322 263.097C427.402 265.67 427.68 268.595 426.952 271.56Z" fill="url(#paint113_linear_1391_279375)"/>
<path d="M393.301 258.714C394.001 258.839 394.766 258.696 395.41 258.262C398.692 256.044 402.755 255.26 406.556 256.108L415.092 258.013C418.073 258.678 420.58 260.379 422.152 262.8C422.894 263.945 424.522 264.265 425.787 263.515C427.052 262.764 427.475 261.228 426.732 260.083C424.469 256.595 420.858 254.147 416.564 253.189L408.029 251.284C402.708 250.096 397.026 251.194 392.436 254.295C391.22 255.116 390.901 256.67 391.722 257.765C392.108 258.281 392.679 258.602 393.301 258.714Z" fill="url(#paint114_linear_1391_279375)"/>
<path opacity="0.3" d="M398.203 254.414C404.993 253.806 405.436 252.211 408.784 252.682C415.044 253.561 416.147 259.507 422.372 259.86C423.831 259.943 425.152 259.694 426.232 259.362C426.406 259.598 426.573 259.839 426.733 260.085C427.476 261.23 427.053 262.767 425.788 263.517C424.523 264.267 422.896 263.947 422.153 262.802C420.581 260.381 418.074 258.681 415.093 258.015L406.558 256.11C402.756 255.262 398.693 256.047 395.411 258.264C394.768 258.699 394.002 258.841 393.302 258.716C392.68 258.605 392.11 258.283 391.723 257.767C390.979 256.775 391.171 255.405 392.119 254.547C393.858 254.626 395.913 254.619 398.203 254.414Z" fill="url(#paint115_linear_1391_279375)"/>
<path d="M415.147 281.853C413.36 288.862 415.314 295.152 419.512 295.902C423.71 296.651 428.563 291.576 430.35 284.567C432.138 277.558 430.184 271.268 425.986 270.519C421.788 269.769 416.935 274.844 415.147 281.853Z" fill="url(#paint116_linear_1391_279375)"/>
<path d="M416.638 282.119C414.85 289.128 416.804 295.418 421.002 296.167C425.2 296.917 430.053 291.842 431.84 284.833C433.628 277.823 431.674 271.534 427.476 270.784C423.278 270.035 418.425 275.11 416.638 282.119Z" fill="url(#paint117_linear_1391_279375)"/>
<path d="M428.944 272.194L430.312 272.438C435.946 273.444 439.209 279.371 437.601 285.677L437.51 286.031C435.902 292.337 430.031 296.634 424.397 295.629L423.029 295.384C420.187 294.877 419.207 289.274 420.841 282.87C422.474 276.466 426.102 271.686 428.944 272.194Z" fill="url(#paint118_linear_1391_279375)"/>
<path d="M427.548 283.88C426.369 288.502 427.664 292.651 430.439 293.146C433.215 293.642 436.421 290.296 437.6 285.674C438.779 281.052 437.484 276.903 434.709 276.407C431.933 275.912 428.727 279.257 427.548 283.88Z" fill="url(#paint119_linear_1391_279375)"/>
<path d="M477.831 493.716L467.281 364.73C467.114 362.689 465.029 360.767 462.246 360.09L261.286 311.199C259.486 310.761 256.025 311.14 254.646 311.834C253.267 312.528 251.712 312.361 251.767 313.676L259.061 432.853C259.182 434.836 261.127 436.733 263.808 437.482L473.48 496.143L477.831 493.716Z" fill="url(#paint120_linear_1391_279375)"/>
<path d="M473.478 496.148L462.511 366.079C462.34 364.04 460.256 362.123 457.478 361.447L256.508 312.553C254.709 312.115 252.865 312.264 251.485 312.958C250.106 313.651 249.338 314.817 249.393 316.133L254.343 434.108C254.429 436.136 256.434 438.087 259.191 438.825L473.478 496.148Z" fill="url(#paint121_linear_1391_279375)"/>
<path opacity="0.3" d="M473.482 496.145L259.194 438.822C256.437 438.084 254.432 436.133 254.347 434.105L252.854 398.525C316.302 432.899 396.47 446.698 471.016 466.907L473.482 496.145Z" fill="url(#paint122_linear_1391_279375)"/>
<path d="M366.557 499.092L374.14 503.091C374.14 503.091 410.443 490.117 412.616 489.339C412.961 489.216 414.463 487.692 412.638 487.042C402.975 483.602 366.06 475.317 366.06 475.317L346.737 482.725L366.557 499.092Z" fill="url(#paint123_linear_1391_279375)"/>
<path d="M366.577 496.796L374.16 500.796C374.16 500.796 410.462 487.823 412.636 487.044C414.809 486.265 366.08 473.022 366.08 473.022L346.756 480.429L366.577 496.796Z" fill="url(#paint124_linear_1391_279375)"/>
<path d="M329.894 396.945C329.894 396.945 310.838 477.996 308.87 482.505C307.053 486.668 358.723 500.713 371.085 503.4C372.113 503.624 373.651 503.264 374.136 503.096C377.663 503.396 362.147 404.907 362.147 404.907L360.946 404.696L329.894 396.945Z" fill="url(#paint125_linear_1391_279375)"/>
<path d="M329.898 396.942C329.898 396.942 307.631 478.229 305.663 482.738C303.696 487.247 365.482 502.479 370.93 503.329C374.456 503.629 360.951 404.693 360.951 404.693L329.898 396.942Z" fill="url(#paint126_linear_1391_279375)"/>
<defs>
<linearGradient id="paint0_linear_1391_279375" x1="88.4697" y1="-346.868" x2="249.125" y2="300.319" gradientUnits="userSpaceOnUse">
<stop stop-color="#444B8C"/>
<stop offset="0.9964" stop-color="#26264F"/>
</linearGradient>
<linearGradient id="paint1_linear_1391_279375" x1="238.884" y1="62.7866" x2="393.601" y2="686.051" gradientUnits="userSpaceOnUse">
<stop stop-color="#444B8C"/>
<stop offset="0.9964" stop-color="#26264F"/>
</linearGradient>
<linearGradient id="paint2_linear_1391_279375" x1="14.5059" y1="183.713" x2="559.08" y2="188.855" gradientUnits="userSpaceOnUse">
<stop stop-color="#444B8C"/>
<stop offset="0.9964" stop-color="#26264F"/>
</linearGradient>
<linearGradient id="paint3_linear_1391_279375" x1="-109.592" y1="221.152" x2="242.131" y2="224.473" gradientUnits="userSpaceOnUse">
<stop stop-color="#444B8C"/>
<stop offset="0.9964" stop-color="#26264F"/>
</linearGradient>
<linearGradient id="paint4_linear_1391_279375" x1="65.0283" y1="205.034" x2="266.197" y2="206.934" gradientUnits="userSpaceOnUse">
<stop stop-color="#444B8C"/>
<stop offset="0.9964" stop-color="#26264F"/>
</linearGradient>
<linearGradient id="paint5_linear_1391_279375" x1="230.15" y1="197.151" x2="290.189" y2="197.718" gradientUnits="userSpaceOnUse">
<stop stop-color="#444B8C"/>
<stop offset="0.9964" stop-color="#26264F"/>
</linearGradient>
<linearGradient id="paint6_linear_1391_279375" x1="312.286" y1="196.166" x2="387.766" y2="196.879" gradientUnits="userSpaceOnUse">
<stop stop-color="#444B8C"/>
<stop offset="0.9964" stop-color="#26264F"/>
</linearGradient>
<linearGradient id="paint7_linear_1391_279375" x1="335.841" y1="201.612" x2="534.622" y2="203.489" gradientUnits="userSpaceOnUse">
<stop stop-color="#444B8C"/>
<stop offset="0.9964" stop-color="#26264F"/>
</linearGradient>
<linearGradient id="paint8_linear_1391_279375" x1="358.988" y1="213.592" x2="672.866" y2="216.556" gradientUnits="userSpaceOnUse">
<stop stop-color="#444B8C"/>
<stop offset="0.9964" stop-color="#26264F"/>
</linearGradient>
<linearGradient id="paint9_linear_1391_279375" x1="-56.3791" y1="111.82" x2="637.699" y2="118.374" gradientUnits="userSpaceOnUse">
<stop stop-color="#444B8C"/>
<stop offset="0.9964" stop-color="#26264F"/>
</linearGradient>
<linearGradient id="paint10_linear_1391_279375" x1="-56.0554" y1="54.6638" x2="635.5" y2="61.1936" gradientUnits="userSpaceOnUse">
<stop stop-color="#444B8C"/>
<stop offset="0.9964" stop-color="#26264F"/>
</linearGradient>
<linearGradient id="paint11_linear_1391_279375" x1="-56.7919" y1="185.491" x2="640.535" y2="192.076" gradientUnits="userSpaceOnUse">
<stop stop-color="#444B8C"/>
<stop offset="0.9964" stop-color="#26264F"/>
</linearGradient>
<linearGradient id="paint12_linear_1391_279375" x1="-57.21" y1="260.002" x2="643.396" y2="266.617" gradientUnits="userSpaceOnUse">
<stop stop-color="#444B8C"/>
<stop offset="0.9964" stop-color="#26264F"/>
</linearGradient>
<linearGradient id="paint13_linear_1391_279375" x1="-57.6355" y1="335.197" x2="646.28" y2="341.844" gradientUnits="userSpaceOnUse">
<stop stop-color="#444B8C"/>
<stop offset="0.9964" stop-color="#26264F"/>
</linearGradient>
<linearGradient id="paint14_linear_1391_279375" x1="7.26311" y1="294.83" x2="570.882" y2="300.152" gradientUnits="userSpaceOnUse">
<stop stop-color="#444B8C"/>
<stop offset="0.9964" stop-color="#26264F"/>
</linearGradient>
<linearGradient id="paint15_linear_1391_279375" x1="486.369" y1="-333.189" x2="266.074" y2="704.251" gradientUnits="userSpaceOnUse">
<stop stop-color="#444B8C"/>
<stop offset="0.9964" stop-color="#26264F"/>
</linearGradient>
<linearGradient id="paint16_linear_1391_279375" x1="279.149" y1="167.526" x2="238.901" y2="357.067" gradientUnits="userSpaceOnUse">
<stop stop-color="#444B8C"/>
<stop offset="0.9964" stop-color="#26264F"/>
</linearGradient>
<linearGradient id="paint17_linear_1391_279375" x1="403.664" y1="170.032" x2="364.509" y2="354.423" gradientUnits="userSpaceOnUse">
<stop stop-color="#444B8C"/>
<stop offset="0.9964" stop-color="#26264F"/>
</linearGradient>
<linearGradient id="paint18_linear_1391_279375" x1="291.103" y1="258.275" x2="280.816" y2="306.72" gradientUnits="userSpaceOnUse">
<stop stop-color="#444B8C"/>
<stop offset="0.9964" stop-color="#26264F"/>
</linearGradient>
<linearGradient id="paint19_linear_1391_279375" x1="314.38" y1="258.283" x2="304.145" y2="306.481" gradientUnits="userSpaceOnUse">
<stop stop-color="#444B8C"/>
<stop offset="0.9964" stop-color="#26264F"/>
</linearGradient>
<linearGradient id="paint20_linear_1391_279375" x1="337.453" y1="258.295" x2="327.27" y2="306.248" gradientUnits="userSpaceOnUse">
<stop stop-color="#444B8C"/>
<stop offset="0.9964" stop-color="#26264F"/>
</linearGradient>
<linearGradient id="paint21_linear_1391_279375" x1="322.836" y1="221.095" x2="303.698" y2="311.219" gradientUnits="userSpaceOnUse">
<stop stop-color="#444B8C"/>
<stop offset="0.9964" stop-color="#26264F"/>
</linearGradient>
<linearGradient id="paint22_linear_1391_279375" x1="159.852" y1="148.418" x2="107.793" y2="393.582" gradientUnits="userSpaceOnUse">
<stop stop-color="#444B8C"/>
<stop offset="0.9964" stop-color="#26264F"/>
</linearGradient>
<linearGradient id="paint23_linear_1391_279375" x1="458.136" y1="269.631" x2="450.173" y2="307.129" gradientUnits="userSpaceOnUse">
<stop stop-color="#444B8C"/>
<stop offset="0.9964" stop-color="#26264F"/>
</linearGradient>
<linearGradient id="paint24_linear_1391_279375" x1="475.408" y1="269.606" x2="467.472" y2="306.98" gradientUnits="userSpaceOnUse">
<stop stop-color="#444B8C"/>
<stop offset="0.9964" stop-color="#26264F"/>
</linearGradient>
<linearGradient id="paint25_linear_1391_279375" x1="492.178" y1="269.911" x2="484.39" y2="306.589" gradientUnits="userSpaceOnUse">
<stop stop-color="#444B8C"/>
<stop offset="0.9964" stop-color="#26264F"/>
</linearGradient>
<linearGradient id="paint26_linear_1391_279375" x1="530.928" y1="222.81" x2="504.624" y2="346.682" gradientUnits="userSpaceOnUse">
<stop stop-color="#444B8C"/>
<stop offset="0.9964" stop-color="#26264F"/>
</linearGradient>
<linearGradient id="paint27_linear_1391_279375" x1="539.775" y1="223.507" x2="513.742" y2="346.103" gradientUnits="userSpaceOnUse">
<stop stop-color="#444B8C"/>
<stop offset="0.9964" stop-color="#26264F"/>
</linearGradient>
<linearGradient id="paint28_linear_1391_279375" x1="549.024" y1="222.941" x2="522.823" y2="346.328" gradientUnits="userSpaceOnUse">
<stop stop-color="#444B8C"/>
<stop offset="0.9964" stop-color="#26264F"/>
</linearGradient>
<linearGradient id="paint29_linear_1391_279375" x1="558.508" y1="223.012" x2="532.358" y2="346.159" gradientUnits="userSpaceOnUse">
<stop stop-color="#444B8C"/>
<stop offset="0.9964" stop-color="#26264F"/>
</linearGradient>
<linearGradient id="paint30_linear_1391_279375" x1="567.371" y1="223.709" x2="541.487" y2="345.605" gradientUnits="userSpaceOnUse">
<stop stop-color="#444B8C"/>
<stop offset="0.9964" stop-color="#26264F"/>
</linearGradient>
<linearGradient id="paint31_linear_1391_279375" x1="136.315" y1="-89.3624" x2="72.3796" y2="211.732" gradientUnits="userSpaceOnUse">
<stop stop-color="#444B8C"/>
<stop offset="0.9964" stop-color="#26264F"/>
</linearGradient>
<linearGradient id="paint32_linear_1391_279375" x1="107.853" y1="58.73" x2="72.5961" y2="224.766" gradientUnits="userSpaceOnUse">
<stop stop-color="#444B8C"/>
<stop offset="0.9964" stop-color="#26264F"/>
</linearGradient>
<linearGradient id="paint33_linear_1391_279375" x1="108.471" y1="91.2195" x2="72.6325" y2="259.992" gradientUnits="userSpaceOnUse">
<stop stop-color="#444B8C"/>
<stop offset="0.9964" stop-color="#26264F"/>
</linearGradient>
<linearGradient id="paint34_linear_1391_279375" x1="464.538" y1="102.598" x2="478.357" y2="102.729" gradientUnits="userSpaceOnUse">
<stop stop-color="#444B8C"/>
<stop offset="0.9964" stop-color="#26264F"/>
</linearGradient>
<linearGradient id="paint35_linear_1391_279375" x1="24.559" y1="231.407" x2="38.3788" y2="231.537" gradientUnits="userSpaceOnUse">
<stop stop-color="#444B8C"/>
<stop offset="0.9964" stop-color="#26264F"/>
</linearGradient>
<linearGradient id="paint36_linear_1391_279375" x1="488.839" y1="89.8124" x2="496.995" y2="89.8895" gradientUnits="userSpaceOnUse">
<stop stop-color="#444B8C"/>
<stop offset="0.9964" stop-color="#26264F"/>
</linearGradient>
<linearGradient id="paint37_linear_1391_279375" x1="533.048" y1="201.105" x2="541.204" y2="201.182" gradientUnits="userSpaceOnUse">
<stop stop-color="#444B8C"/>
<stop offset="0.9964" stop-color="#26264F"/>
</linearGradient>
<linearGradient id="paint38_linear_1391_279375" x1="159.57" y1="76.3867" x2="167.726" y2="76.4637" gradientUnits="userSpaceOnUse">
<stop stop-color="#444B8C"/>
<stop offset="0.9964" stop-color="#26264F"/>
</linearGradient>
<linearGradient id="paint39_linear_1391_279375" x1="126.349" y1="209.684" x2="134.505" y2="209.761" gradientUnits="userSpaceOnUse">
<stop stop-color="#444B8C"/>
<stop offset="0.9964" stop-color="#26264F"/>
</linearGradient>
<linearGradient id="paint40_linear_1391_279375" x1="95.4257" y1="238.768" x2="106.369" y2="238.871" gradientUnits="userSpaceOnUse">
<stop stop-color="#444B8C"/>
<stop offset="0.9964" stop-color="#26264F"/>
</linearGradient>
<linearGradient id="paint41_linear_1391_279375" x1="492.711" y1="-333.121" x2="272.416" y2="704.32" gradientUnits="userSpaceOnUse">
<stop stop-color="#FFDAB8"/>
<stop offset="0.9964" stop-color="#FFDAB8"/>
</linearGradient>
<linearGradient id="paint42_linear_1391_279375" x1="23.5976" y1="288.835" x2="570.452" y2="361.494" gradientUnits="userSpaceOnUse">
<stop stop-color="#FB8D48"/>
<stop offset="0.2" stop-color="#ED7136"/>
<stop offset="0.3999" stop-color="#C54E47"/>
<stop offset="0.4" stop-color="#C14F49"/>
<stop offset="0.6" stop-color="#9D3863"/>
<stop offset="0.8" stop-color="#5E1F72"/>
</linearGradient>
<linearGradient id="paint43_linear_1391_279375" x1="231.032" y1="282.83" x2="269.218" y2="284.103" gradientUnits="userSpaceOnUse">
<stop stop-color="#FB8D48"/>
<stop offset="0.2" stop-color="#ED7136"/>
<stop offset="0.3999" stop-color="#C54E47"/>
<stop offset="0.4" stop-color="#C14F49"/>
<stop offset="0.6" stop-color="#9D3863"/>
<stop offset="0.8" stop-color="#5E1F72"/>
</linearGradient>
<linearGradient id="paint44_linear_1391_279375" x1="357.398" y1="282.201" x2="393.788" y2="283.394" gradientUnits="userSpaceOnUse">
<stop stop-color="#FB8D48"/>
<stop offset="0.2" stop-color="#ED7136"/>
<stop offset="0.3999" stop-color="#C54E47"/>
<stop offset="0.4" stop-color="#C14F49"/>
<stop offset="0.6" stop-color="#9D3863"/>
<stop offset="0.8" stop-color="#5E1F72"/>
</linearGradient>
<linearGradient id="paint45_linear_1391_279375" x1="283.554" y1="287.793" x2="293.249" y2="288.115" gradientUnits="userSpaceOnUse">
<stop stop-color="#FB8D48"/>
<stop offset="0.2" stop-color="#ED7136"/>
<stop offset="0.3999" stop-color="#C54E47"/>
<stop offset="0.4" stop-color="#C14F49"/>
<stop offset="0.6" stop-color="#9D3863"/>
<stop offset="0.8" stop-color="#5E1F72"/>
</linearGradient>
<linearGradient id="paint46_linear_1391_279375" x1="306.92" y1="287.651" x2="316.529" y2="287.968" gradientUnits="userSpaceOnUse">
<stop stop-color="#FB8D48"/>
<stop offset="0.2" stop-color="#ED7136"/>
<stop offset="0.3999" stop-color="#C54E47"/>
<stop offset="0.4" stop-color="#C14F49"/>
<stop offset="0.6" stop-color="#9D3863"/>
<stop offset="0.8" stop-color="#5E1F72"/>
</linearGradient>
<linearGradient id="paint47_linear_1391_279375" x1="330.081" y1="287.514" x2="339.605" y2="287.828" gradientUnits="userSpaceOnUse">
<stop stop-color="#FB8D48"/>
<stop offset="0.2" stop-color="#ED7136"/>
<stop offset="0.3999" stop-color="#C54E47"/>
<stop offset="0.4" stop-color="#C14F49"/>
<stop offset="0.6" stop-color="#9D3863"/>
<stop offset="0.8" stop-color="#5E1F72"/>
</linearGradient>
<linearGradient id="paint48_linear_1391_279375" x1="283.823" y1="276.514" x2="337.751" y2="291.491" gradientUnits="userSpaceOnUse">
<stop stop-color="#FB8D48"/>
<stop offset="0.2" stop-color="#ED7136"/>
<stop offset="0.3999" stop-color="#C54E47"/>
<stop offset="0.4" stop-color="#C14F49"/>
<stop offset="0.6" stop-color="#9D3863"/>
<stop offset="0.8" stop-color="#5E1F72"/>
</linearGradient>
<linearGradient id="paint49_linear_1391_279375" x1="51.1663" y1="298.851" x2="187.49" y2="323.51" gradientUnits="userSpaceOnUse">
<stop stop-color="#FB8D48"/>
<stop offset="0.2" stop-color="#ED7136"/>
<stop offset="0.3999" stop-color="#C54E47"/>
<stop offset="0.4" stop-color="#C14F49"/>
<stop offset="0.6" stop-color="#9D3863"/>
<stop offset="0.8" stop-color="#5E1F72"/>
</linearGradient>
<linearGradient id="paint50_linear_1391_279375" x1="453.624" y1="292.506" x2="461.31" y2="292.766" gradientUnits="userSpaceOnUse">
<stop stop-color="#FB8D48"/>
<stop offset="0.2" stop-color="#ED7136"/>
<stop offset="0.3999" stop-color="#C54E47"/>
<stop offset="0.4" stop-color="#C14F49"/>
<stop offset="0.6" stop-color="#9D3863"/>
<stop offset="0.8" stop-color="#5E1F72"/>
</linearGradient>
<linearGradient id="paint51_linear_1391_279375" x1="470.933" y1="292.393" x2="478.62" y2="292.655" gradientUnits="userSpaceOnUse">
<stop stop-color="#FB8D48"/>
<stop offset="0.2" stop-color="#ED7136"/>
<stop offset="0.3999" stop-color="#C54E47"/>
<stop offset="0.4" stop-color="#C14F49"/>
<stop offset="0.6" stop-color="#9D3863"/>
<stop offset="0.8" stop-color="#5E1F72"/>
</linearGradient>
<linearGradient id="paint52_linear_1391_279375" x1="488.227" y1="292.261" x2="495.063" y2="292.477" gradientUnits="userSpaceOnUse">
<stop stop-color="#FB8D48"/>
<stop offset="0.2" stop-color="#ED7136"/>
<stop offset="0.3999" stop-color="#C54E47"/>
<stop offset="0.4" stop-color="#C14F49"/>
<stop offset="0.6" stop-color="#9D3863"/>
<stop offset="0.8" stop-color="#5E1F72"/>
</linearGradient>
<linearGradient id="paint53_linear_1391_279375" x1="511.396" y1="298.287" x2="516.512" y2="298.36" gradientUnits="userSpaceOnUse">
<stop stop-color="#FB8D48"/>
<stop offset="0.2" stop-color="#ED7136"/>
<stop offset="0.3999" stop-color="#C54E47"/>
<stop offset="0.4" stop-color="#C14F49"/>
<stop offset="0.6" stop-color="#9D3863"/>
<stop offset="0.8" stop-color="#5E1F72"/>
</linearGradient>
<linearGradient id="paint54_linear_1391_279375" x1="520.897" y1="298.197" x2="525.169" y2="298.255" gradientUnits="userSpaceOnUse">
<stop stop-color="#FB8D48"/>
<stop offset="0.2" stop-color="#ED7136"/>
<stop offset="0.3999" stop-color="#C54E47"/>
<stop offset="0.4" stop-color="#C14F49"/>
<stop offset="0.6" stop-color="#9D3863"/>
<stop offset="0.8" stop-color="#5E1F72"/>
</linearGradient>
<linearGradient id="paint55_linear_1391_279375" x1="529.57" y1="298.12" x2="534.708" y2="298.194" gradientUnits="userSpaceOnUse">
<stop stop-color="#FB8D48"/>
<stop offset="0.2" stop-color="#ED7136"/>
<stop offset="0.3999" stop-color="#C54E47"/>
<stop offset="0.4" stop-color="#C14F49"/>
<stop offset="0.6" stop-color="#9D3863"/>
<stop offset="0.8" stop-color="#5E1F72"/>
</linearGradient>
<linearGradient id="paint56_linear_1391_279375" x1="539.098" y1="298.045" x2="544.248" y2="298.119" gradientUnits="userSpaceOnUse">
<stop stop-color="#FB8D48"/>
<stop offset="0.2" stop-color="#ED7136"/>
<stop offset="0.3999" stop-color="#C54E47"/>
<stop offset="0.4" stop-color="#C14F49"/>
<stop offset="0.6" stop-color="#9D3863"/>
<stop offset="0.8" stop-color="#5E1F72"/>
</linearGradient>
<linearGradient id="paint57_linear_1391_279375" x1="548.609" y1="297.972" x2="552.915" y2="298.031" gradientUnits="userSpaceOnUse">
<stop stop-color="#FB8D48"/>
<stop offset="0.2" stop-color="#ED7136"/>
<stop offset="0.3999" stop-color="#C54E47"/>
<stop offset="0.4" stop-color="#C14F49"/>
<stop offset="0.6" stop-color="#9D3863"/>
<stop offset="0.8" stop-color="#5E1F72"/>
</linearGradient>
<linearGradient id="paint58_linear_1391_279375" x1="48.3422" y1="158.785" x2="119.319" y2="164.948" gradientUnits="userSpaceOnUse">
<stop stop-color="#FB8D48"/>
<stop offset="0.2" stop-color="#ED7136"/>
<stop offset="0.3999" stop-color="#C54E47"/>
<stop offset="0.4" stop-color="#C14F49"/>
<stop offset="0.6" stop-color="#9D3863"/>
<stop offset="0.8" stop-color="#5E1F72"/>
</linearGradient>
<linearGradient id="paint59_linear_1391_279375" x1="131.851" y1="412.143" x2="201.475" y2="414.427" gradientUnits="userSpaceOnUse">
<stop stop-color="#FB8D48"/>
<stop offset="0.2" stop-color="#ED7136"/>
<stop offset="0.3999" stop-color="#C54E47"/>
<stop offset="0.4" stop-color="#C14F49"/>
<stop offset="0.6" stop-color="#9D3863"/>
<stop offset="0.8" stop-color="#5E1F72"/>
</linearGradient>
<linearGradient id="paint60_linear_1391_279375" x1="138.918" y1="412.737" x2="199.265" y2="414.855" gradientUnits="userSpaceOnUse">
<stop stop-color="#FB8D48"/>
<stop offset="0.2" stop-color="#ED7136"/>
<stop offset="0.3999" stop-color="#C54E47"/>
<stop offset="0.4" stop-color="#C14F49"/>
<stop offset="0.6" stop-color="#9D3863"/>
<stop offset="0.8" stop-color="#5E1F72"/>
</linearGradient>
<linearGradient id="paint61_linear_1391_279375" x1="131.26" y1="430.828" x2="158.577" y2="431.681" gradientUnits="userSpaceOnUse">
<stop stop-color="#FB8D48"/>
<stop offset="0.2" stop-color="#ED7136"/>
<stop offset="0.3999" stop-color="#C54E47"/>
<stop offset="0.4" stop-color="#C14F49"/>
<stop offset="0.6" stop-color="#9D3863"/>
<stop offset="0.8" stop-color="#5E1F72"/>
</linearGradient>
<linearGradient id="paint62_linear_1391_279375" x1="162.446" y1="398.183" x2="201.203" y2="399.707" gradientUnits="userSpaceOnUse">
<stop stop-color="#FB8D48"/>
<stop offset="0.2" stop-color="#ED7136"/>
<stop offset="0.3999" stop-color="#C54E47"/>
<stop offset="0.4" stop-color="#C14F49"/>
<stop offset="0.6" stop-color="#9D3863"/>
<stop offset="0.8" stop-color="#5E1F72"/>
</linearGradient>
<linearGradient id="paint63_linear_1391_279375" x1="227.387" y1="426.828" x2="108.51" y2="395.726" gradientUnits="userSpaceOnUse">
<stop stop-color="#311944"/>
<stop offset="1" stop-color="#893976"/>
</linearGradient>
<linearGradient id="paint64_linear_1391_279375" x1="219.772" y1="451.48" x2="128.307" y2="364.693" gradientUnits="userSpaceOnUse">
<stop stop-color="#311944"/>
<stop offset="1" stop-color="#893976"/>
</linearGradient>
<linearGradient id="paint65_linear_1391_279375" x1="58.6847" y1="382.185" x2="82.1097" y2="382.953" gradientUnits="userSpaceOnUse">
<stop stop-color="#FB8D48"/>
<stop offset="0.2" stop-color="#ED7136"/>
<stop offset="0.3999" stop-color="#C54E47"/>
<stop offset="0.4" stop-color="#C14F49"/>
<stop offset="0.6" stop-color="#9D3863"/>
<stop offset="0.8" stop-color="#5E1F72"/>
</linearGradient>
<linearGradient id="paint66_linear_1391_279375" x1="262.046" y1="10.9033" x2="285.471" y2="11.672" gradientUnits="userSpaceOnUse">
<stop stop-color="#FB8D48"/>
<stop offset="0.2" stop-color="#ED7136"/>
<stop offset="0.3999" stop-color="#C54E47"/>
<stop offset="0.4" stop-color="#C14F49"/>
<stop offset="0.6" stop-color="#9D3863"/>
<stop offset="0.8" stop-color="#5E1F72"/>
</linearGradient>
<linearGradient id="paint67_linear_1391_279375" x1="512.17" y1="154.244" x2="536.772" y2="155.052" gradientUnits="userSpaceOnUse">
<stop stop-color="#FB8D48"/>
<stop offset="0.2" stop-color="#ED7136"/>
<stop offset="0.3999" stop-color="#C54E47"/>
<stop offset="0.4" stop-color="#C14F49"/>
<stop offset="0.6" stop-color="#9D3863"/>
<stop offset="0.8" stop-color="#5E1F72"/>
</linearGradient>
<linearGradient id="paint68_linear_1391_279375" x1="285.763" y1="138.952" x2="299.858" y2="214.612" gradientUnits="userSpaceOnUse">
<stop stop-color="#444B8C"/>
<stop offset="0.9964" stop-color="#26264F"/>
</linearGradient>
<linearGradient id="paint69_linear_1391_279375" x1="287.337" y1="124.437" x2="339.244" y2="125.807" gradientUnits="userSpaceOnUse">
<stop stop-color="#FB8D48"/>
<stop offset="0.2" stop-color="#ED7136"/>
<stop offset="0.3999" stop-color="#C54E47"/>
<stop offset="0.4" stop-color="#C14F49"/>
<stop offset="0.6" stop-color="#9D3863"/>
<stop offset="0.8" stop-color="#5E1F72"/>
</linearGradient>
<linearGradient id="paint70_linear_1391_279375" x1="287.298" y1="121.181" x2="335.281" y2="122.495" gradientUnits="userSpaceOnUse">
<stop stop-color="#FB8D48"/>
<stop offset="0.2" stop-color="#ED7136"/>
<stop offset="0.3999" stop-color="#C54E47"/>
<stop offset="0.4" stop-color="#C14F49"/>
<stop offset="0.6" stop-color="#9D3863"/>
<stop offset="0.8" stop-color="#5E1F72"/>
</linearGradient>
<linearGradient id="paint71_linear_1391_279375" x1="230" y1="111.908" x2="242.493" y2="178.966" gradientUnits="userSpaceOnUse">
<stop stop-color="#444B8C"/>
<stop offset="0.9964" stop-color="#26264F"/>
</linearGradient>
<linearGradient id="paint72_linear_1391_279375" x1="190.797" y1="139.741" x2="288.4" y2="144.055" gradientUnits="userSpaceOnUse">
<stop stop-color="#FB8D48"/>
<stop offset="0.2" stop-color="#ED7136"/>
<stop offset="0.3999" stop-color="#C54E47"/>
<stop offset="0.4" stop-color="#C14F49"/>
<stop offset="0.6" stop-color="#9D3863"/>
<stop offset="0.8" stop-color="#5E1F72"/>
</linearGradient>
<linearGradient id="paint73_linear_1391_279375" x1="190.669" y1="141.572" x2="282.122" y2="145.603" gradientUnits="userSpaceOnUse">
<stop stop-color="#FB8D48"/>
<stop offset="0.2" stop-color="#ED7136"/>
<stop offset="0.3999" stop-color="#C54E47"/>
<stop offset="0.4" stop-color="#C14F49"/>
<stop offset="0.6" stop-color="#9D3863"/>
<stop offset="0.8" stop-color="#5E1F72"/>
</linearGradient>
<linearGradient id="paint74_linear_1391_279375" x1="204.885" y1="94.1279" x2="208.225" y2="112.058" gradientUnits="userSpaceOnUse">
<stop stop-color="#AA80F9"/>
<stop offset="0.9964" stop-color="#6165D7"/>
</linearGradient>
<linearGradient id="paint75_linear_1391_279375" x1="164.309" y1="121.499" x2="211.308" y2="122.804" gradientUnits="userSpaceOnUse">
<stop stop-color="#FB8D48"/>
<stop offset="0.2" stop-color="#ED7136"/>
<stop offset="0.3999" stop-color="#C54E47"/>
<stop offset="0.4" stop-color="#C14F49"/>
<stop offset="0.6" stop-color="#9D3863"/>
<stop offset="0.8" stop-color="#5E1F72"/>
</linearGradient>
<linearGradient id="paint76_linear_1391_279375" x1="190.04" y1="116.498" x2="191.618" y2="124.967" gradientUnits="userSpaceOnUse">
<stop offset="0.0036" stop-color="#EBEFF2"/>
<stop offset="1" stop-color="white"/>
</linearGradient>
<linearGradient id="paint77_linear_1391_279375" x1="164.322" y1="121.38" x2="209.429" y2="122.604" gradientUnits="userSpaceOnUse">
<stop stop-color="#FB8D48"/>
<stop offset="0.2" stop-color="#ED7136"/>
<stop offset="0.3999" stop-color="#C54E47"/>
<stop offset="0.4" stop-color="#C14F49"/>
<stop offset="0.6" stop-color="#9D3863"/>
<stop offset="0.8" stop-color="#5E1F72"/>
</linearGradient>
<linearGradient id="paint78_linear_1391_279375" x1="407.985" y1="167.978" x2="342.904" y2="217.125" gradientUnits="userSpaceOnUse">
<stop stop-color="#444B8C"/>
<stop offset="0.9964" stop-color="#26264F"/>
</linearGradient>
<linearGradient id="paint79_linear_1391_279375" x1="322.94" y1="178.555" x2="425.177" y2="184.001" gradientUnits="userSpaceOnUse">
<stop stop-color="#FB8D48"/>
<stop offset="0.2" stop-color="#ED7136"/>
<stop offset="0.3999" stop-color="#C54E47"/>
<stop offset="0.4" stop-color="#C14F49"/>
<stop offset="0.6" stop-color="#9D3863"/>
<stop offset="0.8" stop-color="#5E1F72"/>
</linearGradient>
<linearGradient id="paint80_linear_1391_279375" x1="324.296" y1="184.359" x2="424.518" y2="190.841" gradientUnits="userSpaceOnUse">
<stop stop-color="#FB8D48"/>
<stop offset="0.2" stop-color="#ED7136"/>
<stop offset="0.3999" stop-color="#C54E47"/>
<stop offset="0.4" stop-color="#C14F49"/>
<stop offset="0.6" stop-color="#9D3863"/>
<stop offset="0.8" stop-color="#5E1F72"/>
</linearGradient>
<linearGradient id="paint81_linear_1391_279375" x1="440.037" y1="169.368" x2="424.033" y2="181.453" gradientUnits="userSpaceOnUse">
<stop stop-color="#AA80F9"/>
<stop offset="0.9964" stop-color="#6165D7"/>
</linearGradient>
<linearGradient id="paint82_linear_1391_279375" x1="417.605" y1="197.819" x2="437.381" y2="198.127" gradientUnits="userSpaceOnUse">
<stop stop-color="#FB8D48"/>
<stop offset="0.2" stop-color="#ED7136"/>
<stop offset="0.3999" stop-color="#C54E47"/>
<stop offset="0.4" stop-color="#C14F49"/>
<stop offset="0.6" stop-color="#9D3863"/>
<stop offset="0.8" stop-color="#5E1F72"/>
</linearGradient>
<linearGradient id="paint83_linear_1391_279375" x1="432.932" y1="194.072" x2="424.352" y2="200.551" gradientUnits="userSpaceOnUse">
<stop offset="0.0036" stop-color="#EBEFF2"/>
<stop offset="1" stop-color="white"/>
</linearGradient>
<linearGradient id="paint84_linear_1391_279375" x1="424.334" y1="197.992" x2="437.369" y2="198.168" gradientUnits="userSpaceOnUse">
<stop stop-color="#FB8D48"/>
<stop offset="0.2" stop-color="#ED7136"/>
<stop offset="0.3999" stop-color="#C54E47"/>
<stop offset="0.4" stop-color="#C14F49"/>
<stop offset="0.6" stop-color="#9D3863"/>
<stop offset="0.8" stop-color="#5E1F72"/>
</linearGradient>
<linearGradient id="paint85_linear_1391_279375" x1="354.192" y1="-53.4134" x2="320.792" y2="160.657" gradientUnits="userSpaceOnUse">
<stop offset="0.0036" stop-color="#EBEFF2"/>
<stop offset="1" stop-color="white"/>
</linearGradient>
<linearGradient id="paint86_linear_1391_279375" x1="352.278" y1="-44.429" x2="320.352" y2="160.193" gradientUnits="userSpaceOnUse">
<stop stop-color="#444B8C"/>
<stop offset="0.9964" stop-color="#26264F"/>
</linearGradient>
<linearGradient id="paint87_linear_1391_279375" x1="255.753" y1="168.012" x2="342.046" y2="170.918" gradientUnits="userSpaceOnUse">
<stop stop-color="#FB8D48"/>
<stop offset="0.2" stop-color="#ED7136"/>
<stop offset="0.3999" stop-color="#C54E47"/>
<stop offset="0.4" stop-color="#C14F49"/>
<stop offset="0.6" stop-color="#9D3863"/>
<stop offset="0.8" stop-color="#5E1F72"/>
</linearGradient>
<linearGradient id="paint88_linear_1391_279375" x1="240.145" y1="180.862" x2="282.706" y2="181.858" gradientUnits="userSpaceOnUse">
<stop stop-color="#FB8D48"/>
<stop offset="0.2" stop-color="#ED7136"/>
<stop offset="0.3999" stop-color="#C54E47"/>
<stop offset="0.4" stop-color="#C14F49"/>
<stop offset="0.6" stop-color="#9D3863"/>
<stop offset="0.8" stop-color="#5E1F72"/>
</linearGradient>
<linearGradient id="paint89_linear_1391_279375" x1="239.425" y1="210.529" x2="257.995" y2="211.569" gradientUnits="userSpaceOnUse">
<stop stop-color="#FB8D48"/>
<stop offset="0.2" stop-color="#ED7136"/>
<stop offset="0.3999" stop-color="#C54E47"/>
<stop offset="0.4" stop-color="#C14F49"/>
<stop offset="0.6" stop-color="#9D3863"/>
<stop offset="0.8" stop-color="#5E1F72"/>
</linearGradient>
<linearGradient id="paint90_linear_1391_279375" x1="240.119" y1="180.184" x2="280.812" y2="181.126" gradientUnits="userSpaceOnUse">
<stop stop-color="#FB8D48"/>
<stop offset="0.2" stop-color="#ED7136"/>
<stop offset="0.3999" stop-color="#C54E47"/>
<stop offset="0.4" stop-color="#C14F49"/>
<stop offset="0.6" stop-color="#9D3863"/>
<stop offset="0.8" stop-color="#5E1F72"/>
</linearGradient>
<linearGradient id="paint91_linear_1391_279375" x1="235.634" y1="210.861" x2="256.254" y2="220.473" gradientUnits="userSpaceOnUse">
<stop stop-color="#AA80F9"/>
<stop offset="0.9964" stop-color="#6165D7"/>
</linearGradient>
<linearGradient id="paint92_linear_1391_279375" x1="248.283" y1="214.348" x2="238.628" y2="228.395" gradientUnits="userSpaceOnUse">
<stop stop-color="#AA80F9"/>
<stop offset="0.9964" stop-color="#6165D7"/>
</linearGradient>
<linearGradient id="paint93_linear_1391_279375" x1="247.491" y1="215.135" x2="240.153" y2="225.81" gradientUnits="userSpaceOnUse">
<stop stop-color="#444B8C"/>
<stop offset="0.9964" stop-color="#26264F"/>
</linearGradient>
<linearGradient id="paint94_linear_1391_279375" x1="296.627" y1="197.939" x2="332.642" y2="198.684" gradientUnits="userSpaceOnUse">
<stop stop-color="#FB8D48"/>
<stop offset="0.2" stop-color="#ED7136"/>
<stop offset="0.3999" stop-color="#C54E47"/>
<stop offset="0.4" stop-color="#C14F49"/>
<stop offset="0.6" stop-color="#9D3863"/>
<stop offset="0.8" stop-color="#5E1F72"/>
</linearGradient>
<linearGradient id="paint95_linear_1391_279375" x1="295.978" y1="229.146" x2="314.702" y2="230.176" gradientUnits="userSpaceOnUse">
<stop stop-color="#FB8D48"/>
<stop offset="0.2" stop-color="#ED7136"/>
<stop offset="0.3999" stop-color="#C54E47"/>
<stop offset="0.4" stop-color="#C14F49"/>
<stop offset="0.6" stop-color="#9D3863"/>
<stop offset="0.8" stop-color="#5E1F72"/>
</linearGradient>
<linearGradient id="paint96_linear_1391_279375" x1="296.585" y1="197.262" x2="329.821" y2="197.93" gradientUnits="userSpaceOnUse">
<stop stop-color="#FB8D48"/>
<stop offset="0.2" stop-color="#ED7136"/>
<stop offset="0.3999" stop-color="#C54E47"/>
<stop offset="0.4" stop-color="#C14F49"/>
<stop offset="0.6" stop-color="#9D3863"/>
<stop offset="0.8" stop-color="#5E1F72"/>
</linearGradient>
<linearGradient id="paint97_linear_1391_279375" x1="292.953" y1="229.742" x2="313.799" y2="239.459" gradientUnits="userSpaceOnUse">
<stop stop-color="#AA80F9"/>
<stop offset="0.9964" stop-color="#6165D7"/>
</linearGradient>
<linearGradient id="paint98_linear_1391_279375" x1="305.762" y1="233.355" x2="296.202" y2="247.265" gradientUnits="userSpaceOnUse">
<stop stop-color="#AA80F9"/>
<stop offset="0.9964" stop-color="#6165D7"/>
</linearGradient>
<linearGradient id="paint99_linear_1391_279375" x1="304.976" y1="234.133" x2="297.71" y2="244.704" gradientUnits="userSpaceOnUse">
<stop stop-color="#444B8C"/>
<stop offset="0.9964" stop-color="#26264F"/>
</linearGradient>
<linearGradient id="paint100_linear_1391_279375" x1="306.724" y1="140.637" x2="311.715" y2="167.427" gradientUnits="userSpaceOnUse">
<stop offset="0.0036" stop-color="#EBEFF2"/>
<stop offset="1" stop-color="white"/>
</linearGradient>
<linearGradient id="paint101_linear_1391_279375" x1="281.65" y1="254.268" x2="295.481" y2="265.307" gradientUnits="userSpaceOnUse">
<stop stop-color="#FF9085"/>
<stop offset="1" stop-color="#FB6FBB"/>
</linearGradient>
<linearGradient id="paint102_linear_1391_279375" x1="223.825" y1="235.084" x2="237.656" y2="246.123" gradientUnits="userSpaceOnUse">
<stop stop-color="#FF9085"/>
<stop offset="1" stop-color="#FB6FBB"/>
</linearGradient>
<linearGradient id="paint103_linear_1391_279375" x1="527.738" y1="482.491" x2="365.781" y2="480.961" gradientUnits="userSpaceOnUse">
<stop stop-color="#444B8C"/>
<stop offset="0.9964" stop-color="#26264F"/>
</linearGradient>
<linearGradient id="paint104_linear_1391_279375" x1="338.858" y1="379.61" x2="579.507" y2="388.155" gradientUnits="userSpaceOnUse">
<stop stop-color="#FB8D48"/>
<stop offset="0.2" stop-color="#ED7136"/>
<stop offset="0.3999" stop-color="#C54E47"/>
<stop offset="0.4" stop-color="#C14F49"/>
<stop offset="0.6" stop-color="#9D3863"/>
<stop offset="0.8" stop-color="#5E1F72"/>
</linearGradient>
<linearGradient id="paint105_linear_1391_279375" x1="357.463" y1="381.639" x2="579.451" y2="389.17" gradientUnits="userSpaceOnUse">
<stop stop-color="#FB8D48"/>
<stop offset="0.2" stop-color="#ED7136"/>
<stop offset="0.3999" stop-color="#C54E47"/>
<stop offset="0.4" stop-color="#C14F49"/>
<stop offset="0.6" stop-color="#9D3863"/>
<stop offset="0.8" stop-color="#5E1F72"/>
</linearGradient>
<linearGradient id="paint106_linear_1391_279375" x1="455.053" y1="375.735" x2="597.199" y2="379.465" gradientUnits="userSpaceOnUse">
<stop stop-color="#FB8D48"/>
<stop offset="0.2" stop-color="#ED7136"/>
<stop offset="0.3999" stop-color="#C54E47"/>
<stop offset="0.4" stop-color="#C14F49"/>
<stop offset="0.6" stop-color="#9D3863"/>
<stop offset="0.8" stop-color="#5E1F72"/>
</linearGradient>
<linearGradient id="paint107_linear_1391_279375" x1="407.265" y1="297.888" x2="459.481" y2="300.02" gradientUnits="userSpaceOnUse">
<stop stop-color="#FB8D48"/>
<stop offset="0.2" stop-color="#ED7136"/>
<stop offset="0.3999" stop-color="#C54E47"/>
<stop offset="0.4" stop-color="#C14F49"/>
<stop offset="0.6" stop-color="#9D3863"/>
<stop offset="0.8" stop-color="#5E1F72"/>
</linearGradient>
<linearGradient id="paint108_linear_1391_279375" x1="381.636" y1="268.817" x2="384.996" y2="278.391" gradientUnits="userSpaceOnUse">
<stop stop-color="#AA80F9"/>
<stop offset="0.9964" stop-color="#6165D7"/>
</linearGradient>
<linearGradient id="paint109_linear_1391_279375" x1="390.612" y1="283.542" x2="385.537" y2="258.663" gradientUnits="userSpaceOnUse">
<stop stop-color="#AA80F9"/>
<stop offset="0.9964" stop-color="#6165D7"/>
</linearGradient>
<linearGradient id="paint110_linear_1391_279375" x1="383.472" y1="272.728" x2="381.903" y2="270.904" gradientUnits="userSpaceOnUse">
<stop stop-color="#444B8C"/>
<stop offset="0.9964" stop-color="#3E4177"/>
</linearGradient>
<linearGradient id="paint111_linear_1391_279375" x1="382.975" y1="266.446" x2="386.693" y2="274.847" gradientUnits="userSpaceOnUse">
<stop stop-color="#AA80F9"/>
<stop offset="0.9964" stop-color="#6165D7"/>
</linearGradient>
<linearGradient id="paint112_linear_1391_279375" x1="385.92" y1="276.616" x2="394.649" y2="276.808" gradientUnits="userSpaceOnUse">
<stop stop-color="#FB8D48"/>
<stop offset="0.2" stop-color="#ED7136"/>
<stop offset="0.3999" stop-color="#C54E47"/>
<stop offset="0.4" stop-color="#C14F49"/>
<stop offset="0.6" stop-color="#9D3863"/>
<stop offset="0.8" stop-color="#5E1F72"/>
</linearGradient>
<linearGradient id="paint113_linear_1391_279375" x1="407.185" y1="268.507" x2="413.151" y2="254.125" gradientUnits="userSpaceOnUse">
<stop stop-color="#AA80F9"/>
<stop offset="0.9964" stop-color="#6165D7"/>
</linearGradient>
<linearGradient id="paint114_linear_1391_279375" x1="408.323" y1="248.465" x2="409.027" y2="257.152" gradientUnits="userSpaceOnUse">
<stop stop-color="#AA80F9"/>
<stop offset="0.9964" stop-color="#6165D7"/>
</linearGradient>
<linearGradient id="paint115_linear_1391_279375" x1="408.322" y1="248.426" x2="409.027" y2="257.135" gradientUnits="userSpaceOnUse">
<stop stop-color="#AA80F9"/>
<stop offset="0.9964" stop-color="#6165D7"/>
</linearGradient>
<linearGradient id="paint116_linear_1391_279375" x1="430.35" y1="284.567" x2="415.426" y2="280.76" gradientUnits="userSpaceOnUse">
<stop stop-color="#AA80F9"/>
<stop offset="0.9964" stop-color="#6165D7"/>
</linearGradient>
<linearGradient id="paint117_linear_1391_279375" x1="428.307" y1="286.543" x2="437.198" y2="296.265" gradientUnits="userSpaceOnUse">
<stop stop-color="#AA80F9"/>
<stop offset="0.9964" stop-color="#6165D7"/>
</linearGradient>
<linearGradient id="paint118_linear_1391_279375" x1="437.555" y1="285.854" x2="421.147" y2="281.669" gradientUnits="userSpaceOnUse">
<stop stop-color="#AA80F9"/>
<stop offset="0.9964" stop-color="#6165D7"/>
</linearGradient>
<linearGradient id="paint119_linear_1391_279375" x1="437.6" y1="285.674" x2="427.733" y2="283.157" gradientUnits="userSpaceOnUse">
<stop stop-color="#AA80F9"/>
<stop offset="0.9964" stop-color="#6165D7"/>
</linearGradient>
<linearGradient id="paint120_linear_1391_279375" x1="250.927" y1="402.486" x2="478.672" y2="404.637" gradientUnits="userSpaceOnUse">
<stop stop-color="#444B8C"/>
<stop offset="0.9964" stop-color="#26264F"/>
</linearGradient>
<linearGradient id="paint121_linear_1391_279375" x1="408.328" y1="347.522" x2="317.356" y2="510.406" gradientUnits="userSpaceOnUse">
<stop stop-color="#444B8C"/>
<stop offset="0.9964" stop-color="#26264F"/>
</linearGradient>
<linearGradient id="paint122_linear_1391_279375" x1="252.403" y1="446.289" x2="473.933" y2="448.381" gradientUnits="userSpaceOnUse">
<stop stop-color="#444B8C"/>
<stop offset="0.9964" stop-color="#26264F"/>
</linearGradient>
<linearGradient id="paint123_linear_1391_279375" x1="346.678" y1="488.983" x2="413.51" y2="489.614" gradientUnits="userSpaceOnUse">
<stop stop-color="#444B8C"/>
<stop offset="0.9964" stop-color="#26264F"/>
</linearGradient>
<linearGradient id="paint124_linear_1391_279375" x1="402.775" y1="472.515" x2="348.336" y2="511.092" gradientUnits="userSpaceOnUse">
<stop stop-color="#444B8C"/>
<stop offset="0.9964" stop-color="#26264F"/>
</linearGradient>
<linearGradient id="paint125_linear_1391_279375" x1="309.134" y1="449.814" x2="375.13" y2="450.438" gradientUnits="userSpaceOnUse">
<stop stop-color="#444B8C"/>
<stop offset="0.9964" stop-color="#26264F"/>
</linearGradient>
<linearGradient id="paint126_linear_1391_279375" x1="362.254" y1="410.554" x2="330.091" y2="565.97" gradientUnits="userSpaceOnUse">
<stop stop-color="#444B8C"/>
<stop offset="0.9964" stop-color="#26264F"/>
</linearGradient>
</defs>
</svg>
