<svg width="594" height="591" viewBox="0 0 594 591" fill="none" xmlns="http://www.w3.org/2000/svg">
<path opacity="0.07" d="M122.622 473.798C123.679 476.398 124.846 478.998 126.125 481.488C145.136 518.61 183.716 542.012 224.852 546.217C257.761 549.536 289.781 538.859 317.298 521.432C344.759 504.06 366.772 479.607 397.291 466.882C440.318 449.013 488.291 434.905 522.034 397.064C560.391 354.077 575.178 288.906 557.111 233.914C539.545 180.25 481.232 162.878 435.926 139.255C354.487 96.7107 241.696 68.4402 156.921 118.398C55.3589 178.203 73.8147 313.967 106.001 408.184C113.339 429.649 114.228 452.775 122.622 473.798Z" fill="#CCE9FF"/>
<path d="M528.66 561.977H567.461" stroke="black" stroke-miterlimit="10" stroke-linecap="round" stroke-linejoin="round"/>
<path d="M31.6504 561.977H516.78" stroke="black" stroke-miterlimit="10" stroke-linecap="round" stroke-linejoin="round"/>
<path d="M521.48 474.57L501.889 501.707L508.815 506.368C513.351 509.422 516.069 514.516 516.069 519.965H530.249C530.249 514.516 532.967 509.422 537.503 506.368L544.429 501.707L524.837 474.57H521.48Z" fill="#FFBE55" stroke="#E86B31" stroke-miterlimit="10" stroke-linecap="round" stroke-linejoin="round"/>
<path d="M522.947 474.926V496.826" stroke="#E86B31" stroke-miterlimit="10" stroke-linecap="round" stroke-linejoin="round"/>
<path d="M522.947 501.5C525.538 501.5 527.639 499.41 527.639 496.832C527.639 494.254 525.538 492.164 522.947 492.164C520.356 492.164 518.256 494.254 518.256 496.832C518.256 499.41 520.356 501.5 522.947 501.5Z" fill="white" stroke="#E86B31" stroke-miterlimit="10" stroke-linecap="round" stroke-linejoin="round"/>
<path d="M556.034 496.83C556.034 478.648 541.22 463.908 522.945 463.908C504.67 463.908 489.855 478.648 489.855 496.83" stroke="#E86B31" stroke-miterlimit="10" stroke-linecap="round" stroke-linejoin="round"/>
<path d="M558.509 494.365H553.562V499.287H558.509V494.365Z" fill="white" stroke="#E86B31" stroke-miterlimit="10" stroke-linejoin="round"/>
<path d="M491.98 494.365H487.033V499.287H491.98V494.365Z" fill="white" stroke="#E86B31" stroke-miterlimit="10" stroke-linejoin="round"/>
<path d="M525.419 461.447H520.473V466.369H525.419V461.447Z" fill="white" stroke="#E86B31" stroke-miterlimit="10" stroke-linejoin="round"/>
<path d="M525.359 411.871C542.964 407.684 553.824 390.09 549.615 372.574C545.407 355.058 527.724 344.253 510.119 348.44C492.514 352.627 481.654 370.221 485.862 387.737C490.071 405.253 507.754 416.058 525.359 411.871Z" stroke="#E86B31" stroke-miterlimit="10" stroke-linecap="round" stroke-linejoin="round"/>
<path d="M517.734 406.908C532.584 406.908 544.621 394.931 544.621 380.157C544.621 365.383 532.584 353.406 517.734 353.406C502.885 353.406 490.848 365.383 490.848 380.157C490.848 394.931 502.885 406.908 517.734 406.908Z" stroke="#E86B31" stroke-miterlimit="10" stroke-linecap="round" stroke-linejoin="round"/>
<path d="M517.736 390.8V380.156H541.338" stroke="#E86B31" stroke-miterlimit="10" stroke-linecap="round" stroke-linejoin="round"/>
<path d="M520.359 344.941H515.115V350.16H520.359V344.941Z" fill="white" stroke="#E86B31" stroke-miterlimit="10" stroke-linecap="round" stroke-linejoin="round"/>
<path d="M520.359 410.23H515.115V415.449H520.359V410.23Z" fill="white" stroke="#E86B31" stroke-miterlimit="10" stroke-linecap="round" stroke-linejoin="round"/>
<path d="M553.47 378.002H548.227V383.22H553.47V378.002Z" fill="white" stroke="#E86B31" stroke-miterlimit="10" stroke-linecap="round" stroke-linejoin="round"/>
<path d="M487.486 378.002H482.242V383.22H487.486V378.002Z" fill="white" stroke="#E86B31" stroke-miterlimit="10" stroke-linecap="round" stroke-linejoin="round"/>
<path d="M540.607 402.498L544.107 431.06L550.536 420.085L563.301 420.333L540.607 402.498Z" fill="#FFBE55"/>
<path d="M558.393 430.076H553.477V434.966H558.393V430.076Z" fill="#FFBE55"/>
<path d="M554.235 285.642H491.307C488.417 285.642 486.074 283.311 486.074 280.435V236.935C486.074 234.059 488.417 231.729 491.307 231.729H554.235C557.125 231.729 559.468 234.059 559.468 236.935V280.435C559.468 283.311 557.125 285.642 554.235 285.642Z" stroke="#E86B31" stroke-miterlimit="10" stroke-linecap="round" stroke-linejoin="round"/>
<path d="M486.395 271.725H559.145" stroke="#E86B31" stroke-miterlimit="10" stroke-linecap="round" stroke-linejoin="round"/>
<path d="M532.245 285.633H513.293V300.053H532.245V285.633Z" stroke="#E86B31" stroke-miterlimit="10" stroke-linecap="round" stroke-linejoin="round"/>
<path d="M538.126 300.084H507.156V302.836H538.126V300.084Z" stroke="#E86B31" stroke-miterlimit="10" stroke-linecap="round" stroke-linejoin="round"/>
<path d="M55.8516 359.723L71.8848 512.585" stroke="black" stroke-miterlimit="10" stroke-linecap="round" stroke-linejoin="round"/>
<path d="M68.7244 482.692L62.0312 475.689" stroke="black" stroke-miterlimit="10" stroke-linecap="round" stroke-linejoin="round"/>
<path d="M64.2407 477.977C64.2407 477.977 64.4486 474.598 61.348 471.843C59.4828 470.186 49.6628 466.075 48.7314 469.515C47.7169 473.259 57.7673 480.608 64.2407 477.977Z" fill="#E86B31" stroke="black" stroke-miterlimit="10" stroke-linejoin="round"/>
<path d="M64.2409 477.979L54.8926 472.184" stroke="black" stroke-miterlimit="10" stroke-linecap="round" stroke-linejoin="round"/>
<path d="M70.3895 498.481L63.8555 493.074" stroke="black" stroke-miterlimit="10" stroke-linecap="round" stroke-linejoin="round"/>
<path d="M66.0648 495.362C66.0648 495.362 66.2727 491.983 63.172 489.228C61.3069 487.569 51.4869 483.46 50.5555 486.9C49.5421 490.644 59.5926 497.993 66.0648 495.362Z" fill="#E86B31" stroke="black" stroke-miterlimit="10" stroke-linejoin="round"/>
<path d="M66.064 495.364L56.7168 489.568" stroke="black" stroke-miterlimit="10" stroke-linecap="round" stroke-linejoin="round"/>
<path d="M64.1826 439.18L57.582 433.271" stroke="black" stroke-miterlimit="10" stroke-linecap="round" stroke-linejoin="round"/>
<path d="M59.7915 435.56C59.7915 435.56 59.9994 432.18 56.8987 429.425C55.0324 427.767 45.2136 423.657 44.2822 427.098C43.2676 430.841 53.3181 438.191 59.7915 435.56Z" fill="#E86B31" stroke="black" stroke-miterlimit="10" stroke-linejoin="round"/>
<path d="M59.7917 435.561L50.4434 429.766" stroke="black" stroke-miterlimit="10" stroke-linecap="round" stroke-linejoin="round"/>
<path d="M66.0234 457.667L59.4062 450.656" stroke="black" stroke-miterlimit="10" stroke-linecap="round" stroke-linejoin="round"/>
<path d="M61.6156 452.944C61.6156 452.944 61.8235 449.565 58.7228 446.81C56.8576 445.151 47.0376 441.042 46.1063 444.482C45.0929 448.225 55.1422 455.575 61.6156 452.944Z" fill="#E86B31" stroke="black" stroke-miterlimit="10" stroke-linejoin="round"/>
<path d="M61.6159 452.94L52.2676 447.145" stroke="black" stroke-miterlimit="10" stroke-linecap="round" stroke-linejoin="round"/>
<path d="M61.2399 411.74L54.6191 405.025" stroke="black" stroke-miterlimit="10" stroke-linecap="round" stroke-linejoin="round"/>
<path d="M56.8286 407.313C56.8286 407.313 57.0365 403.934 53.9359 401.179C52.0707 399.522 42.2507 395.411 41.3193 398.851C40.3047 402.595 50.3552 409.944 56.8286 407.313Z" fill="#E86B31" stroke="black" stroke-miterlimit="10" stroke-linejoin="round"/>
<path d="M56.8288 407.309L47.4805 401.514" stroke="black" stroke-miterlimit="10" stroke-linecap="round" stroke-linejoin="round"/>
<path d="M58.0538 381.546L51.6445 376.668" stroke="black" stroke-miterlimit="10" stroke-linecap="round" stroke-linejoin="round"/>
<path d="M53.8539 378.956C53.8539 378.956 54.0618 375.577 50.9611 372.821C49.0947 371.163 39.2759 367.053 38.3445 370.494C37.3312 374.236 47.3816 381.586 53.8539 378.956Z" fill="#E86B31" stroke="black" stroke-miterlimit="10" stroke-linejoin="round"/>
<path d="M53.853 378.953L44.5059 373.156" stroke="black" stroke-miterlimit="10" stroke-linecap="round" stroke-linejoin="round"/>
<path d="M68.0801 473.046L73.6067 464.078" stroke="black" stroke-miterlimit="10" stroke-linecap="round" stroke-linejoin="round"/>
<path d="M71.9223 466.769C71.9223 466.769 71.017 463.506 73.4797 460.173C74.9612 458.167 83.7155 452.129 85.3419 455.304C87.1097 458.758 78.802 468.013 71.9223 466.769Z" fill="#E86B31" stroke="black" stroke-miterlimit="10" stroke-linejoin="round"/>
<path d="M71.9199 466.771L78.4967 460.631" stroke="black" stroke-miterlimit="10" stroke-linecap="round" stroke-linejoin="round"/>
<path d="M63.2812 427.292L68.8078 418.324" stroke="black" stroke-miterlimit="10" stroke-linecap="round" stroke-linejoin="round"/>
<path d="M67.1234 421.017C67.1234 421.017 66.2182 417.754 68.6809 414.421C70.1623 412.415 77.0112 407.392 78.6375 410.567C80.4053 414.021 74.002 422.261 67.1234 421.017Z" fill="#E86B31" stroke="black" stroke-miterlimit="10" stroke-linejoin="round"/>
<path d="M67.1211 421.016L75.5381 413.012" stroke="black" stroke-miterlimit="10" stroke-linecap="round" stroke-linejoin="round"/>
<path d="M61.1738 407.19L66.7016 398.223" stroke="black" stroke-miterlimit="10" stroke-linecap="round" stroke-linejoin="round"/>
<path d="M65.016 400.914C65.016 400.914 64.1108 397.651 66.5735 394.317C68.0549 392.312 76.8093 386.273 78.4357 389.449C80.2034 392.901 71.8945 402.158 65.016 400.914Z" fill="#E86B31" stroke="black" stroke-miterlimit="10" stroke-linejoin="round"/>
<path d="M65.0137 400.918L73.4307 392.912" stroke="black" stroke-miterlimit="10" stroke-linecap="round" stroke-linejoin="round"/>
<path d="M58.082 377.716L63.6086 368.748" stroke="black" stroke-miterlimit="10" stroke-linecap="round" stroke-linejoin="round"/>
<path d="M61.9239 371.439C61.9239 371.439 61.0198 368.176 63.4813 364.842C64.9628 362.837 73.7171 356.799 75.3435 359.974C77.1124 363.426 68.8036 372.683 61.9239 371.439Z" fill="#E86B31" stroke="black" stroke-miterlimit="10" stroke-linejoin="round"/>
<path d="M61.9219 371.443L70.34 363.438" stroke="black" stroke-miterlimit="10" stroke-linecap="round" stroke-linejoin="round"/>
<path d="M55.7168 358.875C55.7168 358.875 54.8128 355.612 57.2743 352.278C58.7557 350.273 67.5101 344.234 69.1365 347.41C70.9054 350.864 62.5965 360.12 55.7168 358.875Z" fill="#E86B31" stroke="black" stroke-miterlimit="10" stroke-linejoin="round"/>
<path d="M55.7168 358.872L64.135 350.867" stroke="black" stroke-miterlimit="10" stroke-linecap="round" stroke-linejoin="round"/>
<path d="M56.2059 359.217C56.2059 359.217 52.8498 359.77 49.7753 356.984C47.9256 355.308 42.8088 346.013 46.1531 344.736C49.7907 343.348 58.1709 352.541 56.2059 359.217Z" fill="#E86B31" stroke="black" stroke-miterlimit="10" stroke-linejoin="round"/>
<path d="M56.2064 359.216L49.0879 350.049" stroke="black" stroke-miterlimit="10" stroke-linecap="round" stroke-linejoin="round"/>
<path d="M79.8711 318.52V511.834" stroke="black" stroke-miterlimit="10" stroke-linecap="round" stroke-linejoin="round"/>
<path d="M98.1422 380.766L82.1992 533.637" stroke="black" stroke-miterlimit="10" stroke-linecap="round" stroke-linejoin="round"/>
<path d="M85.5665 502.401L81.8789 498.205" stroke="black" stroke-miterlimit="10" stroke-linecap="round" stroke-linejoin="round"/>
<path d="M81.8793 498.207C81.8793 498.207 82.7822 494.944 80.3183 491.612C78.8357 489.607 70.0777 483.574 68.4537 486.75C66.686 490.204 75.0008 499.456 81.8793 498.207Z" fill="#E86B31" stroke="black" stroke-miterlimit="10" stroke-linejoin="round"/>
<path d="M81.8805 498.206L73.9316 490.619" stroke="black" stroke-miterlimit="10" stroke-linecap="round" stroke-linejoin="round"/>
<path d="M90.0739 458.764L84.5996 454.213" stroke="black" stroke-miterlimit="10" stroke-linecap="round" stroke-linejoin="round"/>
<path d="M86.3049 455.784C86.3049 455.784 87.2077 452.521 84.7438 449.188C83.2612 447.184 74.5033 441.15 72.8793 444.327C71.1127 447.782 79.4263 457.032 86.3049 455.784Z" fill="#E86B31" stroke="black" stroke-miterlimit="10" stroke-linejoin="round"/>
<path d="M86.3051 455.781L78.3574 448.195" stroke="black" stroke-miterlimit="10" stroke-linecap="round" stroke-linejoin="round"/>
<path d="M88.3333 479.442L82.8008 470.479" stroke="black" stroke-miterlimit="10" stroke-linecap="round" stroke-linejoin="round"/>
<path d="M84.4893 473.168C84.4893 473.168 85.3922 469.905 82.9271 466.573C81.4445 464.568 72.6865 458.535 71.0626 461.711C69.2972 465.165 77.6108 474.416 84.4893 473.168Z" fill="#E86B31" stroke="black" stroke-miterlimit="10" stroke-linejoin="round"/>
<path d="M84.4899 473.166L76.541 465.58" stroke="black" stroke-miterlimit="10" stroke-linecap="round" stroke-linejoin="round"/>
<path d="M92.8424 430.904L87.5605 424.85" stroke="black" stroke-miterlimit="10" stroke-linecap="round" stroke-linejoin="round"/>
<path d="M89.2485 427.543C89.2485 427.543 90.1514 424.28 87.6875 420.948C86.2048 418.943 77.4469 412.91 75.8229 416.086C74.0551 419.54 82.37 428.792 89.2485 427.543Z" fill="#E86B31" stroke="black" stroke-miterlimit="10" stroke-linejoin="round"/>
<path d="M89.2497 427.542L81.3008 419.955" stroke="black" stroke-miterlimit="10" stroke-linecap="round" stroke-linejoin="round"/>
<path d="M95.6149 404.364L90.5195 396.49" stroke="black" stroke-miterlimit="10" stroke-linecap="round" stroke-linejoin="round"/>
<path d="M92.2083 399.18C92.2083 399.18 93.1112 395.917 90.6461 392.585C89.1635 390.58 80.4056 384.546 78.7816 387.723C77.015 391.177 85.3298 400.429 92.2083 399.18Z" fill="#E86B31" stroke="black" stroke-miterlimit="10" stroke-linejoin="round"/>
<path d="M92.2087 399.178L84.2598 391.592" stroke="black" stroke-miterlimit="10" stroke-linecap="round" stroke-linejoin="round"/>
<path d="M86.6562 494.17L93.9197 486.527" stroke="black" stroke-miterlimit="10" stroke-linecap="round" stroke-linejoin="round"/>
<path d="M91.7139 488.816C91.7139 488.816 91.5037 485.437 94.6032 482.68C96.4683 481.021 106.285 476.906 107.219 480.346C108.234 484.087 98.1874 491.443 91.7139 488.816Z" fill="#E86B31" stroke="black" stroke-miterlimit="10" stroke-linejoin="round"/>
<path d="M91.7129 488.815L101.605 482.705" stroke="black" stroke-miterlimit="10" stroke-linecap="round" stroke-linejoin="round"/>
<path d="M91.4277 448.416L98.6924 440.773" stroke="black" stroke-miterlimit="10" stroke-linecap="round" stroke-linejoin="round"/>
<path d="M96.4854 443.062C96.4854 443.062 96.2751 439.684 99.3746 436.926C101.24 435.268 111.056 431.152 111.99 434.592C113.006 438.333 102.96 445.688 96.4854 443.062Z" fill="#E86B31" stroke="black" stroke-miterlimit="10" stroke-linejoin="round"/>
<path d="M96.4844 443.06L106.378 436.951" stroke="black" stroke-miterlimit="10" stroke-linecap="round" stroke-linejoin="round"/>
<path d="M93.5234 428.311L100.788 420.668" stroke="black" stroke-miterlimit="10" stroke-linecap="round" stroke-linejoin="round"/>
<path d="M98.5811 422.957C98.5811 422.957 98.3708 419.578 101.47 416.822C103.336 415.162 113.152 411.046 114.086 414.487C115.101 418.228 105.056 425.584 98.5811 422.957Z" fill="#E86B31" stroke="black" stroke-miterlimit="10" stroke-linejoin="round"/>
<path d="M98.5801 422.96L108.474 416.852" stroke="black" stroke-miterlimit="10" stroke-linecap="round" stroke-linejoin="round"/>
<path d="M96.5156 397.327L103.862 391.191" stroke="black" stroke-miterlimit="10" stroke-linecap="round" stroke-linejoin="round"/>
<path d="M101.659 393.481C101.659 393.481 101.449 390.101 104.548 387.345C106.414 385.685 116.23 381.57 117.164 385.011C118.18 388.752 108.133 396.108 101.659 393.481Z" fill="#E86B31" stroke="black" stroke-miterlimit="10" stroke-linejoin="round"/>
<path d="M101.66 393.478L111.553 387.369" stroke="black" stroke-miterlimit="10" stroke-linejoin="round"/>
<path d="M98.1866 379.906C98.1866 379.906 97.9763 376.527 101.076 373.77C102.941 372.111 112.757 367.996 113.691 371.436C114.707 375.177 104.661 382.532 98.1866 379.906Z" fill="#E86B31" stroke="black" stroke-miterlimit="10" stroke-linejoin="round"/>
<path d="M98.1875 379.909L108.081 373.801" stroke="black" stroke-miterlimit="10" stroke-linecap="round" stroke-linejoin="round"/>
<path d="M98.5934 380.347C98.5934 380.347 95.1945 380.2 92.7627 376.845C91.3002 374.826 88.2162 364.681 91.7517 364.117C95.5984 363.505 101.897 374.216 98.5934 380.347Z" fill="#E86B31" stroke="black" stroke-miterlimit="10" stroke-linejoin="round"/>
<path d="M98.5926 380.347L93.5234 369.916" stroke="black" stroke-miterlimit="10" stroke-linecap="round" stroke-linejoin="round"/>
<path d="M79.6082 482.411L73.5957 474.42" stroke="black" stroke-miterlimit="10" stroke-linecap="round" stroke-linejoin="round"/>
<path d="M75.5527 476.924C75.5527 476.924 76.1122 473.585 73.3157 470.524C71.6335 468.682 62.2958 463.581 61.0092 466.907C59.6109 470.525 68.8393 478.872 75.5527 476.924Z" fill="#E86B31" stroke="black" stroke-miterlimit="10" stroke-linejoin="round"/>
<path d="M75.5512 476.928L66.8574 470.197" stroke="black" stroke-miterlimit="10" stroke-linecap="round" stroke-linejoin="round"/>
<path d="M79.8173 443.859L73.5957 438.092" stroke="black" stroke-miterlimit="10" stroke-linecap="round" stroke-linejoin="round"/>
<path d="M75.5527 440.596C75.5527 440.596 76.1122 437.257 73.3157 434.196C71.6335 432.354 62.2958 427.253 61.0092 430.579C59.6109 434.196 68.8393 442.544 75.5527 440.596Z" fill="#E86B31" stroke="black" stroke-miterlimit="10" stroke-linejoin="round"/>
<path d="M75.5512 440.599L66.8574 433.869" stroke="black" stroke-miterlimit="10" stroke-linecap="round" stroke-linejoin="round"/>
<path d="M80.0275 403.79L73.5957 395.441" stroke="black" stroke-miterlimit="10" stroke-linecap="round" stroke-linejoin="round"/>
<path d="M75.5527 397.946C75.5527 397.946 76.1122 394.607 73.3157 391.545C71.6335 389.704 62.2958 384.602 61.0092 387.929C59.6109 391.545 68.8393 399.894 75.5527 397.946Z" fill="#E86B31" stroke="black" stroke-miterlimit="10" stroke-linejoin="round"/>
<path d="M75.5512 397.949L66.8574 391.219" stroke="black" stroke-miterlimit="10" stroke-linecap="round" stroke-linejoin="round"/>
<path d="M79.6082 372.438L73.5957 367.045" stroke="black" stroke-miterlimit="10" stroke-linecap="round" stroke-linejoin="round"/>
<path d="M75.5527 369.549C75.5527 369.549 76.1122 366.21 73.3157 363.149C71.6335 361.307 62.2958 356.206 61.0092 359.532C59.6109 363.15 68.8393 371.497 75.5527 369.549Z" fill="#E86B31" stroke="black" stroke-miterlimit="10" stroke-linejoin="round"/>
<path d="M75.5512 369.547L66.8574 362.818" stroke="black" stroke-miterlimit="10" stroke-linecap="round" stroke-linejoin="round"/>
<path d="M79.9538 344.032L73.7168 339.482" stroke="black" stroke-miterlimit="10" stroke-linecap="round" stroke-linejoin="round"/>
<path d="M75.5527 341.032C75.5527 341.032 76.1122 337.693 73.3157 334.631C71.6335 332.79 62.2958 327.688 61.0092 331.014C59.6109 334.631 68.8393 342.98 75.5527 341.032Z" fill="#E86B31" stroke="black" stroke-miterlimit="10" stroke-linejoin="round"/>
<path d="M75.5512 341.031L66.8574 334.301" stroke="black" stroke-miterlimit="10" stroke-linecap="round" stroke-linejoin="round"/>
<path d="M81.1348 492.067L86.3192 485.516" stroke="black" stroke-miterlimit="10" stroke-linecap="round" stroke-linejoin="round"/>
<path d="M84.3602 488.021C84.3602 488.021 83.8006 484.682 86.5972 481.62C88.2806 479.779 97.617 474.677 98.9025 478.002C100.302 481.62 91.0724 489.969 84.3602 488.021Z" fill="#E86B31" stroke="black" stroke-miterlimit="10" stroke-linejoin="round"/>
<path d="M84.3633 488.024L93.5715 480.932" stroke="black" stroke-miterlimit="10" stroke-linecap="round" stroke-linejoin="round"/>
<path d="M79.8867 436.083L86.3185 427.734" stroke="black" stroke-miterlimit="10" stroke-linecap="round" stroke-linejoin="round"/>
<path d="M84.3602 430.239C84.3602 430.239 83.8006 426.9 86.5972 423.838C88.2806 421.997 97.617 416.895 98.9025 420.221C100.302 423.838 91.0724 432.187 84.3602 430.239Z" fill="#E86B31" stroke="black" stroke-miterlimit="10" stroke-linejoin="round"/>
<path d="M84.3594 430.238L93.5676 423.146" stroke="black" stroke-miterlimit="10" stroke-linecap="round" stroke-linejoin="round"/>
<path d="M79.8867 407.56L86.3185 399.213" stroke="black" stroke-miterlimit="10" stroke-linecap="round" stroke-linejoin="round"/>
<path d="M84.3602 401.718C84.3602 401.718 83.8006 398.379 86.5972 395.318C88.2806 393.476 97.617 388.374 98.9025 391.7C100.302 395.319 91.0724 403.666 84.3602 401.718Z" fill="#E86B31" stroke="black" stroke-miterlimit="10" stroke-linejoin="round"/>
<path d="M84.3594 401.721L93.5676 394.629" stroke="black" stroke-miterlimit="10" stroke-linecap="round" stroke-linejoin="round"/>
<path d="M79.8867 369.872L86.3185 361.523" stroke="black" stroke-miterlimit="10" stroke-linecap="round" stroke-linejoin="round"/>
<path d="M84.3602 364.027C84.3602 364.027 83.8006 360.688 86.5972 357.628C88.2806 355.786 97.617 350.685 98.9025 354.01C100.302 357.628 91.0724 365.975 84.3602 364.027Z" fill="#E86B31" stroke="black" stroke-miterlimit="10" stroke-linejoin="round"/>
<path d="M84.3594 364.028L93.5676 356.936" stroke="black" stroke-miterlimit="10" stroke-linecap="round" stroke-linejoin="round"/>
<path d="M80.1641 337.345L86.47 332.449" stroke="black" stroke-miterlimit="10" stroke-linecap="round" stroke-linejoin="round"/>
<path d="M84.3582 334.395C84.3582 334.395 83.7987 331.056 86.5952 327.995C88.2786 326.153 97.6151 321.052 98.9005 324.378C100.3 327.995 91.0704 336.342 84.3582 334.395Z" fill="#E86B31" stroke="black" stroke-miterlimit="10" stroke-linejoin="round"/>
<path d="M84.3594 334.394L93.5676 327.301" stroke="black" stroke-miterlimit="10" stroke-linecap="round" stroke-linejoin="round"/>
<path d="M79.5008 321.249C79.5008 321.249 78.9412 317.91 81.7378 314.848C83.42 313.007 92.7577 307.905 94.0431 311.231C95.4426 314.849 86.2142 323.197 79.5008 321.249Z" fill="#E86B31" stroke="black" stroke-miterlimit="10" stroke-linejoin="round"/>
<path d="M79.5 321.254L88.707 314.162" stroke="black" stroke-miterlimit="10" stroke-linecap="round" stroke-linejoin="round"/>
<path d="M79.9498 321.645C79.9498 321.645 76.5533 321.849 73.7876 318.76C72.1232 316.902 68.0032 307.128 71.4627 306.205C75.2239 305.201 82.6002 315.208 79.9498 321.645Z" fill="#E86B31" stroke="black" stroke-miterlimit="10" stroke-linejoin="round"/>
<path d="M79.9503 321.644L73.8262 311.791" stroke="black" stroke-miterlimit="10" stroke-linecap="round" stroke-linejoin="round"/>
<path d="M87.8662 561.972H67.2888L64.7168 510.268H90.4382L87.8662 561.972Z" fill="black" stroke="black" stroke-miterlimit="10" stroke-linecap="round" stroke-linejoin="round"/>
<path d="M329.657 339.012L338.738 361.601H314.816V365.667H366.436L353.096 338.826L329.657 339.012Z" fill="#0B4870" stroke="white" stroke-miterlimit="10" stroke-linejoin="round"/>
<path d="M327.462 339.012L336.544 361.601H312.621V365.667H364.242L350.901 338.826L327.462 339.012Z" fill="#0B4870" stroke="white" stroke-miterlimit="10" stroke-linejoin="round"/>
<path d="M403.763 339.236H275.12C272.654 339.236 270.685 337.191 270.791 334.74L274.985 238.114C275.101 235.421 277.33 233.297 280.039 233.297H408.72C411.31 233.297 413.379 235.445 413.267 238.02L409.095 334.156C408.971 336.996 406.621 339.236 403.763 339.236Z" fill="#0B4870" stroke="white" stroke-miterlimit="10" stroke-linejoin="round"/>
<path d="M397.179 339.236H268.536C266.07 339.236 264.101 337.191 264.207 334.74L268.401 238.114C268.517 235.421 270.746 233.297 273.455 233.297H402.136C404.726 233.297 406.795 235.445 406.683 238.02L402.511 334.156C402.388 336.996 400.037 339.236 397.179 339.236Z" fill="#0B4870" stroke="#E3F7FF" stroke-miterlimit="10" stroke-linejoin="round"/>
<path opacity="0.8" d="M397.039 317.105H271.188L274.634 237.711H400.486L397.039 317.105Z" fill="white" stroke="black" stroke-miterlimit="10" stroke-linejoin="round"/>
<path d="M320.852 271.929C321.259 262.855 313.88 255.573 304.594 256.209C296.853 256.738 290.285 262.895 289.292 270.565C288.726 274.929 289.966 278.959 292.389 282.012C294.597 284.794 295.714 288.305 295.551 291.927L295.454 294.087H312.578L312.675 291.927C312.838 288.308 314.263 284.798 316.721 282.02C319.139 279.287 320.679 275.77 320.852 271.929Z" fill="white" stroke="#FFBE55" stroke-miterlimit="10" stroke-linecap="round" stroke-linejoin="round"/>
<path d="M312.389 298.305H295.266L295.455 294.09H312.578L312.389 298.305Z" fill="white" stroke="#FFBE55" stroke-miterlimit="10" stroke-linecap="round" stroke-linejoin="round"/>
<path d="M307.963 302.53H299.31C296.971 302.53 295.16 300.644 295.264 298.316H312.388C312.282 300.644 310.302 302.53 307.963 302.53Z" fill="white" stroke="#FFBE55" stroke-miterlimit="10" stroke-linecap="round" stroke-linejoin="round"/>
<path d="M305.614 306.737H301.283C298.944 306.737 297.132 304.85 297.237 302.521H310.039C309.934 304.85 307.954 306.737 305.614 306.737Z" fill="white" stroke="#FFBE55" stroke-miterlimit="10" stroke-linecap="round" stroke-linejoin="round"/>
<path d="M323.096 272.008H330.351" stroke="#FFBE55" stroke-miterlimit="10" stroke-linecap="round" stroke-linejoin="round"/>
<path d="M278.984 272.008H286.333" stroke="#FFBE55" stroke-miterlimit="10" stroke-linecap="round" stroke-linejoin="round"/>
<path d="M305.492 253.695L305.818 246.455" stroke="#FFBE55" stroke-miterlimit="10" stroke-linecap="round" stroke-linejoin="round"/>
<path d="M318.406 258.923L323.639 253.939" stroke="#FFBE55" stroke-miterlimit="10" stroke-linecap="round" stroke-linejoin="round"/>
<path d="M285.695 290.079L291.004 285.023" stroke="#FFBE55" stroke-miterlimit="10" stroke-linecap="round" stroke-linejoin="round"/>
<path d="M291.966 258.779L287.318 253.939" stroke="#FFBE55" stroke-miterlimit="10" stroke-linecap="round" stroke-linejoin="round"/>
<path d="M322.016 290.081L317.389 285.262" stroke="#FFBE55" stroke-miterlimit="10" stroke-linecap="round" stroke-linejoin="round"/>
<path d="M380.211 271.929C380.619 262.855 373.239 255.573 363.954 256.209C356.213 256.738 349.644 262.895 348.651 270.565C348.085 274.929 349.326 278.959 351.748 282.012C353.957 284.794 355.073 288.305 354.91 291.927L354.813 294.087H371.937L372.034 291.927C372.197 288.308 373.623 284.798 376.081 282.02C378.499 279.287 380.039 275.77 380.211 271.929Z" fill="#E86B31" stroke="white" stroke-miterlimit="10" stroke-linecap="round" stroke-linejoin="round"/>
<path d="M371.75 298.305H354.625L354.815 294.09H371.939L371.75 298.305Z" fill="#E86B31" stroke="white" stroke-miterlimit="10" stroke-linecap="round" stroke-linejoin="round"/>
<path d="M367.322 302.53H358.67C356.331 302.53 354.519 300.644 354.623 298.316H371.747C371.643 300.644 369.662 302.53 367.322 302.53Z" fill="#E86B31" stroke="white" stroke-miterlimit="10" stroke-linecap="round" stroke-linejoin="round"/>
<path d="M364.974 306.737H360.642C358.303 306.737 356.492 304.85 356.596 302.521H369.398C369.295 304.85 367.313 306.737 364.974 306.737Z" fill="#E86B31" stroke="white" stroke-miterlimit="10" stroke-linecap="round" stroke-linejoin="round"/>
<path d="M382.457 272.008H389.712" stroke="#E86B31" stroke-miterlimit="10" stroke-linecap="round" stroke-linejoin="round"/>
<path d="M338.346 272.008H345.695" stroke="#E86B31" stroke-miterlimit="10" stroke-linecap="round" stroke-linejoin="round"/>
<path d="M364.854 253.695L365.179 246.455" stroke="#E86B31" stroke-miterlimit="10" stroke-linecap="round" stroke-linejoin="round"/>
<path d="M377.768 258.923L383.001 253.939" stroke="#E86B31" stroke-miterlimit="10" stroke-linecap="round" stroke-linejoin="round"/>
<path d="M345.057 290.079L350.366 285.023" stroke="#E86B31" stroke-miterlimit="10" stroke-linecap="round" stroke-linejoin="round"/>
<path d="M351.326 258.779L346.68 253.939" stroke="#E86B31" stroke-miterlimit="10" stroke-linecap="round" stroke-linejoin="round"/>
<path d="M381.377 290.081L376.75 285.262" stroke="#E86B31" stroke-miterlimit="10" stroke-linecap="round" stroke-linejoin="round"/>
<path d="M397.179 339.234H268.536C266.07 339.234 264.101 337.19 264.207 334.738L264.747 322.311H403.025L402.511 334.154C402.388 336.995 400.037 339.234 397.179 339.234Z" fill="#0B4870" stroke="white" stroke-miterlimit="10" stroke-linejoin="round"/>
<path d="M437.328 368.725H371.139V561.995H437.328V368.725Z" fill="black" stroke="black" stroke-miterlimit="10" stroke-linejoin="round"/>
<path d="M441.644 368.725H375.455V561.995H441.644V368.725Z" fill="#7D7D7D" stroke="black" stroke-miterlimit="10" stroke-linejoin="round"/>
<path d="M441.644 368.725H375.455V378.87H441.644V368.725Z" fill="black" stroke="black" stroke-miterlimit="10" stroke-linejoin="round"/>
<path opacity="0.2" d="M246.674 368.725H180.484V561.995H246.674V368.725Z" fill="black" stroke="black" stroke-miterlimit="10" stroke-linejoin="round"/>
<path d="M250.99 368.725H184.801V561.995H250.99V368.725Z" fill="#7D7D7D" stroke="black" stroke-miterlimit="10" stroke-linejoin="round"/>
<path opacity="0.2" d="M458.489 365.254H171.133V371.806H458.489V365.254Z" fill="black" stroke="black" stroke-miterlimit="10" stroke-linejoin="round"/>
<path d="M458.492 365.254H372.014V371.806H458.492V365.254Z" fill="white" stroke="black" stroke-miterlimit="10" stroke-linejoin="round"/>
<path d="M351.605 365.188L351.471 364.848C349.381 359.54 344.236 356.049 338.507 356.049H333.013C328.146 356.049 323.632 358.577 321.108 362.718L319.602 365.188H351.605Z" fill="white" stroke="black" stroke-miterlimit="10" stroke-linejoin="round"/>
<path d="M235.25 219.45C235.25 219.45 235.227 220.334 235.195 221.634C235.118 224.855 234.975 230.642 234.975 232.007C234.975 233.918 231.958 236.648 231.958 238.559C231.958 240.47 233.604 246.475 234.152 248.386C234.701 250.297 229.213 251.935 229.213 251.935C229.213 251.935 226.745 260.943 223.177 263.127C219.611 265.311 212.477 263.127 211.105 262.854C209.733 262.581 205.343 261.216 205.343 261.216L205.068 275.137L182.297 265.856L184.031 250.602L184.218 248.932C184.218 248.932 185.041 236.103 183.943 229.824C182.022 218.85 186.413 204.71 203.423 201.162C220.433 197.613 230.859 208.533 232.78 210.989C234.701 213.444 235.25 219.45 235.25 219.45Z" fill="#E4897B" stroke="black" stroke-miterlimit="10" stroke-linejoin="round"/>
<path d="M207.814 233.371L237.993 236.375" stroke="black" stroke-miterlimit="10" stroke-linejoin="round"/>
<path d="M233.603 235.01L239.364 235.556C239.364 235.556 238.541 243.199 232.779 243.199" stroke="black" stroke-miterlimit="10" stroke-linejoin="round"/>
<path d="M225.922 253.568C225.922 253.568 223.452 253.841 221.807 249.746" stroke="black" stroke-miterlimit="10" stroke-linejoin="round"/>
<path d="M230.586 236.375L228.939 239.923" stroke="black" stroke-miterlimit="10" stroke-linejoin="round"/>
<path d="M228.939 232.557C228.939 232.557 230.86 229.554 233.878 233.376" stroke="black" stroke-miterlimit="10" stroke-linejoin="round"/>
<path d="M235.25 219.451C235.25 219.451 235.227 220.335 235.195 221.635C235.064 221.515 234.921 221.385 234.789 221.253C234.789 221.253 227.282 214.472 222.169 213.457C217.055 212.442 218.416 219.899 219.447 221.253C220.468 222.619 227.283 225.327 223.87 227.707C220.468 230.077 217.396 232.118 217.396 232.118L215.233 237.862C214.718 239.215 213.258 239.969 211.854 239.587C211.053 239.369 210.383 238.812 210.031 238.047C209.109 236.027 207.244 232.01 206.486 230.753C205.466 229.06 198.717 231.354 199.32 237.883C199.737 242.327 202.865 243.779 202.865 243.779C202.865 243.779 206.146 246.017 198.639 250.767C191.144 255.516 188.411 256.193 184.658 251.455C184.461 251.204 184.252 250.919 184.032 250.602L184.218 248.932C184.218 248.932 185.042 236.103 183.944 229.824C182.023 218.85 186.414 204.71 203.424 201.162C220.433 197.613 230.859 208.533 232.78 210.989C234.701 213.445 235.25 219.451 235.25 219.451Z" fill="#472E05" stroke="#472E05" stroke-miterlimit="10" stroke-linejoin="round"/>
<path d="M299.307 536.232C299.307 536.232 310.648 540.236 317.232 539.872C323.817 539.508 328.938 536.596 330.401 539.144C331.864 541.692 328.937 545.696 328.205 547.151C327.474 548.607 313.207 552.246 308.451 554.431C303.696 556.614 291.259 560.618 286.137 561.346C281.016 562.074 278.82 548.971 278.82 548.971L299.307 536.232Z" fill="#A99495" stroke="black" stroke-miterlimit="10" stroke-linejoin="round"/>
<path d="M302.6 552.611C294.2 555.307 285.606 557.202 281.711 558.006C282.83 560.074 284.294 561.608 286.139 561.347C291.26 560.619 303.697 556.616 308.453 554.431C313.208 552.247 327.475 548.608 328.207 547.151C328.939 545.695 331.865 541.692 330.402 539.145C324.915 549.7 313.94 548.972 302.6 552.611Z" fill="white" stroke="black" stroke-miterlimit="10" stroke-linejoin="round"/>
<path d="M251.752 436.506L278.822 548.972C278.822 548.972 284.309 548.608 290.162 546.061C296.016 543.512 297.844 542.057 299.308 540.237C300.771 538.417 298.942 532.23 298.942 531.138C298.942 530.046 295.65 528.591 295.65 528.591L285.407 431.775L251.752 436.506Z" fill="#455A64" stroke="#455A64" stroke-miterlimit="10" stroke-linejoin="round"/>
<path d="M274.715 539.287C274.715 539.287 279.105 546.202 283.129 548.386C287.152 550.57 290.81 552.025 293.006 552.025C295.201 552.025 297.029 556.393 297.395 557.849C297.761 559.305 297.761 561.488 297.761 561.488H264.106C264.106 561.488 243.62 558.941 241.791 554.208C239.961 549.477 253.863 531.643 253.863 531.643L274.715 539.287Z" fill="#A99495" stroke="black" stroke-miterlimit="10" stroke-linejoin="round"/>
<path d="M297.535 558.554C289.657 558.475 271.999 558.108 263.374 556.392C255.866 554.898 246.989 552.211 242.13 550.664C241.64 552.137 241.469 553.378 241.791 554.209C243.621 558.94 264.106 561.489 264.106 561.489H297.76C297.76 561.486 297.758 559.918 297.535 558.554Z" fill="white" stroke="black" stroke-miterlimit="10" stroke-linejoin="round"/>
<path d="M223.636 386.332L233.879 395.431C233.879 395.431 278.143 398.706 293.507 399.434C308.872 400.163 319.115 404.53 318.749 411.809C318.383 419.089 275.684 533.346 275.684 533.346L275.63 540.007C275.63 540.007 273.801 541.828 265.753 540.007C257.706 538.187 252.584 534.548 252.584 534.548C252.584 534.548 251.121 527.633 254.78 524.721C258.438 521.809 262.414 503.891 262.414 503.891L277.412 431.826H165.839C165.839 431.826 159.254 413.628 163.644 391.425C163.644 391.428 202.42 398.706 223.636 386.332Z" fill="#455A64" stroke="#455A64" stroke-miterlimit="10" stroke-linejoin="round"/>
<path d="M209.448 277.167C209.448 277.167 201.541 271.267 191.903 265.856C182.264 260.448 180.04 263.152 175.098 266.102C170.156 269.053 148.409 283.068 146.679 287.739C144.949 292.41 146.679 298.312 146.679 298.312C146.679 298.312 155.082 349.945 157.306 370.599C159.53 391.253 165.955 401.58 179.546 403.055C193.138 404.53 214.637 397.154 220.322 393.957C226.005 390.761 226.499 391.99 226.005 385.842C225.511 379.696 220.075 357.813 219.333 352.895C218.592 347.978 219.086 336.914 219.086 336.914C219.086 336.914 224.276 312.08 220.322 298.557C216.368 285.034 209.448 277.167 209.448 277.167Z" fill="url(#paint0_linear_1391_278306)"/>
<path d="M278.602 345.568L318.384 353.757C318.384 353.757 329.908 347.478 332.925 347.205C335.943 346.932 342.528 351.846 343.9 352.392C345.272 352.938 346.644 355.121 347.192 357.033C347.741 358.944 349.935 358.398 348.015 360.035C346.094 361.673 343.626 358.397 343.626 358.397C343.626 358.397 338.138 358.67 335.121 360.308C332.103 361.946 328.261 364.402 324.146 364.948C320.031 365.495 314.818 364.129 314.818 364.129L274.486 361.127C274.486 361.127 279.974 352.393 278.602 345.568Z" fill="#E4897B" stroke="black" stroke-miterlimit="10" stroke-linejoin="round"/>
<path d="M337.312 355.392C337.312 355.392 340.604 354.3 342.8 355.119C344.995 355.938 347.19 357.03 347.19 357.03" stroke="black" stroke-miterlimit="10" stroke-linejoin="round"/>
<path d="M205.62 276.502C205.62 276.502 213.027 278.14 217.693 282.781C222.357 287.421 254.182 333.827 255.28 334.646C256.377 335.465 273.113 344.2 273.113 344.2C273.113 344.2 274.485 352.116 272.015 354.846C269.546 357.575 263.51 361.125 263.51 361.125C263.51 361.125 248.695 359.487 244.031 358.396C239.366 357.303 197.115 323.182 197.115 323.182" fill="url(#paint1_linear_1391_278306)"/>
<path d="M266.255 340.104C266.255 340.104 268.998 347.474 266.529 352.66C264.061 357.847 259.67 361.122 259.67 361.122C259.67 361.122 272.29 363.306 274.76 363.306C277.229 363.306 281.619 352.66 281.345 347.2C281.071 341.741 266.255 340.104 266.255 340.104Z" fill="#E86B31"/>
<path d="M277.41 431.829C277.41 431.829 289.483 428.554 299.36 420.91" stroke="#878787" stroke-miterlimit="10" stroke-linejoin="round"/>
<path d="M284.359 430.01C284.359 430.01 294.968 428.554 300.821 424.551" stroke="#878787" stroke-miterlimit="10" stroke-linejoin="round"/>
<path d="M228.241 432.809C228.241 432.809 197.91 383.644 189.976 315.054C188.099 298.829 175.014 286.605 159.445 286.605C141.059 286.605 126.785 303.417 128.89 322.591C132.178 352.539 139.455 396.225 155.452 434.013L228.241 432.809Z" fill="white" stroke="black" stroke-miterlimit="10" stroke-linejoin="round"/>
<path opacity="0.2" d="M224.038 432.809C224.038 432.809 193.707 383.644 185.773 315.054C183.895 298.829 170.812 286.605 155.242 286.605C136.855 286.605 122.582 303.417 124.687 322.591C127.975 352.539 135.252 396.225 151.249 434.013L224.038 432.809Z" fill="black" stroke="black" stroke-miterlimit="10" stroke-linejoin="round"/>
<path d="M225.228 442.123H210.094V524.582H225.228V442.123Z" fill="black" stroke="black" stroke-miterlimit="10" stroke-linejoin="round"/>
<path d="M229.914 509.879H204.33V528.163H229.914V509.879Z" fill="black" stroke="black" stroke-miterlimit="10" stroke-linejoin="round"/>
<path d="M204.692 519.205L156.768 548.604V553.982H161.452V550.397L204.332 528.168L204.692 519.205Z" fill="white" stroke="black" stroke-miterlimit="10" stroke-linejoin="round"/>
<path d="M168.657 555.055C168.657 551.492 165.753 548.602 162.17 548.602C158.588 548.602 155.684 551.49 155.684 555.055C155.684 558.62 158.587 561.509 162.17 561.509C165.752 561.508 168.657 558.619 168.657 555.055Z" fill="black" stroke="black" stroke-miterlimit="10" stroke-linejoin="round"/>
<path d="M229.914 519.205L277.838 548.604V553.982H273.154V550.397L230.274 528.168L229.914 519.205Z" fill="white" stroke="black" stroke-miterlimit="10" stroke-linejoin="round"/>
<path d="M265.947 555.055C265.947 551.492 268.851 548.602 272.434 548.602C276.017 548.602 278.92 551.49 278.92 555.055C278.92 558.62 276.017 561.509 272.434 561.509C268.851 561.509 265.947 558.619 265.947 555.055Z" fill="black" stroke="black" stroke-miterlimit="10" stroke-linejoin="round"/>
<path d="M211.176 555.053C211.176 551.49 214.079 548.6 217.662 548.6C221.244 548.6 224.149 551.488 224.149 555.053C224.149 558.618 221.245 561.507 217.662 561.507C214.079 561.506 211.176 558.617 211.176 555.053Z" fill="black" stroke="black" stroke-miterlimit="10" stroke-linejoin="round"/>
<path d="M219.465 518.844H215.502V548.601H219.465V518.844Z" fill="white" stroke="black" stroke-miterlimit="10" stroke-linejoin="round"/>
<path d="M255.021 389.471L244.781 432.42L252.255 434.184L262.495 391.235L255.021 389.471Z" fill="white" stroke="black" stroke-miterlimit="10" stroke-linejoin="round"/>
<path opacity="0.2" d="M277.413 393.249H233.515C230.484 393.249 228.027 390.805 228.027 387.79C228.027 384.774 230.484 382.33 233.515 382.33H277.413C280.443 382.33 282.9 384.774 282.9 387.79C282.9 390.805 280.443 393.249 277.413 393.249Z" fill="black" stroke="black" stroke-miterlimit="10" stroke-linejoin="round"/>
<path d="M277.047 445.297H154.499C150.863 445.297 147.914 442.363 147.914 438.745C147.914 435.127 150.861 432.193 154.499 432.193H277.047C280.684 432.193 283.632 435.127 283.632 438.745C283.631 442.363 280.684 445.297 277.047 445.297Z" fill="black" stroke="black" stroke-miterlimit="10" stroke-linejoin="round"/>
<path d="M277.046 445.297H224.003C220.367 445.297 217.418 442.363 217.418 438.745C217.418 435.127 220.367 432.193 224.003 432.193H277.046C280.683 432.193 283.631 435.127 283.631 438.745C283.63 442.363 280.683 445.297 277.046 445.297Z" fill="white" stroke="black" stroke-miterlimit="10" stroke-linejoin="round"/>
<path d="M484.282 101.447C484.282 80.9828 466.899 64.5578 446.024 65.9915C428.618 67.1865 414.43 81.0715 412.966 98.3701C412.134 108.213 415.339 117.301 421.111 124.185C426.373 130.46 429.249 138.377 429.249 146.55V151.419H467.869V146.55C467.869 138.385 470.729 130.471 475.99 124.206C481.165 118.041 484.282 110.107 484.282 101.447Z" fill="#FFBE55"/>
<path d="M467.868 151.43H429.248V160.934H467.868V151.43Z" fill="white" stroke="#FFBE55" stroke-width="3" stroke-miterlimit="10" stroke-linecap="round" stroke-linejoin="round"/>
<path d="M462.254 170.461H434.861C431.761 170.461 429.248 167.96 429.248 164.877V160.957H467.868V164.877C467.869 167.962 465.355 170.461 462.254 170.461Z" fill="white" stroke="#FFBE55" stroke-width="3" stroke-miterlimit="10" stroke-linecap="round" stroke-linejoin="round"/>
<path d="M455.379 179.956H441.736C437.531 179.956 434.121 176.563 434.121 172.379V170.451H462.994V172.379C462.994 176.563 459.585 179.956 455.379 179.956Z" fill="white" stroke="#FFBE55" stroke-width="3" stroke-miterlimit="10" stroke-linecap="round" stroke-linejoin="round"/>
<path d="M489.355 101.635H505.719" stroke="#E86B31" stroke-width="3" stroke-miterlimit="10" stroke-linecap="round" stroke-linejoin="round"/>
<path d="M389.869 101.635H406.444" stroke="#E86B31" stroke-width="3" stroke-miterlimit="10" stroke-linecap="round" stroke-linejoin="round"/>
<path d="M447.795 60.325V43.998" stroke="#E86B31" stroke-width="3" stroke-miterlimit="10" stroke-linecap="round" stroke-linejoin="round"/>
<path d="M477.457 72.1205L488.753 60.8809" stroke="#E86B31" stroke-width="3" stroke-miterlimit="10" stroke-linecap="round" stroke-linejoin="round"/>
<path d="M406.834 142.384L418.295 130.98" stroke="#E86B31" stroke-width="3" stroke-miterlimit="10" stroke-linecap="round" stroke-linejoin="round"/>
<path d="M417.804 71.7954L406.834 60.8809" stroke="#E86B31" stroke-width="3" stroke-miterlimit="10" stroke-linecap="round" stroke-linejoin="round"/>
<path d="M336.772 101.449C336.772 80.9848 319.389 64.5597 298.514 65.9935C281.109 67.1885 266.92 81.0734 265.457 98.372C264.624 108.215 267.829 117.303 273.602 124.187C278.863 130.462 281.739 138.379 281.739 146.552V151.421H320.359V146.552C320.359 138.387 323.22 130.473 328.48 124.208C333.656 118.043 336.772 110.109 336.772 101.449Z" stroke="#E86B31" stroke-width="3" stroke-miterlimit="10" stroke-linecap="round" stroke-linejoin="round"/>
<path d="M320.358 151.432H281.738V160.936H320.358V151.432Z" stroke="#E86B31" stroke-width="3" stroke-miterlimit="10" stroke-linecap="round" stroke-linejoin="round"/>
<path d="M314.744 170.463H287.352C284.251 170.463 281.738 167.962 281.738 164.878V160.959H320.358V164.878C320.358 167.964 317.845 170.463 314.744 170.463Z" stroke="#E86B31" stroke-width="3" stroke-miterlimit="10" stroke-linecap="round" stroke-linejoin="round"/>
<path d="M307.869 179.958H294.226C290.021 179.958 286.611 176.565 286.611 172.381V170.453H315.484V172.381C315.484 176.565 312.076 179.958 307.869 179.958Z" stroke="#E86B31" stroke-width="3" stroke-miterlimit="10" stroke-linecap="round" stroke-linejoin="round"/>
<path d="M259.578 101.635H342.49" stroke="#FFBE55" stroke-miterlimit="10" stroke-linejoin="round"/>
<path d="M300.93 159.265V60.3281" stroke="#FFBE55" stroke-miterlimit="10" stroke-linejoin="round"/>
<path d="M271.432 130.982L330.593 72.1211" stroke="#FFBE55" stroke-miterlimit="10" stroke-linejoin="round"/>
<path d="M330.965 131.519L270.941 71.7988" stroke="#FFBE55" stroke-miterlimit="10" stroke-linejoin="round"/>
<path d="M301.035 159.729C333.316 159.729 359.486 133.692 359.486 101.574C359.486 69.4551 333.316 43.418 301.035 43.418C268.753 43.418 242.584 69.4551 242.584 101.574C242.584 133.692 268.753 159.729 301.035 159.729Z" stroke="#FFBE55" stroke-miterlimit="10" stroke-linejoin="round"/>
<path d="M301.033 142.82C323.928 142.82 342.489 124.354 342.489 101.574C342.489 78.7945 323.928 60.3281 301.033 60.3281C278.138 60.3281 259.578 78.7945 259.578 101.574C259.578 124.354 278.138 142.82 301.033 142.82Z" stroke="#FFBE55" stroke-miterlimit="10" stroke-linejoin="round"/>
<path d="M341.846 101.637H358.209" stroke="#E86B31" stroke-width="3" stroke-miterlimit="10" stroke-linecap="round" stroke-linejoin="round"/>
<path d="M242.359 101.637H258.933" stroke="#E86B31" stroke-width="3" stroke-miterlimit="10" stroke-linecap="round" stroke-linejoin="round"/>
<path d="M300.285 60.327V44" stroke="#E86B31" stroke-width="3" stroke-miterlimit="10" stroke-linecap="round" stroke-linejoin="round"/>
<path d="M329.947 72.1224L341.244 60.8828" stroke="#E86B31" stroke-width="3" stroke-miterlimit="10" stroke-linecap="round" stroke-linejoin="round"/>
<path d="M259.324 142.386L270.785 130.982" stroke="#E86B31" stroke-width="3" stroke-miterlimit="10" stroke-linecap="round" stroke-linejoin="round"/>
<path d="M270.293 71.7974L259.324 60.8828" stroke="#E86B31" stroke-width="3" stroke-miterlimit="10" stroke-linecap="round" stroke-linejoin="round"/>
<path d="M341.242 142.387L330.318 131.518" stroke="#E86B31" stroke-width="3" stroke-miterlimit="10" stroke-linecap="round" stroke-linejoin="round"/>
<path d="M154.434 136.992C174.163 136.992 190.157 121.079 190.157 101.449C190.157 81.8193 174.163 65.9062 154.434 65.9062C134.705 65.9062 118.711 81.8193 118.711 101.449C118.711 121.079 134.705 136.992 154.434 136.992Z" stroke="#FFBE55" stroke-miterlimit="10" stroke-linejoin="round"/>
<path d="M173.746 107.234H135.127V151.422H173.746V107.234Z" stroke="#E86B31" stroke-miterlimit="10" stroke-linejoin="round"/>
<path d="M173.746 151.432H135.127V160.936H173.746V151.432Z" stroke="#E86B31" stroke-miterlimit="10" stroke-linejoin="round"/>
<path d="M173.746 160.959H135.127V170.463H173.746V160.959Z" stroke="#E86B31" stroke-miterlimit="10" stroke-linejoin="round"/>
<path d="M168.873 170.453H140V179.958H168.873V170.453Z" stroke="#E86B31" stroke-miterlimit="10" stroke-linejoin="round"/>
<path d="M96.4297 101.697H212.287" stroke="#FFBE55" stroke-miterlimit="10" stroke-linejoin="round"/>
<path d="M154.211 159.842V44.0059" stroke="#FFBE55" stroke-miterlimit="10" stroke-linejoin="round"/>
<path d="M112.992 142.692L195.662 60.4766" stroke="#FFBE55" stroke-miterlimit="10" stroke-linejoin="round"/>
<path d="M195.4 142.494L112.834 60.707" stroke="#FFBE55" stroke-miterlimit="10" stroke-linejoin="round"/>
<path d="M154.435 159.729C186.717 159.729 212.886 133.692 212.886 101.574C212.886 69.4551 186.717 43.418 154.435 43.418C122.154 43.418 95.9844 69.4551 95.9844 101.574C95.9844 133.692 122.154 159.729 154.435 159.729Z" stroke="#FFBE55" stroke-miterlimit="10" stroke-linejoin="round"/>
<path d="M154.434 142.82C177.329 142.82 195.889 124.354 195.889 101.574C195.889 78.7945 177.329 60.3281 154.434 60.3281C131.539 60.3281 112.979 78.7945 112.979 101.574C112.979 124.354 131.539 142.82 154.434 142.82Z" stroke="#E86B31" stroke-miterlimit="10" stroke-linejoin="round"/>
<defs>
<linearGradient id="paint0_linear_1391_278306" x1="212.039" y1="403.153" x2="150.438" y2="300.795" gradientUnits="userSpaceOnUse">
<stop stop-color="#FB8D48"/>
<stop offset="0.2" stop-color="#ED7136"/>
<stop offset="0.3999" stop-color="#C54E47"/>
<stop offset="0.4" stop-color="#C14F49"/>
<stop offset="0.454" stop-color="#9D3863"/>
<stop offset="0.655914" stop-color="#5E1F72"/>
</linearGradient>
<linearGradient id="paint1_linear_1391_278306" x1="214.943" y1="309.229" x2="275.119" y2="317.365" gradientUnits="userSpaceOnUse">
<stop offset="0.2" stop-color="#5E1F72"/>
<stop offset="0.4" stop-color="#9D3863"/>
<stop offset="0.6" stop-color="#C14F49"/>
<stop offset="0.6001" stop-color="#C54E47"/>
<stop offset="0.8" stop-color="#ED7136"/>
<stop offset="1" stop-color="#FB8D48"/>
</linearGradient>
</defs>
</svg>
