<svg width="460" height="504" viewBox="0 0 460 504" fill="none" xmlns="http://www.w3.org/2000/svg">
<path d="M88.8281 149.465L88.6595 148.387H87.5921C66.8056 148.387 60.064 141.64 60.0078 141.583L59.1089 140.563L58.2101 141.583C58.1539 141.64 51.4685 148.387 30.6257 148.387H29.5583L29.3898 149.465C29.3336 149.805 24.9516 183.597 58.5471 200.947L59.1089 201.231L59.6707 200.947C93.3787 183.597 88.8281 149.805 88.8281 149.465ZM83.7719 170.386C79.6146 182.52 71.3 191.932 59.0528 198.396C46.8055 191.932 38.4909 182.52 34.3336 170.386C31.2999 161.485 31.4684 153.717 31.6931 150.939C48.9965 150.712 56.6932 146.063 59.0528 144.135C61.4123 146.006 69.1089 150.712 86.4124 150.939C86.6371 153.774 86.8056 161.485 83.7719 170.386ZM121.806 106.033L120.626 102.915C119.559 102.801 118.547 102.518 117.536 102.178L115.12 104.446L108.154 99.3995L109.502 96.3378C108.828 95.4873 108.266 94.5801 107.817 93.6162L104.502 93.5028L103.098 84.9413L106.188 83.7506C106.3 82.6734 106.581 81.6528 106.918 80.6322L104.671 78.1942L109.671 71.1068L112.705 72.4676C113.547 71.7872 114.446 71.2202 115.401 70.7666L115.514 67.4214L123.997 66.0039L125.176 69.1223C126.244 69.2357 127.255 69.5192 128.266 69.8594L130.682 67.5915L137.648 72.6377L136.3 75.6994C136.974 76.5499 137.536 77.4571 137.986 78.421L141.3 78.5344L142.705 87.0959L139.615 88.2865C139.446 89.3638 139.221 90.3844 138.884 91.405L141.132 93.843L136.132 100.93L133.098 99.5696C132.255 100.25 131.356 100.817 130.401 101.271L130.289 104.616L121.806 106.033ZM116.974 99.4562L117.648 99.7397C118.884 100.25 120.233 100.533 121.581 100.647L122.311 100.704L123.323 103.368L127.985 102.575L128.098 99.7397L128.772 99.4562C130.008 98.8892 131.132 98.1521 132.199 97.3017L132.761 96.8481L135.345 98.0387L138.098 94.1832L136.132 92.0854L136.412 91.405C136.918 90.1576 137.199 88.7968 137.311 87.4361L137.368 86.699L140.008 85.6784L139.221 80.9724L136.412 80.859L136.132 80.1786C135.57 78.9312 134.839 77.7973 133.997 76.72L133.547 76.153L134.727 73.5449L130.907 70.7666L128.828 72.6944L128.154 72.4109C126.918 71.9006 125.57 71.6171 124.221 71.5037L123.491 71.447L122.48 68.7822L117.817 69.5759L117.705 72.4109L117.03 72.6944C115.794 73.2614 114.671 73.9984 113.603 74.8489L113.042 75.3025L110.457 74.1118L107.705 77.9674L109.671 80.0652L109.39 80.7456C108.884 81.993 108.603 83.3537 108.491 84.7145L108.435 85.4516L105.794 86.4722L106.581 91.1782L109.39 91.2916L109.671 91.972C110.233 93.2193 110.963 94.3533 111.806 95.4306L112.255 95.9976L111.075 98.6057L114.896 101.384L116.974 99.4562ZM122.817 95.4873C120.907 95.4873 118.997 94.8636 117.424 93.7296C113.21 90.7246 112.255 84.8279 115.233 80.5755C118.21 76.3231 124.053 75.3592 128.266 78.3643C130.289 79.8384 131.637 81.993 132.087 84.4877C132.48 86.9825 131.918 89.4772 130.514 91.5184C129.053 93.5595 126.918 94.9203 124.446 95.3739C123.828 95.4306 123.323 95.4873 122.817 95.4873ZM122.817 78.9879C120.626 78.9879 118.491 80.0085 117.143 81.9363C116.075 83.4671 115.626 85.3382 115.963 87.2093C116.3 89.0803 117.255 90.6679 118.772 91.7452C120.289 92.8225 122.143 93.276 123.997 92.9359C125.851 92.5957 127.424 91.6318 128.491 90.1009C129.559 88.57 130.008 86.699 129.671 84.8279C129.334 82.9569 128.379 81.3693 126.862 80.292C125.626 79.4415 124.221 78.9879 122.817 78.9879ZM391.132 198.452L388.492 191.478C385.683 191.138 382.874 190.515 380.233 189.551L374.84 194.654L360.233 184.164L363.267 177.36C361.525 175.149 360.008 172.711 358.772 170.103L351.413 169.876L348.435 152.016L355.346 149.351C355.683 146.516 356.301 143.681 357.256 141.016L352.199 135.573L362.593 120.832L369.334 123.893C371.525 122.136 373.941 120.605 376.525 119.358L376.75 111.93L394.447 108.925L397.087 115.899C399.896 116.239 402.705 116.863 405.346 117.827L410.739 112.724L425.346 123.213L422.312 130.017C424.054 132.228 425.57 134.666 426.806 137.274L434.166 137.501L437.143 155.361L430.233 158.026C429.896 160.861 429.278 163.696 428.323 166.361L433.379 171.804L422.986 186.546L416.245 183.484C414.054 185.242 411.638 186.772 409.053 188.02L408.829 195.447L391.132 198.452ZM379.447 185.922L380.346 186.262C383.323 187.396 386.469 188.133 389.671 188.417L390.683 188.53L393.098 194.88L405.683 192.726L405.907 185.922L406.806 185.525C409.728 184.221 412.48 182.463 414.952 180.365L415.683 179.742L421.863 182.52L429.278 172.031L424.672 167.041L425.009 166.134C426.132 163.129 426.863 159.954 427.143 156.722L427.2 155.701L433.492 153.263L431.357 140.563L424.615 140.336L424.222 139.429C422.93 136.481 421.188 133.702 419.11 131.208L418.492 130.47L421.245 124.234L410.851 116.749L405.907 121.399L405.009 121.058C402.031 119.924 398.885 119.187 395.683 118.904L394.671 118.847L392.256 112.497L379.671 114.652L379.447 121.455L378.548 121.852C375.626 123.156 372.874 124.914 370.402 127.012L369.671 127.636L363.492 124.857L356.188 135.347L360.795 140.336L360.458 141.243C359.334 144.248 358.604 147.423 358.323 150.655L358.267 151.676L351.975 154.114L354.11 166.814L360.851 167.041L361.244 167.948C362.537 170.897 364.278 173.675 366.357 176.17L366.975 176.907L364.222 183.144L374.615 190.628L379.447 185.922ZM392.705 174.242C388.604 174.242 384.503 172.995 380.907 170.443C371.75 163.866 369.615 150.995 376.132 141.754C382.649 132.512 395.402 130.357 404.559 136.934C413.716 143.511 415.851 156.382 409.334 165.624C405.346 171.237 399.053 174.242 392.705 174.242ZM392.761 136.31C387.368 136.31 382.031 138.862 378.716 143.625C376.02 147.423 375.008 152.016 375.739 156.609C376.525 161.201 378.997 165.17 382.761 167.892C390.514 173.448 401.301 171.634 406.806 163.809C409.447 160.011 410.514 155.418 409.784 150.825C408.997 146.233 406.525 142.264 402.761 139.542C399.671 137.331 396.188 136.31 392.761 136.31ZM117.592 326.025C114.896 318.37 111.806 309.752 115.233 300.907C119.839 289 110.064 282.877 101.469 277.377C94.0528 272.728 87.0865 268.305 89.4461 260.991C92.0304 253.053 91.8618 246.93 88.9404 242.904C86.4685 239.502 82.0865 237.688 76.2438 237.745C71.5809 237.801 67.4236 232.018 62.9853 225.951C57.7606 218.807 52.4235 211.436 45.6819 213.081C44.5022 213.364 43.5471 214.045 42.9853 215.122C40.6257 219.601 44.3336 230.26 48.3224 241.6C52.5921 253.847 57.4797 267.682 54.2775 273.578C50.7943 280.042 57.0865 285.939 63.7719 292.232C70.8505 298.866 78.8843 306.407 76.7494 315.876C74.7269 324.721 74.2775 328.009 75.5135 329.937C76.4685 331.468 78.4348 331.808 81.4123 332.375C83.4348 332.772 86.0191 333.225 89.1652 334.246C102.705 338.498 106.637 347.343 106.693 347.457L106.862 347.854L107.255 347.797C113.772 346.777 117.592 344.905 119.39 341.9C119.502 341.73 119.559 341.56 119.671 341.39C121.581 337.365 119.727 332.091 117.592 326.025Z" fill="url(#paint0_linear_1440_274158)"/>
<path d="M82.9977 309.132C85.2449 312.647 86.8741 315.709 86.7055 320.018C86.5932 324.044 85.9752 328.013 85.6381 331.982C85.5819 332.832 85.5258 333.626 85.4696 334.42C84.346 333.456 83.2786 332.492 82.155 331.528C81.6494 331.471 81.1437 331.471 80.5819 331.471C82.155 332.775 83.7842 334.193 85.3572 335.61C85.1887 338.389 85.1325 341.167 85.1325 343.945C85.1325 345.589 85.0763 347.347 85.1887 348.991C83.728 348.084 82.2111 347.177 80.8066 346.27C76.4246 343.548 72.3235 340.997 69.1774 339.636C66.7617 338.615 64.065 337.708 61.4808 336.858C54.7392 334.646 47.829 332.378 45.5257 327.559C44.3459 325.064 44.4583 322.059 45.8628 318.431C49.4021 309.075 46.0875 307.488 40.5257 304.766C36.4807 302.782 30.9751 300.117 25.4694 293.37C23.0537 290.421 20.9189 287.87 19.0088 285.659C13.3346 278.911 10.1885 275.226 10.5818 273.072C10.6941 272.561 10.975 272.108 11.5368 271.654C11.8177 271.427 12.1548 271.2 12.6042 270.974C14.7391 269.783 16.8739 270.69 19.2897 271.711C22.5481 273.072 26.5369 274.829 32.0987 271.938C36.4807 269.67 41.3684 267.572 44.2897 269.273C46.3122 270.407 47.492 273.355 47.8852 278.174C47.9976 279.705 48.5032 280.783 49.3459 281.406C50.5819 282.313 52.492 282.2 54.683 281.746C56.1999 283.844 58.1662 284.865 60.5257 285.715C63.8403 286.906 66.3122 287.983 68.728 290.705C73.8965 296.602 78.8965 302.612 82.9977 309.132Z" fill="url(#paint1_linear_1440_274158)"/>
<path d="M65.0742 318.488C61.7034 316.22 58.7821 310.72 55.9731 305.391C52.1528 298.133 48.1641 290.649 42.7146 290.819C33.9505 291.046 26.1415 280.613 26.0292 280.557L25.2988 281.124C25.6359 281.577 33.5011 292.01 42.7146 291.783C47.6023 291.67 51.4787 298.87 55.1304 305.901C57.9955 311.287 60.9731 316.901 64.5124 319.339C66.6472 320.756 70.5798 323.648 75.2428 327.333V326.142C71.1416 322.684 67.4899 320.076 65.0742 318.488Z" fill="white"/>
<path d="M361.141 388.732C361.141 388.732 366.197 376.032 356.984 358.002C347.714 339.971 340.242 342.75 362.546 328.858C384.849 314.967 362.658 271.309 381.647 265.753C400.636 260.196 417.096 189.493 431.535 198.508C445.973 207.523 426.703 242.166 437.04 252.599C447.321 263.031 448.726 276.242 427.433 286.958C406.141 297.674 442.546 338.611 413.669 351.084C384.793 363.558 393.107 412.489 361.141 388.732Z" fill="url(#paint2_linear_1440_274158)"/>
<path d="M369.959 402.171C369.902 402.001 366.813 385.785 376.644 364.807C386.644 343.431 391.419 320.072 389.453 302.268C388.386 292.629 394.509 288.887 400.408 285.258C406.251 281.686 412.262 277.944 411.925 268.476C411.644 259.914 415.24 239.843 415.352 238.992L416.644 239.219C416.588 239.446 412.936 260.027 413.217 268.419C413.554 278.681 407.206 282.594 401.082 286.336C395.24 289.908 389.79 293.31 390.745 302.098C392.768 320.071 387.936 343.715 377.824 365.317C368.217 385.899 371.195 401.718 371.251 401.888L369.959 402.171Z" fill="white"/>
<path d="M446.647 296.824C454.68 292.969 463.22 294.727 458.782 302.835C454.343 310.942 447.714 311.566 448.95 317.973C450.186 324.38 453.444 331.354 442.995 335.436C432.546 339.462 427.658 338.782 421.31 350.632C414.905 362.482 412.714 371.27 401.759 368.435C390.804 365.543 399.905 350.972 405.579 344.848C405.579 344.848 413.276 338.271 413.163 326.421C413.051 314.571 408.22 306.633 423.388 307.427C438.557 308.108 441.197 299.433 446.647 296.824Z" fill="url(#paint3_linear_1440_274158)"/>
<path d="M400.005 376.71C400.455 375.179 411.017 338.495 419.668 334.526C428.489 330.444 433.264 319.785 435.343 313.831C438.039 306.064 449.556 304.533 450.006 304.476L450.174 305.78C450.062 305.78 438.994 307.254 436.578 314.228C433.994 321.769 429.05 331.635 420.23 335.717C412.14 339.459 401.41 376.71 401.298 377.107L400.005 376.71ZM121.746 347.17C104.443 342.804 104.218 333.392 103.993 324.321C103.825 316.893 103.656 309.862 94.2743 305.553C81.8585 299.827 81.5777 289.224 81.2968 279.869C81.072 272.895 80.9035 266.318 75.7349 262.746C63.3192 254.184 52.8135 233.432 52.7012 233.206L53.6562 232.695C53.7686 232.922 64.1057 253.39 76.3529 261.838C81.9709 265.694 82.1956 272.555 82.3642 279.812C82.6451 289.281 82.926 299.146 94.7237 304.533C104.668 309.125 104.892 316.836 105.061 324.264C105.286 333.336 105.51 341.954 122.027 346.093L121.746 347.17Z" fill="white"/>
<path d="M98.4453 338.786H382.66V131.722C382.66 128.774 380.3 126.336 377.322 126.336H103.782C100.861 126.336 98.4453 128.717 98.4453 131.722V338.786Z" fill="#EDEDED"/>
<path d="M372.078 300.174L108.482 300.174V136.711L372.078 136.711V300.174Z" fill="#263238" stroke="url(#paint4_linear_1440_274158)" stroke-width="0.5" stroke-miterlimit="10"/>
<path d="M382.657 308.104H98.5553L67.4316 425.413H413.725L382.657 308.104Z" fill="#EDEDED"/>
<path d="M109.284 328.687H126.756C127.486 328.687 128.048 329.254 127.88 329.878L126.194 337.532C126.082 337.986 125.632 338.326 125.071 338.326H107.318C106.587 338.326 106.026 337.759 106.194 337.078L108.16 329.424C108.273 329.027 108.722 328.687 109.284 328.687ZM134.733 328.687H147.936L146.194 338.382H132.711L134.733 328.687ZM154.509 328.687H167.711L166.363 338.382H152.88L154.509 328.687ZM174.34 328.687H187.543L186.531 338.382H173.048L174.34 328.687ZM194.116 328.687H207.318L206.7 338.382H193.217L194.116 328.687ZM213.891 328.687H227.093L226.868 338.382H213.385L213.891 328.687ZM372.318 328.687H352.487L354.622 338.382H374.79L372.318 328.687ZM345.914 328.687H332.711L334.453 338.382H347.936L345.914 328.687ZM326.138 328.687H312.936L314.284 338.382H327.768L326.138 328.687ZM306.307 328.687H293.105L294.116 338.382H307.599L306.307 328.687ZM286.532 328.687H273.329L273.947 338.382H287.43L286.532 328.687ZM266.756 328.687H253.554L253.779 338.382H267.262L266.756 328.687ZM233.722 328.687H246.925L247.093 338.382H233.722V328.687ZM103.497 345.583H131.026L129.453 355.562H101.363L103.497 345.583ZM376.588 345.583H342.543L344.453 355.562H379.228L376.588 345.583ZM335.689 345.583H322.093L323.61 355.562H337.543L335.689 345.583ZM315.239 345.583H301.644L302.768 355.562H316.7L315.239 345.583ZM294.79 345.583H281.194L281.981 355.562H295.857L294.79 345.583ZM274.34 345.583H260.745L261.138 355.562H275.015L274.34 345.583ZM99.3401 363.33H127.542L125.464 373.252H96.7559L99.3401 363.33ZM134.565 363.33H148.666L147.037 373.252H132.655L134.565 363.33ZM155.745 363.33H261.419L261.812 373.252H154.172L155.745 363.33ZM268.498 363.33H282.599L283.385 373.252H269.003L268.498 363.33ZM289.621 363.33H303.723L304.902 373.252H290.52L289.621 363.33ZM310.801 363.33H324.902L326.419 373.252H312.093L310.801 363.33ZM331.925 363.33H346.026L347.936 373.252H333.61L331.925 363.33ZM353.049 363.33H381.251L383.835 373.252H355.127L353.049 363.33ZM253.947 345.583H240.408V355.562H254.172L253.947 345.583ZM233.498 345.583H219.846L219.453 355.562H233.385L233.498 345.583ZM213.048 345.583H199.397L198.61 355.562H212.543L213.048 345.583ZM192.599 345.583H178.947L177.767 355.562H191.7L192.599 345.583ZM172.149 345.583H158.498L156.925 355.562H170.857L172.149 345.583ZM151.7 345.583H138.048L136.138 355.562H150.014L151.7 345.583ZM109.902 322.62L112.149 314.002H118.554L116.475 322.62H109.902ZM124.958 314.002H137.767L136.026 322.62H122.936L124.958 314.002ZM144.228 314.002H157.037L155.576 322.62H142.542L144.228 314.002ZM163.441 314.002H176.25L175.127 322.62H162.093L163.441 314.002ZM182.655 314.002H195.464L194.677 322.62H181.644L182.655 314.002ZM201.868 314.002H214.677L214.228 322.62H201.194L201.868 314.002ZM221.082 314.002H233.891L233.779 322.62H220.745L221.082 314.002ZM240.296 314.002H253.105L253.329 322.62H240.296V314.002ZM259.509 314.002H272.318L272.88 322.62H259.846L259.509 314.002ZM278.723 314.002H291.588L292.43 322.62H279.397L278.723 314.002ZM297.992 314.002H310.801L312.037 322.62H299.003L297.992 314.002ZM317.206 314.002H330.015L331.588 322.62H318.554L317.206 314.002ZM336.419 314.002H349.228L351.138 322.62H338.105L336.419 314.002ZM355.633 314.002H368.442L370.689 322.62H357.655L355.633 314.002Z" fill="url(#paint5_linear_1440_274158)" stroke="white" stroke-width="0.5" stroke-miterlimit="10"/>
<path d="M404.68 434.544H76.4766C71.4766 434.544 67.4316 430.462 67.4316 425.416H413.725C413.725 430.462 409.68 434.544 404.68 434.544ZM280.859 387.484C280.522 385.443 278.724 383.912 276.702 383.912H204.511C202.432 383.912 200.69 385.443 200.353 387.484L195.859 414.983C195.409 417.591 197.432 419.973 200.016 419.973H281.14C283.78 419.973 285.747 417.591 285.297 414.983L280.859 387.484Z" fill="#ED7337"/>
<path d="M126.248 150.598H155.63V153.659H126.248V150.598ZM163.889 173.447H185.068V176.509H163.889V173.447ZM188.383 173.447H202.428V176.509H188.383V173.447ZM126.585 230.94H140.63V234.002H126.585V230.94ZM205.237 173.447H239.226V176.509H205.237V173.447ZM126.585 219.43H148.439V222.492H126.585V219.43ZM157.035 242.336H170.349V245.398H157.035V242.336ZM126.585 242.336H152.99V245.398H126.585V242.336ZM126.585 253.79H141.136V256.851H126.585V253.79ZM161.36 150.598H182.203V153.659H161.36V150.598ZM161.36 184.9H182.203V187.962H161.36V184.9ZM150.911 196.297H159.844V199.359H150.911V196.297ZM142.035 207.92H162.035V210.982H142.035V207.92ZM165.068 207.92H192.709V210.982H165.068V207.92ZM126.585 196.41H147.428V199.472H126.585V196.41ZM126.585 207.92H138.945V210.982H126.585V207.92ZM164.057 196.41H175.743V199.472H164.057V196.41ZM126.978 265.186H138.664V268.248H126.978V265.186ZM126.529 173.447H147.372V176.509H126.529V173.447ZM144.956 230.94H165.799V234.002H144.956V230.94ZM145.237 253.79H166.08V256.851H145.237V253.79ZM182.259 253.79H203.102V256.851H182.259V253.79ZM126.529 184.9H156.248V187.962H126.529V184.9ZM265.799 150.598H286.642V153.659H265.799V150.598ZM191.529 265.186H212.372V268.248H191.529V265.186ZM293.102 150.598H307.035V153.659H293.102V150.598ZM340.35 162.051H354.282V165.113H340.35V162.051ZM187.821 150.598H214.394V153.659H187.821V150.598ZM291.305 162.051H317.878V165.113H291.305V162.051ZM258.72 173.447H285.293V176.509H258.72V173.447ZM224.17 184.9H250.743V187.962H224.17V184.9ZM288.608 173.447H307.484V176.509H288.608V173.447ZM234.001 150.598H260.574V153.659H234.001V150.598ZM203.72 184.9H219.282V187.962H203.72V184.9ZM191.529 231.11H207.091V234.172H191.529V231.11ZM219.282 150.598H229.001V153.659H219.282V150.598ZM187.821 184.9H197.54V187.962H187.821V184.9ZM324.282 162.051H334.001V165.113H324.282V162.051ZM126.248 162.051H141.473V165.113H126.248V162.051ZM166.866 219.487H178.889V222.548H166.866V219.487ZM145.237 162.051H150.125V165.113H145.237V162.051ZM246.024 162.051H286.642V165.113H246.024V162.051ZM207.091 253.79H247.709V256.851H207.091V253.79ZM153.72 162.051H158.72V165.113H153.72V162.051ZM229.001 162.051H242.26V165.113H229.001V162.051ZM242.316 173.447H255.574V176.509H242.316V173.447ZM174.001 265.186H187.259V268.248H174.001V265.186ZM197.259 162.051H225.518V165.113H197.259V162.051ZM170.911 231.11H187.428V234.172H170.911V231.11ZM169.9 253.79H178.158V256.851H169.9V253.79ZM183.495 162.051H193.214V165.113H183.495V162.051ZM150.799 173.447H160.518V176.509H150.799V173.447ZM152.709 219.487H162.428V222.548H152.709V219.487ZM162.877 162.051H179.844V165.113H162.877V162.051Z" fill="url(#paint6_linear_1440_274158)"/>
<path d="M305.128 185.016C305.128 185.016 310.072 193.465 312.151 194.825C314.96 196.696 313.218 198.567 311.87 198.624C310.521 198.624 303.668 199.134 302.151 197.377C300.634 195.619 299.903 190.46 298.499 189.099C297.094 187.738 295.634 182.352 299.173 181.048C302.263 179.857 305.128 185.016 305.128 185.016Z" fill="black"/>
<path d="M302.936 181.328C302.936 181.328 308.61 191.251 309.565 192.668C310.52 194.142 307.711 194.142 305.969 193.462C304.228 192.782 299.846 185.694 299.228 184.39C298.497 182.859 299.115 181.102 299.115 181.102L302.936 181.328Z" fill="#E4897B"/>
<path d="M297.206 186.596L298.554 196.746L299.229 196.802L299.004 189.488L297.206 186.596ZM256.082 185.009C256.082 185.009 261.026 193.457 263.105 194.818C265.914 196.689 264.172 198.56 262.824 198.617C261.476 198.617 254.622 199.127 253.105 197.369C251.588 195.612 250.858 190.452 249.453 189.091C248.049 187.73 246.532 182.174 250.127 181.04C253.273 180.019 256.082 185.009 256.082 185.009Z" fill="black"/>
<path d="M254.224 181.328C254.224 181.328 259.561 191.194 260.573 192.668C261.528 194.142 258.719 194.142 256.977 193.462C255.235 192.782 250.853 185.694 250.235 184.39C249.505 182.859 250.123 181.102 250.123 181.102L254.224 181.328Z" fill="#E4897B"/>
<path d="M248.215 186.598L249.507 196.747L250.237 196.803L250.013 189.489L248.215 186.598Z" fill="black"/>
<path d="M234.174 108.069L278.893 128.651C278.893 128.651 283.893 130.295 284.455 135.908C286.196 153.372 299.118 181.041 299.118 181.041C303.275 183.082 302.938 181.324 302.938 181.324C300.298 172.819 297.151 137.893 295.972 123.888C295.747 120.94 295.578 118.899 295.522 118.218C295.522 117.765 295.017 117.198 294.174 116.517C288.05 111.471 262.769 101.095 262.769 101.095C243.949 100.585 234.174 108.069 234.174 108.069Z" fill="#E4897B"/>
<path d="M225.743 116.922C227.148 129.112 244.395 127.751 244.395 127.751H265.294C265.294 127.751 259.788 140.112 257.653 150.488C255.406 161.544 250.069 181.048 250.069 181.048C250.069 181.048 250.406 181.729 254.226 181.332C254.226 181.332 270.631 148.333 276.923 139.998C278.271 138.241 282.148 128.488 282.822 122.705C283.047 120.777 282.934 119.247 282.204 118.623C281.473 117.999 279.788 116.865 277.597 115.448C271.024 111.252 259.676 104.845 253.327 103.428C244.844 101.5 231.417 97.8711 231.417 97.8711C231.417 97.8711 224.339 104.732 225.743 116.922Z" fill="#E4897B"/>
<path d="M239.959 22.9124C239.959 22.9124 236.813 16.9023 238.329 10.552C239.846 4.14508 245.745 -2.20519 254.341 0.743151C262.936 3.69149 269.902 10.382 264.734 18.2064C259.565 25.9741 269.397 29.5462 266.869 33.2316C264.341 36.917 265.296 40.8292 266.363 41.6797C267.431 42.5302 270.858 45.5919 270.464 49.2773C270.071 52.9061 253.779 38.6747 253.779 38.6747C253.779 38.6747 244.959 20.5877 239.959 22.9124Z" fill="#472E05"/>
<path d="M266.192 99.5717C266.192 99.5717 264.9 105.922 231.473 97.9275C231.473 97.9275 242.652 94.1853 266.192 99.5717Z" fill="#EB4747"/>
<path d="M231.081 99.685C230.575 100.706 230.07 101.669 229.508 102.69C241.699 103.03 253.946 103.427 266.137 103.767C264.227 97.247 264.845 88.402 265.182 81.7115C265.575 73.4902 270.07 67.8203 269.62 59.5423C272.036 59.9392 272.429 59.9958 274.845 60.3927C271.137 49.7334 269.901 44.4604 258.384 40.3781C254.62 39.0173 252.205 38.7905 248.16 39.1307C234.845 40.2647 230.856 40.3781 224.283 52.5683C234.508 54.2126 232.823 57.898 235.912 68.2172C237.429 73.2067 239.002 78.8199 238.216 84.0928C237.429 89.2524 231.081 94.979 231.081 99.685Z" fill="white"/>
<path d="M252.313 42.9242C246.863 41.9036 248.043 38.8418 248.043 38.8418C248.043 38.8418 248.268 37.1409 248.38 34.9296C248.38 34.3626 248.437 33.7957 248.437 33.172C248.437 32.2648 248.38 31.3576 248.268 30.4504C247.819 26.765 258.156 28.9763 258.156 28.9763C258.156 28.9763 257.538 36.4605 258.998 38.6718C260.403 40.9397 257.762 44.0014 252.313 42.9242Z" fill="#E4897B"/>
<path d="M241.928 38.8489C241.928 38.8489 252.939 51.6628 256.984 54.6111C256.984 54.6111 261.647 50.3587 258.782 39.1324C258.782 39.1324 253.501 36.4108 241.928 38.8489ZM242.265 8.0047C242.265 8.0047 236.534 19.1177 242.209 29.607C247.883 40.0962 259.006 25.0144 259.681 23.2567C260.411 21.499 264.231 11.4633 256.647 8.45829C249.062 5.39656 243.894 4.99967 242.265 8.0047Z" fill="#E4897B"/>
<path d="M253.274 30.7383C253.274 30.7383 252.263 32.9495 248.387 34.934C248.387 34.367 248.443 33.8 248.443 33.1763C248.443 33.1763 251.083 32.8928 253.274 30.7383Z" fill="#66271D"/>
<path d="M195.58 89.7111C195.58 89.7111 192.884 90.9018 191.591 90.3915C190.299 89.8245 188.333 89.7111 187.715 89.7111C186.872 89.7111 184.232 88.7472 184.288 89.8245C184.344 90.8451 188.558 91.5822 189.4 91.9224C190.243 92.2626 186.816 94.1336 186.479 94.9841C186.142 95.8346 190.075 101.391 192.266 99.8035C194.457 98.2159 195.636 95.0408 196.086 94.814C196.535 94.5872 197.715 93.7367 197.715 93.7367L195.58 89.7111Z" fill="#E4897B"/>
<path d="M186.929 94.457C186.929 94.457 180.581 99.7867 180.469 100.524C180.356 101.261 180.693 101.601 181.311 101.091C181.929 100.637 187.604 96.1013 187.604 96.1013C187.604 96.1013 181.255 103.699 181.03 104.266C180.918 104.606 181.536 105.287 181.873 105.06C182.21 104.833 189.008 97.6889 189.008 97.6889C189.008 97.6889 183.053 104.776 183.053 105.343C182.997 105.797 183.727 106.307 184.233 105.797C184.738 105.287 190.637 99.0496 190.637 99.0496C190.637 99.0496 186.648 104.493 186.929 105.003C187.098 105.287 187.604 105.91 188.559 104.493C189.514 103.075 192.21 99.9001 192.21 99.9001L186.929 94.457Z" fill="#E4897B"/>
<path d="M263.103 127.695H244.395C244.395 127.695 227.148 129.112 225.743 116.865C224.339 104.675 231.417 97.8711 231.417 97.8711C231.417 97.8711 240.518 100.309 248.496 102.237C252.485 101.386 257.26 100.819 262.878 100.99C262.878 100.99 296.586 112.216 295.575 118.169C295.575 118.226 281.473 110.628 263.103 127.695Z" fill="#455A64"/>
<path d="M250.918 106.604L286.648 106.037L268.615 115.279L250.918 106.604Z" fill="#F2F2F2"/>
<path d="M262.041 101.951C262.041 101.951 254.007 105.069 244.176 102.234L243.727 98.5488L264.008 99.6828L262.041 101.951Z" fill="white"/>
<path d="M268.615 115.276L250.918 108.359V106.602L270.019 113.519L268.615 115.276Z" fill="#D3D3D3"/>
<path d="M261.868 103.704C261.756 105.008 263.104 105.972 264.34 105.462L266.419 104.555C267.037 104.271 267.43 103.647 267.318 102.967C266.475 97.5239 264.621 76.3186 267.318 72.6331C268.329 71.2724 268.947 70.0817 269.284 69.0611C271.082 73.7104 273.273 79.7205 274.172 82.9523L291.026 105.632L296.7 107.106C289.621 89.9263 283.947 80.8545 283.947 80.8545C282.824 77.8494 279.677 68.7776 276.868 60.7264C275.071 55.6235 273.498 50.9175 272.599 48.4228C272.149 47.1187 271.307 46.0414 270.127 45.361C267.486 43.7735 263.161 41.2787 259.228 39.3509H259.172C259.059 39.2942 258.947 39.2376 258.779 39.1809C266.307 50.5773 263.385 82.9523 261.868 103.704C261.868 103.647 261.868 103.647 261.868 103.704ZM234.003 40.088C231.587 40.4849 225.632 46.3249 222.486 52.2216C218.891 58.9687 215.183 66.6231 212.43 69.1178C207.374 73.7671 193.16 90.1531 192.486 89.7562C192.205 89.5861 196.363 94.6323 196.924 94.8591C197.205 94.9725 220.239 74.7877 222.486 71.726C224.565 68.8343 230.183 56.5874 231.868 56.8709C231.981 57.1544 234.059 61.6336 235.97 68.1539C236.026 68.2673 236.026 68.3807 236.082 68.4941C237.43 73.03 237.318 78.0195 236.587 83.576C236.026 87.7717 232.936 94.6323 231.082 97.9775C230.857 98.3744 230.913 99.1682 231.138 99.7352C231.307 100.075 231.475 100.359 231.756 100.472L238.554 103.024L240.127 103.591C241.25 104.044 242.486 103.817 243.385 103.137C244.116 102.627 244.677 101.776 244.79 100.756C246.307 89.0758 248.217 77.1124 249.734 72.6331C256.419 52.902 247.149 38.0469 247.149 38.0469C247.149 38.0469 236.138 39.2942 234.003 40.088Z" fill="url(#paint7_linear_1440_274158)"/>
<path d="M268.607 115.268L279.225 86.0117L313.439 86.5787L303.327 113.567L268.607 115.268Z" fill="url(#paint8_linear_1440_274158)"/>
<path d="M290.181 98.9446C289.114 101.042 289.451 103.367 290.912 104.048C292.372 104.785 294.339 103.651 295.406 101.553C296.474 99.4549 296.137 97.1303 294.676 96.4499C293.215 95.7128 291.193 96.8468 290.181 98.9446Z" fill="#F2F0F0"/>
<path d="M269.397 43.6639C266.868 39.8084 265.071 36.7467 264.846 31.2469C264.677 27.6182 263.891 22.6854 261.419 20.2473C264.003 13.4435 260.97 11.4023 259.734 9.19106C258.217 6.41282 246.981 -0.277639 242.543 6.75301C238.104 13.727 239.677 21.0411 239.677 21.0411C240.127 17.1856 244.059 11.9693 244.059 11.9693C244.677 15.9949 252.936 22.572 256.531 25.2368C256.475 25.2935 256.419 25.4069 256.419 25.4636C254.397 28.412 256.925 31.3603 257.374 34.4787C257.823 37.5972 248.891 45.9886 258.835 50.1843C268.779 54.4367 271.925 47.4628 269.397 43.6639ZM88.5534 373.935C88.5534 373.935 88.3287 376.316 77.3175 376.316C66.3062 376.316 50.2949 373.424 50.2949 373.424L75.8568 370.93C75.8568 370.93 85.6883 370.419 88.5534 373.935Z" fill="#472E05"/>
<path d="M60.5199 374.786C54.2839 374.786 51.6435 378.018 49.1716 379.038C46.6997 380.059 44.2277 381.59 44.2277 381.533C45.6322 378.755 47.5985 378.698 48.6098 377.791C49.621 376.884 49.3401 377.337 47.1491 377.167C45.9131 377.054 43.6659 379.378 42.0929 380.682C40.6884 381.76 39.8457 381.873 39.8457 381.873C39.8457 381.873 41.4749 379.548 43.4974 377.677C45.9693 375.409 49.0592 373.538 49.7896 373.198C51.1379 372.631 55.2952 372.518 58.2165 372.915C61.5873 373.368 65.0143 374.786 60.5199 374.786Z" fill="url(#paint9_linear_1440_274158)"/>
<path d="M82.041 370.08L93.8388 331.695C93.8388 331.695 95.5804 326.082 98.4456 327.102C102.547 328.633 100.524 333.226 100.187 335.947C99.4568 341.504 99.9624 343.942 96.1422 357.323C93.7826 365.601 91.7601 375.126 89.7377 380.569C88.3332 384.311 85.9174 378.925 82.2657 377.451C75.4118 374.673 82.041 370.08 82.041 370.08ZM82.9399 310.83C85.2433 317.52 92.3781 320.979 98.9512 318.541C105.468 316.103 108.951 308.675 106.648 301.985C104.344 295.294 97.2096 291.836 90.6365 294.274C84.1197 296.712 80.6365 304.139 82.9399 310.83Z" fill="#472E05"/>
<path d="M70.0177 311.455C73.6132 316.898 80.8042 318.259 86.029 314.517L85.2986 308.11C90.5234 304.311 91.8155 296.827 88.22 291.384L85.7481 287.699C82.1526 282.256 74.9615 280.895 69.7368 284.637L67.3772 286.338C62.1525 290.137 60.8604 297.621 64.4559 303.064L70.0177 311.455Z" fill="#472E05"/>
<path d="M65.2962 293.594C65.9142 294.501 66.5884 295.351 67.3749 296.202C72.5434 301.872 79.4536 304.026 83.8356 301.702C85.8581 304.48 88.1614 306.691 90.2401 308.392C92.6558 310.377 98.8356 311.17 98.8356 311.17C102.431 315.139 88.948 338.329 87.9929 338.216C86.0266 338.046 83.4985 325.232 85.3524 320.582C86.1951 318.485 87.5435 315.99 87.1502 314.856C85.7457 310.944 83.7794 311.624 83.7794 311.624C83.7794 311.624 81.1951 314.686 79.1727 314.572C77.094 314.402 73.4985 311.114 73.3299 311.057C72.712 310.547 72.1502 309.923 71.6445 309.186L66.2513 301.021C64.8468 298.753 64.5097 296.032 65.2962 293.594Z" fill="#E4897B"/>
<path d="M106.533 391.281C106.533 391.281 102.151 396.61 100.802 397.177C99.0046 397.971 93.499 396.27 93.499 396.27C93.499 396.27 92.0383 371.833 90.3529 362.308C88.6675 352.782 86.1956 350.288 86.0833 347.282C85.9147 342.463 81.9259 340.535 82.6001 336.793C83.2743 333.051 84.454 319.67 84.8473 321.428C88.2743 336.623 92.4878 323.979 93.4428 321.995C93.9484 320.918 106.533 391.281 106.533 391.281Z" fill="#F2F0F0"/>
<path d="M86.5842 316.893C86.5842 316.893 81.2471 322.789 81.6404 325.114C81.9775 327.439 79.337 334.696 81.9775 344.789C84.955 356.298 86.528 364.123 87.0898 371.664C87.6516 379.205 85.1235 386.122 86.1348 395.364C86.9213 402.621 88.5505 403.018 88.5505 403.018C88.5505 403.018 91.7528 403.812 94 400.977C96.2472 398.199 92.8764 373.478 91.7528 367.355C90.6292 361.174 87.0337 346.773 86.0786 342.521C84.8988 337.304 85.1235 331.975 85.1797 330.444C85.4606 325.057 86.1348 321.712 86.6966 319.671C86.7527 319.387 87.0337 316.212 86.5842 316.893ZM95.9101 323.81C98.8314 332.315 107.933 336.681 116.247 333.562C124.562 330.444 128.944 321.032 126.023 312.527C123.101 304.022 114 299.656 105.685 302.775C97.3708 305.836 92.9887 315.305 95.9101 323.81Z" fill="#472E05"/>
<path d="M67.315 469.982L70.2926 493.966L57.3712 500.146L50.2363 501.734L62.933 491.811L58.7757 470.153L67.315 469.982Z" fill="#E4897B"/>
<path d="M71.1322 497.593L68.3232 498.33L66.4131 496.572L56.076 501.789L46.9187 504C46.9187 504 46.8063 503.263 47.0872 502.866C48.2108 501.335 54.6715 497.99 54.6715 497.99C54.6715 497.99 54.7839 500.201 55.6827 500.258C56.5816 500.315 64.503 496.119 66.3569 494.985C69.503 493 70.121 491.696 70.3457 491.866C71.0199 492.207 71.1322 497.593 71.1322 497.593Z" fill="black"/>
<path d="M36.138 436.641L25.8571 457.053L11.6998 456.372L4.62109 454.275L20.2953 451.61L28.8346 434.146L36.138 436.641Z" fill="#E4897B"/>
<path d="M25.0137 460.682L22.2048 460.001L21.3059 457.506L8.55304 457.336L0.96875 455.522C0.96875 455.522 1.86763 454.501 2.42943 454.218C4.11483 453.481 10.1261 453.141 10.1261 453.141C10.1261 453.141 9.5081 454.898 10.2946 455.352C11.0811 455.862 19.8452 456.146 21.98 455.976C25.6879 455.692 26.7553 454.898 26.8677 455.125C27.2609 455.919 25.0137 460.682 25.0137 460.682Z" fill="black"/>
<path d="M111.143 375.58L103.502 379.039L103.558 389.641L50.9177 380.966C50.9177 380.966 45.9177 379.322 42.7154 387.657C38.1649 399.45 26.5918 436.134 26.5918 436.134L33.8952 444.129L56.8728 402.682C56.8728 402.682 103.952 425.759 119.457 420.769C125.412 418.841 129.963 407.842 129.12 396.729C128.446 387.997 126.761 380.003 126.761 380.003L111.143 375.58Z" fill="#455A64"/>
<path d="M104.454 420.542L66.7569 417.707L70.0153 478.488L58.8917 478.885L50.6895 407.671C50.6895 407.671 52.8805 397.069 60.0715 398.656C67.3187 400.3 84.7345 414.248 104.454 420.542Z" fill="#455A64"/>
<path d="M129.838 435.795C129.838 435.795 110.063 413.399 104.95 400.755C98.8268 385.617 99.3324 366.623 98.2088 360.329C96.1302 348.763 93.6021 326.31 93.1526 323.532C92.647 320.753 94.3886 317.635 94.3886 317.635C94.3886 317.635 93.0964 309.243 96.8043 310.151C102.141 311.455 107.422 314.403 109.276 315.31C112.759 316.898 119.894 359.195 120.288 361.236C121.748 368.607 127.085 375.298 130.906 382.158C139.894 398.431 142.198 417.652 142.198 417.652C142.198 417.652 141.074 431.713 129.838 435.795Z" fill="url(#paint10_linear_1440_274158)"/>
<path d="M109.454 377.223C109.454 377.223 109.285 379.945 96.7008 379.321C84.1165 378.641 65.6895 374.388 65.6895 374.388L94.8468 373.027C94.8468 373.027 106.027 373.084 109.454 377.223Z" fill="#E4897B"/>
<path d="M75.5806 375.864C69.5693 375.751 66.9851 378.869 64.6255 379.833C62.2659 380.797 59.8502 382.214 59.8502 382.214C61.1985 379.55 63.1086 379.493 64.1199 378.642C65.0749 377.792 64.8502 378.245 62.7154 378.019C61.4794 377.905 59.3446 380.117 57.8277 381.364C56.4794 382.441 55.6367 382.498 55.6367 382.498C55.6367 382.498 57.2097 380.23 59.176 378.416C61.5918 376.261 64.5131 374.447 65.2435 374.163C66.5356 373.653 70.5244 373.596 73.3896 374.05C76.5918 374.503 79.9064 375.978 75.5806 375.864Z" fill="#E4897B"/>
<path d="M65.5256 374.219C65.5256 374.219 60.9188 375.353 60.1323 375.976C59.5705 376.43 57.2109 378.981 57.2109 378.981C57.2109 378.981 58.8963 378.698 59.9076 377.734C60.9188 376.827 65.5256 374.219 65.5256 374.219Z" fill="#FFE3CA"/>
<path d="M99.082 374.364L117.734 364.441C117.734 364.441 117.79 376.462 117.902 381.054C118.015 385.647 119.925 392.11 116.329 393.074C112.734 394.038 110.88 393.528 114.588 395.739C118.296 397.894 117.453 400.162 116.048 402.033C114.644 403.904 120.767 422.955 119.307 424.032C113.52 416.661 107.284 407.533 104.588 400.899C101.161 392.281 99.8124 382.415 99.082 374.364Z" fill="url(#paint11_linear_1440_274158)"/>
<path d="M105.401 369.398L104.671 331.069C104.671 331.069 104.727 319.106 104.952 315.591C105.177 311.962 111.3 316.214 111.3 316.214C111.3 316.214 119.896 327.951 120.064 356.244C120.177 375.181 119.166 385.047 110.514 384.253C102.48 383.516 93.3228 382.268 93.3228 382.268L89.334 371.779L105.401 369.398Z" fill="url(#paint12_linear_1440_274158)"/>
<path d="M103.503 389.641L39.2891 381.533L39.4576 380.172L103.671 388.28L103.503 389.641Z" fill="#D3D3D3"/>
<path d="M75.3474 384.65C75.2351 385.728 74.3924 386.521 73.4935 386.408L40.5721 382.269C39.6732 382.156 38.5496 381.305 37.7631 378.47L25.0664 345.301C25.2349 343.941 26.3024 343.26 27.2012 343.6L60.853 348.93C61.7519 349.27 62.3699 350.064 62.7069 351.538L75.3474 384.65Z" fill="#D3D3D3"/>
<path d="M71.1906 385.559L71.5277 385.616L103.663 389.698C102.427 390.208 100.46 390.378 98.2693 390.095L71.3592 386.693L71.0221 386.636L44.1119 383.234C41.9209 382.951 40.067 382.27 38.9434 381.533L71.1906 385.559Z" fill="#D3D3D3"/>
<path d="M105.408 369.405L104.678 331.077C104.678 331.077 105.24 327.845 106.364 324.953C106.644 329.149 108.555 359.369 108.779 363.338C109.06 367.647 112.543 368.101 113.274 369.518C114.06 370.879 113.386 371.163 110.802 370.652C108.274 370.085 109.173 370.539 109.734 371.9C110.296 373.317 108.892 372.92 103.948 371.106C100.352 369.802 93.4421 371.106 89.959 371.9L105.408 369.405Z" fill="url(#paint13_linear_1440_274158)"/>
<path d="M327.433 275.344C321.253 276.988 309.849 282.771 307.433 292.694C303.838 307.605 311.029 329.434 299.68 350.867C296.029 357.67 362.433 366.856 362.433 366.856L375.242 291.56C375.242 291.56 359.231 275.23 355.973 274.096C349.175 271.828 339.793 272.055 327.433 275.344Z" fill="url(#paint14_linear_1440_274158)"/>
<path d="M375.294 291.604C377.598 297.614 383.441 333.391 376.924 341.839C376.193 342.803 380.294 344.334 379.564 348.757C379.452 349.494 378.216 353.066 378.216 353.066L372.935 354.483L361.418 341.046C361.418 341.046 366.081 333.731 372.205 306.006C374.002 297.841 374.789 290.243 375.294 291.604Z" fill="url(#paint15_linear_1440_274158)"/>
<path d="M331.699 334.355C331.699 334.355 337.261 349.153 350.688 353.122C352.991 353.803 354.452 356.411 353.328 357.261C351.868 358.339 349.958 358.565 346.587 358.565C339.564 358.565 330.014 356.298 323.441 349.607C313.665 339.741 310.575 335.206 311.587 330.273C312.486 325.227 331.699 334.355 331.699 334.355Z" fill="#E4897B"/>
<path d="M309.342 287.694C306.477 292.57 304.848 300.394 304.904 311.621C304.904 320.296 312.095 334.527 313.162 338.893C313.331 339.63 313.78 342.748 313.78 342.748L321.702 350.913L337.6 339.63L332.769 331.862L331.308 332.032C331.308 332.032 330.409 327.723 330.634 326.079C330.859 324.435 326.252 302.039 323.949 287.694C322.657 279.359 312.151 282.874 309.342 287.694Z" fill="url(#paint16_linear_1440_274158)"/>
<path d="M323.609 331.695L328.272 330.221L330.182 329.711C330.295 331.072 331.418 331.979 331.418 331.979L327.767 332.432L323.553 333.793L318.609 337.365L323.609 331.695Z" fill="url(#paint17_linear_1440_274158)"/>
<path d="M349.678 353.071L357.768 350.746C357.768 350.746 360.071 353.978 359.622 354.772C359.172 355.565 359.622 360.328 359.622 360.328L355.689 363.844L352.487 362.71C352.487 362.71 352.262 361.235 353.329 361.122C354.453 360.952 352.599 360.158 352.037 359.818C351.475 359.421 346.813 356.926 349.678 353.071Z" fill="#E4897B"/>
<path d="M337.204 274.601C336.305 277.266 337.654 280.271 340.238 281.178L344.845 282.879C347.429 283.843 350.238 282.369 351.137 279.704L355.238 267.457C356.137 264.792 354.788 261.787 352.204 260.823L347.597 259.122C345.013 258.159 342.204 259.633 341.305 262.298L337.204 274.601Z" fill="#FF957E"/>
<path d="M357.319 285.37C356.87 287.128 355.072 288.205 353.387 287.695L339.51 283.669C337.825 283.159 336.814 281.345 337.263 279.53L342.937 258.042C343.387 256.284 345.184 255.207 346.87 255.717L360.746 259.686C362.432 260.196 363.443 262.01 362.993 263.825L357.319 285.37Z" fill="#E4897B"/>
<path d="M364.507 261.663C364.619 261.549 363.215 259.962 363.945 256.843C364.9 252.647 361.81 250.946 359.507 250.89C358.158 250.833 353.608 253.044 351.192 253.781C348.776 254.518 349.001 253.555 344.619 252.761C341.698 252.194 341.024 253.838 340.012 256.106C339.001 258.431 338.889 267.276 338.889 267.276C339.282 267.843 339.9 268.296 340.293 267.843C340.686 267.389 342.259 260.302 343.552 258.204C344.788 256.106 349.844 259.451 352.597 261.096C355.293 262.74 357.709 263.023 362.035 262.116C362.54 262.683 362.99 263.307 362.99 263.59C362.99 264.157 361.754 268.183 361.754 268.183C361.754 268.183 364.17 266.652 364.844 265.461C365.181 265.064 365.293 263.137 364.507 261.663Z" fill="#472E05"/>
<path d="M341.643 275.052C341.475 275.619 340.913 276.016 340.351 275.846L337.373 274.995C336.812 274.825 336.475 274.201 336.643 273.634L338.16 267.908C338.329 267.341 338.89 266.944 339.452 267.114L342.43 267.964C342.991 268.135 343.329 268.758 343.16 269.325L341.643 275.052Z" fill="#E4897B"/>
<path d="M339.792 269.607C339.792 269.607 337.545 278.056 336.815 280.891C336.141 283.442 335.635 289.339 349.399 293.308C357.545 295.632 358.894 289.282 359.455 287.241C359.849 285.653 359.399 280.494 358.781 279.36C358.781 279.303 357.882 282.875 357.882 282.875C357.882 282.875 357.096 278.963 353.219 277.885C346.983 276.071 344.512 279.53 341.815 278.623C339.68 277.885 339.062 273.803 339.792 269.607Z" fill="#472E05"/>
<path d="M349.175 282.592L353.445 283.839C354.007 284.009 354.625 283.669 354.737 283.045L354.906 282.422L348.557 280.607L348.389 281.231C348.276 281.855 348.613 282.422 349.175 282.592Z" fill="#E4897B"/>
<path d="M416.867 368.492C414.9 374.219 380.293 395.254 368.664 394.007L333.664 395.765C303.945 391.966 289.844 343.658 289.844 343.658C291.024 331.525 320.349 349.101 330.799 354.545C347.316 363.163 357.821 363.616 357.821 363.616C368.889 364.807 381.698 355.849 395.687 355.565C411.024 355.168 420.013 359.477 416.867 368.492Z" fill="#455A64"/>
<path d="M340.801 362.71C340.801 362.653 340.801 362.653 340.801 362.71V361.122L400.969 359.988V361.576L400.801 361.859C400.071 363.22 398.666 363.447 397.093 363.504L344.733 364.524C343.16 364.581 341.756 364.354 340.969 363.05L340.801 362.71Z" fill="#D3D3D3"/>
<path d="M355.295 362.653L355.126 362.937C354.902 363.277 354.621 363.561 354.284 363.731L345.126 363.901C343.61 363.957 342.261 363.787 341.475 362.71L341.306 362.483L341.25 362.427V361.69L355.183 361.406L355.295 362.653ZM363.441 362.086L393.497 361.519V360.442L363.385 361.066L363.441 362.086ZM355.632 360.782L362.879 329.711C363.048 328.918 363.834 328.237 364.621 328.18L406.868 327.387C407.655 327.387 408.104 328.01 407.936 328.861L400.688 359.932L355.632 360.782Z" fill="#D3D3D3"/>
<path d="M328.385 403.756C332.543 404.493 335.745 399.447 335.745 399.447L346.531 390.602L344.228 384.592L323.217 394.457C323.217 394.457 324.172 403.019 328.385 403.756Z" fill="#E4897B"/>
<path d="M335.689 399.106C335.689 399.106 335.689 399.617 334.902 401.941C334.116 404.266 333.104 405.06 332.093 405.4C328.048 406.647 325.183 406.024 315.52 407.951C305.857 409.879 302.936 408.405 300.127 403.756C297.318 399.106 300.239 395.421 304.958 395.081C311.756 394.57 315.576 395.364 319.116 394.797C322.823 394.23 323.048 393.323 325.239 391.906C327.262 390.601 329.172 398.426 327.262 400.24C325.52 401.828 334.284 402.055 335.689 399.106Z" fill="black"/>
<path d="M333.665 403.587C329.676 404.835 326.755 404.211 317.092 406.139C307.429 408.067 304.507 406.592 301.698 401.943C300.406 399.789 300.35 397.861 301.08 396.387C298.946 397.918 298.215 400.582 300.125 403.758C302.934 408.407 305.856 409.881 315.519 407.953C325.182 406.025 328.103 406.649 332.092 405.402C332.878 405.175 333.665 404.608 334.339 403.304C334.114 403.417 333.889 403.531 333.665 403.587Z" fill="white"/>
<path d="M335.693 399.28V399.166C335.693 399.223 335.637 399.28 335.58 399.337C335.637 399.28 335.693 399.28 335.693 399.28Z" fill="#E9D6B8"/>
<path d="M314.848 402.735C314.567 402.849 314.286 402.225 314.173 401.375C314.005 399.617 313.612 397.916 313.05 396.158C312.769 395.308 312.769 394.571 313.106 394.457C313.443 394.344 314.005 394.968 314.23 395.818C314.791 397.519 315.128 399.277 315.297 400.978C315.409 401.828 315.129 402.622 314.848 402.735ZM317.825 402.168C317.488 402.225 317.207 401.658 317.095 400.864C316.926 399.22 316.533 397.576 315.971 395.988C315.69 395.195 315.69 394.514 316.084 394.457C316.421 394.401 316.982 395.024 317.263 395.818C317.769 397.406 318.162 399.05 318.331 400.638C318.387 401.431 318.162 402.112 317.825 402.168ZM320.971 402.055C320.634 402.112 320.297 401.488 320.185 400.638C319.904 398.937 319.511 397.292 318.893 395.591C318.612 394.741 318.612 394.061 318.949 394.061C319.342 394.061 319.904 394.684 320.185 395.535C320.803 397.179 321.196 398.88 321.421 400.524C321.533 401.318 321.308 401.998 320.971 402.055Z" fill="white"/>
<path d="M329.115 389.303C329.115 389.303 403.104 357.495 407.318 357.438C421.587 357.325 418.329 372.407 411.082 379.551C402.542 387.942 337.598 403.307 337.598 403.307L329.115 389.303Z" fill="#455A64"/>
<path d="M358.442 394.856L338.217 374.785L346.869 365.883L368.891 390.15L358.442 394.856Z" fill="#E4897B"/>
<path d="M362.595 379.093C362.595 379.093 311.19 329.822 307.763 328.348C296.022 323.359 288.774 336.91 289.168 341.616C289.729 347.682 341.92 397.01 341.92 397.01L362.595 379.093Z" fill="#455A64"/>
<path d="M393.049 396.392C394.229 397.526 394.454 400.984 394.454 400.984C394.454 400.984 377.319 407.788 371.308 407.901C369.735 407.958 366.926 407.278 364.229 406.484C363.779 406.371 362.712 405.123 362.263 405.01C361.42 404.783 361.251 405.577 360.577 405.35C358.779 404.726 357.431 404.216 357.375 404.103C353.723 396.051 354.959 392.082 354.959 392.082C354.959 392.082 362.824 394.464 361.476 392.593C358.611 388.624 366.869 384.598 368.667 386.696C376.083 395.144 389.566 393.046 393.049 396.392Z" fill="black"/>
<path d="M394.002 398.088C388.721 400.299 377.654 404.779 375.463 404.949C366.418 405.629 360.126 402.284 355.912 400.299C356.305 401.433 356.755 402.737 357.373 404.098C357.429 404.212 358.721 404.722 360.575 405.346C361.305 405.572 361.474 404.722 362.26 405.005C362.71 405.119 363.721 406.366 364.227 406.48C366.923 407.273 369.732 407.897 371.305 407.897C377.317 407.784 394.452 400.98 394.452 400.98C394.452 400.98 394.452 399.392 394.002 398.088ZM381.923 392.872C382.092 393.212 381.418 393.552 380.463 393.779C378.496 394.176 376.586 394.8 374.676 395.593C373.721 395.99 372.878 396.104 372.766 395.764C372.654 395.423 373.272 394.8 374.227 394.403C376.081 393.609 378.047 393.042 379.957 392.645C380.856 392.362 381.755 392.532 381.923 392.872ZM378.047 391.454C378.216 391.795 377.541 392.248 376.586 392.532C374.676 393.099 372.822 393.892 370.968 394.856C370.069 395.31 369.227 395.48 369.114 395.14C369.002 394.8 369.62 394.063 370.519 393.609C372.317 392.702 374.171 391.908 376.081 391.398C377.036 391.001 377.935 391.114 378.047 391.454ZM374.339 390.207C374.451 390.547 373.833 391.057 372.935 391.398C371.081 392.135 369.283 393.042 367.541 394.119C366.699 394.686 365.912 394.856 365.8 394.459C365.687 394.119 366.249 393.325 367.148 392.758C368.89 391.681 370.687 390.774 372.485 390.094C373.384 389.81 374.227 389.867 374.339 390.207Z" fill="white"/>
<defs>
<linearGradient id="paint0_linear_1440_274158" x1="43.8085" y1="200.996" x2="120.129" y2="306.433" gradientUnits="userSpaceOnUse">
<stop stop-color="#FB8D48"/>
<stop offset="0.2" stop-color="#ED7136"/>
<stop offset="0.3999" stop-color="#C54E47"/>
<stop offset="0.4" stop-color="#C14F49"/>
<stop offset="0.6" stop-color="#9D3863"/>
<stop offset="0.8" stop-color="#5E1F72"/>
</linearGradient>
<linearGradient id="paint1_linear_1440_274158" x1="11.8735" y1="303.243" x2="86.9793" y2="304.624" gradientUnits="userSpaceOnUse">
<stop stop-color="#FB8D48"/>
<stop offset="0.2" stop-color="#ED7136"/>
<stop offset="0.3999" stop-color="#C54E47"/>
<stop offset="0.4" stop-color="#C14F49"/>
<stop offset="0.6" stop-color="#9D3863"/>
<stop offset="0.8" stop-color="#5E1F72"/>
</linearGradient>
<linearGradient id="paint2_linear_1440_274158" x1="434.545" y1="174.693" x2="447.939" y2="345.084" gradientUnits="userSpaceOnUse">
<stop stop-color="#FB8D48"/>
<stop offset="0.2" stop-color="#ED7136"/>
<stop offset="0.3999" stop-color="#C54E47"/>
<stop offset="0.4" stop-color="#C14F49"/>
<stop offset="0.6" stop-color="#9D3863"/>
<stop offset="0.8" stop-color="#5E1F72"/>
</linearGradient>
<linearGradient id="paint3_linear_1440_274158" x1="462.968" y1="280.332" x2="425.072" y2="360.985" gradientUnits="userSpaceOnUse">
<stop stop-color="#FB8D48"/>
<stop offset="0.2" stop-color="#ED7136"/>
<stop offset="0.3999" stop-color="#C54E47"/>
<stop offset="0.4" stop-color="#C14F49"/>
<stop offset="0.6" stop-color="#9D3863"/>
<stop offset="0.8" stop-color="#5E1F72"/>
</linearGradient>
<linearGradient id="paint4_linear_1440_274158" x1="240.28" y1="300.174" x2="240.28" y2="136.711" gradientUnits="userSpaceOnUse">
<stop stop-color="#EEA07B"/>
<stop offset="1" stop-color="#9C5A76"/>
</linearGradient>
<linearGradient id="paint5_linear_1440_274158" x1="372.822" y1="363.818" x2="355.175" y2="273.817" gradientUnits="userSpaceOnUse">
<stop stop-color="#FFBE55"/>
<stop offset="1" stop-color="#E86B31"/>
</linearGradient>
<linearGradient id="paint6_linear_1440_274158" x1="345.534" y1="249.515" x2="272.192" y2="99.8826" gradientUnits="userSpaceOnUse">
<stop stop-color="#FFBE55"/>
<stop offset="1" stop-color="#E86B31"/>
</linearGradient>
<linearGradient id="paint7_linear_1440_274158" x1="268.239" y1="117.422" x2="252.172" y2="42.6882" gradientUnits="userSpaceOnUse">
<stop stop-color="#FB8D48"/>
<stop offset="0.2" stop-color="#ED7136"/>
<stop offset="0.3999" stop-color="#C54E47"/>
<stop offset="0.4" stop-color="#C14F49"/>
<stop offset="0.6" stop-color="#9D3863"/>
<stop offset="0.8" stop-color="#5E1F72"/>
</linearGradient>
<linearGradient id="paint8_linear_1440_274158" x1="291.023" y1="86.0117" x2="291.023" y2="115.268" gradientUnits="userSpaceOnUse">
<stop stop-color="#EEA07B"/>
<stop offset="1" stop-color="#9C5A76"/>
</linearGradient>
<linearGradient id="paint9_linear_1440_274158" x1="51.2582" y1="372.68" x2="51.2582" y2="381.873" gradientUnits="userSpaceOnUse">
<stop stop-color="#EEA07B"/>
<stop offset="1" stop-color="#9C5A76"/>
</linearGradient>
<linearGradient id="paint10_linear_1440_274158" x1="95.5679" y1="304.091" x2="130.921" y2="365.862" gradientUnits="userSpaceOnUse">
<stop stop-color="#FB8D48"/>
<stop offset="0.2" stop-color="#ED7136"/>
<stop offset="0.3999" stop-color="#C54E47"/>
<stop offset="0.4" stop-color="#C14F49"/>
<stop offset="0.6" stop-color="#9D3863"/>
<stop offset="0.8" stop-color="#5E1F72"/>
</linearGradient>
<linearGradient id="paint11_linear_1440_274158" x1="116.358" y1="341.425" x2="132.719" y2="382.197" gradientUnits="userSpaceOnUse">
<stop stop-color="#FB8D48"/>
<stop offset="0.2" stop-color="#ED7136"/>
<stop offset="0.3999" stop-color="#C54E47"/>
<stop offset="0.4" stop-color="#C14F49"/>
<stop offset="0.6" stop-color="#9D3863"/>
<stop offset="0.8" stop-color="#5E1F72"/>
</linearGradient>
<linearGradient id="paint12_linear_1440_274158" x1="111.691" y1="299.424" x2="125.155" y2="370.267" gradientUnits="userSpaceOnUse">
<stop stop-color="#FB8D48"/>
<stop offset="0.2" stop-color="#ED7136"/>
<stop offset="0.3999" stop-color="#C54E47"/>
<stop offset="0.4" stop-color="#C14F49"/>
<stop offset="0.6" stop-color="#9D3863"/>
<stop offset="0.8" stop-color="#5E1F72"/>
</linearGradient>
<linearGradient id="paint13_linear_1440_274158" x1="101.771" y1="324.953" x2="101.771" y2="372.756" gradientUnits="userSpaceOnUse">
<stop stop-color="#EEA07B"/>
<stop offset="1" stop-color="#9C5A76"/>
</linearGradient>
<linearGradient id="paint14_linear_1440_274158" x1="300.852" y1="313.182" x2="375.51" y2="314.345" gradientUnits="userSpaceOnUse">
<stop stop-color="#FB8D48"/>
<stop offset="0.2" stop-color="#ED7136"/>
<stop offset="0.3999" stop-color="#C54E47"/>
<stop offset="0.4" stop-color="#C14F49"/>
<stop offset="0.6" stop-color="#9D3863"/>
<stop offset="0.8" stop-color="#5E1F72"/>
</linearGradient>
<linearGradient id="paint15_linear_1440_274158" x1="361.74" y1="318.587" x2="379.979" y2="318.69" gradientUnits="userSpaceOnUse">
<stop stop-color="#FB8D48"/>
<stop offset="0.2" stop-color="#ED7136"/>
<stop offset="0.3999" stop-color="#C54E47"/>
<stop offset="0.4" stop-color="#C14F49"/>
<stop offset="0.6" stop-color="#9D3863"/>
<stop offset="0.8" stop-color="#5E1F72"/>
</linearGradient>
<linearGradient id="paint16_linear_1440_274158" x1="305.471" y1="312.056" x2="337.721" y2="312.355" gradientUnits="userSpaceOnUse">
<stop stop-color="#FB8D48"/>
<stop offset="0.2" stop-color="#ED7136"/>
<stop offset="0.3999" stop-color="#C54E47"/>
<stop offset="0.4" stop-color="#C14F49"/>
<stop offset="0.6" stop-color="#9D3863"/>
<stop offset="0.8" stop-color="#5E1F72"/>
</linearGradient>
<linearGradient id="paint17_linear_1440_274158" x1="325.014" y1="329.711" x2="325.014" y2="337.365" gradientUnits="userSpaceOnUse">
<stop stop-color="#EEA07B"/>
<stop offset="1" stop-color="#9C5A76"/>
</linearGradient>
</defs>
</svg>
