<svg width="50" height="51" viewBox="0 0 50 51" fill="none" xmlns="http://www.w3.org/2000/svg">
<path d="M25 50.75C38.8071 50.75 50 39.5571 50 25.75C50 11.9429 38.8071 0.75 25 0.75C11.1929 0.75 0 11.9429 0 25.75C0 39.5571 11.1929 50.75 25 50.75Z" fill="url(#paint0_linear_1391_352274)"/>
<path d="M20.4445 25.8714L18.4375 25.3362L18.3635 24.69C18.4712 24.564 18.5726 24.429 18.6671 24.286C19.2007 23.4826 19.4996 22.4582 19.511 21.3942C19.511 20.9558 19.4838 20.087 19.4108 19.6214C19.1137 17.7287 18.1797 16.8087 16.5553 16.8087C15.3313 16.8087 14.0336 17.1376 13.6903 19.5771C13.6235 20.0525 13.5992 20.9242 13.5992 21.3946C13.6105 22.4586 13.9093 23.4829 14.4427 24.2864C14.5333 24.4234 14.6301 24.553 14.7328 24.6745L14.6693 25.3369L12.6648 25.8714C12.29 25.9727 11.9533 26.2396 11.7112 26.6272C11.4691 27.0149 11.3364 27.4997 11.3354 28.0002V31.1925C11.3357 31.5482 11.4439 31.8893 11.6362 32.1409C11.8286 32.3924 12.0894 32.5339 12.3614 32.5343H20.7478C21.0199 32.5339 21.2807 32.3924 21.473 32.1409C21.6654 31.8893 21.7736 31.5482 21.7739 31.1925V28.0002C21.7728 27.4997 21.6401 27.0149 21.3981 26.6273C21.156 26.2396 20.8193 25.9727 20.4445 25.8714ZM14.4869 21.3942C14.4869 20.8829 14.5162 20.1232 14.5634 19.7874C14.7796 18.2515 15.4036 17.9705 16.5546 17.9705C17.7549 17.9705 18.3302 18.5165 18.5402 19.8549C18.5909 20.1786 18.6226 20.9057 18.6226 21.3942C18.6226 22.82 17.7195 24.4772 16.5549 24.4772C15.3904 24.4772 14.4869 22.82 14.4869 21.3942ZM16.5546 25.639C16.8944 25.6384 17.2307 25.549 17.5438 25.3761L17.5684 25.591C17.5544 26.5335 17.0523 26.9559 16.5546 26.9559C16.0559 26.9559 15.5526 26.5314 15.5408 25.5844L15.561 25.3738C15.8753 25.5482 16.2132 25.6384 16.5546 25.639ZM20.8855 31.1925C20.8855 31.2402 20.8709 31.286 20.8451 31.3197C20.8193 31.3535 20.7843 31.3724 20.7478 31.3725H12.3614C12.3249 31.3724 12.2899 31.3535 12.2641 31.3197C12.2383 31.286 12.2238 31.2402 12.2238 31.1925V28.0002C12.2242 27.7673 12.286 27.5418 12.3986 27.3615C12.5112 27.1811 12.6678 27.0569 12.8421 27.0098L14.768 26.4962C14.8652 26.8667 15.0309 27.2 15.2503 27.4665C15.6066 27.8912 16.0726 28.1238 16.5546 28.1177C17.3034 28.1177 18.0591 27.5639 18.3412 26.4962L20.267 27.0098C20.4414 27.0569 20.598 27.1811 20.7106 27.3614C20.8233 27.5417 20.885 27.7673 20.8855 28.0001V31.1925ZM23.4336 19.763C23.4336 19.609 23.4804 19.4612 23.5637 19.3523C23.647 19.2433 23.76 19.1821 23.8778 19.1821H32.9497C33.0675 19.1821 33.1805 19.2433 33.2638 19.3523C33.3471 19.4612 33.3939 19.609 33.3939 19.763C33.3939 19.9171 33.3471 20.0649 33.2638 20.1738C33.1805 20.2828 33.0675 20.344 32.9497 20.344H23.8778C23.76 20.344 23.647 20.2828 23.5637 20.1738C23.4804 20.0649 23.4336 19.9171 23.4336 19.763ZM23.4336 23.3416C23.4336 23.1876 23.4804 23.0398 23.5637 22.9309C23.647 22.8219 23.76 22.7607 23.8778 22.7607H32.9497C33.0675 22.7607 33.1805 22.8219 33.2638 22.9309C33.3471 23.0398 33.3939 23.1876 33.3939 23.3416C33.3939 23.4957 33.3471 23.6435 33.2638 23.7524C33.1805 23.8614 33.0675 23.9226 32.9497 23.9226H23.8778C23.76 23.9226 23.647 23.8614 23.5637 23.7524C23.4804 23.6435 23.4336 23.4957 23.4336 23.3416ZM23.4336 26.9202C23.4336 26.7662 23.4804 26.6184 23.5637 26.5095C23.647 26.4005 23.76 26.3393 23.8778 26.3393H32.9497C33.0675 26.3393 33.1805 26.4005 33.2638 26.5095C33.3471 26.6184 33.3939 26.7662 33.3939 26.9202C33.3939 27.0743 33.3471 27.2221 33.2638 27.331C33.1805 27.44 33.0675 27.5012 32.9497 27.5012H23.8778C23.76 27.5012 23.647 27.44 23.5637 27.331C23.4804 27.2221 23.4336 27.0743 23.4336 26.9202ZM36.1737 28.4916V15.6435C36.1731 15.0068 35.9795 14.3965 35.6353 13.9463C35.291 13.4961 34.8243 13.2429 34.3375 13.2422H10.8362C10.3494 13.2429 9.88264 13.4961 9.53841 13.9463C9.19419 14.3965 9.00055 15.0068 9 15.6435V34.0639C9.00055 34.7006 9.19418 35.311 9.53841 35.7612C9.88264 36.2114 10.3494 36.4646 10.8362 36.4653H27.9727C27.9708 36.5505 27.9696 36.6359 27.9696 36.7217C27.9696 38.3119 28.3099 39.8704 28.952 41.2208C29.594 42.5712 30.5122 43.6597 31.6027 44.3632C32.6932 45.0666 33.9124 45.3569 35.1225 45.2013C36.3326 45.0456 37.4852 44.4502 38.45 43.4824C39.4148 42.5146 40.1533 41.213 40.5818 39.7248C41.0104 38.2366 41.112 36.6213 40.8752 35.0616C40.6383 33.5018 40.0725 32.0599 39.2416 30.8988C38.4107 29.7378 37.348 28.904 36.1737 28.4918V28.4916ZM10.8362 35.3033C10.5849 35.3029 10.344 35.1722 10.1663 34.9399C9.98866 34.7075 9.8887 34.3925 9.88838 34.0639V15.6435C9.88869 15.3149 9.98864 14.9998 10.1663 14.7675C10.344 14.5351 10.5849 14.4044 10.8362 14.404H34.3375C34.5888 14.4044 34.8297 14.5351 35.0074 14.7675C35.1851 14.9998 35.285 15.3149 35.2853 15.6435V28.2651C35.0197 28.2223 34.7524 28.2008 34.4848 28.2008C33.0706 28.1988 31.6947 28.8019 30.567 29.9179H23.8778C23.76 29.9179 23.647 29.9791 23.5637 30.0881C23.4804 30.197 23.4336 30.3448 23.4336 30.4988C23.4336 30.6529 23.4804 30.8007 23.5637 30.9096C23.647 31.0186 23.76 31.0798 23.8778 31.0798H29.6069C28.799 32.2703 28.2631 33.7338 28.0604 35.3033H10.8362ZM34.4848 44.0808C33.3719 44.0808 32.284 43.6492 31.3587 42.8406C30.4334 42.032 29.7122 40.8827 29.2863 39.538C28.8605 38.1934 28.749 36.7138 28.9661 35.2863C29.1833 33.8588 29.7191 32.5476 30.5061 31.5184C31.293 30.4893 32.2956 29.7884 33.3871 29.5044C34.4785 29.2205 35.6099 29.3662 36.6381 29.9232C37.6662 30.4802 38.545 31.4234 39.1633 32.6335C39.7815 33.8437 40.1116 35.2665 40.1116 36.7219C40.1099 38.6729 39.5165 40.5434 38.4616 41.923C37.4068 43.3026 35.9766 44.0786 34.4848 44.0808ZM38.9444 34.7278C38.9277 34.2461 38.7722 33.7904 38.5091 33.4524C37.9973 32.7833 37.1157 32.5818 36.4201 33.4915L33.59 37.1928L32.6128 35.9148C32.1907 35.3629 31.7589 35.2467 31.4709 35.2464H31.4699C31.0919 35.2493 30.73 35.4471 30.4628 35.7968C30.1956 36.1465 30.0446 36.62 30.0427 37.1144C30.0427 37.491 30.1315 38.0558 30.5536 38.6077L32.2081 40.7716C32.5749 41.2502 33.0719 41.519 33.5901 41.519C34.1082 41.519 34.6052 41.2502 34.9721 40.7716L38.4792 36.1848C38.8836 35.6552 38.9554 35.1001 38.9444 34.7278ZM37.8511 35.3629L34.3439 39.9496C34.1438 40.2107 33.8728 40.3573 33.5902 40.3573C33.3075 40.3573 33.0365 40.2107 32.8364 39.9496L31.1819 37.7858C31.0179 37.5713 30.9312 37.3388 30.9311 37.1135C30.9332 36.9274 30.9906 36.7497 31.0912 36.618C31.1918 36.4863 31.3277 36.411 31.47 36.4081H31.4704C31.6429 36.4081 31.8207 36.5217 31.9844 36.7361L33.2759 38.4251C33.3171 38.4791 33.3661 38.5219 33.42 38.5511C33.4739 38.5803 33.5317 38.5953 33.59 38.5953C33.6483 38.5953 33.7061 38.5803 33.76 38.5511C33.8139 38.5219 33.8629 38.4791 33.9041 38.4251L37.0483 34.3129C37.3666 33.8967 37.6956 34.0316 37.8809 34.2739C37.9848 34.4057 38.0475 34.5834 38.0567 34.7724C38.0627 34.9776 37.9936 35.176 37.8511 35.3625V35.3629Z" fill="#FB8D48"/>
<defs>
<linearGradient id="paint0_linear_1391_352274" x1="25" y1="0.75" x2="25" y2="50.75" gradientUnits="userSpaceOnUse">
<stop stop-color="#E86B31" stop-opacity="0"/>
<stop offset="1" stop-color="#E86B31" stop-opacity="0.28"/>
</linearGradient>
</defs>
</svg>
