<svg width="50" height="51" viewBox="0 0 50 51" fill="none" xmlns="http://www.w3.org/2000/svg">
<path d="M25 50.75C38.8071 50.75 50 39.5571 50 25.75C50 11.9429 38.8071 0.75 25 0.75C11.1929 0.75 0 11.9429 0 25.75C0 39.5571 11.1929 50.75 25 50.75Z" fill="url(#paint0_linear_1391_352265)"/>
<path fill-rule="evenodd" clip-rule="evenodd" d="M13.2857 12.75C12.0326 12.75 11 13.7826 11 15.0357V42.4643C11 43.7174 12.0326 44.75 13.2857 44.75H34.6189C35.872 44.75 36.9046 43.7174 36.9046 42.4643V32.1131L42.7773 26.2403C42.9199 26.0975 43 25.9039 43 25.702C43 25.5002 42.9199 25.3066 42.7773 25.1637L39.729 22.1153C39.6568 22.0433 39.5708 21.9865 39.4762 21.9482C39.3817 21.91 39.2804 21.8912 39.1784 21.8929C38.9808 21.896 38.7922 21.9758 38.6523 22.1153L36.9046 23.8631V15.0357C36.9046 13.7826 35.872 12.75 34.6189 12.75H13.2857ZM13.2857 14.2738H34.6189C35.0541 14.2738 35.3808 14.6004 35.3808 15.0357V25.3869L26.4619 34.3058C26.3776 34.3892 26.3139 34.4911 26.2759 34.6034L24.7544 39.1763C24.7103 39.3103 24.7042 39.4539 24.7369 39.5911C24.7695 39.7283 24.8396 39.8537 24.9393 39.9534C25.0391 40.0532 25.1645 40.1232 25.3017 40.1559C25.4389 40.1886 25.5825 40.1825 25.7164 40.1384L30.2893 38.6168C30.4016 38.5788 30.5035 38.5151 30.5869 38.4308L35.3808 33.6369V42.4643C35.3808 42.8996 35.0541 43.2262 34.6189 43.2262H13.2857C12.8504 43.2262 12.5238 42.8996 12.5238 42.4643V15.0357C12.5238 14.6004 12.8504 14.2738 13.2857 14.2738ZM28.5118 17.3199C28.3138 17.3239 28.1251 17.4047 27.9857 17.5454L24.9374 20.5908C24.7942 20.7336 24.7137 20.9275 24.7135 21.1298C24.7133 21.332 24.7934 21.5261 24.9363 21.6693C25.0792 21.8124 25.273 21.893 25.4753 21.8932C25.6776 21.8934 25.8716 21.8133 26.0148 21.6704L27.761 19.9241V23.4174C27.761 25.119 26.4172 26.4658 24.7157 26.4658H21.6673C19.148 26.4658 17.0945 28.5156 17.0945 31.035V35.7426C16.2109 36.0598 15.5699 36.9079 15.5699 37.8943C15.5699 39.1477 16.603 40.1771 17.8563 40.1771C19.1097 40.1771 20.1428 39.1477 20.1428 37.8943C20.1428 36.9079 19.5018 36.0598 18.6182 35.7426V31.035C18.6182 29.3334 19.9658 27.9866 21.6673 27.9866H24.7157C27.2351 27.9866 29.2848 25.9368 29.2848 23.4174V19.9241L31.0311 21.6704C31.1743 21.8137 31.3685 21.8942 31.571 21.8942C31.7736 21.8943 31.9678 21.8139 32.1111 21.6708C32.2543 21.5276 32.3349 21.3334 32.3349 21.1308C32.335 20.9283 32.2546 20.734 32.1115 20.5908L29.0631 17.5454C28.9911 17.4727 28.9051 17.4153 28.8104 17.3766C28.7157 17.3378 28.6141 17.3186 28.5118 17.3199ZM17.8482 18.8385C17.6968 18.839 17.549 18.8846 17.4236 18.9694C17.2982 19.0542 17.201 19.1745 17.1442 19.3148C17.0874 19.4552 17.0738 19.6092 17.1049 19.7574C17.1361 19.9055 17.2107 20.041 17.3192 20.1466L18.3035 21.131L17.3192 22.1153C17.176 22.2582 17.0954 22.4521 17.0952 22.6543C17.095 22.8566 17.1752 23.0507 17.318 23.1938C17.4609 23.337 17.6548 23.4175 17.857 23.4177C18.0593 23.418 18.2534 23.3378 18.3965 23.1949L19.3809 22.2106L20.3653 23.1949C20.4356 23.2684 20.5198 23.327 20.6131 23.3674C20.7064 23.4078 20.8068 23.4292 20.9085 23.4303C21.0101 23.4314 21.111 23.4122 21.2051 23.3738C21.2992 23.3354 21.3848 23.2786 21.4567 23.2067C21.5285 23.1348 21.5853 23.0493 21.6237 22.9552C21.6621 22.8611 21.6813 22.7602 21.6803 22.6585C21.6792 22.5569 21.6578 22.4565 21.6173 22.3632C21.5769 22.2699 21.5183 22.1856 21.4449 22.1153L20.4605 21.131L21.4449 20.1466C21.555 20.0395 21.6302 19.9017 21.6607 19.7511C21.6911 19.6005 21.6753 19.4443 21.6154 19.3029C21.5554 19.1614 21.4541 19.0414 21.3248 18.9585C21.1955 18.8757 21.0441 18.8339 20.8906 18.8385C20.6921 18.8441 20.5036 18.9268 20.3653 19.0692L19.3809 20.0536L18.3965 19.0692C18.3253 18.9959 18.24 18.9378 18.1458 18.8981C18.0516 18.8585 17.9504 18.8382 17.8482 18.8385ZM39.1895 23.7321L41.1605 25.7031L39.9529 26.9107L37.982 24.9397L39.1895 23.7321ZM36.9046 26.0171L38.8755 27.9881L30.0482 36.8155L28.0773 34.8445L36.9046 26.0171ZM27.3332 36.2537L28.639 37.5595L26.6807 38.2121L27.3332 36.2537ZM17.8563 37.1317C18.2862 37.1317 18.6182 37.4645 18.6182 37.8943C18.6182 38.3242 18.2862 38.6562 17.8563 38.6562C17.4265 38.6562 17.0945 38.3242 17.0945 37.8943C17.0945 37.4645 17.4265 37.1317 17.8563 37.1317Z" fill="#FB8D48"/>
<defs>
<linearGradient id="paint0_linear_1391_352265" x1="25" y1="0.75" x2="25" y2="50.75" gradientUnits="userSpaceOnUse">
<stop stop-color="#E86B31" stop-opacity="0"/>
<stop offset="1" stop-color="#E86B31" stop-opacity="0.28"/>
</linearGradient>
</defs>
</svg>
