<svg width="50" height="51" viewBox="0 0 50 51" fill="none" xmlns="http://www.w3.org/2000/svg">
<path d="M25 50.75C38.8071 50.75 50 39.5571 50 25.75C50 11.9429 38.8071 0.75 25 0.75C11.1929 0.75 0 11.9429 0 25.75C0 39.5571 11.1929 50.75 25 50.75Z" fill="url(#paint0_linear_1391_352283)"/>
<path d="M18.9527 15.6535C19.0475 15.7015 19.1552 15.7181 19.26 15.7008C19.3649 15.6835 19.4615 15.6333 19.5359 15.5573C21.8431 13.2014 26.0067 14.2396 27.8112 15.0726L27.2795 15.9936C27.2333 16.0736 27.2102 16.1649 27.2128 16.2572C27.2153 16.3496 27.2434 16.4394 27.2939 16.5168C27.3444 16.5942 27.4154 16.656 27.4989 16.6955C27.5824 16.735 27.6752 16.7506 27.7671 16.7406L32.9269 16.1741C33.0023 16.1658 33.0748 16.1405 33.1389 16.1001C33.203 16.0597 33.2571 16.0052 33.2971 15.9408C33.3371 15.8764 33.3619 15.8037 33.3697 15.7283C33.3775 15.6529 33.368 15.5767 33.342 15.5055L31.4688 10.3793C31.4362 10.2899 31.3787 10.2117 31.3032 10.1538C31.2276 10.096 31.1372 10.0609 31.0424 10.0527C30.9476 10.0444 30.8525 10.0634 30.7681 10.1074C30.6837 10.1513 30.6137 10.2184 30.5661 10.3008L30.0465 11.2007C27.4509 9.86113 24.5336 9.72475 22.1525 10.8519C20.2473 11.7539 18.9834 13.3118 18.6853 15.1264C18.668 15.2313 18.6847 15.3389 18.7328 15.4337C18.7809 15.5285 18.8579 15.6055 18.9527 15.6535ZM22.5804 11.7558C24.8 10.7049 27.5682 10.9108 29.9855 12.3065C30.0424 12.3394 30.1052 12.3607 30.1703 12.3693C30.2354 12.3779 30.3015 12.3735 30.365 12.3565C30.493 12.3221 30.6022 12.2383 30.6685 12.1235L30.8969 11.7279L32.1837 15.2496L28.6389 15.6389L28.9398 15.1178C28.9726 15.0609 28.9939 14.9981 29.0025 14.933C29.011 14.8679 29.0067 14.8018 28.9897 14.7383C28.9727 14.6749 28.9434 14.6155 28.9034 14.5634C28.8634 14.5113 28.8136 14.4676 28.7567 14.4348C27.8702 13.923 26.1448 13.2773 24.1999 13.1421C23.9662 13.1257 23.7321 13.1174 23.4978 13.1173C22.2441 13.1173 21.1316 13.3639 20.1992 13.8448C20.7063 12.9826 21.5257 12.2551 22.5804 11.7558ZM40.5791 24.581L38.7902 24.2946C38.6916 23.985 38.5669 23.6842 38.4174 23.3957L39.4801 21.9279C39.5499 21.8316 39.583 21.7136 39.5736 21.595C39.5641 21.4765 39.5128 21.3652 39.4287 21.2811L38.0482 19.9006C37.9641 19.8165 37.8528 19.7652 37.7343 19.7558C37.6157 19.7463 37.4977 19.7795 37.4014 19.8492L35.9337 20.9118C35.6451 20.7624 35.3444 20.6376 35.0347 20.539L34.7484 18.7502C34.7296 18.6328 34.6695 18.5259 34.5791 18.4488C34.4886 18.3716 34.3736 18.3293 34.2547 18.3293H32.3024C32.1834 18.3293 32.0684 18.3716 31.978 18.4488C31.8875 18.5259 31.8275 18.6328 31.8087 18.7502L31.5224 20.539C31.2127 20.6376 30.9119 20.7624 30.6233 20.9118L29.1556 19.8492C29.0593 19.7794 28.9413 19.7463 28.8228 19.7557C28.7042 19.7651 28.5929 19.8165 28.5088 19.9006L27.1283 21.2811C27.0442 21.3652 26.9929 21.4765 26.9835 21.595C26.974 21.7136 27.0072 21.8316 27.0769 21.9279L28.1396 23.3956C27.9901 23.6842 27.8654 23.9849 27.7668 24.2946L25.9779 24.581C25.8605 24.5998 25.7536 24.6598 25.6765 24.7503C25.5993 24.8407 25.557 24.9558 25.557 25.0747V27.0269C25.557 27.1458 25.5993 27.2608 25.6765 27.3513C25.7536 27.4418 25.8605 27.5018 25.9779 27.5206L27.7668 27.8069C27.8655 28.1166 27.9902 28.4173 28.1396 28.7059L27.0768 30.1737C27.0071 30.27 26.974 30.388 26.9834 30.5066C26.9928 30.6251 27.0442 30.7364 27.1283 30.8205L28.5088 32.201C28.5929 32.285 28.7042 32.3364 28.8227 32.3458C28.9412 32.3552 29.0592 32.3221 29.1555 32.2524L30.6233 31.1897C30.9119 31.3392 31.2126 31.4639 31.5223 31.5626L31.8086 33.3513C31.8274 33.4687 31.8874 33.5756 31.9779 33.6527C32.0684 33.7299 32.1834 33.7722 32.3023 33.7722H34.2546C34.3735 33.7722 34.4885 33.7299 34.579 33.6527C34.6695 33.5756 34.7295 33.4687 34.7483 33.3513L35.0347 31.5624C35.3443 31.4638 35.645 31.3391 35.9336 31.1896L37.4014 32.2524C37.4977 32.3221 37.6157 32.3552 37.7342 32.3458C37.8528 32.3364 37.9641 32.285 38.0482 32.201L39.4287 30.8205C39.5128 30.7364 39.5641 30.6251 39.5736 30.5066C39.583 30.388 39.5499 30.27 39.4801 30.1737L38.4174 28.7059C38.5669 28.4173 38.6916 28.1166 38.7902 27.8069L40.5791 27.5206C40.6965 27.5018 40.8033 27.4418 40.8805 27.3513C40.9576 27.2608 41 27.1458 41 27.0269V25.0747C41 24.9558 40.9576 24.8408 40.8805 24.7503C40.8034 24.6598 40.6965 24.5998 40.5791 24.581ZM40.0001 26.6007L38.3186 26.8698C38.2223 26.8853 38.1326 26.9285 38.0606 26.9942C37.9886 27.0599 37.9373 27.1453 37.9132 27.2397C37.8011 27.6779 37.6269 28.0978 37.396 28.4867C37.3463 28.5706 37.3221 28.6672 37.3266 28.7646C37.331 28.862 37.3639 28.956 37.4211 29.035L38.4202 30.4149L37.6426 31.1924L36.2627 30.1934C36.1838 30.1362 36.0898 30.1033 35.9924 30.0989C35.8949 30.0944 35.7984 30.1186 35.7145 30.1683C35.3255 30.3991 34.9055 30.5732 34.4674 30.6854C34.3729 30.7096 34.2876 30.7608 34.2219 30.8328C34.1562 30.9048 34.113 30.9945 34.0975 31.0907L33.8284 32.7723H32.7287L32.4596 31.0909C32.4442 30.9946 32.4009 30.9049 32.3352 30.8329C32.2695 30.7609 32.1842 30.7096 32.0897 30.6855C31.6515 30.5734 31.2316 30.3992 30.8427 30.1684C30.7588 30.1186 30.6622 30.0945 30.5648 30.0989C30.4674 30.1034 30.3734 30.1362 30.2944 30.1934L28.9145 31.1924L28.1369 30.4149L29.136 29.035C29.1932 28.956 29.2261 28.862 29.2305 28.7646C29.235 28.6672 29.2108 28.5706 29.1611 28.4867C28.9303 28.0978 28.7561 27.6778 28.644 27.2397C28.6198 27.1452 28.5686 27.0599 28.4965 26.9942C28.4245 26.9285 28.3349 26.8853 28.2386 26.8698L26.557 26.6007V25.501L28.2386 25.2318C28.3349 25.2164 28.4245 25.1732 28.4965 25.1075C28.5686 25.0417 28.6198 24.9564 28.644 24.862C28.7561 24.4238 28.9302 24.0039 29.161 23.6149C29.2108 23.531 29.2349 23.4344 29.2304 23.337C29.226 23.2396 29.1932 23.1456 29.136 23.0667L28.1369 21.6868L28.9145 20.9093L30.2943 21.9082C30.3733 21.9654 30.4673 21.9982 30.5647 22.0026C30.6621 22.0071 30.7587 21.983 30.8425 21.9333C31.2315 21.7024 31.6515 21.5283 32.0897 21.4162C32.1842 21.392 32.2695 21.3408 32.3352 21.2688C32.4009 21.1968 32.4442 21.1071 32.4596 21.0108L32.7287 19.3293H33.8284L34.0975 21.0108C34.1129 21.1071 34.1561 21.1968 34.2219 21.2688C34.2876 21.3408 34.3729 21.392 34.4674 21.4162C34.9056 21.5283 35.3255 21.7025 35.7144 21.9333C35.7983 21.9831 35.8949 22.0072 35.9923 22.0027C36.0897 21.9983 36.1837 21.9654 36.2627 21.9083L37.6426 20.9093L38.4201 21.6868L37.421 23.0667C37.3638 23.1457 37.331 23.2397 37.3265 23.3371C37.3221 23.4345 37.3462 23.5311 37.3959 23.615C37.6268 24.0039 37.8009 24.4239 37.9131 24.862C37.9372 24.9565 37.9885 25.0418 38.0605 25.1075C38.1325 25.1732 38.2221 25.2164 38.3184 25.2318L40.0001 25.501V26.6007ZM33.2785 22.6662C31.4123 22.6662 29.8939 24.1846 29.8939 26.0508C29.8939 27.9171 31.4122 29.4354 33.2785 29.4354C35.1449 29.4354 36.6631 27.9171 36.6631 26.0508C36.6631 24.1846 35.1448 22.6662 33.2785 22.6662ZM33.2785 28.4354C31.9637 28.4354 30.8939 27.3657 30.8939 26.0508C30.8939 24.736 31.9637 23.6662 33.2785 23.6662C34.5934 23.6662 35.6631 24.736 35.6631 26.0508C35.6631 27.3657 34.5934 28.4354 33.2785 28.4354ZM19.0697 32.5832V32.2109C19.5001 32.0115 19.8001 31.5765 19.8001 31.0718V30.3329C19.9142 28.4242 20.3873 27.6153 20.8449 26.8333C21.2711 26.1049 21.6737 25.4168 21.6737 24.0809C21.6737 21.241 19.3633 18.9306 16.5235 18.9306C13.6837 18.9306 11.3732 21.2411 11.3732 24.0809C11.3732 25.4168 11.7759 26.1049 12.2021 26.8333C12.6597 27.6153 13.1328 28.4242 13.2469 30.3329V31.0718C13.2469 31.5962 13.5702 32.0459 14.0278 32.2336V32.5832C14.0278 33.1054 14.3483 33.5537 14.8027 33.7428V34.0946C14.8027 34.787 15.3661 35.3503 16.0584 35.3503H17.0391C17.7314 35.3503 18.2948 34.787 18.2948 34.0946V33.7429C18.7492 33.5537 19.0697 33.1053 19.0697 32.5832ZM17.8141 32.8388H15.2834C15.1449 32.8388 15.0277 32.7217 15.0277 32.5832V32.3274H18.0696V32.5832C18.0697 32.7217 17.9526 32.8388 17.8141 32.8388ZM14.5025 31.3275C14.3639 31.3275 14.2469 31.2104 14.2469 31.0718V30.816H18.8001V31.0718C18.8001 31.2104 18.6831 31.3275 18.5446 31.3275H14.5025ZM15.2204 24.6957H14.6398C14.3197 24.6957 14.0592 24.4353 14.0592 24.1151C14.0592 23.7949 14.3196 23.5345 14.6398 23.5345C14.96 23.5345 15.2204 23.7949 15.2204 24.1151V24.6957ZM16.8265 29.816H16.2204V25.6957H16.8265V29.816ZM12.3732 24.0809C12.3732 21.7925 14.2351 19.9306 16.5235 19.9306C18.8119 19.9306 20.6737 21.7925 20.6737 24.0809C20.6737 25.1458 20.3683 25.6677 19.9818 26.3283C19.5478 27.07 19.0156 27.9794 18.8374 29.816H17.8265V25.6957H18.4071C19.2787 25.6957 19.9878 24.9867 19.9878 24.1151C19.9878 23.2435 19.2787 22.5345 18.4071 22.5345C17.5356 22.5345 16.8265 23.2435 16.8265 24.1151V24.6957H16.2204V24.1151C16.2204 23.2435 15.5114 22.5345 14.6398 22.5345C13.7682 22.5345 13.0592 23.2435 13.0592 24.1151C13.0592 24.9867 13.7682 25.6957 14.6398 25.6957H15.2204V29.816H14.2095C14.0312 27.9794 13.4992 27.07 13.0652 26.3283C12.6785 25.6677 12.3732 25.1458 12.3732 24.0809ZM17.8265 24.6957V24.1151C17.8265 23.7949 18.0869 23.5345 18.4071 23.5345C18.7273 23.5345 18.9878 23.7949 18.9878 24.1151C18.9878 24.4353 18.7273 24.6957 18.4071 24.6957H17.8265ZM17.0391 34.3502H16.0584C15.9198 34.3502 15.8027 34.2332 15.8027 34.0946V33.8388H17.2947V34.0946C17.2947 34.2332 17.1776 34.3502 17.0391 34.3502ZM16.0234 17.8588V16.7635C16.0234 16.6308 16.0761 16.5037 16.1699 16.4099C16.2636 16.3161 16.3908 16.2635 16.5234 16.2635C16.656 16.2635 16.7832 16.3161 16.877 16.4099C16.9708 16.5037 17.0234 16.6308 17.0234 16.7635V17.8588C17.0234 17.9914 16.9708 18.1186 16.877 18.2123C16.7832 18.3061 16.656 18.3588 16.5234 18.3588C16.3908 18.3588 16.2636 18.3061 16.1699 18.2123C16.0761 18.1186 16.0234 17.9914 16.0234 17.8588ZM12.0354 18.0999C11.9702 17.9851 11.953 17.8492 11.9875 17.7218C12.0221 17.5943 12.1057 17.4858 12.2201 17.4198C12.3344 17.3537 12.4702 17.3356 12.5979 17.3694C12.7255 17.4031 12.8346 17.486 12.9014 17.5999L13.4491 18.5485C13.4819 18.6054 13.5032 18.6682 13.5118 18.7333C13.5204 18.7984 13.5161 18.8645 13.4991 18.9279C13.4821 18.9914 13.4527 19.0508 13.4128 19.1029C13.3728 19.155 13.3229 19.1987 13.2661 19.2316C13.2092 19.2644 13.1464 19.2857 13.0813 19.2943C13.0162 19.3028 12.9501 19.2985 12.8867 19.2815C12.8232 19.2645 12.7638 19.2352 12.7117 19.1952C12.6596 19.1552 12.6159 19.1054 12.583 19.0485L12.0354 18.0999ZM10.8816 21.6161C10.8488 21.673 10.8051 21.7228 10.753 21.7628C10.7009 21.8028 10.6414 21.8321 10.578 21.8491C10.5146 21.8661 10.4484 21.8704 10.3833 21.8619C10.3182 21.8533 10.2554 21.8319 10.1985 21.7991L9.24997 21.2513C9.19311 21.2185 9.14327 21.1748 9.1033 21.1227C9.06334 21.0706 9.03402 21.0111 9.01703 20.9477C9.00004 20.8843 8.99571 20.8181 9.00428 20.753C9.01286 20.6879 9.03417 20.6252 9.067 20.5683C9.09984 20.5114 9.14355 20.4616 9.19565 20.4216C9.24774 20.3817 9.3072 20.3523 9.37063 20.3354C9.43405 20.3184 9.5002 20.314 9.5653 20.3226C9.6304 20.3312 9.69318 20.3525 9.75004 20.3853L10.6987 20.9331C10.8135 20.9994 10.8973 21.1086 10.9316 21.2367C10.9659 21.3648 10.9479 21.5013 10.8816 21.6161ZM20.8284 17.4169C20.9433 17.4832 21.0271 17.5924 21.0614 17.7205C21.0957 17.8486 21.0777 17.9851 21.0114 18.0999L20.4638 19.0485C20.4309 19.1054 20.3872 19.1553 20.3351 19.1952C20.283 19.2352 20.2236 19.2646 20.1601 19.2815C20.0967 19.2985 20.0305 19.3029 19.9654 19.2943C19.9003 19.2857 19.8376 19.2644 19.7807 19.2315C19.6659 19.1652 19.5821 19.056 19.5477 18.9279C19.5134 18.7998 19.5314 18.6634 19.5977 18.5485L20.1454 17.5999C20.1782 17.543 20.2219 17.4932 20.274 17.4532C20.3261 17.4132 20.3856 17.3839 20.449 17.3669C20.5124 17.3499 20.5786 17.3456 20.6437 17.3541C20.7088 17.3627 20.7716 17.384 20.8284 17.4169ZM23.98 20.5684C24.0463 20.6832 24.0642 20.8197 24.0299 20.9478C23.9956 21.0759 23.9118 21.1851 23.797 21.2514L22.8483 21.7991C22.7915 21.8319 22.7287 21.8533 22.6636 21.8619C22.5985 21.8704 22.5323 21.8661 22.4689 21.8491C22.4054 21.8321 22.346 21.8028 22.2939 21.7628C22.2418 21.7228 22.1981 21.673 22.1653 21.6161C22.099 21.5012 22.081 21.3648 22.1153 21.2367C22.1496 21.1086 22.2334 20.9994 22.3483 20.9331L23.2969 20.3854C23.5361 20.2475 23.8419 20.3293 23.98 20.5684ZM32.6959 36.7111C32.601 36.6631 32.4934 36.6465 32.3885 36.6638C32.2837 36.6811 32.1871 36.7314 32.1127 36.8072C29.9578 39.0074 26.0751 38.0527 24.3646 37.2717L24.8509 36.4294C24.897 36.3494 24.9201 36.2581 24.9176 36.1658C24.915 36.0734 24.8869 35.9836 24.8365 35.9062C24.786 35.8289 24.715 35.767 24.6315 35.7275C24.548 35.688 24.4552 35.6724 24.3633 35.6824L19.4948 36.217C19.4195 36.2253 19.347 36.2506 19.2828 36.291C19.2187 36.3314 19.1646 36.3859 19.1246 36.4503C19.0846 36.5147 19.0598 36.5873 19.052 36.6628C19.0443 36.7382 19.0537 36.8144 19.0798 36.8856L20.8471 41.7225C20.8798 41.8118 20.9373 41.89 21.0128 41.9478C21.0883 42.0056 21.1788 42.0407 21.2735 42.0489C21.3683 42.0571 21.4634 42.0382 21.5477 41.9942C21.6321 41.9503 21.7022 41.8832 21.7498 41.8009L22.2265 40.9751C24.6775 42.2316 27.4287 42.3562 29.676 41.2923C31.4822 40.4371 32.6804 38.9595 32.9633 37.2382C32.9805 37.1333 32.9639 37.0257 32.9158 36.9309C32.8677 36.8361 32.7907 36.7591 32.6959 36.7111ZM29.2481 40.3884C27.1622 41.3759 24.56 41.1819 22.2873 39.8699C22.2304 39.837 22.1676 39.8157 22.1026 39.8071C22.0375 39.7985 21.9713 39.8029 21.9079 39.8199C21.7798 39.8542 21.6706 39.938 21.6043 40.0529L21.419 40.3738L20.2379 37.1414L23.4915 36.7842L23.2355 37.2277C23.1692 37.3425 23.1512 37.479 23.1855 37.6071C23.2198 37.7352 23.3036 37.8444 23.4185 37.9107C24.2576 38.3952 25.8903 39.0062 27.7302 39.1341C29.1503 39.2326 30.4028 39.0196 31.432 38.5124C30.9533 39.2843 30.2035 39.9361 29.2481 40.3884Z" fill="#FB8D48"/>
<defs>
<linearGradient id="paint0_linear_1391_352283" x1="25" y1="0.75" x2="25" y2="50.75" gradientUnits="userSpaceOnUse">
<stop stop-color="#E86B31" stop-opacity="0"/>
<stop offset="1" stop-color="#E86B31" stop-opacity="0.28"/>
</linearGradient>
</defs>
</svg>
