<svg width="51" height="51" viewBox="0 0 51 51" fill="none" xmlns="http://www.w3.org/2000/svg">
<path d="M25.5 50.75C39.3071 50.75 50.5 39.5571 50.5 25.75C50.5 11.9429 39.3071 0.75 25.5 0.75C11.6929 0.75 0.5 11.9429 0.5 25.75C0.5 39.5571 11.6929 50.75 25.5 50.75Z" fill="url(#paint0_linear_1391_292571)"/>
<path d="M37.3125 12.3281H41.2369" stroke="#FB8D48" stroke-miterlimit="10" stroke-linecap="round" stroke-linejoin="round"/>
<path d="M34.5625 12.3281H35.3474" stroke="#FB8D48" stroke-miterlimit="10" stroke-linecap="round" stroke-linejoin="round"/>
<path d="M34.5625 14.6875H41.234" stroke="#FB8D48" stroke-miterlimit="10" stroke-linecap="round" stroke-linejoin="round"/>
<path d="M31.3442 21.2246V23.203C31.3442 24.0201 30.6826 24.6825 29.8664 24.6825H28.6484" stroke="#FB8D48" stroke-miterlimit="10" stroke-linecap="round" stroke-linejoin="round"/>
<path d="M35.3433 40.002H12.5384C11.9649 40.002 11.5 40.4674 11.5 41.0417C11.5 41.6158 11.9649 42.0813 12.5384 42.0813H35.3433C35.9167 42.0813 36.3816 41.6158 36.3816 41.0417C36.3816 40.4674 35.9167 40.002 35.3433 40.002Z" stroke="#FB8D48" stroke-miterlimit="10" stroke-linecap="round" stroke-linejoin="round"/>
<path d="M25.237 40.0036C25.237 39.1516 25.5558 38.3324 26.1251 37.6992L26.1378 37.685C26.6034 37.1634 26.8866 36.4751 26.8866 35.7205C26.8866 34.6208 26.2854 33.6618 25.3942 33.1549C25.225 33.0585 25.0151 33.1796 25.0151 33.3743V35.5682C25.0151 35.936 24.7174 36.2341 24.3501 36.2341H23.5326C23.1654 36.2341 22.8675 35.936 22.8675 35.5682V33.3743C22.8675 33.1796 22.6575 33.0585 22.4885 33.1549C21.5973 33.6618 20.9961 34.6208 20.9961 35.7205C20.9961 36.4751 21.2792 37.1634 21.7448 37.685L21.7575 37.6992C22.3268 38.3324 22.6457 39.1516 22.6457 40.0036" stroke="#FB8D48" stroke-miterlimit="10" stroke-linecap="round" stroke-linejoin="round"/>
<path d="M13.9922 38.1152L14.0946 40.0021" stroke="#FB8D48" stroke-miterlimit="10" stroke-linecap="round" stroke-linejoin="round"/>
<path d="M33.7923 40.0025L34.2708 31.174C34.3168 30.3239 33.6409 29.6094 32.7907 29.6094H15.0956C14.2454 29.6094 13.5694 30.3239 13.6155 31.174L13.8701 35.8717" stroke="#FB8D48" stroke-miterlimit="10" stroke-linecap="round" stroke-linejoin="round"/>
<path d="M35.994 40.2351V38.2097C35.994 36.2588 35.3171 34.4426 34.168 33.0078" stroke="#FB8D48" stroke-miterlimit="10" stroke-linecap="round" stroke-linejoin="round"/>
<path d="M13.7128 33.0059C12.5637 34.4406 11.8867 36.2569 11.8867 38.2077V40.2332" stroke="#FB8D48" stroke-miterlimit="10" stroke-linecap="round" stroke-linejoin="round"/>
<path d="M28.8566 14.0487H28.8026C28.7313 14.0487 28.6607 14.0347 28.5949 14.0074C28.529 13.9801 28.4692 13.9401 28.4188 13.8896C28.3684 13.8391 28.3284 13.7792 28.3011 13.7133C28.2738 13.6474 28.2599 13.5767 28.2599 13.5054C28.2599 12.6168 27.5405 11.8965 26.6531 11.8965H21.5389C19.2629 11.8965 17.418 13.7438 17.418 16.0227V18.7495C17.418 18.945 17.4787 19.1356 17.5917 19.2948C17.7048 19.4542 17.8646 19.5743 18.0489 19.6385L19.064 19.9925C19.4188 20.1161 19.7893 19.852 19.7888 19.4758L19.7865 17.553C19.7826 16.6179 20.5274 15.8565 21.45 15.8525L21.4701 15.8525C21.7513 15.8514 22.031 15.8947 22.2987 15.981C22.7714 16.1331 23.2613 16.2253 23.7578 16.2232H24.1236C24.6201 16.2253 25.11 16.1331 25.5827 15.981C25.8504 15.8947 26.1301 15.8514 26.4113 15.8525L26.4314 15.8525C27.354 15.8565 28.0988 16.6179 28.0949 17.553L28.0931 19.476C28.0926 19.8521 28.463 20.1161 28.8178 19.9925L29.8326 19.6385C30.0169 19.5743 30.1766 19.4542 30.2897 19.2949C30.4027 19.1356 30.4634 18.9451 30.4634 18.7496V15.6576C30.4634 14.769 29.7441 14.0487 28.8566 14.0487Z" stroke="#FB8D48" stroke-miterlimit="10" stroke-linecap="round" stroke-linejoin="round"/>
<path d="M18.6719 22.4414H18.6809C18.7165 23.8439 19.3036 25.1915 20.358 26.1039C21.2071 26.8384 22.3988 27.4776 23.9695 27.4887C25.54 27.4642 26.7263 26.8149 27.5691 26.073C28.5952 25.1699 29.1675 23.8526 29.2123 22.4796" stroke="#FB8D48" stroke-miterlimit="10" stroke-linecap="round" stroke-linejoin="round"/>
<path d="M17.4172 18.5371C16.9177 18.6292 16.5391 19.0665 16.5391 19.5932V21.4296C16.5391 22.0233 17.0196 22.5045 17.6125 22.5045H18.6697V19.8546" stroke="#FB8D48" stroke-miterlimit="10" stroke-linecap="round" stroke-linejoin="round"/>
<path d="M29.2109 19.8547V22.5044H30.2681C30.861 22.5044 31.3416 22.0233 31.3416 21.4296V19.5932C31.3416 19.0665 30.9629 18.6291 30.4634 18.5371" stroke="#FB8D48" stroke-miterlimit="10" stroke-linecap="round" stroke-linejoin="round"/>
<path d="M27.5843 25.4421H26.3724C25.91 25.4421 25.5352 25.0668 25.5352 24.6039C25.5352 24.1409 25.91 23.7656 26.3724 23.7656H27.5843C28.0466 23.7656 28.4214 24.1409 28.4214 24.6039C28.4214 25.0668 28.0466 25.4421 27.5843 25.4421Z" stroke="#FB8D48" stroke-miterlimit="10" stroke-linecap="round" stroke-linejoin="round"/>
<path d="M27.3655 29.6096C26.9219 29.3687 26.6289 28.9003 26.6289 28.3728V26.752" stroke="#FB8D48" stroke-miterlimit="10" stroke-linecap="round" stroke-linejoin="round"/>
<path d="M21.2537 26.748V28.3739C21.2537 28.9105 20.9522 29.3731 20.5156 29.6107" stroke="#FB8D48" stroke-miterlimit="10" stroke-linecap="round" stroke-linejoin="round"/>
<path d="M43.5008 12.424V11.4882C43.5008 10.7116 42.8721 10.082 42.0964 10.082H33.9747C33.199 10.082 32.5703 10.7116 32.5703 11.4882V15.5554C32.5703 16.332 33.199 16.9615 33.9747 16.9615C34.4277 16.9615 34.7949 17.3292 34.7949 17.7827V20.2979C34.7949 20.6172 35.2149 20.7337 35.3789 20.4599L37.2352 17.3604C37.308 17.2387 37.4111 17.138 37.5344 17.0681C37.6577 16.9982 37.7969 16.9615 37.9385 16.9615H42.0964C42.8721 16.9615 43.5008 16.332 43.5008 15.5554V14.6845" stroke="#FB8D48" stroke-miterlimit="10" stroke-linecap="round" stroke-linejoin="round"/>
<defs>
<linearGradient id="paint0_linear_1391_292571" x1="25.5" y1="0.75" x2="25.5" y2="50.75" gradientUnits="userSpaceOnUse">
<stop stop-color="#E86B31" stop-opacity="0"/>
<stop offset="1" stop-color="#E86B31" stop-opacity="0.28"/>
</linearGradient>
</defs>
</svg>
