<svg width="32" height="33" viewBox="0 0 32 33" fill="none" xmlns="http://www.w3.org/2000/svg">
<mask id="mask0_1391_292542" style="mask-type:luminance" maskUnits="userSpaceOnUse" x="0" y="0" width="32" height="33">
<path d="M32 0.417969H0V32.418H32V0.417969Z" fill="white"/>
</mask>
<g mask="url(#mask0_1391_292542)">
<path d="M29.0905 25.5334H2.90862C1.55104 25.5334 0.484375 24.4668 0.484375 23.1092V8.12736C0.484375 6.76979 1.55104 5.70312 2.90862 5.70312H3.10256C3.39346 5.70312 3.58741 5.89706 3.58741 6.18797C3.58741 6.47888 3.39346 6.67282 3.10256 6.67282H2.90862C2.08438 6.67282 1.45407 7.30313 1.45407 8.12736V23.1092C1.45407 23.9334 2.08438 24.5637 2.90862 24.5637H29.0905C29.9147 24.5637 30.545 23.9334 30.545 23.1092V8.12736C30.545 7.30313 29.9147 6.67282 29.0905 6.67282H14.1571C13.8662 6.67282 13.6722 6.47888 13.6722 6.18797C13.6722 5.89706 13.8662 5.70312 14.1571 5.70312H29.0905C30.448 5.70312 31.5147 6.76979 31.5147 8.12736V23.1092C31.5147 24.4668 30.448 25.5334 29.0905 25.5334Z" fill="#FB8D48"/>
<path d="M31.0298 22.5751H0.969224C0.678314 22.5751 0.484375 22.3812 0.484375 22.0903C0.484375 21.7994 0.678314 21.6055 0.969224 21.6055H31.0298C31.3207 21.6055 31.5147 21.7994 31.5147 22.0903C31.5147 22.3812 31.3207 22.5751 31.0298 22.5751ZM19.345 28.6842H12.6541C12.3632 28.6842 12.1692 28.4903 12.1692 28.1994V25.0479C12.1692 24.757 12.3632 24.563 12.6541 24.563H19.345C19.6359 24.563 19.8298 24.757 19.8298 25.0479V28.1994C19.8298 28.4903 19.6359 28.6842 19.345 28.6842ZM13.139 27.7145H18.8602V25.5327H13.139V27.7145Z" fill="#FB8D48"/>
<path d="M21.428 31.8847H10.5673C9.88861 31.8847 9.35525 31.3513 9.35525 30.6725V28.9271C9.35525 28.2483 9.88861 27.715 10.5673 27.715H21.428C22.1068 27.715 22.6401 28.2483 22.6401 28.9271V30.6725C22.6401 31.3513 22.1068 31.8847 21.428 31.8847ZM10.5673 28.6847C10.4704 28.6847 10.3249 28.8301 10.3249 28.9271V30.6725C10.3249 30.7695 10.3734 30.915 10.5673 30.915H21.428C21.5249 30.915 21.6704 30.8665 21.6704 30.6725V28.9271C21.6704 28.8301 21.6219 28.6847 21.428 28.6847H10.5673ZM16.7249 24.0786H15.2704C14.9795 24.0786 14.7856 23.8847 14.7856 23.5937C14.7856 23.3028 14.9795 23.1089 15.2704 23.1089H16.7249C17.0158 23.1089 17.2098 23.3028 17.2098 23.5937C17.2098 23.8847 17.0158 24.0786 16.7249 24.0786ZM8.62797 12.7816C8.14309 12.7816 7.70676 12.7332 7.27039 12.6362C7.02797 12.5877 6.88252 12.3452 6.931 12.1028C7.02797 11.5695 6.88252 11.2786 6.73706 11.1816C6.64009 11.1332 6.34918 11.2786 6.05827 11.6665C5.91281 11.8604 5.62191 11.9089 5.42797 11.812C4.70069 11.3271 4.11888 10.6968 3.68252 9.96949C3.53706 9.77557 3.63403 9.48469 3.82797 9.33925C4.26433 8.99981 4.3613 8.70893 4.3613 8.61197C4.31281 8.51501 4.02191 8.36952 3.48857 8.36952C3.24615 8.36952 3.00373 8.22406 2.95525 7.98164C2.80979 7.10891 2.80979 6.23618 3.00373 5.46043C3.05221 5.218 3.29464 5.07255 3.53706 5.12103C3.97342 5.12103 4.31281 4.97558 4.3613 4.87861C4.40979 4.78164 4.26433 4.44225 3.87645 4.15134C3.68252 4.00588 3.63403 3.71498 3.77949 3.52103C4.26433 2.79376 4.89464 2.21194 5.62191 1.77558C5.81585 1.63013 6.10676 1.7271 6.25221 1.92103C6.54312 2.3574 6.88252 2.45437 6.97949 2.45437C7.07645 2.3574 7.27039 2.01801 7.22191 1.48467C7.22191 1.24225 7.36737 0.999823 7.60979 0.951338C8.48253 0.805884 9.35525 0.805884 10.131 0.999823C10.3734 1.04831 10.5189 1.29073 10.4704 1.53315C10.3734 2.06649 10.5189 2.3574 10.6643 2.45437C10.7613 2.50286 11.0522 2.3574 11.3431 1.96952C11.4886 1.77558 11.7795 1.7271 11.9734 1.82406C12.7007 2.30891 13.2825 2.93922 13.7189 3.66649C13.8643 3.86043 13.7673 4.15134 13.5734 4.29679C13.1371 4.63618 13.0401 4.9271 13.0401 5.02406C13.0886 5.12103 13.3795 5.26649 13.8643 5.218C14.1068 5.16952 14.3492 5.36346 14.3977 5.60588C14.5431 6.47861 14.5431 7.35134 14.3492 8.1271C14.3007 8.36952 14.0583 8.51501 13.8158 8.46653C13.2825 8.36952 12.9916 8.51501 12.8946 8.66045C12.7977 8.90285 13.0886 9.24221 13.3795 9.43621C13.5734 9.58165 13.6219 9.87253 13.5249 10.0665C13.0401 10.7937 12.4098 11.3756 11.6825 11.812C11.4886 11.9574 11.1977 11.8604 11.0522 11.6665C10.8098 11.2786 10.4704 11.0847 10.2765 11.1816C10.1795 11.2301 10.0341 11.521 10.0825 12.0544C10.0825 12.2968 9.93709 12.5392 9.69461 12.5877C9.40373 12.7332 9.01581 12.7816 8.62797 12.7816ZM7.90069 11.7635C8.33709 11.812 8.77341 11.8604 9.20981 11.7635C9.25829 11.0847 9.59765 10.5513 10.0341 10.3574C10.5673 10.1635 11.1492 10.3574 11.6341 10.8422C12.0219 10.5998 12.3129 10.3089 12.6037 9.96949C12.1189 9.48469 11.9734 8.85437 12.1673 8.32103C12.4098 7.83618 12.9431 7.54528 13.6219 7.54528C13.6704 7.10891 13.7189 6.67255 13.6704 6.23618C12.9916 6.23618 12.4583 5.89679 12.2643 5.41194C12.0704 4.9271 12.2643 4.34528 12.7492 3.86043C12.5068 3.47255 12.2158 3.18164 11.8765 2.89073C11.3916 3.37558 10.7613 3.56952 10.2765 3.3271C9.79157 3.08467 9.54917 2.55134 9.54917 1.87255C9.11285 1.82406 8.67645 1.77558 8.24005 1.87255C8.19157 2.59982 7.90069 3.13315 7.36737 3.3271C6.88252 3.52103 6.30069 3.3271 5.81585 2.84225C5.42797 3.08467 5.13706 3.37558 4.84615 3.71498C5.331 4.19982 5.52494 4.83013 5.28252 5.31498C5.04009 5.79982 4.50676 6.04225 3.82797 6.04225C3.77949 6.47861 3.731 6.91498 3.82797 7.35134C4.50676 7.39982 5.04009 7.69073 5.23403 8.17558C5.42797 8.66045 5.23403 9.24221 4.74918 9.72709C4.99161 10.115 5.28252 10.4059 5.62191 10.6968C6.10676 10.212 6.73706 10.018 7.22191 10.2604C7.60979 10.5513 7.90069 11.0847 7.90069 11.7635Z" fill="#FB8D48"/>
<path d="M8.67814 10.1141C7.81662 10.1141 6.99036 9.77191 6.38115 9.16271C5.77194 8.55351 5.42969 7.72723 5.42969 6.86568C5.42969 6.00412 5.77194 5.17786 6.38115 4.56864C6.99036 3.95944 7.81662 3.61719 8.67814 3.61719C9.53974 3.61719 10.366 3.95944 10.9752 4.56864C11.5844 5.17786 11.9267 6.00412 11.9267 6.86568C11.9267 7.72723 11.5844 8.55351 10.9752 9.16271C10.366 9.77191 9.53974 10.1141 8.67814 10.1141ZM8.67814 4.58688C7.41757 4.58688 6.39938 5.60507 6.39938 6.86568C6.39938 8.12628 7.41757 9.14447 8.67814 9.14447C9.93878 9.14447 10.9569 8.12628 10.9569 6.86568C10.9569 5.60507 9.93878 4.58688 8.67814 4.58688ZM27.7327 20.3929H17.5024C16.5327 20.3929 15.8054 19.6657 15.8054 18.696V9.92023C15.8054 8.95055 16.5327 8.22325 17.5024 8.22325H27.7812C28.7509 8.22325 29.4781 8.95055 29.4781 9.92023V18.7445C29.4297 19.6657 28.6539 20.3929 27.7327 20.3929ZM17.5024 9.19295C17.1145 9.19295 16.7752 9.53231 16.7752 9.92023V18.696C16.7752 19.0838 17.1145 19.4233 17.5024 19.4233H27.7327C28.1206 19.4233 28.46 19.1323 28.5085 18.696V9.92023C28.5085 9.53231 28.1691 9.19295 27.7812 9.19295H17.5024Z" fill="#FB8D48"/>
<path d="M28.944 12.4427H16.2895C15.9986 12.4427 15.8047 12.2488 15.8047 11.9578C15.8047 11.667 15.9986 11.473 16.2895 11.473H28.944C29.2349 11.473 29.4289 11.667 29.4289 11.9578C29.4289 12.2488 29.2349 12.4427 28.944 12.4427ZM23.1744 10.8427H17.938C17.6471 10.8427 17.4532 10.6488 17.4532 10.3578C17.4532 10.067 17.6471 9.87305 17.938 9.87305H23.1744C23.4652 9.87305 23.6592 10.067 23.6592 10.3578C23.6592 10.6488 23.4652 10.8427 23.1744 10.8427ZM25.2107 10.8427H24.6774C24.3864 10.8427 24.1925 10.6488 24.1925 10.3578C24.1925 10.067 24.3864 9.87305 24.6774 9.87305H25.2107C25.5016 9.87305 25.6956 10.067 25.6956 10.3578C25.6956 10.6488 25.5016 10.8427 25.2107 10.8427ZM27.2956 10.8427H26.7622C26.4713 10.8427 26.2774 10.6488 26.2774 10.3578C26.2774 10.067 26.4713 9.87305 26.7622 9.87305H27.2956C27.5864 9.87305 27.7804 10.067 27.7804 10.3578C27.7804 10.6488 27.5864 10.8427 27.2956 10.8427ZM20.8471 17.7275C20.7016 17.7275 20.6047 17.679 20.5077 17.5821L19.1016 16.176C19.0047 16.079 18.9562 15.9821 18.9562 15.8366C18.9562 15.6912 19.0047 15.5942 19.1016 15.4973L20.5562 14.0912C20.7501 13.8973 21.041 13.8973 21.2349 14.0912C21.4289 14.2851 21.4289 14.576 21.2349 14.77L20.1198 15.8366L21.1864 16.9033C21.3804 17.0973 21.3804 17.3882 21.1864 17.5821C21.0895 17.679 20.9925 17.7275 20.8471 17.7275ZM24.3864 17.7275C24.241 17.7275 24.144 17.679 24.0471 17.5821C23.8532 17.3882 23.8532 17.0973 24.0471 16.9033L25.4532 15.4973C25.6471 15.3033 25.938 15.3033 26.132 15.4973C26.3259 15.6912 26.3259 15.9821 26.132 16.176L24.7259 17.5821C24.6289 17.679 24.532 17.7275 24.3864 17.7275Z" fill="#FB8D48"/>
<path d="M25.7936 16.3214C25.6967 16.3214 25.5512 16.2729 25.4543 16.1759L23.9997 14.7698C23.8058 14.5759 23.8058 14.285 23.9997 14.091C24.1936 13.8971 24.4845 13.8971 24.6785 14.091L26.1331 15.4971C26.327 15.691 26.327 15.982 26.1331 16.1759C26.036 16.2729 25.9391 16.3214 25.7936 16.3214ZM22.1087 18.2123H21.9633C21.7209 18.1638 21.5755 17.8729 21.6239 17.6305L22.6421 13.8486C22.6906 13.6062 22.9815 13.4608 23.2239 13.5093C23.4663 13.5578 23.6118 13.8486 23.5633 14.091L22.5936 17.8729C22.4967 18.0668 22.3027 18.2123 22.1087 18.2123ZM12.5573 20.3941H4.79969C3.63606 20.3941 2.71484 19.4729 2.71484 18.3093C2.71484 17.1456 3.63606 16.2244 4.79969 16.2244H12.5573C13.7209 16.2244 14.6421 17.1456 14.6421 18.3093C14.6421 19.4729 13.7209 20.3941 12.5573 20.3941ZM4.79969 17.1941C4.21788 17.1941 3.68454 17.7274 3.68454 18.3093C3.68454 18.891 4.21788 19.4244 4.79969 19.4244H12.5573C13.1391 19.4244 13.6724 18.891 13.6724 18.3093C13.6724 17.7274 13.1391 17.1941 12.5573 17.1941H4.79969Z" fill="#FB8D48"/>
</g>
</svg>
