<svg width="50" height="51" viewBox="0 0 50 51" fill="none" xmlns="http://www.w3.org/2000/svg">
<path d="M25 50.75C38.8071 50.75 50 39.5571 50 25.75C50 11.9429 38.8071 0.75 25 0.75C11.1929 0.75 0 11.9429 0 25.75C0 39.5571 11.1929 50.75 25 50.75Z" fill="url(#paint0_linear_1391_292529)"/>
<path d="M38.4194 16.8648H22.5033C22.1018 15.7881 21.4406 14.8719 20.6006 14.2284C19.7606 13.5849 18.7783 13.2422 17.7742 13.2422C16.7701 13.2422 15.7878 13.5849 14.9478 14.2284C14.1078 14.8719 13.4466 15.7881 13.0452 16.8648H11.5806C10.8964 16.8656 10.2404 17.1839 9.75661 17.7499C9.27279 18.3158 9.00068 19.0832 9 19.8837V36.7894C9.00068 37.5897 9.27279 38.3571 9.75661 38.923C10.2404 39.489 10.8964 39.8074 11.5806 39.8082H21.689L20.9581 42.2233H18.8065C18.6695 42.2233 18.5383 42.2869 18.4415 42.4001C18.3447 42.5133 18.2903 42.6669 18.2903 42.827V44.6384C18.2903 44.7985 18.3447 44.9521 18.4415 45.0653C18.5383 45.1785 18.6695 45.2422 18.8065 45.2422H31.1935C31.3305 45.2422 31.4617 45.1785 31.5585 45.0653C31.6553 44.9521 31.7097 44.7985 31.7097 44.6384V42.827C31.7097 42.6669 31.6553 42.5133 31.5585 42.4001C31.4617 42.2869 31.3305 42.2233 31.1935 42.2233H28.9774L28.2465 39.8082H38.4194C39.1035 39.8074 39.7596 39.489 40.2434 38.923C40.7272 38.3571 40.9993 37.5897 41 36.7894V19.8837C40.9993 19.0832 40.7272 18.3158 40.2434 17.7499C39.7596 17.1839 39.1035 16.8656 38.4194 16.8648ZM21.9032 19.2799C21.9039 20.5045 21.5052 21.6832 20.7884 22.5758C20.7773 22.5549 20.765 22.535 20.7516 22.5162L18.4258 19.2512L20.5735 15.7335C20.9929 16.1848 21.3276 16.7331 21.5564 17.3435C21.7853 17.9539 21.9034 18.6133 21.9032 19.2799ZM17.7742 14.4497C18.4589 14.4489 19.1329 14.6484 19.7348 15.0301L17.5084 18.6761H13.6787C13.8054 17.5096 14.291 16.437 15.0449 15.6591C15.7987 14.8811 16.7689 14.4512 17.7742 14.4497ZM17.5322 19.8837L19.958 23.289C19.9719 23.3081 19.9868 23.3263 20.0025 23.3433C19.4161 23.7846 18.7435 24.0446 18.0478 24.0993C17.352 24.1539 16.6558 24.0013 16.0242 23.6558C15.3925 23.3102 14.8461 22.783 14.4359 22.1233C14.0257 21.4637 13.7652 20.693 13.6787 19.8837H17.5322ZM30.6774 43.4308V44.0345H19.3226V43.4308H30.6774ZM22.0529 42.2233L22.7839 39.8082H27.1516L27.8826 42.2233H22.0529ZM39.9677 36.7894C39.9672 37.2695 39.8039 37.7299 39.5136 38.0694C39.2234 38.4089 38.8299 38.6 38.4194 38.6007H11.5806C11.1702 38.6 10.7766 38.4089 10.4864 38.0694C10.1961 37.7299 10.0328 37.2695 10.0323 36.7894V36.1856H39.9677V36.7894ZM39.9677 34.978H10.0323V19.8837C10.0328 19.4035 10.1961 18.9431 10.4864 18.6036C10.7766 18.264 11.1702 18.073 11.5806 18.0723H12.7168C12.564 18.9494 12.5799 19.8553 12.7633 20.7243C12.9466 21.5934 13.2929 22.4038 13.7769 23.097C14.261 23.7903 14.8707 24.3489 15.5621 24.7326C16.2534 25.1162 17.009 25.3152 17.7742 25.3152C18.5394 25.3152 19.295 25.1162 19.9863 24.7326C20.6776 24.3489 21.2874 23.7903 21.7714 23.097C22.2555 22.4038 22.6018 21.5934 22.7851 20.7243C22.9684 19.8553 22.9844 18.9494 22.8316 18.0723H38.4194C38.8299 18.073 39.2234 18.264 39.5136 18.6036C39.8039 18.9431 39.9672 19.4035 39.9677 19.8837V34.978Z" fill="#FB8D48"/>
<path d="M15.1915 36.7882H11.5786C11.4417 36.7882 11.3105 36.8518 11.2137 36.9651C11.1169 37.0783 11.0625 37.2318 11.0625 37.392C11.0625 37.5522 11.1169 37.7057 11.2137 37.8189C11.3105 37.9322 11.4417 37.9958 11.5786 37.9958H15.1915C15.3284 37.9958 15.4597 37.9322 15.5565 37.8189C15.6533 37.7057 15.7077 37.5522 15.7077 37.392C15.7077 37.2318 15.6533 37.0783 15.5565 36.9651C15.4597 36.8518 15.3284 36.7882 15.1915 36.7882ZM17.256 36.7882H16.7399C16.603 36.7882 16.4718 36.8518 16.375 36.9651C16.2782 37.0783 16.2238 37.2318 16.2238 37.392C16.2238 37.5522 16.2782 37.7057 16.375 37.8189C16.4718 37.9322 16.603 37.9958 16.7399 37.9958H17.256C17.393 37.9958 17.5242 37.9322 17.621 37.8189C17.7178 37.7057 17.7722 37.5522 17.7722 37.392C17.7722 37.2318 17.7178 37.0783 17.621 36.9651C17.5242 36.8518 17.393 36.7882 17.256 36.7882ZM35.8367 20.4863C35.4262 20.487 35.0327 20.678 34.7424 21.0176C34.4521 21.3571 34.2889 21.8174 34.2883 22.2976C34.2879 22.5678 34.3398 22.8346 34.4399 23.078L32.3748 25.4931C32.1666 25.3763 31.9386 25.3165 31.7077 25.3165C31.4768 25.3165 31.2488 25.3771 31.0406 25.4939L28.9761 23.078C29.0762 22.8346 29.1274 22.5678 29.127 22.2976C29.127 21.8172 28.9639 21.3565 28.6735 21.0169C28.3831 20.6771 27.9893 20.4863 27.5786 20.4863C27.168 20.4863 26.7741 20.6771 26.4838 21.0169C26.1933 21.3565 26.0302 21.8172 26.0302 22.2976C26.0298 22.5678 26.0817 22.8346 26.1819 23.078L24.1167 25.4931C23.9086 25.3759 23.6806 25.316 23.4496 25.3165C23.1434 25.3165 22.844 25.4228 22.5894 25.6218C22.3348 25.8208 22.1362 26.1037 22.0191 26.4347C21.9019 26.7657 21.8712 27.1299 21.9309 27.4812C21.9907 27.8326 22.1382 28.1553 22.3547 28.4086C22.5713 28.6619 22.8472 28.8344 23.1475 28.9044C23.4479 28.9742 23.7592 28.9384 24.0421 28.8013C24.325 28.6642 24.5669 28.432 24.737 28.1342C24.9071 27.8363 24.998 27.486 24.998 27.1278C24.9984 26.8576 24.9465 26.5909 24.8464 26.3475L26.9115 23.9324C27.1197 24.0492 27.3477 24.109 27.5786 24.109C27.8095 24.109 28.0375 24.0484 28.2457 23.9316L30.3102 26.3475C30.2101 26.5909 30.1589 26.8576 30.1593 27.1278C30.1593 27.6082 30.3224 28.069 30.6128 28.4086C30.9032 28.7484 31.297 28.9392 31.7077 28.9392C32.1183 28.9392 32.5122 28.7484 32.8025 28.4086C33.093 28.069 33.2561 27.6082 33.2561 27.1278C33.2565 26.8576 33.2046 26.5909 33.1044 26.3475L35.1696 23.9324C35.3777 24.0496 35.6057 24.1095 35.8367 24.109C36.2474 24.109 36.6412 23.9182 36.9316 23.5784C37.222 23.2388 37.3851 22.7781 37.3851 22.2976C37.3851 21.8172 37.222 21.3565 36.9316 21.0169C36.6412 20.6771 36.2474 20.4863 35.8367 20.4863ZM23.4496 27.7316C23.3475 27.7316 23.2477 27.6962 23.1629 27.6299C23.078 27.5635 23.0118 27.4692 22.9728 27.3589C22.9337 27.2486 22.9235 27.1272 22.9434 27.0101C22.9633 26.8929 23.0124 26.7854 23.0847 26.7009C23.1568 26.6165 23.2488 26.5589 23.3489 26.5357C23.449 26.5124 23.5528 26.5244 23.6471 26.57C23.7414 26.6157 23.822 26.6931 23.8788 26.7924C23.9354 26.8916 23.9657 27.0084 23.9657 27.1278C23.9656 27.2879 23.9111 27.4413 23.8144 27.5545C23.7176 27.6678 23.5864 27.7314 23.4496 27.7316ZM27.5786 22.9014C27.4766 22.9014 27.3768 22.866 27.2919 22.7997C27.207 22.7333 27.1409 22.639 27.1018 22.5287C27.0627 22.4184 27.0525 22.297 27.0724 22.1799C27.0923 22.0627 27.1414 21.9552 27.2137 21.8708C27.2859 21.7862 27.3778 21.7287 27.478 21.7055C27.5781 21.6822 27.6819 21.6942 27.7762 21.7399C27.8705 21.7856 27.9511 21.8629 28.0078 21.9622C28.0645 22.0615 28.0948 22.1782 28.0948 22.2976C28.0946 22.4577 28.0402 22.6111 27.9434 22.7243C27.8466 22.8376 27.7155 22.9012 27.5786 22.9014ZM31.7077 27.7316C31.6056 27.7316 31.5058 27.6962 31.4209 27.6299C31.3361 27.5635 31.2699 27.4692 31.2308 27.3589C31.1918 27.2486 31.1815 27.1272 31.2014 27.0101C31.2213 26.8929 31.2705 26.7854 31.3427 26.7009C31.4149 26.6165 31.5068 26.5589 31.607 26.5357C31.7071 26.5124 31.8109 26.5244 31.9052 26.57C31.9995 26.6157 32.0801 26.6931 32.1368 26.7924C32.1935 26.8916 32.2238 27.0084 32.2238 27.1278C32.2236 27.2879 32.1692 27.4413 32.0724 27.5545C31.9756 27.6678 31.8445 27.7314 31.7077 27.7316ZM35.8367 22.9014C35.7346 22.9014 35.6349 22.866 35.55 22.7997C35.4651 22.7333 35.3989 22.639 35.3599 22.5287C35.3208 22.4184 35.3106 22.297 35.3305 22.1799C35.3504 22.0627 35.3995 21.9552 35.4718 21.8708C35.5439 21.7862 35.6359 21.7287 35.736 21.7055C35.8361 21.6822 35.9399 21.6942 36.0342 21.7399C36.1285 21.7856 36.2091 21.8629 36.2659 21.9622C36.3225 22.0615 36.3528 22.1782 36.3528 22.2976C36.3527 22.4577 36.2982 22.6111 36.2015 22.7243C36.1047 22.8376 35.9735 22.9012 35.8367 22.9014ZM15.1915 28.3354H20.3528C20.4897 28.3354 20.621 28.2718 20.7177 28.1585C20.8146 28.0453 20.869 27.8918 20.869 27.7316C20.869 27.5714 20.8146 27.4179 20.7177 27.3047C20.621 27.1914 20.4897 27.1278 20.3528 27.1278H15.1915C15.0546 27.1278 14.9234 27.1914 14.8266 27.3047C14.7298 27.4179 14.6754 27.5714 14.6754 27.7316C14.6754 27.8918 14.7298 28.0453 14.8266 28.1585C14.9234 28.2718 15.0546 28.3354 15.1915 28.3354ZM15.1915 30.1467H20.3528C20.4897 30.1467 20.621 30.0831 20.7177 29.9698C20.8146 29.8566 20.869 29.7031 20.869 29.5429C20.869 29.3828 20.8146 29.2293 20.7177 29.116C20.621 29.0027 20.4897 28.9392 20.3528 28.9392H15.1915C15.0546 28.9392 14.9234 29.0027 14.8266 29.116C14.7298 29.2293 14.6754 29.3828 14.6754 29.5429C14.6754 29.7031 14.7298 29.8566 14.8266 29.9698C14.9234 30.0831 15.0546 30.1467 15.1915 30.1467ZM15.1915 31.958H16.7399C16.8768 31.958 17.0081 31.8945 17.1048 31.7811C17.2017 31.6679 17.256 31.5144 17.256 31.3543C17.256 31.1941 17.2017 31.0406 17.1048 30.9274C17.0081 30.814 16.8768 30.7505 16.7399 30.7505H15.1915C15.0546 30.7505 14.9234 30.814 14.8266 30.9274C14.7298 31.0406 14.6754 31.1941 14.6754 31.3543C14.6754 31.5144 14.7298 31.6679 14.8266 31.7811C14.9234 31.8945 15.0546 31.958 15.1915 31.958Z" fill="#FB8D48"/>
<defs>
<linearGradient id="paint0_linear_1391_292529" x1="25" y1="0.75" x2="25" y2="50.75" gradientUnits="userSpaceOnUse">
<stop stop-color="#E86B31" stop-opacity="0"/>
<stop offset="1" stop-color="#E86B31" stop-opacity="0.28"/>
</linearGradient>
</defs>
</svg>
