<svg width="51" height="51" viewBox="0 0 51 51" fill="none" xmlns="http://www.w3.org/2000/svg">
<path d="M25.5 50.75C39.3071 50.75 50.5 39.5571 50.5 25.75C50.5 11.9429 39.3071 0.75 25.5 0.75C11.6929 0.75 0.5 11.9429 0.5 25.75C0.5 39.5571 11.6929 50.75 25.5 50.75Z" fill="url(#paint0_linear_1391_292557)"/>
<mask id="mask0_1391_292557" style="mask-type:luminance" maskUnits="userSpaceOnUse" x="9" y="10" width="33" height="32">
<path d="M41.5 10H9.5V42H41.5V10Z" fill="white"/>
</mask>
<g mask="url(#mask0_1391_292557)">
<path d="M10.4999 34H14.4999V41C14.4999 41.1326 14.5526 41.2598 14.6463 41.3535C14.7401 41.4474 14.8673 41.5 14.9999 41.5H35.9999C36.1325 41.5 36.2596 41.4474 36.3535 41.3535C36.4472 41.2598 36.4999 41.1326 36.4999 41V34H40.4999C40.5988 34 40.6954 33.9706 40.7776 33.9157C40.8598 33.8607 40.9239 33.7826 40.9617 33.6914C40.9996 33.6 41.0095 33.4994 40.9902 33.4025C40.9709 33.3055 40.9233 33.2164 40.8534 33.1465L36.3534 28.6465C36.2596 28.5527 36.1325 28.5 35.9999 28.5H14.9999C14.8673 28.5 14.7401 28.5527 14.6464 28.6465L10.1464 33.1465C10.0765 33.2164 10.0289 33.3055 10.0096 33.4025C9.99032 33.4994 10.0002 33.6 10.0381 33.6914C10.0759 33.7826 10.14 33.8607 10.2222 33.9157C10.3044 33.9706 10.401 34 10.4999 34ZM15.4999 34H20.9999C21.1325 34 21.2596 33.9473 21.3534 33.8535L24.9999 30.207V40.5H15.4999V34ZM35.4999 40.5H25.9999V30.207L29.6464 33.8535C29.7401 33.9473 29.8673 34 29.9999 34H35.4999V40.5ZM35.7929 29.5L39.2929 33H30.2069L26.7069 29.5H35.7929ZM15.2069 29.5H24.2929L20.7929 33H11.7069L15.2069 29.5ZM17.4179 20.493L18.7119 20.709C18.8777 21.3714 19.1404 22.0058 19.4914 22.5915L18.7294 23.659C18.6606 23.7553 18.6282 23.8728 18.6379 23.9907C18.6476 24.1086 18.6988 24.2193 18.7824 24.303L20.1969 25.7175C20.2805 25.8012 20.3912 25.8525 20.5091 25.8622C20.627 25.8721 20.7446 25.8398 20.8409 25.771L21.9084 25.008C22.494 25.3594 23.1284 25.6222 23.7909 25.788L24.0069 27.0825C24.0264 27.1991 24.0867 27.3051 24.1769 27.3816C24.2672 27.458 24.3816 27.5 24.4999 27.5H26.4999C26.6182 27.5 26.7326 27.458 26.8228 27.3816C26.9132 27.3051 26.9734 27.1991 26.9929 27.0825L27.2089 25.788C27.8714 25.6222 28.5058 25.3594 29.0914 25.008L30.1589 25.771C30.2552 25.8398 30.3728 25.8721 30.4907 25.8622C30.6086 25.8525 30.7192 25.8012 30.8029 25.7175L32.2174 24.303C32.301 24.2193 32.3522 24.1086 32.3619 23.9907C32.3716 23.8728 32.3392 23.7553 32.2704 23.659L31.5084 22.5915C31.8594 22.0058 32.122 21.3714 32.2879 20.709L33.5819 20.493C33.6987 20.4736 33.8047 20.4134 33.8812 20.3231C33.9578 20.2329 33.9998 20.1183 33.9999 20V18C33.9998 17.8816 33.9578 17.7672 33.8812 17.6769C33.8047 17.5866 33.6987 17.5264 33.5819 17.507L32.2879 17.291C32.1223 16.6285 31.8596 15.9942 31.5084 15.4085L32.2704 14.341C32.3392 14.2447 32.3716 14.1272 32.3619 14.0093C32.3522 13.8914 32.301 13.7807 32.2174 13.697L30.8029 12.2825C30.7192 12.1988 30.6086 12.1475 30.4907 12.1377C30.3728 12.1279 30.2552 12.1603 30.1589 12.229L29.0914 12.992C28.5058 12.6405 27.8715 12.3776 27.2089 12.212L26.9929 10.9175C26.9734 10.8008 26.9132 10.6949 26.8228 10.6184C26.7326 10.542 26.6182 10.5 26.4999 10.5H24.4999C24.3816 10.5 24.2672 10.542 24.1769 10.6184C24.0867 10.6949 24.0264 10.8008 24.0069 10.9175L23.7909 12.212C23.1284 12.3776 22.494 12.6405 21.9084 12.992L20.8409 12.229C20.7446 12.1603 20.627 12.1279 20.5091 12.1377C20.3912 12.1475 20.2805 12.1988 20.1969 12.2825L18.7824 13.697C18.6988 13.7807 18.6476 13.8914 18.6379 14.0093C18.6282 14.1272 18.6606 14.2447 18.7294 14.341L19.4914 15.4085C19.1402 15.9942 18.8775 16.6285 18.7119 17.291L17.4179 17.507C17.3011 17.5264 17.1951 17.5866 17.1185 17.6769C17.042 17.7672 16.9999 17.8816 16.9999 18V20C16.9999 20.1183 17.042 20.2329 17.1185 20.3231C17.1951 20.4134 17.3011 20.4736 17.4179 20.493ZM17.9999 18.4235L19.2079 18.2235C19.308 18.2068 19.4007 18.16 19.4736 18.0894C19.5464 18.0187 19.596 17.9275 19.6159 17.828C19.7682 17.0566 20.072 16.3231 20.5099 15.67C20.5665 15.5853 20.5959 15.4853 20.5941 15.3834C20.5923 15.2816 20.5594 15.1827 20.4999 15.1L19.7889 14.104L20.6044 13.289L21.5999 14C21.6825 14.0591 21.7812 14.0916 21.8828 14.0932C21.9843 14.0948 22.084 14.0654 22.1684 14.009C22.8211 13.5715 23.554 13.2678 24.3249 13.1155C24.4245 13.0958 24.5158 13.0462 24.5865 12.9733C24.6572 12.9004 24.7041 12.8077 24.7209 12.7075L24.9234 11.5H26.0764L26.2764 12.7085C26.2932 12.8087 26.34 12.9014 26.4108 12.9743C26.4815 13.0472 26.5728 13.0968 26.6724 13.1165C27.4437 13.2687 28.1772 13.5724 28.8304 14.01C28.9151 14.0665 29.0149 14.0958 29.1167 14.094C29.2184 14.0922 29.3172 14.0594 29.3999 14L30.3964 13.288L31.2119 14.103L30.4999 15.1C30.4408 15.1826 30.4084 15.2813 30.4067 15.3828C30.4051 15.4844 30.4344 15.584 30.4909 15.6685C30.9285 16.3212 31.2324 17.0541 31.3849 17.825C31.4047 17.9245 31.4544 18.0157 31.5272 18.0863C31.6001 18.157 31.6928 18.2038 31.7929 18.2205L33.0009 18.4205V19.5735L31.7929 19.7735C31.6928 19.7902 31.6001 19.837 31.5272 19.9077C31.4544 19.9783 31.4047 20.0694 31.3849 20.169C31.2322 20.94 30.9284 21.673 30.4909 22.326C30.4332 22.411 30.4032 22.5117 30.4048 22.6144C30.4064 22.7171 30.4396 22.8168 30.4999 22.9L31.2119 23.9L30.3964 24.715L29.3999 24C29.3172 23.941 29.2186 23.9084 29.1171 23.9068C29.0155 23.9052 28.9159 23.9346 28.8314 23.991C28.1786 24.4282 27.4456 24.7319 26.6749 24.8845C26.5752 24.9042 26.484 24.9538 26.4132 25.0267C26.3425 25.0996 26.2956 25.1923 26.2789 25.2925L26.0764 26.5H24.9234L24.7234 25.2915C24.7066 25.1914 24.6598 25.0986 24.589 25.0258C24.5183 24.9529 24.427 24.9032 24.3274 24.8835C23.5566 24.7309 22.8237 24.4272 22.1709 23.99C22.086 23.9332 21.9859 23.9037 21.8838 23.9054C21.7817 23.9073 21.6827 23.9402 21.5999 24L20.6034 24.712L19.7879 23.897L20.4999 22.9C20.5588 22.8174 20.5913 22.7189 20.5929 22.6174C20.5945 22.5159 20.5652 22.4164 20.5089 22.332C20.0714 21.679 19.7676 20.946 19.6149 20.175C19.5951 20.0754 19.5454 19.9843 19.4725 19.9137C19.3996 19.843 19.307 19.7962 19.2069 19.7795L17.9999 19.5765V18.4235Z" fill="#FB8D48"/>
<path d="M25.4999 22.9999C26.291 22.9999 27.0644 22.7653 27.7222 22.3258C28.38 21.8862 28.8927 21.2615 29.1954 20.5306C29.4981 19.7998 29.5774 18.9954 29.423 18.2195C29.2687 17.4436 28.8877 16.7309 28.3283 16.1715C27.7689 15.6121 27.0562 15.2311 26.2803 15.0768C25.5044 14.9224 24.7 15.0016 23.9692 15.3044C23.2383 15.6071 22.6136 16.1198 22.174 16.7776C21.7345 17.4354 21.4999 18.2088 21.4999 18.9999C21.5011 20.0604 21.9229 21.0771 22.6728 21.827C23.4227 22.5769 24.4394 22.9987 25.4999 22.9999ZM25.4999 15.9999C26.0932 15.9999 26.6732 16.1758 27.1666 16.5055C27.66 16.8351 28.0444 17.3037 28.2716 17.8518C28.4986 18.4 28.558 19.0032 28.4423 19.5852C28.3265 20.1671 28.0408 20.7017 27.6212 21.1212C27.2016 21.5408 26.6671 21.8265 26.0852 21.9422C25.5032 22.058 24.9 21.9986 24.3518 21.7715C23.8036 21.5445 23.3352 21.1599 23.0055 20.6666C22.6758 20.1733 22.4999 19.5932 22.4999 18.9999C22.5007 18.2045 22.817 17.4419 23.3795 16.8794C23.9419 16.317 24.7045 16.0007 25.4999 15.9999ZM34.4999 14.4999H35.4999V19.9999C35.4999 20.1325 35.5526 20.2597 35.6464 20.3534C35.7401 20.4472 35.8673 20.4999 35.9999 20.4999H38.9999C39.1325 20.4999 39.2596 20.4472 39.3535 20.3534C39.4472 20.2597 39.4999 20.1325 39.4999 19.9999V14.4999H40.4999C40.5988 14.4999 40.6954 14.4705 40.7776 14.4156C40.8598 14.3606 40.9239 14.2826 40.9617 14.1912C40.9996 14.0999 41.0095 13.9994 40.9902 13.9024C40.9709 13.8054 40.9233 13.7163 40.8534 13.6464L37.8534 10.6464C37.7596 10.5527 37.6324 10.5 37.4999 10.5C37.3673 10.5 37.2401 10.5527 37.1464 10.6464L34.1464 13.6464C34.0765 13.7163 34.0289 13.8054 34.0096 13.9024C33.9903 13.9994 34.0002 14.0999 34.038 14.1912C34.0759 14.2826 34.14 14.3606 34.2222 14.4156C34.3044 14.4705 34.401 14.4999 34.4999 14.4999ZM37.4999 11.7069L39.2929 13.4999H38.9999C38.8673 13.4999 38.7401 13.5526 38.6464 13.6463C38.5526 13.7401 38.4999 13.8673 38.4999 13.9999V19.4999H36.4999V13.9999C36.4999 13.8673 36.4472 13.7401 36.3535 13.6463C36.2596 13.5526 36.1325 13.4999 35.9999 13.4999H35.7069L37.4999 11.7069ZM13.1464 27.3534C13.2402 27.4471 13.3673 27.4998 13.4999 27.4998C13.6325 27.4998 13.7596 27.4471 13.8534 27.3534L16.8534 24.3534C16.9233 24.2834 16.9709 24.1944 16.9902 24.0974C17.0095 24.0004 16.9996 23.8999 16.9617 23.8086C16.9239 23.7172 16.8598 23.6391 16.7776 23.5842C16.6954 23.5293 16.5988 23.4999 16.4999 23.4999H15.4999V17.9999C15.4999 17.8673 15.4472 17.7401 15.3534 17.6463C15.2597 17.5526 15.1325 17.4999 14.9999 17.4999H11.9999C11.8673 17.4999 11.7401 17.5526 11.6463 17.6463C11.5526 17.7401 11.4999 17.8673 11.4999 17.9999V23.4999H10.4999C10.401 23.4999 10.3044 23.5293 10.2222 23.5842C10.14 23.6391 10.0759 23.7172 10.0381 23.8086C10.0002 23.8999 9.99032 24.0004 10.0096 24.0974C10.0289 24.1944 10.0765 24.2834 10.1464 24.3534L13.1464 27.3534ZM11.9999 24.4999C12.1325 24.4999 12.2597 24.4472 12.3534 24.3534C12.4472 24.2597 12.4999 24.1325 12.4999 23.9999V18.4999H14.4999V23.9999C14.4999 24.1325 14.5526 24.2597 14.6463 24.3534C14.7401 24.4472 14.8673 24.4999 14.9999 24.4999H15.2929L13.4999 26.2929L11.7069 24.4999H11.9999Z" fill="#FB8D48"/>
</g>
<defs>
<linearGradient id="paint0_linear_1391_292557" x1="25.5" y1="0.75" x2="25.5" y2="50.75" gradientUnits="userSpaceOnUse">
<stop stop-color="#E86B31" stop-opacity="0"/>
<stop offset="1" stop-color="#E86B31" stop-opacity="0.28"/>
</linearGradient>
</defs>
</svg>
