<svg width="50" height="51" viewBox="0 0 50 51" fill="none" xmlns="http://www.w3.org/2000/svg">
<path d="M25 50.75C38.8071 50.75 50 39.5571 50 25.75C50 11.9429 38.8071 0.75 25 0.75C11.1929 0.75 0 11.9429 0 25.75C0 39.5571 11.1929 50.75 25 50.75Z" fill="url(#paint0_linear_1391_292502)"/>
<path d="M13.0469 30.4258V37.6694C13.0469 39.7125 14.6943 41.3694 16.7266 41.3694H25.0892" stroke="#FB8D48" stroke-miterlimit="10" stroke-linecap="round" stroke-linejoin="round"/>
<path d="M13.0469 22.2896V20.9922C13.0469 18.9491 14.6943 17.293 16.7266 17.293H17.6875" stroke="#FB8D48" stroke-miterlimit="10" stroke-linecap="round" stroke-linejoin="round"/>
<path d="M34.3253 24.0078V37.6688C34.3253 38.9356 33.6917 40.0534 32.7266 40.7201" stroke="#FB8D48" stroke-miterlimit="10" stroke-linecap="round" stroke-linejoin="round"/>
<path d="M29.6836 17.293H30.6449C32.6769 17.293 34.3246 18.9494 34.3246 20.9929V22.0687" stroke="#FB8D48" stroke-miterlimit="10" stroke-linecap="round" stroke-linejoin="round"/>
<path d="M26.8118 16.5534C26.318 15.3027 25.1044 14.418 23.6846 14.418C22.2647 14.418 21.0512 15.3027 20.5575 16.5534H19.3724C18.101 16.5534 17.0703 17.5896 17.0703 18.8677C17.0703 20.1459 18.101 21.1821 19.3724 21.1821H27.9968C29.2682 21.1821 30.2989 20.1459 30.2989 18.8677C30.2989 17.5896 29.2682 16.5534 27.9968 16.5534H26.8118Z" stroke="#FB8D48" stroke-miterlimit="10" stroke-linecap="round" stroke-linejoin="round"/>
<path d="M25.0616 17.7999C25.0616 17.0356 24.4453 16.416 23.6852 16.416C22.9248 16.416 22.3086 17.0356 22.3086 17.7999C22.3086 18.5641 22.9248 19.1836 23.6852 19.1836C24.4453 19.1836 25.0616 18.5641 25.0616 17.7999Z" stroke="#FB8D48" stroke-miterlimit="10" stroke-linecap="round" stroke-linejoin="round"/>
<path d="M12.2734 24.2598H13.1741V28.4963" stroke="#FB8D48" stroke-miterlimit="10" stroke-linecap="round" stroke-linejoin="round"/>
<path d="M17.0937 26.3574C17.0937 24.1105 15.2819 22.2891 13.0468 22.2891C10.8118 22.2891 9 24.1105 9 26.3574C9 28.6043 10.8118 30.4258 13.0468 30.4258C15.2819 30.4258 17.0937 28.6043 17.0937 26.3574Z" stroke="#FB8D48" stroke-miterlimit="10" stroke-linecap="round" stroke-linejoin="round"/>
<path d="M22.1899 36.5029C22.1899 36.5029 20.1396 36.5288 20.0425 36.4963C19.9454 36.4638 20.1982 36.2919 21.5424 34.361C21.7935 34.0004 21.9317 33.6962 21.9905 33.4413L22.0113 33.2774C22.0113 32.6787 21.5285 32.1934 20.933 32.1934C20.409 32.1934 19.9724 32.5692 19.875 33.0673" stroke="#FB8D48" stroke-miterlimit="10" stroke-linecap="round" stroke-linejoin="round"/>
<path d="M18.5265 37.549C19.2396 38.1155 20.1222 38.423 21.0311 38.4216C23.2666 38.4216 25.0784 36.6001 25.0784 34.3534C25.0784 32.1066 23.2666 30.2852 21.0311 30.2852C18.7962 30.2852 16.9844 32.1066 16.9844 34.3534C16.9844 34.9612 17.117 35.5373 17.3546 36.0551" stroke="#FB8D48" stroke-miterlimit="10" stroke-linecap="round" stroke-linejoin="round"/>
<path d="M27.985 41.1161C28.0823 40.618 28.5191 40.2422 29.0431 40.2422C29.6386 40.2422 30.1213 40.7275 30.1213 41.3262C30.1213 41.9249 29.6386 42.4102 29.0431 42.4102C29.6386 42.4102 30.1213 42.8956 30.1213 43.4943C30.1213 44.093 29.6386 44.5783 29.0431 44.5783C28.4986 44.5783 28.0483 44.1726 27.9752 43.6455C27.9683 43.5953 27.9648 43.5448 27.9648 43.4943" stroke="#FB8D48" stroke-miterlimit="10" stroke-linecap="round" stroke-linejoin="round"/>
<path d="M33.0624 42.3496C33.0624 40.1028 31.2505 38.2812 29.0156 38.2812C26.7806 38.2812 24.9688 40.1028 24.9688 42.3496C24.9688 44.5965 26.7806 46.418 29.0156 46.418C31.2505 46.418 33.0624 44.5965 33.0624 42.3496Z" stroke="#FB8D48" stroke-miterlimit="10" stroke-linecap="round" stroke-linejoin="round"/>
<path d="M19.875 25.1309H27.3804" stroke="#FB8D48" stroke-miterlimit="10" stroke-linecap="round" stroke-linejoin="round"/>
<path d="M19.875 27.584H24.8832" stroke="#FB8D48" stroke-miterlimit="10" stroke-linecap="round" stroke-linejoin="round"/>
<path d="M26.543 33.127H32.5668" stroke="#FB8D48" stroke-miterlimit="10" stroke-linecap="round" stroke-linejoin="round"/>
<path d="M26.543 35.5801H30.0697" stroke="#FB8D48" stroke-miterlimit="10" stroke-linecap="round" stroke-linejoin="round"/>
<path d="M35.3477 41.123H40.999" stroke="#FB8D48" stroke-miterlimit="10" stroke-linecap="round" stroke-linejoin="round"/>
<path d="M35.3477 43.5762H38.5019" stroke="#FB8D48" stroke-miterlimit="10" stroke-linecap="round" stroke-linejoin="round"/>
<defs>
<linearGradient id="paint0_linear_1391_292502" x1="25" y1="0.75" x2="25" y2="50.75" gradientUnits="userSpaceOnUse">
<stop stop-color="#E86B31" stop-opacity="0"/>
<stop offset="1" stop-color="#E86B31" stop-opacity="0.28"/>
</linearGradient>
</defs>
</svg>
