<svg width="266" height="86" viewBox="0 0 266 86" fill="none" xmlns="http://www.w3.org/2000/svg">
<g clip-path="url(#clip0_1571_49725)">
<path d="M56.0672 53.791L60.4994 51.209V54.8175L59.2286 55.5594L46.3097 63.0857L41.6532 65.7954L38.6473 67.5481L37.5298 68.2003L35.9769 69.1036L32.8777 70.91L32.4889 70.6904L29.7163 69.1394H29.714L27.1747 67.7184L25.1152 66.5686V63.0319L26.8837 64.0203L30.2717 65.9164L32.4889 67.1536L32.8132 67.3329L35.4859 65.7797L37.5298 64.5873L38.4918 64.027L43.1461 61.315L56.0672 53.791Z" fill="white"/>
<path d="M48.7602 64.4551L60.4994 57.6191V61.4518L52.1216 66.3333L47.4628 69.0453L44.4569 70.798L41.7865 72.3512L38.6873 74.1577L37.5298 74.8324L35.9302 75.7625L32.951 77.4995L32.4889 77.2395L29.5919 75.6213L27.1414 74.2496L25.1152 73.1178V69.7155L26.957 70.7442L30.1206 72.5126L32.4889 73.8372L32.5711 73.8843L35.3281 72.2773L37.5298 70.9975L38.4273 70.4753L41.0978 68.9176L44.1036 67.1671L48.7602 64.4551Z" fill="white"/>
<path d="M24.3716 7.66016L24.3827 7.66464V72.8507L23.3119 72.2501L20.7703 70.8313L17.3823 68.9352L13.1812 66.5863V25.0997L10.7107 26.5387L0.5 32.4871V21.5652L13.1812 14.1779L19.6284 10.4237L24.3716 7.66016Z" fill="white"/>
<path d="M60.4994 26.6627V13.9075L46.0854 5.84775L37.5298 1.06257L36.5212 0.5L32.4889 2.84665L25.1152 7.14323V50.5304L32.4889 54.6522L32.9088 54.8875H32.911L37.5298 52.1979L45.8321 47.3612L37.5298 42.7194V37.3291L39.907 38.6582L50.5575 44.6111L54.8631 47.0205L50.1421 49.7706H50.1399L37.532 57.1153L37.2188 57.2991L32.5644 60.0111L32.4911 59.9708L28.2589 57.604L25.1197 55.849V59.2827L25.253 59.3567L29.5607 61.7661L32.4933 63.4067L32.951 63.6622L35.9569 61.9117L37.5342 60.9928L40.6112 59.1998L53.5345 51.6735L58.2555 48.9234L60.5038 47.6122V34.4715L53.6723 30.65L58.4155 27.8865L60.5038 26.6695L60.4994 26.6627ZM50.2998 28.7561L37.5298 21.6153V16.2026L55.043 25.9948L50.2998 28.7561Z" fill="white"/>
</g>
<path d="M90.5 41.5V18.7H81.26V13.5H105.34V18.7H92.1V19.82H96.1V41.5H90.5ZM115.686 25.46L124.966 23.86V29.06L115.686 30.66V40.5H116.806V36.3H128.606V41.5H110.086V13.5H128.606V18.7H111.686V19.82H115.686V25.46ZM148.419 23.74V20.94C148.419 19.42 147.659 18.7 146.179 18.7H141.979C140.499 18.7 139.739 19.46 139.739 20.94V34.06C139.739 35.54 140.499 36.3 141.979 36.3H146.179C147.659 36.3 148.419 35.58 148.419 34.06V31.26L154.059 34.06V35.26C154.059 39.46 151.859 41.5 147.819 41.5H140.379C136.179 41.5 134.139 39.46 134.139 35.26V19.74C134.139 15.54 136.179 13.5 140.379 13.5H147.819C152.019 13.5 154.059 15.54 154.059 19.74V20.94L148.419 23.74ZM179.329 13.5V41.5H173.729V28.74L177.729 26.58V25.46L173.729 27.62L165.569 31.46V41.5H159.969V13.5H165.569V24.94L161.569 27.1V28.22L165.569 26.06L173.729 22.22V13.5H179.329ZM85.34 65.5H80.1V71.18H76.1V72.3H85.34C86.78 72.3 87.46 71.58 87.46 70.18V67.62C87.46 66.22 86.78 65.5 85.34 65.5ZM85.66 54.7H76.1V55.82H80.1V60.3H85.66C86.86 60.3 87.42 59.7 87.42 58.54V56.46C87.42 55.3 86.86 54.7 85.66 54.7ZM74.5 77.5V49.5H87.22C91.1 49.5 93.02 51.38 93.02 55.26V56.54C93.02 60.42 91.1 62.34 87.22 62.34H83.3V63.46H86.9C91.02 63.46 93.06 65.46 93.06 69.58V71.34C93.06 75.46 91.02 77.5 86.9 77.5H74.5ZM104.592 49.5V70.06C104.592 71.58 105.312 72.3 106.832 72.3H112.272C113.792 72.3 114.512 71.54 114.512 70.06V49.5H120.112V71.26C120.112 75.46 118.072 77.5 113.872 77.5H105.232C101.032 77.5 98.9922 75.46 98.9922 71.26V49.5H104.592ZM133.694 49.5V77.5H128.094V49.5H133.694ZM148.408 72.3H160.208V77.5H141.688V49.5H147.288V76.5H148.408V72.3ZM177.489 54.7H166.569V55.82H170.569V71.18H166.569V72.3H177.489C178.969 72.3 179.729 71.54 179.729 70.06V56.94C179.729 55.46 178.969 54.7 177.489 54.7ZM164.969 77.5V49.5H179.089C183.289 49.5 185.329 51.54 185.329 55.74V71.26C185.329 75.46 183.289 77.5 179.089 77.5H164.969ZM198.538 61.46L207.818 59.86V65.06L198.538 66.66V76.5H199.658V72.3H211.458V77.5H192.938V49.5H211.458V54.7H194.538V55.82H198.538V61.46ZM228.911 54.7H222.991V61.46H218.991V62.58H228.911C230.391 62.58 231.151 61.86 231.151 60.34V56.94C231.151 55.42 230.391 54.7 228.911 54.7ZM217.391 77.5V49.5H222.991L230.511 49.54C234.671 49.58 236.751 51.66 236.751 55.82V58.38C236.751 62.54 234.671 64.62 230.511 64.62H226.191V65.74H230.511C234.671 65.74 236.751 67.82 236.751 71.98V77.5H231.151V70.02C231.151 68.54 230.391 67.78 228.911 67.78H218.991V68.9H222.991V77.5H217.391ZM247.464 67.9V70.06C247.464 71.54 248.224 72.3 249.704 72.3H254.904C256.104 72.3 256.704 71.7 256.704 70.5V68.5C256.704 67.34 256.104 66.7 254.944 66.54L247.304 65.54C243.664 65.06 241.864 62.98 241.864 59.26V55.74C241.864 51.54 243.904 49.5 248.104 49.5H255.984C259.704 49.5 261.504 51.3 261.504 55.02V55.94L255.904 58.74V56.94C255.904 55.42 255.184 54.7 253.664 54.7H249.264C248.064 54.7 247.464 55.3 247.464 56.5V58.54C247.464 59.74 248.064 60.46 249.264 60.62L256.864 61.58C260.504 62.06 262.304 64.14 262.304 67.86V71.26C262.304 75.46 260.264 77.5 256.064 77.5H247.384C243.704 77.5 241.864 75.66 241.864 71.98V70.66L247.464 67.9Z" fill="white"/>
<defs>
<clipPath id="clip0_1571_49725">
<rect width="60" height="77" fill="white" transform="translate(0.5 0.5)"/>
</clipPath>
</defs>
</svg>
