<svg width="545" height="354" viewBox="0 0 545 354" fill="none" xmlns="http://www.w3.org/2000/svg">
<g opacity="0.5">
<path opacity="0.58" d="M119.31 224.949V202.394L103.951 219.113V246.915H94.0557V207.071H91.5397L84.3748 200.402L77.1712 207.071H74.6968V260.842H54.9124H38.2891V313.618H143.303V224.949H119.31ZM91.5397 239.246H77.2127V237.788H91.5397V239.246ZM91.5397 236.336H77.2127V234.879H91.5397V236.336ZM91.5397 233.428H77.2127V231.973H91.5397V233.428ZM91.5397 230.518H77.2127V229.064H91.5397V230.518ZM91.5397 227.612H77.2127V226.154H91.5397V227.612ZM91.5397 224.703H77.2127V223.246H91.5397V224.703ZM91.5397 221.794H77.2127V220.34H91.5397V221.794ZM91.5397 218.885H77.2127V217.43H91.5397V218.885ZM91.5397 215.976H77.2127V214.522H91.5397V215.976ZM91.5397 213.069H77.2127V211.612H91.5397V213.069ZM91.5397 210.161H77.2127V208.706H91.5397V210.161ZM117.361 281.012H115.874V209.432L117.361 207.808V281.012Z" fill="#E86B31"/>
<path opacity="0.6" d="M227.768 224.949V202.394L212.41 219.113V246.915H202.515V207.071H199.999L192.834 200.402L185.63 207.071H183.156V260.842H163.37H146.748V313.618H251.762V224.949H227.768ZM199.999 239.246H185.672V237.788H199.999V239.246ZM199.999 236.336H185.672V234.879H199.999V236.336ZM199.999 233.428H185.672V231.973H199.999V233.428ZM199.999 230.518H185.672V229.064H199.999V230.518ZM199.999 227.612H185.672V226.154H199.999V227.612ZM199.999 224.703H185.672V223.246H199.999V224.703ZM199.999 221.794H185.672V220.34H199.999V221.794ZM199.999 218.885H185.672V217.43H199.999V218.885ZM199.999 215.976H185.672V214.522H199.999V215.976ZM199.999 213.069H185.672V211.612H199.999V213.069ZM199.999 210.161H185.672V208.706H199.999V210.161ZM225.82 281.012H224.333V209.432L225.82 207.808V281.012Z" fill="#E86B31"/>
<path opacity="0.29" d="M188.569 262.84V211.861H186.263V206.702H168.421V211.861H166.129V275.949H149.384V246.926H125.002V285.012H113.221V216.791H89.2034V269.205H86.3847V238.004H82.0403L69.9284 231.633V238.004H67.2796V276.538H61.3985V224.355H55.451V206.049H54.637V224.355H48.6895V313.731H203.596V262.841H188.569V262.84ZM59.9652 257.885H50.1523V256.75H59.9652V257.885ZM59.9652 255.261H50.1523V254.127H59.9652V255.261ZM59.9652 252.633H50.1523V251.499H59.9652V252.633ZM59.9652 250.009H50.1523V248.875H59.9652V250.009ZM59.9652 247.385H50.1523V246.25H59.9652V247.385ZM59.9652 244.757H50.1523V243.623H59.9652V244.757ZM59.9652 242.133H50.1523V240.998H59.9652V242.133ZM59.9652 239.508H50.1523V238.374H59.9652V239.508ZM59.9652 236.881H50.1523V235.746H59.9652V236.881ZM59.9652 234.256H50.1523V233.122H59.9652V234.256ZM59.9652 231.633H50.1523V230.498H59.9652V231.633ZM59.9652 229.004H50.1523V227.87H59.9652V229.004ZM59.9652 226.38H50.1523V225.245H59.9652V226.38ZM94.3784 242.008H91.4563V239.101H94.3784V242.008ZM94.3784 237.159H91.4563V234.249H94.3784V237.159ZM94.3784 232.307H91.4563V229.401H94.3784V232.307ZM94.3784 227.459H91.4563V224.549H94.3784V227.459ZM94.3784 222.607H91.4563V219.697H94.3784V222.607ZM99.9272 242.008H97.0088V239.101H99.9272V242.008ZM99.9272 237.159H97.0088V234.249H99.9272V237.159ZM99.9272 232.307H97.0088V229.401H99.9272V232.307ZM99.9272 227.459H97.0088V224.549H99.9272V227.459ZM99.9272 222.607H97.0088V219.697H99.9272V222.607ZM105.481 242.008H102.558V239.101H105.481V242.008ZM105.481 237.159H102.558V234.249H105.481V237.159ZM105.481 232.307H102.558V229.401H105.481V232.307ZM105.481 227.459H102.558V224.549H105.481V227.459ZM105.481 222.607H102.558V219.697H105.481V222.607ZM111.029 242.008H108.111V239.101H111.029V242.008ZM111.029 237.159H108.111V234.249H111.029V237.159ZM111.029 232.307H108.111V229.401H111.029V232.307ZM111.029 227.459H108.111V224.549H111.029V227.459ZM190.868 286.832H187.832V283.808H190.868V286.832ZM190.868 280.776H187.832V277.751H190.868V280.776ZM190.868 274.72H187.832V271.696H190.868V274.72ZM190.868 268.664H187.832V265.64H190.868V268.664ZM196.503 286.832H193.467V283.808H196.503V286.832ZM196.503 280.776H193.467V277.751H196.503V280.776ZM196.503 274.72H193.467V271.696H196.503V274.72ZM196.503 268.664H193.467V265.64H196.503V268.664ZM202.137 286.832H199.097V283.808H202.137V286.832ZM202.137 280.776H199.097V277.751H202.137V280.776ZM202.137 274.72H199.097V271.696H202.137V274.72ZM202.137 268.664H199.097V265.64H202.137V268.664Z" fill="#E86B31"/>
<path opacity="0.41" d="M259.818 257.423V211.861H257.512V206.702H239.67V211.861H237.378V275.95H220.633V246.926H196.251V285.012H184.47V216.791H160.452V269.205H157.634V238.004H153.289L141.177 231.633V238.004H138.528V276.538H132.647V224.355H126.699V206.049H125.885V224.355H119.938V313.731H274.844V257.425H259.818V257.423ZM131.214 257.884H121.401V256.749H131.214V257.884ZM131.214 255.26H121.401V254.126H131.214V255.26ZM131.214 252.632H121.401V251.498H131.214V252.632ZM131.214 250.008H121.401V248.874H131.214V250.008ZM131.214 247.384H121.401V246.249H131.214V247.384ZM131.214 244.756H121.401V243.622H131.214V244.756ZM131.214 242.132H121.401V240.997H131.214V242.132ZM131.214 239.507H121.401V238.373H131.214V239.507ZM131.214 236.88H121.401V235.745H131.214V236.88ZM131.214 234.255H121.401V233.121H131.214V234.255ZM131.214 231.632H121.401V230.497H131.214V231.632ZM131.214 229.003H121.401V227.869H131.214V229.003ZM131.214 226.379H121.401V225.244H131.214V226.379ZM165.627 242.007H162.705V239.1H165.627V242.007ZM165.627 237.158H162.705V234.248H165.627V237.158ZM165.627 232.306H162.705V229.4H165.627V232.306ZM165.627 227.458H162.705V224.548H165.627V227.458ZM165.627 222.606H162.705V219.696H165.627V222.606ZM171.176 242.007H168.258V239.1H171.176V242.007ZM171.176 237.158H168.258V234.248H171.176V237.158ZM171.176 232.306H168.258V229.4H171.176V232.306ZM171.176 227.458H168.258V224.548H171.176V227.458ZM171.176 222.606H168.258V219.696H171.176V222.606ZM176.73 242.007H173.807V239.1H176.73V242.007ZM176.73 237.158H173.807V234.248H176.73V237.158ZM176.73 232.306H173.807V229.4H176.73V232.306ZM176.73 227.458H173.807V224.548H176.73V227.458ZM176.73 222.606H173.807V219.696H176.73V222.606ZM182.279 242.007H179.361V239.1H182.279V242.007ZM182.279 237.158H179.361V234.248H182.279V237.158ZM182.279 232.306H179.361V229.4H182.279V232.306ZM182.279 227.458H179.361V224.548H182.279V227.458ZM263.658 278.803H261.037V276.192H263.658V278.803ZM263.658 273.575H261.037V270.964H263.658V273.575ZM263.658 268.347H261.037V265.736H263.658V268.347ZM263.658 263.119H261.037V260.508H263.658V263.119ZM268.522 278.803H265.901V276.192H268.522V278.803ZM268.522 273.575H265.901V270.964H268.522V273.575ZM268.522 268.347H265.901V265.736H268.522V268.347ZM268.522 263.119H265.901V260.508H268.522V263.119ZM273.386 278.803H270.761V276.192H273.386V278.803ZM273.386 273.575H270.761V270.964H273.386V273.575ZM273.386 268.347H270.761V265.736H273.386V268.347ZM273.386 263.119H270.761V260.508H273.386V263.119Z" fill="#E86B31"/>
<path opacity="0.59" d="M352.127 224.949V202.394L336.768 219.113V246.915H326.873V207.071H324.357L317.192 200.402L309.989 207.071H307.514V260.842H287.73H271.107V313.618H376.121V224.949H352.127ZM324.357 239.246H310.03V237.788H324.357V239.246ZM324.357 236.336H310.03V234.879H324.357V236.336ZM324.357 233.428H310.03V231.973H324.357V233.428ZM324.357 230.518H310.03V229.064H324.357V230.518ZM324.357 227.612H310.03V226.154H324.357V227.612ZM324.357 224.703H310.03V223.246H324.357V224.703ZM324.357 221.794H310.03V220.34H324.357V221.794ZM324.357 218.885H310.03V217.43H324.357V218.885ZM324.357 215.976H310.03V214.522H324.357V215.976ZM324.357 213.069H310.03V211.612H324.357V213.069ZM324.357 210.161H310.03V208.706H324.357V210.161ZM350.179 281.012H348.693V209.432L350.179 207.808V281.012Z" fill="#E86B31"/>
<path opacity="0.42" d="M460.589 224.949V202.394L445.23 219.113V246.915H435.335V207.071H432.819L425.654 200.402L418.45 207.071H415.976V260.842H396.192H379.568V313.618H484.582V224.949H460.589ZM432.819 239.246H418.492V237.788H432.819V239.246ZM432.819 236.336H418.492V234.879H432.819V236.336ZM432.819 233.428H418.492V231.973H432.819V233.428ZM432.819 230.518H418.492V229.064H432.819V230.518ZM432.819 227.612H418.492V226.154H432.819V227.612ZM432.819 224.703H418.492V223.246H432.819V224.703ZM432.819 221.794H418.492V220.34H432.819V221.794ZM432.819 218.885H418.492V217.43H432.819V218.885ZM432.819 215.976H418.492V214.522H432.819V215.976ZM432.819 213.069H418.492V211.612H432.819V213.069ZM432.819 210.161H418.492V208.706H432.819V210.161ZM458.641 281.012H457.154V209.432L458.641 207.808V281.012Z" fill="#E86B31"/>
<path opacity="0.6" d="M421.394 262.84V211.861H419.087V206.702H401.246V211.861H398.953V275.949H382.21V246.926H357.827V285.012H346.046V216.791H322.029V269.205H319.21V238.004H314.865L302.754 231.633V238.004H300.104V276.538H294.223V224.355H288.275V206.049H287.461V224.355H281.514V313.731H436.42V262.841H421.394V262.84ZM292.79 257.885H282.977V256.75H292.79V257.885ZM292.79 255.261H282.977V254.127H292.79V255.261ZM292.79 252.633H282.977V251.499H292.79V252.633ZM292.79 250.009H282.977V248.875H292.79V250.009ZM292.79 247.385H282.977V246.25H292.79V247.385ZM292.79 244.757H282.977V243.623H292.79V244.757ZM292.79 242.133H282.977V240.998H292.79V242.133ZM292.79 239.508H282.977V238.374H292.79V239.508ZM292.79 236.881H282.977V235.746H292.79V236.881ZM292.79 234.256H282.977V233.122H292.79V234.256ZM292.79 231.633H282.977V230.498H292.79V231.633ZM292.79 229.004H282.977V227.87H292.79V229.004ZM292.79 226.38H282.977V225.245H292.79V226.38ZM327.203 242.008H324.281V239.101H327.203V242.008ZM327.203 237.159H324.281V234.249H327.203V237.159ZM327.203 232.307H324.281V229.401H327.203V232.307ZM327.203 227.459H324.281V224.549H327.203V227.459ZM327.203 222.607H324.281V219.697H327.203V222.607ZM332.751 242.008H329.833V239.101H332.751V242.008ZM332.751 237.159H329.833V234.249H332.751V237.159ZM332.751 232.307H329.833V229.401H332.751V232.307ZM332.751 227.459H329.833V224.549H332.751V227.459ZM332.751 222.607H329.833V219.697H332.751V222.607ZM338.305 242.008H335.383V239.101H338.305V242.008ZM338.305 237.159H335.383V234.249H338.305V237.159ZM338.305 232.307H335.383V229.401H338.305V232.307ZM338.305 227.459H335.383V224.549H338.305V227.459ZM338.305 222.607H335.383V219.697H338.305V222.607ZM343.854 242.008H340.936V239.101H343.854V242.008ZM343.854 237.159H340.936V234.249H343.854V237.159ZM343.854 232.307H340.936V229.401H343.854V232.307ZM343.854 227.459H340.936V224.549H343.854V227.459ZM423.694 286.832H420.657V283.808H423.694V286.832ZM423.694 280.776H420.657V277.751H423.694V280.776ZM423.694 274.72H420.657V271.696H423.694V274.72ZM423.694 268.664H420.657V265.64H423.694V268.664ZM429.327 286.832H426.291V283.808H429.327V286.832ZM429.327 280.776H426.291V277.751H429.327V280.776ZM429.327 274.72H426.291V271.696H429.327V274.72ZM429.327 268.664H426.291V265.64H429.327V268.664ZM434.962 286.832H431.922V283.808H434.962V286.832ZM434.962 280.776H431.922V277.751H434.962V280.776ZM434.962 274.72H431.922V271.696H434.962V274.72ZM434.962 268.664H431.922V265.64H434.962V268.664Z" fill="#E86B31"/>
<path opacity="0.64" d="M492.639 257.423V211.861H490.332V206.702H472.491V211.861H470.198V275.95H453.454V246.926H429.071V285.012H417.291V216.791H393.273V269.205H390.454V238.004H386.11L373.998 231.633V238.004H371.348V276.538H365.467V224.355H359.519V206.049H358.705V224.355H352.758V313.731H507.665V257.425H492.639V257.423ZM364.034 257.884H354.222V256.749H364.034V257.884ZM364.034 255.26H354.222V254.126H364.034V255.26ZM364.034 252.632H354.222V251.498H364.034V252.632ZM364.034 250.008H354.222V248.874H364.034V250.008ZM364.034 247.384H354.222V246.249H364.034V247.384ZM364.034 244.756H354.222V243.622H364.034V244.756ZM364.034 242.132H354.222V240.997H364.034V242.132ZM364.034 239.507H354.222V238.373H364.034V239.507ZM364.034 236.88H354.222V235.745H364.034V236.88ZM364.034 234.255H354.222V233.121H364.034V234.255ZM364.034 231.632H354.222V230.497H364.034V231.632ZM364.034 229.003H354.222V227.869H364.034V229.003ZM364.034 226.379H354.222V225.244H364.034V226.379ZM398.447 242.007H395.525V239.1H398.447V242.007ZM398.447 237.158H395.525V234.248H398.447V237.158ZM398.447 232.306H395.525V229.4H398.447V232.306ZM398.447 227.458H395.525V224.548H398.447V227.458ZM398.447 222.606H395.525V219.696H398.447V222.606ZM403.996 242.007H401.077V239.1H403.996V242.007ZM403.996 237.158H401.077V234.248H403.996V237.158ZM403.996 232.306H401.077V229.4H403.996V232.306ZM403.996 227.458H401.077V224.548H403.996V227.458ZM403.996 222.606H401.077V219.696H403.996V222.606ZM409.549 242.007H406.627V239.1H409.549V242.007ZM409.549 237.158H406.627V234.248H409.549V237.158ZM409.549 232.306H406.627V229.4H409.549V232.306ZM409.549 227.458H406.627V224.548H409.549V227.458ZM409.549 222.606H406.627V219.696H409.549V222.606ZM415.099 242.007H412.18V239.1H415.099V242.007ZM415.099 237.158H412.18V234.248H415.099V237.158ZM415.099 232.306H412.18V229.4H415.099V232.306ZM415.099 227.458H412.18V224.548H415.099V227.458ZM496.477 278.803H493.856V276.192H496.477V278.803ZM496.477 273.575H493.856V270.964H496.477V273.575ZM496.477 268.347H493.856V265.736H496.477V268.347ZM496.477 263.119H493.856V260.508H496.477V263.119ZM501.342 278.803H498.721V276.192H501.342V278.803ZM501.342 273.575H498.721V270.964H501.342V273.575ZM501.342 268.347H498.721V265.736H501.342V268.347ZM501.342 263.119H498.721V260.508H501.342V263.119ZM506.206 278.803H503.581V276.192H506.206V278.803ZM506.206 273.575H503.581V270.964H506.206V273.575ZM506.206 268.347H503.581V265.736H506.206V268.347ZM506.206 263.119H503.581V260.508H506.206V263.119Z" fill="#E86B31"/>
<path d="M447.291 252.002H430.062V313.729H447.291V252.002Z" fill="#E86B31"/>
<path d="M543.908 314.696H0.591357C0.252634 314.696 -0.0214844 314.467 -0.0214844 314.185C-0.0214844 313.903 0.252634 313.674 0.591357 313.674H543.907C544.245 313.674 544.52 313.903 544.52 314.185C544.52 314.467 544.246 314.696 543.908 314.696Z" fill="#E86B31"/>
</g>
<path d="M210.199 206.701C214.474 207.17 218.238 208.102 221.493 209.497C224.746 210.895 227.442 212.748 229.581 215.06C231.717 217.373 233.242 220.192 234.152 223.52C235.063 226.848 235.283 230.639 234.813 234.891C234.205 240.389 232.695 244.844 230.287 248.252C227.877 251.661 224.721 254.117 220.819 255.618L229.973 283.114C230.119 283.574 230.171 283.989 230.131 284.356C230.058 285.015 229.784 285.562 229.31 285.991C228.836 286.423 228.308 286.604 227.726 286.541L214.513 285.091C213.216 284.949 212.33 284.517 211.853 283.798C211.375 283.078 211.01 282.369 210.76 281.674L202.578 256.956L193.639 255.976L191.037 279.511C190.948 280.318 190.612 280.986 190.029 281.516C189.444 282.046 188.797 282.272 188.086 282.192L175.358 280.796C174.645 280.718 174.062 280.359 173.609 279.714C173.155 279.072 172.974 278.346 173.063 277.539L180.918 206.495C181.008 205.689 181.343 205.021 181.926 204.491C182.508 203.961 183.156 203.735 183.87 203.814L210.199 206.701ZM195.535 238.819L206.513 240.023C209.234 240.322 211.548 239.983 213.46 239.004C215.371 238.026 216.497 235.997 216.838 232.918C217.178 229.839 216.522 227.615 214.871 226.246C213.218 224.879 211.033 224.044 208.313 223.745L197.335 222.541L195.535 238.819Z" fill="url(#paint0_linear_1391_351889)"/>
<path d="M324.329 48.653H323.728L304.562 24.1035L285.956 48.653H284.946H210.174L170.531 87.7512H209.63V97.0075L211.476 97.0093V87.7512H247.578L247.678 87.8505L247.778 87.7512H248.643L248.742 87.8505L248.842 87.7512H284.944V312.824H324.327V87.7512H360.431L360.53 87.8505L360.63 87.7512H361.562L401.204 48.653H324.329ZM175.019 85.9126L209.63 51.7759V85.9126H175.019ZM246.104 50.4916L229.442 67.0866L212.781 50.4916H246.104ZM211.476 51.7915L228.137 68.3864L211.476 84.9814V51.7915ZM213.152 85.9126L229.442 69.6863L245.732 85.9126H213.152ZM247.168 84.7424L230.747 68.3873L247.168 52.0323V84.7424ZM283.641 50.4916L266.98 67.0866L250.319 50.4916H283.641ZM249.014 51.7915L265.675 68.3864L249.014 84.9814V51.7915ZM250.69 85.9126L266.98 69.6863L283.27 85.9126H250.69ZM284.946 84.9814L268.285 68.3864L284.946 51.7915V84.9814ZM304.584 27.1261L321.391 48.653H288.268L304.584 27.1261ZM321.113 50.4916L304.605 66.934L288.096 50.4916H321.113ZM288.337 272.035L304.606 255.831L320.875 272.035H288.337ZM321.288 273.873L304.605 290.49L287.922 273.873H321.288ZM288.009 236.701H321.2L304.605 253.231L288.009 236.701ZM288.249 234.863L304.605 218.571L320.961 234.863H288.249ZM288.097 199.529H321.114L304.606 215.972L288.097 199.529ZM288.162 197.69L304.605 181.312L321.049 197.69H288.162ZM288.185 162.357H321.026L304.606 178.712L288.185 162.357ZM288.075 160.518L304.606 144.053L321.137 160.518H288.075ZM288.097 125.011H321.114L304.606 141.453L288.097 125.011ZM288.162 123.172L304.605 106.794L321.049 123.172H288.162ZM288.097 87.7512H321.114L304.606 104.194L288.097 87.7512ZM288.162 85.9126L304.605 69.5346L321.049 85.9126H288.162ZM286.792 51.7915L303.301 68.2338L286.792 84.6771V51.7915ZM286.792 89.0511L303.301 105.493L286.792 121.937V89.0511ZM286.792 126.311L303.301 142.753L286.792 159.196V126.311ZM286.792 163.569L303.301 180.012L286.792 196.454V163.569ZM286.792 200.829L303.301 217.272L286.792 233.715V200.829ZM286.792 238.088L303.301 254.531L286.792 270.974V238.088ZM286.792 275.347L303.301 291.789L286.792 308.232V275.347ZM322.483 310.985H286.792V310.832L304.606 293.089L322.483 310.896V310.985ZM322.483 308.296L305.911 291.789L322.483 275.283V308.296ZM322.483 271.037L305.911 254.531L322.483 238.024V271.037ZM322.483 233.779L305.911 217.272L322.483 200.764V233.779ZM322.483 196.518L305.911 180.012L322.483 163.505V196.518ZM322.483 159.26L305.911 142.753L322.483 126.246V159.26ZM322.483 122L305.911 105.493L322.483 88.9858V122ZM322.483 84.7414L305.911 68.2347L322.483 51.728V84.7414ZM358.957 50.4916L342.295 67.0866L325.634 50.4916H358.957ZM324.329 51.7915L340.99 68.3864L324.329 84.9814V51.7915ZM326.004 85.9126L342.295 69.6863L358.586 85.9126H326.004ZM360.262 84.9814L343.601 68.3864L360.262 51.7915V84.9814ZM362.108 50.4916H396.719L362.108 84.6274V50.4916Z" fill="#E86B31"/>
<path d="M209.63 159.454C207.337 159.454 205.471 157.595 205.471 155.311V92.8902C205.471 90.6049 207.337 88.7461 209.63 88.7461C211.924 88.7461 213.79 90.6049 213.79 92.8902V155.311C213.791 157.595 211.925 159.454 209.63 159.454ZM209.63 89.4346C207.718 89.4346 206.163 90.9845 206.163 92.8893V155.31C206.163 157.214 207.719 158.763 209.63 158.763C211.543 158.763 213.098 157.214 213.098 155.31V92.8893C213.099 90.9845 211.543 89.4346 209.63 89.4346Z" fill="#E6F8FF"/>
<path d="M209.628 159.111C207.53 159.111 205.814 157.401 205.814 155.311V144.637C205.814 142.548 207.531 140.838 209.628 140.838C211.726 140.838 213.443 142.548 213.443 144.637V155.311C213.443 157.401 211.726 159.111 209.628 159.111Z" fill="#E86B31"/>
<path d="M209.622 174.535C209.365 174.535 209.103 174.517 208.84 174.478C206.095 174.083 204.093 171.804 203.974 168.936C203.946 168.275 204.462 167.716 205.127 167.688C205.77 167.665 206.352 168.174 206.38 168.836C206.463 170.815 207.892 171.917 209.185 172.103C210.738 172.329 212.038 171.36 212.67 169.517C213.851 166.069 209.583 163.591 209.4 163.487C209.025 163.274 208.791 162.874 208.791 162.444V157.079C208.791 156.416 209.331 155.879 209.995 155.879C210.66 155.879 211.2 156.417 211.2 157.079V161.778C213.356 163.23 216.28 166.407 214.949 170.292C214.041 172.939 212 174.535 209.622 174.535Z" fill="#E86B31"/>
<path d="M211.922 100.457H207.338C205.274 100.457 203.6 98.789 203.6 96.7326V81.4467C203.6 79.3902 205.274 77.7227 207.338 77.7227H211.922C213.987 77.7227 215.661 79.3902 215.661 81.4467V96.7326C215.661 98.789 213.987 100.457 211.922 100.457Z" fill="#E86B31"/>
<path d="M209.629 171.932V223.994" stroke="#FFBC97" stroke-width="1.5" stroke-miterlimit="10" stroke-linecap="round" stroke-linejoin="round"/>
<path d="M115.008 316.663C114.29 316.663 113.671 316.37 113.151 315.778C112.628 315.188 112.369 314.487 112.369 313.675V242.201C112.369 241.39 112.628 240.69 113.151 240.099C113.671 239.51 114.29 239.215 115.008 239.215H146.481C150.846 239.215 154.529 239.898 157.526 241.261C160.523 242.627 162.917 244.397 164.711 246.572C166.502 248.749 167.79 251.219 168.571 253.985C169.353 256.751 169.744 259.5 169.744 262.227C169.744 264.367 169.532 266.23 169.11 267.816C168.685 269.402 168.181 270.767 167.595 271.909C167.009 273.054 166.405 273.975 165.787 274.675C165.167 275.377 164.663 275.911 164.272 276.279C166.813 278.272 168.588 280.577 169.6 283.194C170.609 285.813 171.114 288.967 171.114 292.654C171.114 295.679 170.724 298.628 169.941 301.506C169.159 304.382 167.872 306.946 166.08 309.195C164.288 311.446 161.958 313.253 159.092 314.616C156.223 315.983 152.704 316.664 148.535 316.664H115.008V316.663ZM151.565 262.67C151.565 260.753 151.059 259.223 150.05 258.079C149.039 256.936 147.557 256.363 145.602 256.363H130.452V268.977H145.602C147.557 268.977 149.038 268.406 150.05 267.261C151.059 266.119 151.565 264.589 151.565 262.67ZM130.452 299.514H146.579C148.534 299.514 150.099 298.869 151.271 297.578C152.444 296.288 153.03 294.684 153.03 292.765C153.03 290.847 152.444 289.243 151.271 287.952C150.098 286.662 148.534 286.016 146.579 286.016H130.452V299.514Z" fill="url(#paint1_linear_1391_351889)"/>
<path d="M278.98 239.215C280.284 239.215 281.278 239.621 281.961 240.432C282.645 241.245 283.118 242.055 283.378 242.866L304.686 312.57C304.947 313.307 305.078 313.861 305.078 314.229C305.078 314.893 304.865 315.466 304.442 315.945C304.017 316.426 303.513 316.664 302.927 316.664H290.611C289.307 316.664 288.379 316.351 287.826 315.723C287.271 315.097 286.93 314.489 286.8 313.898L284.062 304.715H258.063L255.325 313.898C255.194 314.489 254.852 315.097 254.299 315.723C253.744 316.35 252.816 316.664 251.513 316.664H239.197C238.611 316.664 238.106 316.426 237.683 315.945C237.258 315.466 237.047 314.893 237.047 314.229C237.047 313.861 237.177 313.307 237.438 312.57L258.747 242.866C259.007 242.055 259.48 241.245 260.165 240.432C260.849 239.621 261.842 239.215 263.146 239.215H278.98ZM263.146 287.565H278.98L271.064 261.01L263.146 287.565Z" fill="url(#paint2_linear_1391_351889)"/>
<path d="M353.395 316.662C352.286 316.662 351.391 316.33 350.707 315.666C350.023 315.003 349.582 314.487 349.388 314.117L327.003 276.279V313.675C327.003 314.488 326.742 315.188 326.221 315.778C325.698 316.369 325.08 316.663 324.364 316.663H311.559C310.842 316.663 310.222 316.37 309.702 315.778C309.179 315.188 308.92 314.487 308.92 313.675V242.201C308.92 241.39 309.18 240.69 309.702 240.099C310.222 239.51 310.842 239.215 311.559 239.215H321.724C322.832 239.215 323.728 239.547 324.413 240.21C325.097 240.874 325.537 241.39 325.731 241.759L348.116 279.598V242.201C348.116 241.39 348.375 240.69 348.898 240.099C349.418 239.51 350.037 239.215 350.755 239.215H363.559C364.276 239.215 364.893 239.51 365.417 240.099C365.937 240.69 366.198 241.39 366.198 242.201V313.675C366.198 314.488 365.937 315.188 365.417 315.778C364.893 316.369 364.276 316.663 363.559 316.663H353.395V316.662Z" fill="url(#paint3_linear_1391_351889)"/>
<path d="M401.141 239.215C405.638 239.215 409.742 239.971 413.457 241.483C417.171 242.996 420.38 245.117 423.085 247.844C425.788 250.574 427.907 253.839 429.438 257.636C430.968 261.436 431.833 265.585 432.028 270.084C432.092 271.633 432.125 273.054 432.125 274.343C432.125 275.634 432.125 276.871 432.125 278.05C432.125 279.23 432.125 280.448 432.125 281.701C432.125 282.956 432.092 284.32 432.028 285.795C431.832 290.369 430.985 294.536 429.487 298.297C427.987 302.059 425.919 305.306 423.28 308.033C420.641 310.764 417.496 312.885 413.847 314.395C410.197 315.908 406.125 316.663 401.629 316.663H375.238C374.521 316.663 373.902 316.37 373.381 315.778C372.859 315.188 372.6 314.487 372.6 313.675V242.201C372.6 241.39 372.86 240.69 373.381 240.099C373.902 239.51 374.521 239.215 375.238 239.215H401.141ZM413.946 269.64C413.555 261.159 409.123 256.917 400.653 256.917H390.683V298.96H401.142C409.352 298.96 413.62 294.719 413.947 286.236C414.011 284.688 414.044 283.232 414.044 281.866C414.044 280.503 414.044 279.174 414.044 277.884C414.044 276.593 414.044 275.283 414.044 273.956C414.043 272.628 414.01 271.189 413.946 269.64Z" fill="url(#paint4_linear_1391_351889)"/>
<path d="M450.148 337.25C450.038 337.25 449.926 337.227 449.814 337.177C449.25 336.92 448.922 336.079 449.081 335.3C453.224 315.093 457.174 294.663 460.995 274.908C464.812 255.164 468.76 234.748 472.866 214.741C473.025 213.961 473.611 213.533 474.177 213.793C474.742 214.049 475.07 214.891 474.91 215.669C470.808 235.658 466.863 256.063 463.047 275.796C459.224 295.562 455.272 316.001 451.126 336.229C450.997 336.854 450.593 337.25 450.148 337.25Z" fill="#494949"/>
<path d="M425.751 337.25C425.642 337.25 425.529 337.227 425.417 337.177C424.853 336.92 424.526 336.079 424.685 335.3C428.828 315.093 432.778 294.663 436.598 274.908C440.415 255.164 444.364 234.748 448.469 214.741C448.629 213.961 449.216 213.533 449.781 213.793C450.345 214.049 450.673 214.891 450.513 215.669C446.412 235.658 442.466 256.063 438.651 275.796C434.828 295.562 430.876 316.001 426.73 336.229C426.601 336.854 426.196 337.25 425.751 337.25Z" fill="#494949"/>
<path d="M456.635 301.66H433.489C432.903 301.66 432.409 300.996 432.384 300.174C432.359 299.352 432.814 298.688 433.4 298.688H456.546C457.132 298.688 457.626 299.352 457.651 300.174C457.675 300.996 457.221 301.66 456.635 301.66Z" fill="#494949"/>
<path d="M460.318 281.573H437.171C436.585 281.573 436.09 280.908 436.065 280.086C436.041 279.264 436.496 278.6 437.082 278.6H460.228C460.814 278.6 461.309 279.264 461.334 280.086C461.359 280.908 460.905 281.573 460.318 281.573Z" fill="#494949"/>
<path d="M452.947 321.744H429.8C429.214 321.744 428.719 321.08 428.694 320.258C428.669 319.436 429.124 318.771 429.711 318.771H452.857C453.443 318.771 453.938 319.436 453.963 320.258C453.988 321.08 453.533 321.744 452.947 321.744Z" fill="#494949"/>
<path d="M464.725 261.489H441.579C440.993 261.489 440.499 260.824 440.474 260.002C440.449 259.18 440.904 258.516 441.49 258.516H464.636C465.222 258.516 465.716 259.18 465.741 260.002C465.766 260.824 465.311 261.489 464.725 261.489Z" fill="#494949"/>
<path d="M468.071 241.407H444.925C444.339 241.407 443.844 240.742 443.819 239.92C443.794 239.098 444.249 238.434 444.836 238.434H467.981C468.567 238.434 469.062 239.098 469.087 239.92C469.112 240.742 468.657 241.407 468.071 241.407Z" fill="#494949"/>
<path d="M472.815 221.321H449.669C449.083 221.321 448.588 220.656 448.563 219.834C448.539 219.012 448.994 218.348 449.58 218.348H472.725C473.312 218.348 473.806 219.012 473.831 219.834C473.856 220.656 473.401 221.321 472.815 221.321Z" fill="#494949"/>
<path d="M462.769 337.25C462.879 337.25 462.994 337.227 463.109 337.177C463.695 336.92 464.094 336.079 464.001 335.3C461.572 315.093 459.355 294.663 457.211 274.908C455.069 255.164 452.853 234.748 450.445 214.741C450.351 213.961 449.802 213.533 449.214 213.793C448.627 214.049 448.228 214.891 448.322 215.669C450.728 235.658 452.943 256.063 455.084 275.796C457.23 295.562 459.448 316.001 461.878 336.229C461.954 336.854 462.324 337.25 462.769 337.25Z" fill="#0C0C0C"/>
<path d="M487.17 337.25C487.28 337.25 487.394 337.227 487.509 337.177C488.095 336.92 488.494 336.079 488.401 335.3C485.973 315.093 483.756 294.663 481.612 274.908C479.47 255.164 477.254 234.748 474.846 214.741C474.751 213.961 474.201 213.533 473.614 213.793C473.027 214.049 472.629 214.891 472.723 215.669C475.129 235.658 477.343 256.063 479.484 275.796C481.63 295.562 483.848 316.001 486.278 336.229C486.355 336.854 486.725 337.25 487.17 337.25Z" fill="#0C0C0C"/>
<path d="M459.307 301.66H482.452C483.038 301.66 483.589 300.996 483.684 300.174C483.778 299.352 483.38 298.688 482.793 298.688H459.647C459.061 298.688 458.51 299.352 458.416 300.174C458.323 300.996 458.72 301.66 459.307 301.66Z" fill="#0C0C0C"/>
<path d="M457.324 281.573H480.471C481.057 281.573 481.608 280.908 481.702 280.086C481.796 279.264 481.399 278.6 480.812 278.6H457.665C457.079 278.6 456.528 279.264 456.434 280.086C456.34 280.908 456.738 281.573 457.324 281.573Z" fill="#0C0C0C"/>
<path d="M461.291 321.744H484.438C485.024 321.744 485.575 321.08 485.669 320.258C485.763 319.436 485.365 318.771 484.778 318.771H461.632C461.046 318.771 460.495 319.436 460.401 320.258C460.306 321.08 460.704 321.744 461.291 321.744Z" fill="#0C0C0C"/>
<path d="M454.623 261.489H477.769C478.355 261.489 478.906 260.824 479 260.002C479.094 259.18 478.697 258.516 478.11 258.516H454.964C454.378 258.516 453.827 259.18 453.733 260.002C453.638 260.824 454.036 261.489 454.623 261.489Z" fill="#0C0C0C"/>
<path d="M452.982 241.407H476.128C476.714 241.407 477.265 240.742 477.359 239.92C477.453 239.098 477.055 238.434 476.468 238.434H453.323C452.737 238.434 452.186 239.098 452.092 239.92C451.997 240.742 452.396 241.407 452.982 241.407Z" fill="#0C0C0C"/>
<path d="M449.939 221.321H473.085C473.671 221.321 474.222 220.656 474.316 219.834C474.41 219.012 474.012 218.348 473.426 218.348H450.28C449.694 218.348 449.143 219.012 449.049 219.834C448.954 220.656 449.353 221.321 449.939 221.321Z" fill="#0C0C0C"/>
<path d="M445.194 215.605H477.878V212.644C477.878 211.241 476.736 210.104 475.328 210.104H447.743C446.335 210.104 445.193 211.241 445.193 212.644L445.194 215.605Z" fill="#E86B31"/>
<path d="M464.486 177.021C464.486 177.021 462.47 177.317 459.923 177.604C456.093 178.042 451.062 178.453 449.786 177.823C447.667 176.762 440.704 170.809 440.704 170.809L439.611 170.105C439.425 169.996 439.224 169.93 439.01 169.906C438.778 169.884 438.39 169.834 437.869 169.701C437.607 169.629 437.356 169.522 437.139 169.386C437.096 169.372 437.058 169.343 437.02 169.315C437.001 169.3 436.987 169.295 436.987 169.295C436.502 168.984 436.13 168.598 435.819 168.344C435.337 167.954 436.055 167.709 436.869 168.107C437.677 168.495 437.162 168.418 437.677 168.399C438.186 168.378 437.644 167.619 437.174 167.075C436.741 166.567 436.8 166.555 436.37 165.96C435.946 165.375 435.543 164.917 435.312 164.538C435.154 164.271 435.086 163.931 435.391 164.018C435.709 164.115 437.059 165.428 437.398 165.651C437.738 165.867 438.233 165.461 439.18 165.982C440.127 166.503 440.499 168.029 440.797 168.517C441.095 169.004 450.732 174.624 451.927 174.57C453.125 174.509 462.174 172.359 464.978 172.515C466.493 172.601 464.486 177.021 464.486 177.021Z" fill="#FCB6AC"/>
<path opacity="0.3" d="M459.923 177.604C456.092 178.043 451.061 178.454 449.785 177.823C447.667 176.762 440.703 170.81 440.703 170.81L439.61 170.106C439.424 169.996 439.224 169.93 439.009 169.906C438.778 169.885 438.389 169.834 437.869 169.701C437.607 169.629 437.356 169.523 437.139 169.387C437.78 169.703 439.117 169.442 439.773 169.788C440.479 170.149 445.376 174.123 447.595 175.526C449.809 176.919 450.644 177.396 452.634 177.391C454.622 177.395 459.349 176.557 459.349 176.557L459.923 177.604Z" fill="#ED9C80"/>
<path d="M441.967 238.371C441.967 238.371 441.591 240.339 441.667 241.897C441.896 242.974 441.705 243.297 441.705 243.297L437.576 243.063C437.576 243.063 439.371 242.121 439.125 237.894C438.877 233.666 441.967 238.371 441.967 238.371Z" fill="#FCB6AC"/>
<path d="M441.725 242.226C441.725 242.226 439.953 242.937 438.17 242.488C436.116 243.503 434.661 243.921 432.775 244.212C430.889 244.504 431.269 246.045 434.496 245.74C437.724 245.435 439.984 245.52 440.705 245.571C441.426 245.623 442.578 245.686 442.612 245.183C442.646 244.682 442.305 242.044 441.725 242.226Z" fill="black"/>
<path d="M454.605 240.209C454.605 240.209 454.23 242.177 454.305 243.735C454.535 244.812 454.343 245.135 454.343 245.135L450.215 244.901C450.215 244.901 452.01 243.959 451.764 239.732C451.516 235.504 454.605 240.209 454.605 240.209Z" fill="#FCB6AC"/>
<path d="M454.367 244.062C454.367 244.062 452.595 244.773 450.812 244.324C448.759 245.339 447.303 245.757 445.418 246.048C443.532 246.34 443.911 247.881 447.139 247.576C450.366 247.271 452.627 247.355 453.348 247.407C454.068 247.458 455.221 247.522 455.254 247.019C455.289 246.518 454.947 243.88 454.367 244.062Z" fill="black"/>
<path d="M458.368 200.191C458.368 200.191 439.578 206.243 438.783 213.593C438.394 217.177 435.311 237.968 435.311 237.968C435.311 237.968 442.572 240.444 444.103 238.974C444.103 238.974 445.796 218.227 446.485 214.762C447.173 211.296 465.544 203.421 465.544 203.421L464.796 198.709L458.368 200.191Z" fill="#455A64"/>
<path d="M458.368 200.191C458.368 200.191 439.578 206.243 438.783 213.593C438.394 217.177 435.311 237.968 435.311 237.968C435.311 237.968 442.572 240.444 444.103 238.974C444.103 238.974 445.796 218.227 446.485 214.762C447.173 211.296 465.544 203.421 465.544 203.421L464.796 198.709L458.368 200.191Z" fill="#455A64"/>
<path opacity="0.2" d="M460.75 200.176L465.152 200.937L465.546 203.421C465.546 203.421 447.176 211.295 446.487 214.761C446.336 215.522 446.137 217.119 445.917 219.146C445.58 217.859 445.242 216.573 444.906 215.286C444.774 214.785 444.642 214.278 444.635 213.76C444.619 212.642 445.182 211.6 445.824 210.682C448.933 206.231 455.828 202.496 460.75 200.176Z" fill="white"/>
<path d="M455.028 215.176C454.254 210.028 469.373 213 472.328 208.589C473.358 207.051 473.961 202.367 472.328 201.099C469.15 198.629 462.632 199.464 462.632 199.464C462.632 199.464 447.258 208.63 447.244 212.417C447.229 216.656 449.355 240.618 449.355 240.618C449.355 240.618 456.285 241.579 456.769 240.264C457.671 233.582 455.028 215.176 455.028 215.176Z" fill="#455A64"/>
<path d="M460.533 184.74C461.17 193.317 457.39 193.455 457.12 200.753C457.12 200.753 466.485 199.578 473.173 202.37C473.173 202.37 472.641 198.221 471.181 194.35C471.138 194.232 471.088 194.12 471.045 194.008C470.763 193.29 470.449 192.578 470.096 191.922C470.081 191.882 470.06 191.849 470.04 191.81C469.997 191.719 469.955 191.633 469.925 191.534C469.897 191.502 469.884 191.468 469.875 191.435C469.455 190.321 469.636 188.877 470.141 187.331C470.609 185.899 471.362 184.378 472.179 182.963C472.663 182.124 473.176 181.316 473.657 180.59V180.583C475.051 178.512 476.253 177.026 476.253 177.026C476.253 177.026 477.072 174.304 475.427 171.924C475.427 171.918 475.419 171.918 475.413 171.912C475.225 171.63 474.996 171.357 474.735 171.098C474.026 170.392 472.053 169.487 470.447 168.952C470.035 168.817 469.644 168.701 469.307 168.624C469.037 168.558 468.802 168.518 468.607 168.504C467.668 168.43 466.967 168.47 466.388 168.592C464.647 168.981 464.088 169.338 461.487 170.118L455.824 172.573C455.824 172.573 456.579 177.302 455.998 178.724L459.921 178.615C459.921 178.615 460.458 183.737 460.533 184.74Z" fill="#F96B12"/>
<path opacity="0.18" d="M469.874 191.434C468.838 188.666 471.467 183.879 473.655 180.591V180.584L471.236 178.047C471.236 178.047 471.279 182.22 470.56 183.852C469.848 185.471 468.708 188.803 469.874 191.434Z" fill="#F0F9FC"/>
<path opacity="0.18" d="M461.087 174.707C461.087 174.707 459.45 177.345 459.923 178.613C455.996 178.722 455.996 178.722 455.996 178.722C455.996 178.722 456.249 178.11 456.217 177.002C456.822 177.154 459.191 177.735 461.087 174.707Z" fill="#F0F9FC"/>
<path d="M464.38 199.534L448.764 198.909C448.392 198.894 448.078 198.628 448.004 198.265L445.843 187.74C445.738 187.227 446.143 186.753 446.668 186.774L462.283 187.399C462.655 187.414 462.969 187.68 463.043 188.043L465.204 198.568C465.31 199.08 464.905 199.555 464.38 199.534Z" fill="#DB4052"/>
<path d="M464.417 199.152L448.87 198.53C448.648 198.521 448.459 198.362 448.415 198.145L446.278 187.736C446.215 187.429 446.457 187.144 446.771 187.157L461.962 187.765C462.31 187.779 462.605 188.028 462.674 188.368L464.797 198.707C464.846 198.943 464.659 199.162 464.417 199.152Z" fill="#FFBE55"/>
<path d="M465.646 193.86L465.76 194.492L466.088 194.445L466.275 195.364C466.275 195.364 466.529 195.318 467.004 195.231C467.004 195.225 467.004 195.225 467.011 195.225C467.017 195.225 467.024 195.225 467.031 195.218C467.84 195.079 469.271 194.792 471.183 194.346C472.42 194.066 473.852 193.72 475.463 193.307C477.583 192.767 478.96 191.688 478.993 191.396C479.053 190.923 478.967 189.99 478.806 188.859C478.726 188.279 478.626 187.646 478.512 187.007C478.124 184.682 477.602 182.186 477.409 181.293C477.395 181.199 477.375 181.12 477.362 181.067C477.349 180.987 477.341 180.947 477.341 180.947L476.726 181.187L473.375 182.472L473.596 183.098L475.675 189.053C475.688 189.079 475.688 189.112 475.688 189.139C475.709 189.319 475.601 189.486 475.427 189.545C473.782 190.138 471.809 191.064 470.098 191.924C468.633 192.65 467.349 193.336 466.634 193.722C466.581 193.755 466.533 193.781 466.487 193.802C466.314 193.902 466.126 193.915 465.972 193.908C465.787 193.9 465.646 193.86 465.646 193.86Z" fill="#E4897B"/>
<path d="M467.035 195.219C467.841 195.076 469.271 194.789 471.185 194.35C472.422 194.069 473.857 193.722 475.464 193.311C477.582 192.766 478.963 191.688 478.996 191.4C479.056 190.926 478.969 189.988 478.81 188.86C478.44 186.178 477.659 182.43 477.413 181.29C477.396 181.197 477.381 181.117 477.366 181.064L476.529 181.495C476.529 181.495 476.56 181.64 476.62 181.898C476.889 183.124 477.703 186.852 478.078 189.026C478.199 189.749 478.275 190.301 478.268 190.534C478.225 191.622 477.627 191.758 476.887 192.072C476.464 192.257 473.594 193.197 471.048 194.008C469.113 194.628 467.362 195.163 467.035 195.219Z" fill="#FCB6AC"/>
<path d="M466.636 193.718C466.636 193.718 466.208 193.81 466.064 193.804C465.838 193.793 465.764 193.749 465.764 193.749C465.764 193.749 464.859 193.139 464.071 193.049L464.202 193.687C464.202 193.687 463.144 194.284 462.81 194.499C462.81 194.499 462.463 194.657 462.324 194.697C462.185 194.738 460.944 194.625 460.653 194.63C460.361 194.635 460.2 194.804 460.209 194.988C460.209 194.988 460.228 195.08 460.388 195.109C460.415 195.114 460.499 195.125 460.602 195.139C460.454 195.13 460.33 195.123 460.272 195.125C459.981 195.129 459.82 195.298 459.828 195.482C459.828 195.482 459.848 195.574 460.007 195.604C460.054 195.612 460.272 195.639 460.556 195.674C460.328 195.712 460.199 195.855 460.206 196.016C460.206 196.016 460.225 196.108 460.385 196.138C460.433 196.146 460.67 196.176 460.972 196.213C460.883 196.28 460.835 196.373 460.839 196.472C460.839 196.472 460.858 196.565 461.018 196.595C461.178 196.624 463.345 196.972 463.566 196.932C463.972 196.859 465.515 195.741 465.597 195.683C465.889 195.514 466.276 195.361 466.276 195.361L466.636 193.718Z" fill="#FCB6AC"/>
<path d="M470.774 177.789C471.644 180.786 472.031 182.358 472.179 182.965C472.226 183.158 472.246 183.251 472.246 183.251C472.246 183.251 472.794 183.251 473.597 183.098C474.439 182.931 475.563 182.591 476.62 181.899C476.693 181.852 476.766 181.799 476.84 181.746C477.034 181.606 477.221 181.46 477.409 181.292C477.723 181.006 478.031 180.687 478.298 180.32C478.298 180.32 477.396 174.439 475.43 171.921C475.43 171.915 475.423 171.915 475.417 171.907C475.062 171.454 474.661 171.101 474.226 170.928C474.16 170.902 474.092 170.875 474.032 170.862C473.01 170.529 472.133 170.889 471.498 171.681C470.923 172.387 470.555 173.446 470.448 174.659C470.366 175.638 470.46 176.71 470.774 177.789Z" fill="#E86B31"/>
<path d="M464.212 167.046C464.931 167.425 465.699 167.574 466.464 167.59C466.46 167.903 466.432 168.235 466.38 168.58C466.189 168.627 466.087 168.652 465.959 168.697C465.666 168.801 465.801 169.373 465.836 169.586C465.996 170.567 466.905 170.972 467.813 170.715C468.716 170.459 469.058 169.464 469.363 168.683C469.49 168.356 469.348 167.329 469.354 167.114C469.762 166.949 470.868 166.509 470.868 166.509C470.868 166.509 472.779 164.96 472.801 163.573C472.809 163.186 472.124 162.176 472.112 161.747C472.087 159.76 470.75 158.603 470.04 157.458C469.149 156.028 466.828 156.265 465.218 156.648C464.246 156.878 463.533 157.155 463.533 157.155C463.533 157.155 461.381 165.572 464.212 167.046Z" fill="#FCB6AC"/>
<path d="M461.895 154.507C462.013 154.289 462.14 154.077 462.266 153.87C462.461 154.252 462.971 154.33 463.402 154.32C465.213 154.278 467.058 153.521 468.786 154.06C469.296 154.219 469.807 154.531 469.978 155.035C471.41 154.604 472.85 155.012 473.883 156.139C475.942 158.387 474.03 161.744 475.075 164.312C475.434 165.193 476.13 165.928 476.371 166.849C476.586 167.672 476.393 168.591 475.864 169.259C475.275 170.003 474.352 170.391 473.47 170.751C473.098 170.901 472.725 171.053 472.335 171.148C471.521 171.344 470.644 171.28 469.868 170.967C469.298 170.736 468.748 170.328 468.582 169.738C468.418 169.156 468.659 168.544 468.902 167.99C469.334 167.004 469.97 166.369 470.58 165.515C471.194 164.653 471.807 164.247 471.667 163.089C471.646 162.912 471.617 162.72 471.492 162.591C471.29 162.383 470.918 162.449 470.711 162.652C470.503 162.854 470.416 163.146 470.339 163.425C470.108 162.653 469.59 161.97 468.908 161.538C468.355 161.189 467.891 160.957 467.488 160.434C467.242 160.117 466.531 159.144 466.79 158.763C465.993 159.224 464.398 159.066 463.541 158.846C462.539 158.588 461.586 157.87 461.363 156.863C461.184 156.055 461.489 155.252 461.895 154.507Z" fill="#532008"/>
<path opacity="0.12" d="M104.099 328.902C104.099 329.92 94.6876 330.747 83.0769 330.747C71.468 330.747 62.0566 329.92 62.0566 328.902C62.0566 327.883 71.468 327.057 83.0769 327.057C94.6876 327.056 104.099 327.882 104.099 328.902Z" fill="#E6ECEF"/>
<path d="M87.1749 215.496C87.9649 216.287 88.7042 217.167 89.0909 218.214C89.4786 219.261 89.4647 220.507 88.827 221.425C88.4873 221.913 87.8902 222.304 87.317 222.144C87.1629 222.101 87.0226 222.022 86.8878 221.938C85.4674 221.05 84.478 219.509 84.2676 217.852" fill="#153351"/>
<path d="M70.6411 321.088C70.6411 321.088 69.7034 323.801 69.433 324.482C69.1626 325.163 67.1413 324.537 67.0241 324.097C66.9069 323.657 67.8178 320.418 67.8178 320.418" fill="#FCB6AC"/>
<path d="M66.4243 324.162C66.1788 324.884 65.7237 325.913 65.8197 326.275C65.9157 326.638 68.4806 327.722 69.0556 328.07C69.482 328.329 70.4225 328.685 70.9098 328.772C72.6145 329.075 73.9223 328.78 74.0525 328.516C74.5952 327.416 71.2172 326.683 69.7774 323.577C69.7774 323.577 69.5226 323.547 69.2559 323.81C68.847 324.214 68.2776 324.378 67.8133 324.101C67.5484 323.943 67.2291 323.604 67.1045 323.291C67.1045 323.291 66.6698 323.44 66.4243 324.162Z" fill="black"/>
<path d="M93.2 322.207C93.2 322.207 93.1335 325.075 93.0837 325.806C93.0339 326.537 90.9166 326.552 90.6711 326.168C90.4256 325.785 90.3047 322.423 90.3047 322.423" fill="#FCB6AC"/>
<path d="M90.122 326.411C90.1081 327.173 89.9882 328.291 90.1912 328.607C90.3933 328.923 93.1677 329.181 93.8212 329.339C94.3066 329.457 95.3108 329.511 95.8018 329.446C97.5185 329.219 98.675 328.543 98.7184 328.252C98.8993 327.039 95.4576 327.363 93.1382 324.84C93.1382 324.84 92.8862 324.889 92.7127 325.22C92.4469 325.729 91.9531 326.057 91.427 325.934C91.1261 325.863 90.7191 325.638 90.505 325.378C90.505 325.376 90.1358 325.649 90.122 326.411Z" fill="black"/>
<path d="M114.179 208.43C114.143 208.119 113.743 208.273 113.64 208.53C113.627 208.565 113.608 208.644 113.585 208.751C113.618 208.239 113.639 207.821 113.627 207.719C113.592 207.425 113.221 207.537 113.097 207.769C113.103 207.563 113.105 207.407 113.099 207.341C113.062 206.963 112.657 207.123 112.557 207.436C112.535 207.506 112.503 207.702 112.469 207.96C112.474 207.824 112.475 207.72 112.47 207.673C112.434 207.363 112.076 207.445 111.974 207.702C111.941 207.787 111.924 207.94 111.87 208.306C111.825 208.619 111.738 208.955 111.699 209.269C111.663 209.554 111.327 210.898 110.658 211.04C109.633 211.259 110.283 209.482 109.56 209.083C109.333 208.958 109.092 210.336 109.075 211.115C109.058 211.894 109.053 212.284 109.127 212.744C109.191 213.203 109.447 213.852 109.411 214.13C109.353 214.578 108.828 215.497 108.828 215.497L111.419 216.085C111.419 216.085 112.031 214.666 112.345 214.336C113.131 213.555 113.624 212.657 113.913 211.573C114.094 210.893 114.156 210.184 114.208 209.484C114.208 209.484 114.191 208.532 114.179 208.43Z" fill="#E4897B"/>
<path d="M89.8194 230C89.8194 230 98.0346 229.927 102.494 224.948C106.052 219.982 109.49 214.489 109.747 213.979C110.447 214.245 111.952 214.931 111.952 214.931C111.952 214.931 107.251 225.407 105.42 227.8C103.589 230.193 99.9867 234.112 92.3742 236.057C88.7266 231.886 89.8194 230 89.8194 230Z" fill="#E4897B"/>
<path d="M90.3038 296.383C90.4662 294.106 88.1551 276.01 87.5838 276.256C87.3937 276.338 87.2765 276.528 87.1722 276.706C86.6941 277.524 86.2354 278.355 85.8339 279.214C85.4177 280.101 85.0716 281.016 84.7734 281.945C86.4486 286.868 89.0421 293.962 88.7929 296.461C87.2516 300.606 87.6614 307.387 88.4357 313.49C88.1348 305.459 90.1746 298.2 90.3038 296.383Z" fill="#455A64"/>
<path d="M93.392 261.435C93.392 261.435 91.691 261.854 88.3038 261.765C84.0019 261.653 78.5473 259.484 78.5473 259.484C73.0603 265.4 76.0765 272.326 75.8864 274.604C75.6963 276.882 75.2523 287.705 74.7613 293.734C69.1968 299.162 68.9938 313.594 67.3657 321.18C67.3463 321.267 67.326 321.353 67.3066 321.439C69.59 322.281 70.9975 322.465 70.9975 322.465L71.2135 321.857C72.8711 316.866 80.5261 302.552 82.4311 296.958C84.1598 291.884 88.6241 276.48 88.7071 276.494L94.3999 277.464C94.411 267.651 93.392 261.435 93.392 261.435Z" fill="#455A64"/>
<path d="M89.9533 224.459C89.9709 224.981 89.9912 227.023 88.903 227.51C87.8139 228.006 87.1153 228.213 87.1466 228.381C87.1586 228.457 87.2666 228.817 87.382 229.169C87.6321 229.957 88.0124 230.152 88.0124 230.152L88.1702 232.766L86.2135 234.709L85.5748 235.343L84.615 234.467L81.4843 231.626C81.4843 231.626 82.7746 230.043 81.8839 228.346C81.7566 228.107 80.3297 226.533 79.1917 224.948C78.529 224.016 77.966 223.088 77.8165 222.424C77.4086 220.609 77.0643 218.699 78.11 217.56C79.1483 216.42 86.8716 212.772 88.2357 218.707C88.2357 218.707 89.3968 220.251 89.933 220.725C90.4757 221.207 90.3373 221.86 89.8564 222.128C89.3802 222.396 89.9349 223.937 89.9533 224.459Z" fill="#E4897B"/>
<path d="M95.9895 295.169C96.463 289.004 94.3226 269.677 94.1141 268.014C93.9129 266.351 92.7315 266.139 91.8344 265.866C87.358 264.525 82.0492 271.44 83.4632 277.651C83.4826 277.751 83.5103 277.858 83.538 277.965C84.3788 281.563 89.1273 293.12 88.7942 296.461C86.1942 303.454 89.1449 317.944 90.0346 324.038C90.1435 324.042 90.2524 324.037 90.353 324.033C92.5875 323.965 93.8492 323.649 93.8492 323.649C93.8492 323.649 95.516 301.334 95.9895 295.169Z" fill="#455A64"/>
<path d="M94.8432 267.974C94.8432 267.974 85.9413 270.151 74.7598 268.085C75.3015 264.644 76.2134 254.288 76.3565 250.364L76.3722 249.964C76.4608 247.458 76.5069 245.668 76.5632 245.594C76.6749 245.44 76.2771 237.443 76.937 234.309C77.0579 233.732 77.2176 233.322 77.4216 233.156C78.7303 232.073 80.2689 230.937 81.9865 230.088C81.9865 230.088 85.9875 234.374 88.0291 229.631C90.2755 229.43 91.4191 229.881 92.0688 232.12C95.6656 244.562 94.8432 267.974 94.8432 267.974Z" fill="#F96B12"/>
<path d="M89.707 229.659C89.707 229.659 93.4275 229.722 97.2236 228.047C99.3417 230.527 100.622 235.048 100.622 235.048C100.622 235.048 95.5013 238.29 91.7588 238.601C90.9558 233.167 89.707 229.659 89.707 229.659Z" fill="#E86B31"/>
<path d="M90.4277 230.438C90.4277 230.438 92.7342 233.344 93.4919 238.286C96.0734 237.786 100.111 235.563 100.621 235.046C99.4847 235.412 94.6345 237.208 93.9709 235.721C92.7333 232.95 90.4277 230.438 90.4277 230.438Z" fill="#B0D9EF"/>
<path d="M89.4714 233.221L105.938 234.999L102.512 244.369L88.7118 234.938C88.2956 234.745 88.1211 234.343 88.3057 233.998L88.4857 233.661C88.6491 233.357 89.0506 233.178 89.4714 233.221Z" fill="#FFBE55"/>
<path d="M105.53 239.945C104.584 242.533 103.233 244.514 102.513 244.37C101.792 244.226 101.975 242.012 102.921 239.424C103.867 236.836 105.218 234.855 105.939 235C106.658 235.144 106.476 237.358 105.53 239.945Z" fill="#F99BA7"/>
<path d="M74.9648 245.566C74.9648 245.566 76.6871 251.483 81.1652 254.27C82.4694 255.082 84.1067 254.627 85.1321 253.486C88.1981 250.071 91.2623 242.378 92.2434 239.473C90.4465 238.522 89.8714 238.67 89.8714 238.67C89.8714 238.67 85.5234 244.683 83.0296 248.706L81.1662 245.47" fill="#E4897B"/>
<path d="M89.7422 238.894C89.7422 238.894 90.5415 237.607 90.5793 236.633C90.6172 235.658 90.1529 233.973 91.1035 233.096C91.457 232.77 92.6956 232.27 94.0893 232.5C96.1632 232.842 96.7262 233.45 96.6145 233.887C96.5028 234.324 95.0658 234.475 94.6892 235.217C94.3126 235.958 94.5231 236.423 94.4289 237.237C94.2868 238.46 92.5757 238.977 92.2037 239.587C91.9379 240.02 89.7422 238.894 89.7422 238.894Z" fill="#E4897B"/>
<path d="M76.9362 264.643C77.4531 262.861 77.9579 252.368 78.0133 250.812C79.4097 250.669 82.1121 249.646 83.6959 247.124C83.1117 246.126 81.6543 242.668 78.9528 239.731L77.394 233.908C77.394 233.908 77.214 234.045 76.939 234.306C76.28 237.44 76.6778 245.437 76.5652 245.591C76.5089 245.665 76.4627 247.455 76.3741 249.961L76.3584 250.361C76.2117 254.286 75.3053 264.638 74.7617 268.082C85.9433 270.149 94.8452 267.971 94.8452 267.971C94.8452 267.971 76.3575 266.669 76.9362 264.643Z" fill="#E86B31"/>
<path d="M78.4475 232.338C78.4475 232.338 73.8328 235.349 73.6353 240.474C73.483 244.438 76.1134 250.221 76.1134 250.221C76.1134 250.221 80.6792 250.723 83.0752 247.006C82.3655 245.201 81.7443 243.597 80.3811 241.465" fill="#E86B31"/>
<path d="M85.4095 216.853C87.1327 216.319 89.4271 216.217 88.4146 213.722C87.823 212.265 85.8211 211.078 83.4049 211.209C82.0776 211.281 80.5991 212.734 79.7629 214.507C75.9382 216.007 75.4702 219.076 76.2354 222.179C76.2354 222.179 77.929 228.027 82.3711 228.244C82.3711 228.244 82.3425 227.077 81.9161 225.553C81.9161 225.553 80.1099 224.95 79.7878 223.88C79.3392 222.39 81.451 223.382 81.451 223.382C81.451 223.382 81.4703 222.208 81.2451 221.16C81.1602 220.765 80.9221 220.445 80.6111 220.18C80.6831 220.03 81.5636 218.047 85.4095 216.853Z" fill="#532008"/>
<path opacity="0.12" d="M411.1 341.892C426.5 341.892 438.983 340.642 438.983 339.099C438.983 337.557 426.5 336.307 411.1 336.307C395.701 336.307 383.217 337.557 383.217 339.099C383.217 340.642 395.701 341.892 411.1 341.892Z" fill="#E6ECEF"/>
<path d="M420.358 313.393L420.366 321.115L419.969 320.373L419.571 321.115L419.174 320.374L418.779 321.116L418.382 320.374L417.985 321.117L417.588 320.375L417.192 321.118L417.184 313.395L420.358 313.393Z" fill="#AF835B"/>
<path d="M430.559 313.924L409.295 313.947L409.323 339.549L430.587 339.526L430.559 313.924Z" fill="#E86B31"/>
<path opacity="0.45" d="M430.586 313.885L409.322 313.908L409.328 318.764L430.592 318.741L430.586 313.885Z" fill="#65A0B7"/>
<path d="M431.393 313.382L408.779 313.406L408.785 318.035L431.398 318.011L431.393 313.382Z" fill="#FFBE55"/>
<path opacity="0.5" d="M421.647 313.389L421.656 321.111L421.258 320.369L420.861 321.112L420.464 320.37L420.068 321.113L419.672 320.371L419.274 321.113L418.877 320.372L418.482 321.114L418.473 313.392L421.647 313.389Z" fill="#D74433"/>
<path d="M389.084 323.976C389.538 321.584 390.91 319.325 393.084 318.111C394.342 317.41 395.77 316.861 397.229 316.857C398.501 316.854 399.78 317.134 400.951 317.625C402.969 318.471 404.718 320.046 405.539 322.068C406.224 323.756 406.222 325.642 405.822 327.398C405.433 329.111 404.466 330.87 405.101 332.654C405.282 333.165 405.808 333.722 405.65 334.292C405.463 334.969 404.682 335.186 404.13 335.476C403.474 335.821 402.819 336.166 402.164 336.513C401.694 336.761 401.014 337.291 400.444 337.078C399.88 336.894 399.704 336.151 399.377 335.718C398.515 334.579 397 334.093 395.668 333.763C394.139 333.384 392.749 332.752 391.579 331.679C389.414 329.693 388.543 326.838 389.084 323.976Z" fill="url(#paint5_linear_1391_351889)"/>
<path d="M403.832 336.062C403.832 336.062 401.648 331.622 400.697 329.382C400.444 328.786 400.175 328.181 399.983 327.166C399.859 326.512 399.699 325.071 400.634 324.918C401.739 324.739 401.637 326.338 401.178 326.922C400.799 327.402 399.831 327.794 399.209 327.769C398.115 327.725 397.125 326.762 396.772 325.83C396.501 325.117 397.375 324.586 397.919 325.063C398.438 325.518 399.088 327.847 398.02 328.497C397.458 328.839 396.765 328.918 396.122 328.786C394.961 328.549 394.691 326.643 396.17 327.175C397.22 327.552 398.072 328.668 398.626 329.58C400.14 332.076 401.262 334.075 402.729 336.598" stroke="white" stroke-width="0.4644" stroke-miterlimit="10"/>
<path d="M401.226 337.548L405.654 335.178L405.419 334.742L400.991 337.113L401.226 337.548Z" fill="#E86B31"/>
<path d="M401.813 339.188C401.84 339.056 401.756 338.908 401.629 338.866L401.585 338.851C401.46 338.809 401.376 338.665 401.4 338.534L401.414 338.454C401.439 338.317 401.347 338.168 401.215 338.132C401.086 338.098 400.994 337.954 401.015 337.818L401.048 337.597C401.06 337.516 401.11 337.446 401.182 337.408L405.582 335.052C405.654 335.014 405.74 335.011 405.815 335.046L406.019 335.14C406.145 335.198 406.215 335.354 406.171 335.48C406.128 335.609 406.202 335.768 406.33 335.823L406.405 335.855C406.528 335.907 406.602 336.057 406.568 336.184L406.556 336.228C406.522 336.358 406.599 336.509 406.725 336.56L406.782 336.583C406.911 336.634 406.988 336.792 406.949 336.921L406.941 336.95C406.898 337.093 406.806 337.208 406.684 337.274L402.434 339.55C402.311 339.615 402.166 339.628 402.021 339.584L401.992 339.576C401.861 339.537 401.773 339.387 401.8 339.251L401.813 339.188Z" fill="#E86B31"/>
<path d="M401.415 338.079C401.405 338.073 401.398 338.064 401.393 338.054C401.371 338.014 401.386 337.964 401.426 337.943L403.477 336.846C403.516 336.824 403.566 336.839 403.587 336.879C403.609 336.918 403.594 336.968 403.554 336.989L401.503 338.087C401.474 338.102 401.44 338.098 401.415 338.079Z" fill="#E86B31"/>
<path d="M404.38 336.491C404.37 336.484 404.363 336.475 404.357 336.465C404.336 336.425 404.351 336.376 404.391 336.355L405.528 335.746C405.567 335.725 405.616 335.74 405.638 335.779C405.66 335.819 405.645 335.868 405.605 335.889L404.468 336.498C404.439 336.514 404.404 336.51 404.38 336.491Z" fill="#E86B31"/>
<path d="M403.112 337.813C403.103 337.807 403.095 337.798 403.09 337.787C403.069 337.748 403.083 337.698 403.123 337.677L406.095 336.086C406.135 336.065 406.184 336.079 406.206 336.119C406.227 336.158 406.212 336.208 406.172 336.229L403.201 337.821C403.171 337.836 403.137 337.832 403.112 337.813Z" fill="#E86B31"/>
<path d="M401.678 338.581C401.669 338.575 401.662 338.566 401.656 338.555C401.635 338.516 401.65 338.466 401.689 338.445L402.566 337.976C402.606 337.955 402.656 337.971 402.677 338.009C402.698 338.049 402.683 338.099 402.644 338.12L401.767 338.589C401.737 338.604 401.703 338.6 401.678 338.581Z" fill="#E86B31"/>
<path d="M404.465 337.733C404.456 337.727 404.449 337.718 404.443 337.708C404.422 337.668 404.437 337.618 404.477 337.597L406.067 336.746C406.106 336.725 406.156 336.74 406.178 336.779C406.199 336.819 406.184 336.868 406.144 336.889L404.554 337.741C404.525 337.756 404.49 337.753 404.465 337.733Z" fill="#E86B31"/>
<path d="M402.786 338.634C402.777 338.628 402.769 338.619 402.764 338.608C402.742 338.569 402.757 338.519 402.797 338.498L403.435 338.156C403.475 338.135 403.525 338.15 403.546 338.189C403.567 338.229 403.553 338.278 403.513 338.3L402.874 338.642C402.845 338.657 402.811 338.653 402.786 338.634Z" fill="#E86B31"/>
<path d="M403.864 336.767C403.855 336.76 403.847 336.751 403.842 336.741C403.82 336.702 403.835 336.652 403.875 336.631L404.106 336.508C404.145 336.487 404.194 336.501 404.216 336.541C404.238 336.58 404.223 336.63 404.183 336.651L403.952 336.774C403.924 336.79 403.889 336.786 403.864 336.767Z" fill="#E86B31"/>
<path opacity="0.5" d="M389.084 323.975C389.538 321.583 390.91 319.324 393.084 318.11C393.332 317.972 393.587 317.84 393.847 317.717C390.449 319.812 389.046 324.483 391.135 328.082C392.892 331.107 395.585 332.493 399.43 332.17C400.235 332.102 400.934 332.281 401.44 332.971C401.907 333.608 402.066 334.422 402.579 335.032C402.656 335.123 402.747 335.213 402.861 335.25C402.967 335.285 403.084 335.273 403.194 335.256C404.11 335.117 404.954 334.702 405.676 334.122C405.673 334.178 405.666 334.235 405.65 334.292C405.463 334.969 404.682 335.186 404.13 335.476C403.474 335.82 402.819 336.166 402.164 336.513C401.694 336.761 401.014 337.291 400.444 337.078C399.88 336.894 399.704 336.15 399.377 335.718C398.515 334.578 397 334.093 395.668 333.763C394.139 333.384 392.749 332.752 391.579 331.679C389.414 329.691 388.543 326.837 389.084 323.975Z" fill="#F9DCE0"/>
<path opacity="0.12" d="M154.567 344.807C192.26 344.807 222.816 342.648 222.816 339.984C222.816 337.32 192.26 335.16 154.567 335.16C116.874 335.16 86.3184 337.32 86.3184 339.984C86.3184 342.648 116.874 344.807 154.567 344.807Z" fill="#E6ECEF"/>
<path d="M123.48 333.942C114.553 333.517 105.634 333.719 96.7027 333.741C93.4751 333.748 90.2365 333.794 87.0218 334.097C85.0827 334.28 82.2871 334.337 80.6738 335.583C77.928 337.702 83.282 338.557 84.4994 338.704C90.9656 339.484 97.621 339.113 104.113 338.931C113.876 338.658 123.668 339.11 133.42 338.646C133.613 338.637 133.616 338.344 133.42 338.344C125.219 338.309 116.984 338.22 108.785 338.437C102.889 338.594 96.9897 338.832 91.0911 338.722C88.4635 338.674 85.7768 338.621 83.1833 338.156C81.9705 337.938 78.9894 337.241 81.0494 335.766C82.9156 334.429 86.2789 334.487 88.445 334.335C91.1927 334.142 93.9495 334.097 96.7027 334.086C105.631 334.051 114.551 333.948 123.48 334.059C123.557 334.059 123.556 333.945 123.48 333.942Z" fill="#D6E0E5"/>
<path d="M182.494 327.427C187.217 327.521 191.931 327.852 196.632 328.3C198.773 328.504 200.911 328.766 203.054 328.951C204.06 329.037 205.369 328.953 206.309 329.32C207.697 329.482 207.839 330.52 206.734 332.433C206.106 332.526 205.477 332.6 204.845 332.653C195.818 333.507 186.647 331.579 177.673 333.064C177.453 333.1 177.503 333.468 177.726 333.452C183.979 332.987 190.144 333.272 196.402 333.412C199.64 333.485 202.961 333.533 206.174 333.065C207.28 332.904 208.696 332.628 209.015 331.362C209.826 328.144 202.84 328.426 201.189 328.26C194.973 327.632 188.744 327.2 182.493 327.224C182.363 327.225 182.363 327.425 182.494 327.427Z" fill="#C1CED6"/>
<path d="M111.461 335.901C106.786 335.953 102.074 336.381 97.4837 337.16C94.761 337.621 91.8897 338.189 89.4291 339.495C88.2238 340.134 86.4212 341.446 86.9132 343.055C87.3654 344.535 89.443 345.127 90.7453 345.487C93.2825 346.189 95.9489 346.462 98.5654 346.67C103.081 347.028 107.599 347.009 112.125 347.024C115.91 347.036 121.773 347.604 123.225 342.99C124.035 340.416 122.904 337.701 122.168 335.253C121.714 333.742 121.329 332.084 121.807 330.529C122.069 329.676 122.61 328.782 123.564 328.61C124.376 328.464 125.1 328.86 125.438 329.596C125.58 329.906 126.04 329.636 125.899 329.328C125.302 328.03 123.629 327.674 122.49 328.516C120.719 329.824 120.917 332.563 121.384 334.437C122.01 336.95 123.3 339.47 122.875 342.127C122.522 344.339 120.751 345.681 118.671 346.211C115.97 346.899 113.03 346.523 110.251 346.538C107.966 346.55 105.68 346.528 103.397 346.45C100.578 346.353 97.7532 346.189 94.9567 345.815C92.8275 345.53 90.4038 345.22 88.5173 344.116C86.9815 343.218 87.0784 341.842 88.3908 340.726C90.3179 339.085 93.18 338.471 95.5898 337.954C100.78 336.84 106.154 336.393 111.474 336.195L111.461 335.901Z" fill="#C1CED6"/>
<path d="M233.207 329.771C233.453 330.723 234.503 330.81 235.362 330.936C236.625 331.121 237.845 331.334 239.08 331.665C239.653 331.818 240.385 331.914 240.91 332.202C243.592 333.677 242.373 335.598 240.278 336.345C237.475 337.344 234.289 336.924 231.369 336.976C228.03 337.036 224.691 337.101 221.352 337.116C208.548 337.172 195.745 337.229 182.942 337.296C182.686 337.297 182.686 337.692 182.942 337.691C198.02 337.614 213.106 337.698 228.184 337.408C231.436 337.346 234.855 337.623 238.082 337.193C239.604 336.991 242.021 336.554 242.744 334.924C243.27 333.739 242.633 332.692 241.564 332.13C240.305 331.468 238.688 331.218 237.303 330.942C236.212 330.725 233.732 330.907 233.313 329.741C233.29 329.675 233.188 329.701 233.207 329.771Z" fill="#C1CED6"/>
<path d="M231.235 330.417C231.324 331.155 232.983 331.887 233.504 332.228C234.706 333.015 236.954 334.142 237.377 335.649C238.697 340.352 210.954 339.175 208.812 339.191C199.53 339.258 190.253 339.323 180.973 339.381C180.718 339.383 180.717 339.778 180.973 339.776C189.795 339.723 198.61 339.678 207.433 339.59C215.366 339.511 223.453 339.986 231.345 338.998C232.93 338.799 237.051 338.568 237.709 336.559C238.127 335.284 236.705 334.16 235.838 333.487C234.975 332.815 234.039 332.248 233.11 331.676C232.713 331.431 231.458 330.913 231.344 330.402C231.331 330.343 231.227 330.355 231.235 330.417Z" fill="#C1CED6"/>
<path d="M209.242 328.964C207.958 326.447 207.612 323.404 208.748 320.756C209.404 319.224 210.326 317.714 211.663 316.681C212.83 315.78 214.203 315.135 215.628 314.76C218.083 314.114 220.811 314.327 223.002 315.606C224.831 316.673 226.169 318.408 227.051 320.303C227.911 322.151 228.273 324.448 230.125 325.64C230.654 325.98 231.534 326.122 231.793 326.756C232.103 327.511 231.539 328.261 231.238 328.916C230.88 329.696 230.525 330.476 230.168 331.256C229.914 331.815 229.666 332.781 228.991 332.988C228.343 333.217 227.651 332.658 227.043 332.492C225.441 332.053 223.704 332.675 222.246 333.311C220.573 334.041 218.846 334.44 217.008 334.28C213.608 333.984 210.779 331.975 209.242 328.964Z" fill="#ECA888"/>
<path d="M231.382 329.667C231.382 329.667 226.219 327.13 223.753 325.741C223.097 325.373 222.42 325.006 221.521 324.209C220.942 323.696 219.771 322.484 220.522 321.685C221.409 320.74 222.454 322.282 222.447 323.142C222.44 323.849 221.83 324.892 221.24 325.308C220.205 326.039 218.61 325.854 217.623 325.246C216.867 324.781 217.293 323.678 218.132 323.733C218.932 323.785 221.185 325.465 220.666 326.815C220.393 327.526 219.813 328.087 219.129 328.42C217.894 329.02 216.292 327.46 218.027 326.906C219.26 326.512 220.836 326.936 221.993 327.383C225.158 328.608 227.61 329.654 230.751 330.937" stroke="#E86B31" stroke-width="0.4169" stroke-miterlimit="10"/>
<path d="M230.059 332.865L232.441 327.564L231.917 327.33L229.534 332.631L230.059 332.865Z" fill="#E86B31"/>
<path d="M231.749 333.962C231.68 333.82 231.498 333.745 231.35 333.796L231.3 333.813C231.156 333.863 230.977 333.79 230.905 333.652L230.861 333.568C230.786 333.425 230.595 333.353 230.449 333.414C230.306 333.474 230.119 333.406 230.042 333.266L229.915 333.039C229.869 332.956 229.864 332.857 229.903 332.771L232.271 327.504C232.31 327.418 232.388 327.354 232.48 327.334L232.734 327.277C232.89 327.242 233.065 327.336 233.116 327.482C233.168 327.631 233.349 327.725 233.506 327.685L233.598 327.662C233.748 327.623 233.923 327.709 233.982 327.85L234.002 327.898C234.062 328.042 234.241 328.126 234.392 328.084L234.462 328.065C234.617 328.021 234.798 328.111 234.856 328.259L234.868 328.291C234.93 328.454 234.928 328.623 234.862 328.77L232.575 333.857C232.51 334.003 232.383 334.118 232.22 334.18L232.187 334.192C232.039 334.248 231.851 334.172 231.78 334.028L231.749 333.962Z" fill="#E86B31"/>
<path d="M230.595 333.222C230.582 333.222 230.568 333.219 230.556 333.214C230.508 333.192 230.487 333.136 230.508 333.089L231.612 330.634C231.634 330.586 231.69 330.565 231.738 330.586C231.786 330.607 231.807 330.664 231.786 330.711L230.682 333.166C230.666 333.201 230.632 333.222 230.595 333.222Z" fill="#E86B31"/>
<path d="M232.191 329.673C232.178 329.673 232.164 329.67 232.152 329.665C232.104 329.643 232.083 329.587 232.104 329.54L232.716 328.179C232.737 328.131 232.793 328.11 232.841 328.131C232.889 328.152 232.911 328.208 232.889 328.256L232.277 329.617C232.262 329.652 232.227 329.673 232.191 329.673Z" fill="#E86B31"/>
<path d="M231.966 331.784C231.953 331.784 231.939 331.781 231.927 331.776C231.879 331.755 231.858 331.699 231.879 331.651L233.479 328.093C233.5 328.045 233.557 328.024 233.604 328.045C233.652 328.066 233.674 328.123 233.652 328.17L232.053 331.728C232.037 331.764 232.003 331.784 231.966 331.784Z" fill="#E86B31"/>
<path d="M231.193 333.501C231.18 333.501 231.167 333.499 231.154 333.493C231.106 333.472 231.085 333.416 231.106 333.368L231.578 332.319C231.599 332.271 231.656 332.251 231.703 332.271C231.751 332.293 231.772 332.349 231.751 332.396L231.279 333.445C231.264 333.481 231.23 333.501 231.193 333.501Z" fill="#E86B31"/>
<path d="M233.156 330.756C233.143 330.756 233.129 330.754 233.117 330.748C233.069 330.727 233.048 330.671 233.069 330.623L233.924 328.72C233.946 328.672 234.002 328.651 234.05 328.672C234.098 328.693 234.119 328.749 234.098 328.797L233.242 330.7C233.227 330.735 233.192 330.756 233.156 330.756Z" fill="#E86B31"/>
<path d="M232.249 332.767C232.236 332.767 232.222 332.764 232.21 332.758C232.162 332.737 232.142 332.681 232.162 332.633L232.505 331.868C232.527 331.821 232.583 331.8 232.631 331.821C232.679 331.842 232.7 331.898 232.679 331.946L232.336 332.711C232.32 332.746 232.285 332.767 232.249 332.767Z" fill="#E86B31"/>
<path d="M231.915 330.291C231.902 330.291 231.889 330.288 231.876 330.283C231.828 330.261 231.808 330.205 231.828 330.158L231.952 329.882C231.973 329.834 232.029 329.814 232.077 329.834C232.125 329.855 232.147 329.911 232.125 329.959L232.002 330.235C231.985 330.27 231.951 330.291 231.915 330.291Z" fill="#E86B31"/>
<path d="M209.242 328.965C207.958 326.448 207.612 323.404 208.748 320.756C208.877 320.455 209.017 320.153 209.169 319.857C207.536 324.179 209.568 329.458 214.045 331.291C217.809 332.83 221.268 332.205 224.571 329.196C225.262 328.567 226.032 328.238 226.987 328.513C227.869 328.769 228.593 329.405 229.498 329.603C229.635 329.633 229.781 329.651 229.914 329.605C230.036 329.561 230.133 329.469 230.224 329.375C230.966 328.602 231.447 327.626 231.699 326.584C231.736 326.638 231.769 326.694 231.795 326.758C232.105 327.512 231.541 328.262 231.24 328.918C230.882 329.697 230.527 330.477 230.17 331.257C229.916 331.816 229.668 332.783 228.993 332.989C228.345 333.218 227.652 332.659 227.045 332.493C225.443 332.055 223.706 332.676 222.248 333.312C220.574 334.042 218.848 334.442 217.01 334.281C213.608 333.984 210.779 331.975 209.242 328.965Z" fill="#E86B31"/>
<path d="M184.905 338.105H122.53C122.347 338.105 122.199 338.226 122.199 338.375V340.297C122.199 340.447 122.347 340.568 122.53 340.568H191.172C192.334 340.568 193.277 339.796 193.277 338.842V326.343C193.277 325.389 192.334 324.617 191.172 324.617H122.53C122.347 324.617 122.199 324.739 122.199 324.887V326.81C122.199 326.96 122.347 327.08 122.53 327.08H184.905C186.067 327.08 187.008 327.853 187.008 328.805V336.378C187.008 337.333 186.067 338.105 184.905 338.105Z" fill="#FFBE55"/>
<path d="M124.902 327.082H185.247C187.778 327.082 189.831 329.127 189.831 331.648V333.54C189.831 336.062 187.778 338.106 185.247 338.106H124.902V327.082Z" fill="#FFEAC9"/>
<path d="M189.831 334.721H160.574" stroke="#230C01" stroke-width="0.8337" stroke-miterlimit="10"/>
<path d="M189.833 332.533H141.68" stroke="#230C01" stroke-width="0.8337" stroke-miterlimit="10"/>
<path d="M189.832 330.531H129.035" stroke="#230C01" stroke-width="0.8337" stroke-miterlimit="10"/>
<path d="M182.941 328.395H134.682" stroke="#230C01" stroke-width="0.8337" stroke-miterlimit="10"/>
<path d="M149.997 334.721H133.252" stroke="#230C01" stroke-width="0.8337" stroke-miterlimit="10"/>
<path d="M125.061 316.769H189.522C189.693 316.769 189.831 316.698 189.831 316.612V315.493C189.831 315.406 189.693 315.336 189.522 315.336H119.195C118.108 315.336 117.574 315.785 117.574 316.34V323.614C117.574 324.168 118.108 324.618 119.195 324.618H189.521C189.692 324.618 189.83 324.547 189.83 324.461V323.342C189.83 323.255 189.692 323.185 189.521 323.185H125.06C123.973 323.185 123.092 322.735 123.092 322.181V317.774C123.093 317.219 123.974 316.769 125.061 316.769Z" fill="#E86B31"/>
<path d="M187.299 323.184H122.304C120.526 323.184 119.084 321.748 119.084 319.977C119.084 318.205 120.526 316.77 122.304 316.77H187.3V323.184H187.299Z" fill="#FFC8AF"/>
<path d="M119.084 320.01H165.16" stroke="#230C01" stroke-width="0.4" stroke-miterlimit="10"/>
<path d="M119.428 321.57H183.69" stroke="#230C01" stroke-width="0.4" stroke-miterlimit="10"/>
<path d="M125.678 322.42H177.943" stroke="#230C01" stroke-width="0.4" stroke-miterlimit="10"/>
<path d="M157.203 318.74H179.315" stroke="#230C01" stroke-width="0.4" stroke-miterlimit="10"/>
<path d="M163.261 309.057C159.301 309.06 157.986 311.07 157.549 311.909C157.113 311.07 155.798 309.06 151.838 309.057C146.025 309.051 122.521 311.613 122.521 311.613V312.592H192.576V311.613C192.576 311.613 169.074 309.052 163.261 309.057Z" fill="#FFF5E4"/>
<path d="M192.278 312.202C192.278 312.202 169.071 309.988 163.258 309.992C159.299 309.996 157.984 311.659 157.547 312.498C157.111 311.659 155.795 309.996 151.836 309.992C146.023 309.987 122.816 312.202 122.816 312.202" stroke="black" stroke-width="0.4169" stroke-miterlimit="10"/>
<path d="M142.994 312.139C142.994 312.139 151.341 311.722 153.224 311.877C155.86 312.094 157.548 312.496 157.548 312.496C157.548 312.496 155.756 310.82 151.52 310.82C148.974 310.82 122.816 312.588 122.816 312.588" stroke="black" stroke-width="0.4169" stroke-miterlimit="10" stroke-linejoin="round"/>
<path d="M142.419 312.104L129.494 312.59" stroke="#F4BAC0" stroke-width="0.4169" stroke-miterlimit="10" stroke-linejoin="round"/>
<path d="M172.138 312.139C172.138 312.139 163.791 311.722 161.908 311.877C159.272 312.094 157.584 312.496 157.584 312.496C157.584 312.496 159.376 310.82 163.612 310.82C166.158 310.82 192.316 312.588 192.316 312.588" stroke="black" stroke-width="0.4169" stroke-miterlimit="10" stroke-linejoin="round"/>
<path d="M172.713 312.104L185.638 312.59" stroke="#F4BAC0" stroke-width="0.4169" stroke-miterlimit="10" stroke-linejoin="round"/>
<path d="M193.153 315.336H122.381C121.895 315.336 121.5 314.943 121.5 314.458V313.468C121.5 312.983 121.894 312.59 122.381 312.59H193.153C193.639 312.59 194.034 312.982 194.034 313.468V314.457C194.034 314.943 193.639 315.336 193.153 315.336Z" fill="#FFBE55"/>
<path opacity="0.12" d="M258.026 345.967C258.026 347.394 248.417 348.552 236.563 348.552C224.71 348.552 215.102 347.394 215.102 345.967C215.102 344.539 224.71 343.381 236.563 343.381C248.417 343.381 258.026 344.539 258.026 345.967Z" fill="#E6ECEF"/>
<path d="M227.523 339.924C227.523 339.924 227.518 342.116 227.655 342.9C227.791 343.683 229.943 343.505 230.148 343.07C230.352 342.634 230.077 339 230.077 339" fill="#FCB6AC"/>
<path d="M230.506 343.146C230.53 343.849 230.668 344.88 230.466 345.172C230.264 345.463 227.438 345.697 226.773 345.841C226.279 345.949 225.256 345.997 224.755 345.937C223 345.726 221.812 345.099 221.764 344.831C221.563 343.711 225.078 344.015 227.41 341.689C227.41 341.689 227.667 341.735 227.848 342.042C228.126 342.511 228.634 342.815 229.169 342.702C229.475 342.637 229.78 342.509 229.995 342.27C229.995 342.27 230.482 342.442 230.506 343.146Z" fill="black"/>
<path d="M246.111 278.9C247.006 278.243 247.979 277.505 248.906 276.734C251.016 274.969 252.901 273.053 253.134 271.657C253.649 268.529 253.247 259.233 252.998 254.845C252.989 254.581 252.973 254.331 252.957 254.099C252.707 249.952 250.469 248.115 249.349 247.441C248.778 252.831 247.488 264.999 247.384 265.625C247.247 266.427 246.111 278.9 246.111 278.9Z" fill="#E86B31"/>
<path d="M246.105 278.899C246.999 278.242 247.974 277.504 248.9 276.734C248.98 273.306 250.004 268.519 251.446 262.528C253.157 254.975 252.081 253.586 252.081 253.586L248.643 254.107C248.071 259.441 247.451 265.2 247.378 265.625C247.241 266.427 246.105 278.899 246.105 278.899Z" fill="#C35420"/>
<path d="M245.771 338.779C245.771 338.779 246.069 341.412 246.178 342.08C246.286 342.748 248.442 342.61 248.661 342.24C248.881 341.869 248.734 338.77 248.734 338.77" fill="#FCB6AC"/>
<path d="M249.24 342.422C249.316 343.122 249.526 344.142 249.346 344.447C249.165 344.752 246.363 345.188 245.711 345.38C245.226 345.522 244.209 345.645 243.704 345.621C241.939 345.535 240.709 344.996 240.641 344.732C240.359 343.629 243.887 343.68 246.045 341.193C246.045 341.193 246.305 341.221 246.508 341.512C246.819 341.961 247.347 342.227 247.873 342.076C248.174 341.989 248.57 341.752 248.767 341.498C248.767 341.498 249.164 341.722 249.24 342.422Z" fill="black"/>
<path d="M246.844 277.802L236.564 277.748L237.546 290.409L237.882 294.69C237.882 294.69 238.85 311.855 239.628 314.549C240.927 322.113 245.608 340.845 245.608 340.845C246.854 341.183 248.296 341.172 249.164 340.635C248.243 330.647 250.102 319.534 246.109 312.408C246.739 307.816 247.692 303.735 248.624 293.269C248.812 291.156 249.537 290.821 249.788 286.431C250.028 282.035 246.844 277.802 246.844 277.802Z" fill="#455A64"/>
<path d="M238.738 307.155C239.201 305.041 240.613 300.566 241.466 298.253C242.655 295.02 243.964 293.542 243.964 293.542C248.662 287.683 244.489 281.002 244.489 281.002C244.489 281.002 240.582 284.845 240.319 285.232C240.07 285.592 238.645 288.691 237.543 290.412L237.88 294.693C237.882 294.693 238.274 300.637 238.738 307.155Z" fill="#144E93"/>
<path d="M244.553 277.82L231.273 278.42C231.273 278.42 227.658 306.667 227.861 312.066C228.228 321.846 227.234 340.75 227.234 340.75C227.234 340.75 228.849 342.264 230.676 341.373C230.676 341.373 237.546 324.606 235.492 313.843C236.444 309.92 240.047 296.98 241.206 295.187C242.824 292.685 248.989 290.317 244.553 277.82Z" fill="#455A64"/>
<path d="M243.969 245.029C243.969 245.029 243.232 242.543 243.554 240.709C243.877 238.875 244.982 235.573 244.568 233.096C244.153 230.62 241.023 228.556 237.708 228.877C234.392 229.198 233.426 232.362 232.873 234.197C232.32 236.031 232.413 238.828 232.551 240.342C232.689 241.855 233.518 243.048 234.07 243.368C234.623 243.689 236.702 243.265 237.066 243.661C237.431 244.056 237.708 246.395 237.708 246.395" fill="#E4897B"/>
<path d="M245.537 246.991C245.537 246.991 245.352 245.541 244.8 245.028C244.247 244.514 240.565 244.514 239.459 244.652C238.354 244.79 235.63 246.055 235.27 246.323C234.91 246.59 235.62 247.983 235.62 247.983L245.537 246.991Z" fill="#E86B31"/>
<path d="M244.011 241.836C243.967 241.863 243.923 241.889 243.877 241.913C243.076 242.329 242.032 242.253 241.303 241.724C240.701 242.19 239.927 242.531 239.176 242.376C238.425 242.22 237.807 241.402 238.097 240.707C237.508 240.801 236.878 240.604 236.453 240.193C235.583 239.35 236.155 238.624 236.15 237.654C236.146 236.965 236.094 235.782 235.194 235.643C234.855 235.591 234.49 235.766 234.326 236.062C234.259 236.182 234.218 236.325 234.103 236.402C233.95 236.505 233.725 236.436 233.608 236.296C233.49 236.155 233.456 235.965 233.444 235.784C233.387 234.943 233.72 234.06 234.346 233.475C233.106 232.773 232.428 231.576 232.297 230.18C232.243 229.597 232.277 228.986 232.551 228.465C232.93 227.745 233.704 227.311 234.467 226.995C235.469 226.583 236.465 226.476 237.534 226.67C238.749 226.89 239.158 227.634 240.095 227.935C241.594 227.437 243.613 227.919 243.925 229.567C244.709 229.43 245.537 229.607 246.053 230.269C246.773 231.192 246.212 231.963 245.967 232.915C245.627 234.239 246.059 235.375 245.989 236.663C245.929 237.77 245.138 238.703 244.844 239.745C244.624 240.519 244.817 241.344 244.011 241.836Z" fill="#532008"/>
<path d="M231.032 275.594C230.863 277.03 229.598 280.548 230.46 280.86C230.807 280.981 232.216 280.901 233.939 280.757H233.987C234.019 280.757 234.043 280.748 234.067 280.748C235.598 280.62 237.345 280.451 238.81 280.339C244.665 280.091 247.652 279.958 248.24 279.629C248.522 279.46 248.53 278.955 248.441 278.434C248.24 277.15 248.176 275.859 248.344 274.568C248.489 273.485 248.691 272.193 248.972 270.718C249.938 265.609 251.831 257.804 252.113 253.112C252.564 245.757 244.656 246.454 244.656 246.454C234.591 245.828 229.863 248.716 229.316 253.024C229.275 253.328 229.251 253.657 229.227 254.002C228.97 258.445 230.33 265.616 230.974 270.974C231.153 272.45 231.12 274.158 231.032 275.594Z" fill="#F96B12"/>
<path d="M231.033 275.594C230.864 277.03 229.6 280.548 230.462 280.861C230.808 280.981 232.217 280.901 233.94 280.757C232.386 280.869 232.096 278.386 232.442 277.592C232.788 276.789 233.506 274.985 233.441 272.844C233.368 270.71 232.563 265.898 232.088 261.35C231.637 257.123 232.023 253.818 232.08 253.377C231.838 253.858 231.146 254.532 229.196 254.981C229.156 259.449 230.38 265.993 230.976 270.975C231.154 272.45 231.122 274.158 231.033 275.594Z" fill="#C35420"/>
<path d="M205.353 272.852C205.122 272.727 205.367 272.465 205.598 272.465C205.63 272.465 205.698 272.476 205.788 272.492C205.379 272.358 205.045 272.244 204.97 272.203C204.75 272.086 204.954 271.833 205.174 271.808C205.011 271.749 204.89 271.702 204.84 271.677C204.556 271.531 204.806 271.268 205.082 271.287C205.144 271.292 205.308 271.328 205.519 271.382C205.412 271.343 205.33 271.312 205.295 271.292C205.064 271.168 205.239 270.916 205.472 270.917C205.548 270.918 205.672 270.952 205.975 271.025C206.232 271.087 206.521 271.123 206.78 271.19C207.139 271.284 207.527 271.32 207.533 271.321C208.425 271.036 208.861 270.565 208.861 270.565L207.982 270.079C207.982 270.079 207.931 269.307 210.381 270.233C210.746 270.371 211.058 270.87 211.286 270.929C211.514 270.989 212.188 270.982 212.188 270.982L212.186 273.118C212.186 273.118 210.991 272.909 210.637 273.049C210.286 273.199 208.859 273.651 208.615 273.672C208.515 273.683 208.089 273.637 207.594 273.57L206.858 273.416L206.169 273.199C206.168 273.201 205.429 272.892 205.353 272.852Z" fill="#E4897B"/>
<path d="M211.645 273.269C211.645 273.269 215.478 274.135 218.594 274.714C221.003 275.147 223.559 275.501 226.077 275.319C226.095 275.318 226.117 275.328 226.135 275.326C227.694 275.268 229.759 274.811 230.241 274.116C230.723 273.421 231.661 270.673 231.661 270.673C232.45 269.054 233.64 264.657 234.645 260.912C234.663 260.85 234.677 260.795 234.692 260.74C235.158 258.997 235.588 257.402 235.909 256.32C236.069 255.812 236.049 255.274 235.871 254.801C235.726 254.376 235.447 254 235.052 253.733C235.048 253.723 235.048 253.723 235.04 253.719C233.986 253.005 234.309 251.987 233.225 252.684C233.169 252.713 232.518 252.518 232.469 252.55C231.769 250.844 232.24 248.549 232.24 248.549C232.24 248.549 229.198 249.877 228.09 256.122C227.844 257.507 226.319 267.28 226.211 268.478C226.207 268.572 226.206 268.658 226.198 268.742C226.198 268.742 226.157 268.882 226.118 269.099C226.108 269.165 226.107 269.251 226.099 269.335C225.194 269.307 224.188 269.378 223.13 269.616C219.661 270.404 211.891 270.799 211.891 270.799L211.687 272.73L211.685 272.755L211.69 272.766L211.645 273.269Z" fill="#E86B31"/>
<g opacity="0.4">
<path d="M266.955 190.172C268.28 186.927 267.106 182.942 264.447 180.649C261.787 178.356 257.893 177.725 254.517 178.706C251.14 179.688 248.301 182.15 246.506 185.163C245.949 183.543 245.108 181.905 243.631 181.028C241.578 179.81 238.829 180.449 236.951 181.921C235.074 183.393 233.875 185.537 232.724 187.622C230.542 185.899 228.238 184.118 225.496 183.63C221.443 182.907 217.534 185.14 213.841 186.956C207.021 190.308 200.986 189.686 188.768 191.216C213.415 189.802 266.955 190.172 266.955 190.172Z" fill="#F3FBFF"/>
</g>
<g opacity="0.4">
<path d="M169.959 120.308C171.705 116.035 170.159 110.786 166.657 107.766C163.154 104.746 158.025 103.915 153.578 105.207C149.131 106.5 145.39 109.743 143.026 113.712C142.293 111.578 141.186 109.42 139.24 108.266C136.537 106.662 132.915 107.503 130.444 109.442C127.972 111.38 126.392 114.204 124.876 116.951C122.002 114.682 118.968 112.336 115.357 111.693C110.018 110.741 104.87 113.683 100.006 116.073C91.0235 120.488 83.075 119.67 66.9824 121.684C99.4445 119.82 169.959 120.308 169.959 120.308Z" fill="#F3FBFF"/>
</g>
<g opacity="0.4">
<path d="M405.843 118.252C409.633 118.252 413.157 121.416 413.558 125.17C414.75 123.619 416.584 122.437 418.544 122.491C420.505 122.545 422.444 124.123 422.466 126.076C424.541 123.775 428.362 123.355 431.05 124.712C432.262 125.323 433.315 126.21 434.206 127.225C434.982 128.108 435.631 129.181 436.716 129.723C437.811 130.27 444.97 130.756 447.326 130.917C452.764 131.29 458.21 131.541 463.656 131.749C466.742 131.867 469.829 131.97 472.916 132.038C459.463 132.038 391.364 131.863 387.277 131.863C387.577 129.662 389.036 127.652 391.04 126.677C393.208 125.622 395.399 125.991 397.494 126.894C397.398 126.128 398.203 118.252 405.843 118.252Z" fill="#F3FBFF"/>
</g>
<g opacity="0.4">
<path d="M371.028 0.136719C377.109 0.136719 382.764 5.21393 383.408 11.2362C385.32 8.74767 388.263 6.85118 391.408 6.93759C394.553 7.02401 397.666 9.55664 397.7 12.6905C401.029 8.99771 407.16 8.32388 411.475 10.5007C413.419 11.4816 415.109 12.9056 416.539 14.5337C417.784 15.9503 418.825 17.6721 420.567 18.5417C422.324 19.4197 433.811 20.1992 437.591 20.4584C446.316 21.0569 455.056 21.4605 463.795 21.7933C468.747 21.9817 473.699 22.1481 478.653 22.2575C457.066 22.2575 347.793 21.9762 341.236 21.9762C341.718 18.4452 344.06 15.2185 347.274 13.6548C350.754 11.9624 354.269 12.5544 357.631 14.0032C357.478 12.776 358.769 0.136719 371.028 0.136719Z" fill="#F3FBFF"/>
</g>
<path opacity="0.12" d="M340.285 351.464C340.285 352.474 346.479 353.293 354.121 353.293C361.762 353.293 367.956 352.474 367.956 351.464C367.956 350.454 361.762 349.635 354.121 349.635C346.479 349.635 340.285 350.454 340.285 351.464Z" fill="#E6ECEF"/>
<path d="M368.932 346.367C370.217 343.85 370.562 340.806 369.427 338.158C368.77 336.627 367.848 335.116 366.511 334.083C365.344 333.182 363.971 332.538 362.546 332.163C360.091 331.516 357.364 331.73 355.172 333.009C353.343 334.076 352.005 335.81 351.123 337.705C350.263 339.554 349.901 341.85 348.049 343.042C347.52 343.383 346.641 343.525 346.381 344.159C346.071 344.913 346.635 345.663 346.936 346.319C347.294 347.098 347.649 347.878 348.006 348.658C348.26 349.217 348.508 350.184 349.183 350.39C349.831 350.619 350.524 350.06 351.131 349.894C352.733 349.455 354.47 350.078 355.928 350.713C357.602 351.443 359.328 351.843 361.166 351.682C364.566 351.386 367.396 349.378 368.932 346.367Z" fill="url(#paint6_linear_1391_351889)"/>
<path d="M346.795 347.069C346.795 347.069 351.958 344.532 354.424 343.144C355.079 342.775 355.757 342.408 356.656 341.611C357.234 341.098 358.406 339.887 357.654 339.087C356.767 338.143 355.723 339.684 355.731 340.544C355.737 341.252 356.347 342.294 356.937 342.711C357.974 343.442 359.568 343.256 360.555 342.648C361.311 342.183 360.886 341.08 360.047 341.135C359.246 341.187 356.994 342.867 357.512 344.217C357.785 344.928 358.366 345.49 359.05 345.823C360.285 346.423 361.887 344.864 360.152 344.308C358.919 343.914 357.342 344.339 356.186 344.786C353.02 346.01 350.569 347.056 347.427 348.34" stroke="white" stroke-width="0.4169" stroke-miterlimit="10"/>
<path d="M348.613 350.025L346.23 344.725L345.706 344.959L348.089 350.259L348.613 350.025Z" fill="#E86B31"/>
<path d="M346.429 351.364C346.498 351.223 346.68 351.147 346.827 351.198L346.877 351.215C347.022 351.265 347.201 351.192 347.273 351.054L347.317 350.971C347.391 350.827 347.582 350.756 347.728 350.816C347.871 350.876 348.059 350.808 348.136 350.668L348.263 350.442C348.309 350.359 348.313 350.26 348.274 350.174L345.907 344.906C345.869 344.82 345.791 344.757 345.699 344.736L345.445 344.679C345.289 344.644 345.114 344.738 345.063 344.884C345.011 345.033 344.83 345.127 344.672 345.087L344.581 345.064C344.431 345.026 344.256 345.111 344.197 345.252L344.177 345.301C344.117 345.444 343.938 345.529 343.786 345.486L343.717 345.467C343.562 345.424 343.38 345.513 343.323 345.661L343.311 345.693C343.248 345.856 343.251 346.025 343.317 346.172L345.604 351.259C345.669 351.407 345.796 351.521 345.959 351.582L345.991 351.594C346.14 351.65 346.328 351.575 346.398 351.43L346.429 351.364Z" fill="#E86B31"/>
<path d="M347.58 350.626C347.593 350.626 347.606 350.623 347.618 350.618C347.666 350.596 347.688 350.54 347.666 350.493L346.563 348.038C346.54 347.99 346.485 347.97 346.437 347.99C346.389 348.011 346.368 348.067 346.389 348.115L347.493 350.57C347.509 350.606 347.544 350.626 347.58 350.626Z" fill="#E86B31"/>
<path d="M345.986 347.077C345.999 347.077 346.012 347.074 346.025 347.069C346.073 347.048 346.093 346.992 346.073 346.944L345.461 345.583C345.44 345.536 345.384 345.514 345.336 345.536C345.288 345.557 345.266 345.613 345.288 345.661L345.899 347.021C345.916 347.057 345.95 347.077 345.986 347.077Z" fill="#E86B31"/>
<path d="M346.206 349.188C346.219 349.188 346.232 349.186 346.245 349.18C346.293 349.159 346.313 349.103 346.293 349.055L344.693 345.497C344.672 345.45 344.615 345.428 344.568 345.45C344.52 345.471 344.499 345.527 344.52 345.575L346.119 349.132C346.135 349.167 346.17 349.188 346.206 349.188Z" fill="#E86B31"/>
<path d="M346.982 350.906C346.995 350.906 347.009 350.903 347.021 350.898C347.069 350.876 347.09 350.82 347.069 350.772L346.597 349.724C346.576 349.676 346.519 349.656 346.472 349.676C346.424 349.697 346.404 349.753 346.424 349.801L346.895 350.85C346.911 350.885 346.946 350.906 346.982 350.906Z" fill="#E86B31"/>
<path d="M345.021 348.161C345.034 348.161 345.048 348.158 345.06 348.152C345.108 348.131 345.129 348.075 345.108 348.027L344.252 346.124C344.23 346.077 344.175 346.055 344.127 346.077C344.079 346.098 344.057 346.154 344.079 346.202L344.934 348.105C344.951 348.14 344.985 348.161 345.021 348.161Z" fill="#E86B31"/>
<path d="M345.927 350.171C345.94 350.171 345.952 350.168 345.965 350.163C346.013 350.142 346.035 350.085 346.013 350.038L345.67 349.273C345.649 349.225 345.592 349.204 345.545 349.225C345.497 349.246 345.475 349.302 345.497 349.35L345.841 350.115C345.856 350.15 345.891 350.171 345.927 350.171Z" fill="#E86B31"/>
<path d="M346.261 347.695C346.274 347.695 346.288 347.692 346.3 347.687C346.348 347.666 346.369 347.61 346.348 347.562L346.224 347.286C346.203 347.238 346.147 347.218 346.099 347.238C346.051 347.259 346.03 347.315 346.051 347.363L346.174 347.639C346.19 347.674 346.224 347.695 346.261 347.695Z" fill="#E86B31"/>
<path opacity="0.3" d="M368.933 346.367C370.217 343.85 370.563 340.806 369.427 338.159C369.298 337.857 369.158 337.557 369.007 337.26C370.639 341.581 368.607 346.862 364.13 348.693C360.365 350.233 356.907 349.609 353.604 346.599C352.913 345.969 352.143 345.64 351.189 345.916C350.307 346.171 349.583 346.807 348.678 347.005C348.541 347.035 348.395 347.053 348.262 347.007C348.14 346.964 348.042 346.871 347.952 346.777C347.21 346.004 346.729 345.029 346.477 343.986C346.44 344.04 346.407 344.096 346.381 344.159C346.071 344.914 346.635 345.664 346.936 346.319C347.294 347.099 347.649 347.878 348.006 348.659C348.26 349.218 348.508 350.184 349.183 350.391C349.831 350.62 350.524 350.061 351.131 349.894C352.733 349.456 354.47 350.078 355.928 350.714C357.602 351.443 359.329 351.843 361.166 351.682C364.567 351.386 367.397 349.379 368.933 346.367Z" fill="#F9DCE0"/>
<defs>
<linearGradient id="paint0_linear_1391_351889" x1="209.785" y1="203.255" x2="219.077" y2="283.382" gradientUnits="userSpaceOnUse">
<stop stop-color="#FB8D48"/>
<stop offset="0.2" stop-color="#ED7136"/>
<stop offset="0.3999" stop-color="#C54E47"/>
<stop offset="0.4" stop-color="#C14F49"/>
<stop offset="0.6" stop-color="#9D3863"/>
<stop offset="0.8" stop-color="#5E1F72"/>
</linearGradient>
<linearGradient id="paint1_linear_1391_351889" x1="147.177" y1="238.706" x2="155.772" y2="313.719" gradientUnits="userSpaceOnUse">
<stop stop-color="#FB8D48"/>
<stop offset="0.2" stop-color="#ED7136"/>
<stop offset="0.3999" stop-color="#C54E47"/>
<stop offset="0.4" stop-color="#C14F49"/>
<stop offset="0.6" stop-color="#9D3863"/>
<stop offset="0.8" stop-color="#5E1F72"/>
</linearGradient>
<linearGradient id="paint2_linear_1391_351889" x1="277.357" y1="238.706" x2="284.803" y2="313.967" gradientUnits="userSpaceOnUse">
<stop stop-color="#FB8D48"/>
<stop offset="0.2" stop-color="#ED7136"/>
<stop offset="0.3999" stop-color="#C54E47"/>
<stop offset="0.4" stop-color="#C14F49"/>
<stop offset="0.6" stop-color="#9D3863"/>
<stop offset="0.8" stop-color="#5E1F72"/>
</linearGradient>
<linearGradient id="paint3_linear_1391_351889" x1="342.859" y1="238.706" x2="351.667" y2="313.668" gradientUnits="userSpaceOnUse">
<stop stop-color="#FB8D48"/>
<stop offset="0.2" stop-color="#ED7136"/>
<stop offset="0.3999" stop-color="#C54E47"/>
<stop offset="0.4" stop-color="#C14F49"/>
<stop offset="0.6" stop-color="#9D3863"/>
<stop offset="0.8" stop-color="#5E1F72"/>
</linearGradient>
<linearGradient id="paint4_linear_1391_351889" x1="407.871" y1="238.706" x2="416.355" y2="313.744" gradientUnits="userSpaceOnUse">
<stop stop-color="#FB8D48"/>
<stop offset="0.2" stop-color="#ED7136"/>
<stop offset="0.3999" stop-color="#C54E47"/>
<stop offset="0.4" stop-color="#C14F49"/>
<stop offset="0.6" stop-color="#9D3863"/>
<stop offset="0.8" stop-color="#5E1F72"/>
</linearGradient>
<linearGradient id="paint5_linear_1391_351889" x1="399.099" y1="316.724" x2="401.119" y2="336.407" gradientUnits="userSpaceOnUse">
<stop stop-color="#FB8D48"/>
<stop offset="0.2" stop-color="#ED7136"/>
<stop offset="0.3999" stop-color="#C54E47"/>
<stop offset="0.4" stop-color="#C14F49"/>
<stop offset="0.6" stop-color="#9D3863"/>
<stop offset="0.8" stop-color="#5E1F72"/>
</linearGradient>
<linearGradient id="paint6_linear_1391_351889" x1="360.407" y1="331.678" x2="361.818" y2="351.111" gradientUnits="userSpaceOnUse">
<stop stop-color="#FB8D48"/>
<stop offset="0.2" stop-color="#ED7136"/>
<stop offset="0.3999" stop-color="#C54E47"/>
<stop offset="0.4" stop-color="#C14F49"/>
<stop offset="0.6" stop-color="#9D3863"/>
<stop offset="0.8" stop-color="#5E1F72"/>
</linearGradient>
</defs>
</svg>
