<svg width="569" height="569" viewBox="0 0 569 569" fill="none" xmlns="http://www.w3.org/2000/svg">
<g clip-path="url(#clip0_998_279933)">
<path d="M451.636 367.591C453.302 355.577 465.742 361.83 472.901 364.251C478.312 365.941 484.218 363.018 484.629 357.102C485.168 351.461 483.93 345.51 486.138 340.109C490.443 327.499 507.538 329.809 508.389 343.025C506.255 356.29 519.205 356.97 520.003 347.964C519.658 337.106 531.934 332.344 538.558 341.003C544.432 348.301 543.398 362.974 533.863 366.28C531.124 367.147 528.169 366.778 525.302 366.961C510.001 369.043 521.882 379.166 519.82 387.227C518.666 390.343 514.889 391.837 511.593 391.414C504.235 391.084 496.844 378.483 489.851 385.742C488.285 388.074 489.23 391.186 489.041 393.988C488.684 399.261 484.034 403.449 478.969 404.959C468.736 407.993 457.753 402.509 447.489 405.295C442.584 406.631 437.534 409.832 432.821 407.927C424.942 405.134 424.188 385.851 428.031 379.91C430.646 375.861 435.515 374 440.058 372.388C444.257 370.899 447.438 369.08 451.636 367.591Z" fill="url(#paint0_linear_998_279933)" stroke="white" stroke-width="0.732496" stroke-linecap="round" stroke-linejoin="round"/>
<path d="M426.445 380.636C430.477 381.156 434.551 381.677 438.597 381.278C442.642 380.88 446.717 379.474 449.614 376.622C452.511 373.77 454 369.308 452.648 365.474C451.325 361.723 447.521 358.734 447.813 354.767C448.116 350.642 452.749 348.249 456.864 347.832C460.979 347.415 465.313 348.11 469.136 346.53C472.865 344.988 475.576 341.233 475.865 337.208C476.155 333.183 474.009 329.079 470.539 327.02C468.666 325.908 466.508 325.381 464.536 324.456C462.564 323.531 460.66 322.024 460.168 319.902C459.291 316.123 463.053 313.081 465.062 309.762C468.061 304.807 466.941 297.887 462.842 293.795C458.743 289.704 452.161 288.526 446.715 290.494C441.268 292.462 437.071 297.303 435.402 302.849C434.13 307.078 434.225 311.606 433.172 315.895C430.653 326.155 420.973 334.218 410.427 334.84C405.956 335.104 401.116 334.238 397.259 336.516C392.383 339.396 391.309 346.25 392.972 351.663C394.689 357.154 398.509 361.744 403.598 364.428C407.539 366.482 410.138 370.358 414.288 371.95C417.496 373.181 421.014 373.914 423.655 376.113C425.083 377.302 425.833 378.881 426.445 380.636Z" fill="#2E2C29" stroke="white" stroke-width="0.732496" stroke-linecap="round" stroke-linejoin="round"/>
<path d="M457.101 330.167C457.101 330.167 449.118 336.071 441.446 334.307L457.101 330.167Z" fill="#2E2C29"/>
<path d="M457.101 330.167C457.101 330.167 449.118 336.071 441.446 334.307" stroke="white" stroke-width="0.732496" stroke-linecap="round" stroke-linejoin="round"/>
<path d="M435.389 394.092C435.389 394.092 484.302 382.151 505.664 361.193" stroke="#2E2C29" stroke-width="4.00347" stroke-linecap="round" stroke-linejoin="round"/>
<path d="M499.489 351.145C499.489 351.145 502.542 362.46 496.609 368.557" stroke="#2E2C29" stroke-width="4.00347" stroke-linecap="round" stroke-linejoin="round"/>
<path d="M506.985 373.704C506.985 373.704 502.4 377.154 489.125 373.26" stroke="#2E2C29" stroke-width="4.00347" stroke-linecap="round" stroke-linejoin="round"/>
<path d="M474.349 371.863C474.349 371.863 475.685 379.063 471.18 382.051" stroke="#2E2C29" stroke-width="4.00347" stroke-linecap="round" stroke-linejoin="round"/>
<path d="M472.64 391.909C472.64 391.909 461.662 391.5 460.713 386.174" stroke="#2E2C29" stroke-width="4.00347" stroke-linecap="round" stroke-linejoin="round"/>
<path d="M449.227 297.846C449.227 297.846 447.315 322.202 441.445 334.307C435.574 346.413 419.359 359.697 420.317 366.152" fill="#2E2C29"/>
<path d="M449.227 297.846C449.227 297.846 447.315 322.202 441.445 334.307C435.574 346.413 419.359 359.697 420.317 366.152" stroke="white" stroke-width="0.732496" stroke-linecap="round" stroke-linejoin="round"/>
<path d="M440.786 355.088C440.863 355.611 436.633 362.302 424.186 357.552L440.786 355.088Z" fill="#2E2C29"/>
<path d="M440.786 355.088C440.863 355.611 436.633 362.302 424.186 357.552" stroke="white" stroke-width="0.732496" stroke-linecap="round" stroke-linejoin="round"/>
<path d="M423.014 338.662C423.014 338.662 422.633 350.589 426.977 353.988L423.014 338.662Z" fill="#2E2C29"/>
<path d="M423.014 338.662C423.014 338.662 422.633 350.589 426.977 353.988" stroke="white" stroke-width="0.732496" stroke-linecap="round" stroke-linejoin="round"/>
<path d="M453.651 301.291C453.651 301.291 453.162 305.798 448.169 307.264L453.651 301.291Z" fill="#2E2C29"/>
<path d="M453.651 301.291C453.651 301.291 453.162 305.798 448.169 307.264" stroke="white" stroke-width="0.732496" stroke-linecap="round" stroke-linejoin="round"/>
<path d="M163.32 485.59C207.378 481.975 242.335 469.785 241.397 458.363C240.46 446.94 203.984 440.611 159.926 444.226C115.868 447.841 80.9121 460.031 81.8493 471.454C82.7865 482.876 119.262 489.205 163.32 485.59Z" fill="#2E2C29" stroke="white" stroke-width="0.732496" stroke-linecap="round" stroke-linejoin="round"/>
<path d="M66.9134 440.571L447.943 409.308C448.517 408.314 454.547 397.476 449.342 386.6C444.729 376.963 433.265 371.411 421.459 373.665C422.858 352.053 416.091 331.101 401.694 322.731C380.424 310.366 339.622 323.79 320.762 365.617C320.766 339.158 301.8 320.054 278.292 311.834C247.043 303.525 232.843 328.686 226.243 335.677C216.639 326.709 201.624 315.749 181.066 310.75C157.337 304.98 116.173 304.709 102.445 328.8C97.5728 337.349 97.4032 346.78 98.3627 354.144C75.8883 348.877 52.9671 360.585 44.3899 381.044C35.2027 402.959 44.8099 429.339 66.9134 440.571Z" fill="#2E2C29" stroke="white" stroke-width="0.732496" stroke-linecap="round" stroke-linejoin="round"/>
<path d="M281.016 275.848L255.094 277.975L259.525 331.979L285.447 329.852L281.016 275.848Z" fill="#2E2C29" stroke="white" stroke-width="0.732496" stroke-linecap="round" stroke-linejoin="round"/>
<path d="M288.471 324.29L255.638 326.984L164.371 377.725L192.735 375.398L273.275 340.518L358.423 361.803L386.788 359.476L288.471 324.29Z" fill="url(#paint1_linear_998_279933)" stroke="white" stroke-width="0.732496" stroke-linecap="round" stroke-linejoin="round"/>
<path d="M415.988 357.08L109.244 382.248L113.255 431.127L419.998 405.959L415.988 357.08Z" fill="#2E2C29" stroke="white" stroke-width="0.732496" stroke-linecap="round" stroke-linejoin="round"/>
<path d="M355.592 367.998L358.669 405.499" stroke="white" stroke-width="0.732496" stroke-linecap="round" stroke-linejoin="round"/>
<path d="M419.999 405.957L113.256 431.125L113.716 436.73L420.459 411.561L419.999 405.957Z" fill="url(#paint2_linear_998_279933)" stroke="white" stroke-width="0.732496" stroke-linecap="round" stroke-linejoin="round"/>
<path d="M209.34 379.998L212.417 417.499" stroke="white" stroke-width="0.732496" stroke-linecap="round" stroke-linejoin="round"/>
<path d="M157.521 384.248L160.598 421.749" stroke="white" stroke-width="0.732496" stroke-linecap="round" stroke-linejoin="round"/>
<path d="M49.4023 442.01L467.034 407.743" stroke="white" stroke-width="0.732496" stroke-linecap="round" stroke-linejoin="round"/>
<path d="M393.66 83.6895L109.279 107.023C105.49 107.334 102.67 110.658 102.981 114.447L116.94 284.579C117.251 288.368 120.575 291.188 124.365 290.877L408.745 267.544C412.534 267.233 415.354 263.909 415.043 260.119L401.084 89.9878C400.773 86.1984 397.449 83.3786 393.66 83.6895Z" fill="#2E2C29" stroke="white" stroke-width="0.732496" stroke-linecap="round" stroke-linejoin="round"/>
<path d="M394.072 104.692L405.728 246.749C406.015 250.25 404.9 253.722 402.627 256.401C400.355 259.08 397.111 260.747 393.61 261.034L345.365 264.992L331.543 96.5352L379.788 92.5767C383.288 92.2893 386.76 93.4041 389.439 95.6761C392.118 97.9481 393.784 101.191 394.072 104.692Z" fill="#2E2C29" stroke="white" stroke-width="0.732496" stroke-linecap="round" stroke-linejoin="round"/>
<path d="M334.364 130.886L114.029 148.965L120.387 226.448L340.722 208.369L334.364 130.886Z" fill="#2E2C29" stroke="white" stroke-width="0.732496" stroke-linecap="round" stroke-linejoin="round"/>
<path d="M327.666 136.384L121.754 153.279L127.236 220.099L333.149 203.203L327.666 136.384Z" stroke="white" stroke-width="0.732496" stroke-linecap="round" stroke-linejoin="round" stroke-dasharray="16.01 16.01"/>
<path d="M331.544 96.5347L334.362 130.884L114.027 148.963L112.292 127.812C112.15 126.078 112.35 124.334 112.882 122.678C113.414 121.023 114.267 119.488 115.392 118.162C116.517 116.836 117.892 115.744 119.439 114.949C120.986 114.155 122.674 113.673 124.407 113.53L331.544 96.5347Z" fill="#2E2C29" stroke="white" stroke-width="0.732496" stroke-linecap="round" stroke-linejoin="round"/>
<path d="M340.72 208.369L345.366 264.994L138.229 281.989C136.496 282.131 134.751 281.931 133.095 281.399C131.439 280.867 129.904 280.013 128.578 278.888C127.252 277.763 126.16 276.387 125.366 274.84C124.571 273.293 124.09 271.604 123.948 269.871L120.385 226.447L340.72 208.369Z" fill="#2E2C29" stroke="white" stroke-width="0.732496" stroke-linecap="round" stroke-linejoin="round"/>
<path d="M369.017 164.482C375.114 163.982 379.652 158.633 379.152 152.536C378.651 146.438 373.303 141.9 367.205 142.401C361.107 142.901 356.57 148.25 357.07 154.347C357.57 160.445 362.919 164.983 369.017 164.482Z" fill="#2E2C29" stroke="white" stroke-width="0.732496" stroke-linecap="round" stroke-linejoin="round"/>
<path d="M293.841 187.908C299.939 187.408 304.476 182.059 303.976 175.961C303.476 169.864 298.127 165.326 292.029 165.827C285.931 166.327 281.394 171.676 281.894 177.773C282.395 183.871 287.743 188.409 293.841 187.908Z" fill="#2E2C29" stroke="white" stroke-width="0.732496" stroke-linecap="round" stroke-linejoin="round"/>
<path d="M246.38 132.736C252.478 132.236 257.015 126.887 256.515 120.79C256.015 114.692 250.666 110.154 244.568 110.655C238.47 111.155 233.933 116.504 234.433 122.601C234.934 128.699 240.282 133.237 246.38 132.736Z" fill="#2E2C29" stroke="white" stroke-width="0.732496" stroke-linecap="round" stroke-linejoin="round"/>
<path d="M286.724 253.971C292.821 253.47 297.359 248.122 296.859 242.024C296.358 235.926 291.01 231.389 284.912 231.889C278.814 232.389 274.277 237.738 274.777 243.836C275.277 249.933 280.626 254.471 286.724 253.971Z" fill="#2E2C29" stroke="white" stroke-width="0.732496" stroke-linecap="round" stroke-linejoin="round"/>
<path d="M243.342 125.802L243.29 125.164L244.04 124.305C245.85 122.276 246.655 121.211 246.572 120.051C246.508 119.271 246.07 118.581 244.923 118.675C244.323 118.747 243.765 119.024 243.345 119.459L242.954 118.753C243.523 118.195 244.271 117.855 245.065 117.794C246.72 117.659 247.511 118.736 247.601 119.836C247.717 121.254 246.783 122.485 245.292 124.179L244.724 124.796L244.726 124.82L248.177 124.537L248.248 125.4L243.342 125.802Z" fill="white"/>
<path d="M291.036 179.689C291.577 179.952 292.177 180.071 292.778 180.034C294.114 179.924 294.458 179.039 294.393 178.402C294.293 177.327 293.286 176.945 292.281 177.028L291.702 177.075L291.638 176.295L292.217 176.248C292.974 176.185 293.899 175.717 293.825 174.807C293.774 174.192 293.34 173.68 292.382 173.759C291.832 173.82 291.313 174.04 290.887 174.393L290.553 173.659C291.119 173.221 291.801 172.958 292.514 172.903C294.027 172.779 294.787 173.621 294.863 174.555C294.928 175.347 294.511 176.059 293.593 176.48L293.595 176.503C294.556 176.615 295.383 177.261 295.471 178.337C295.572 179.566 294.703 180.721 292.858 180.872C292.159 180.938 291.454 180.815 290.818 180.516L291.036 179.689Z" fill="white"/>
<path d="M368.152 150.546L368.128 150.548L366.851 151.379L366.585 150.603L368.19 149.567L369.077 149.495L369.707 157.178L368.703 157.261L368.152 150.546Z" fill="white"/>
<path d="M286.89 246.711L286.718 244.619L283.148 244.912L283.092 244.226L286.117 239.039L287.241 238.947L287.633 243.723L288.708 243.634L288.775 244.45L287.699 244.538L287.871 246.631L286.89 246.711ZM286.651 243.803L286.441 241.238C286.408 240.836 286.387 240.433 286.377 240.029L286.342 240.032C286.142 240.501 285.98 240.847 285.797 241.219L284.131 243.986L284.133 244.01L286.651 243.803Z" fill="white"/>
<path d="M334.204 216.07L128.291 232.965L131.806 275.802L337.718 258.907L334.204 216.07Z" stroke="white" stroke-width="0.732496" stroke-linecap="round" stroke-linejoin="round" stroke-dasharray="16.01 16.01"/>
<path d="M187.604 181.672C187.604 181.672 185.178 180.903 189.195 178.481C193.211 176.058 198.482 182.712 198.526 185.206C198.569 187.699 191.79 192.444 191.79 192.444L187.604 181.672Z" fill="white" stroke="white" stroke-width="0.732496" stroke-linecap="round" stroke-linejoin="round"/>
<path d="M199.316 166.568C199.316 166.568 195.113 163.45 193.313 168.994C191.512 174.539 189.002 181.49 189.002 181.49C189.002 181.49 192.929 186.669 195.13 186.005C205.23 180.484 199.316 166.568 199.316 166.568Z" fill="#E9A394"/>
<path d="M198.789 145.265L255.019 145.484L251.218 187.518L196.651 184.102L198.789 145.265Z" fill="#2E2C29" stroke="white" stroke-width="0.732496" stroke-linecap="round" stroke-linejoin="round"/>
<path d="M228.314 163.906L241.968 154.812L243.216 156.28L228.114 166.097C228.114 166.097 227.546 165.137 228.314 163.906Z" fill="#2E2C29" stroke="white" stroke-width="0.732496" stroke-linecap="round" stroke-linejoin="round"/>
<path d="M149.963 179.074C149.963 179.074 116.174 217.85 125.893 234.692C131.99 244.22 147.085 232.349 147.085 232.349L149.963 179.074Z" fill="url(#paint3_linear_998_279933)"/>
<path d="M187.386 449.729L187.701 447.092C187.701 447.092 174.365 446.531 172.752 447.491C172.752 447.491 172.196 448.94 171.551 451.076C176.487 452.3 182.277 451.287 187.386 449.729Z" fill="#E9A394"/>
<path d="M198.534 451.516C193.621 451.517 187.128 451.888 187.128 451.888L187.386 449.726C182.277 451.285 176.487 452.297 171.551 451.073C169.872 456.638 167.596 466.874 173.014 468.35C180.511 470.393 198.453 463.283 204.025 458.556C205.795 456.559 203.448 451.516 198.534 451.516Z" fill="#12191C"/>
<path d="M128.494 452.316L129.06 448.209C129.06 448.209 117.761 445.259 115.929 445.668C114.749 447.318 113.664 449.033 112.677 450.804C117.437 453.993 123.1 453.868 128.494 452.316Z" fill="#E9A394"/>
<path d="M139.169 457.535C134.501 456.003 128.215 454.331 128.215 454.331L128.493 452.315C123.1 453.868 117.436 453.993 112.677 450.804C109.987 455.63 107.204 462.497 111.23 465.153C117.717 469.432 135.422 468.689 142.19 465.937C144.494 464.59 143.837 459.067 139.169 457.535Z" fill="#12191C"/>
<path d="M204.201 258.469C204.201 258.469 153.462 258.524 145.003 265.863C136.544 273.202 124.058 309.505 136.555 358.74C122.298 388.181 113.863 447.349 113.863 447.349C113.863 447.349 125.009 452.636 129.371 450.828C135.064 440.696 161.24 385.711 169.691 329.683C177.456 294.734 183.136 278.562 183.136 278.562" fill="#455A64"/>
<path d="M173.533 257.242C174.013 257.203 210.159 257.243 211.143 259.042C212.127 260.841 217.213 311.047 213.312 343.021C209.412 374.995 190.952 448.436 190.952 448.436C190.952 448.436 173.041 452 170.179 448.529C169.966 438.076 176.452 369.886 181.719 359.467C178.759 348.917 161.879 317.009 166.394 292.481" fill="#455A64"/>
<path d="M145.126 268.498C145.126 268.498 150.886 271.304 164.654 270.404C178.423 269.503 195.745 264.497 201.869 263.842C207.993 263.187 211.63 261.508 211.63 261.508L211.231 256.637L144.778 264.255L143.732 267.153L145.126 268.498Z" fill="#E9A394" stroke="white" stroke-width="0.732496" stroke-linecap="round" stroke-linejoin="round"/>
<path d="M159.699 174.046C159.699 174.046 149.262 172.003 140.558 191.081C131.854 210.16 139.147 262.238 145.002 265.865C150.857 269.492 172.658 268.67 180.57 266.45C188.483 264.231 203.825 262.73 208.656 261.246C213.488 259.762 213.853 248.013 212.386 237.502C210.92 226.99 207.677 186.507 181.216 175.664C167.763 170.727 159.699 174.046 159.699 174.046Z" fill="url(#paint4_linear_998_279933)"/>
<path d="M169.512 196.439C169.512 196.439 180.278 242.751 215.068 230.396C245.004 219.764 233.862 174.284 233.862 174.284C233.862 174.284 233.716 173.491 231.476 173.675C229.236 173.859 222.965 172.037 223.254 175.558C223.543 179.078 223.624 199.636 214.673 202.512C205.721 205.387 200.443 192.782 198.732 190.587" fill="url(#paint5_linear_998_279933)"/>
<path d="M231.99 175.04C231.99 175.04 237.037 166.854 235.624 164.352C234.21 161.85 228.227 159.603 226.763 159.441C225.3 159.279 221.249 162.914 220.978 164.023C220.706 165.133 221.759 168.631 222.468 169.418C223.177 170.206 224.851 174.418 224.887 174.858C224.923 175.298 231.99 175.04 231.99 175.04Z" fill="#E9A394"/>
<path d="M227.24 163.308C227.24 163.308 224.853 166.121 226.595 167.71C228.336 169.299 225.754 170.719 225.754 170.719" fill="#E9A394"/>
<path d="M227.24 163.308C227.24 163.308 224.853 166.121 226.595 167.71C228.336 169.299 225.754 170.719 225.754 170.719" stroke="#B95D4F" stroke-width="0.366248" stroke-linecap="round" stroke-linejoin="round"/>
<path d="M221.476 167.248L218.387 169.271L216.748 170.896L219.308 170.686L222.466 169.42L221.476 167.248Z" fill="#2E2C29" stroke="white" stroke-width="0.732496" stroke-linecap="round" stroke-linejoin="round"/>
<path d="M164.123 164.631C164.123 164.631 169.419 164.881 172.542 162.692C178.896 156.694 163.786 135.985 163.786 135.985C163.786 135.985 141.789 149.63 141.809 149.87C141.829 150.11 147.95 164.831 148.276 164.885C148.603 164.938 152.801 166.044 152.801 166.044C152.801 166.044 154.254 171.965 153.388 176.144C155.945 178.834 166.431 179.021 171.743 175.041C173.251 173.789 172.091 172.908 172.091 172.908C172.091 172.908 168.989 166.073 168.561 164.256" fill="#E9A394"/>
<path d="M168.967 165.514C168.967 165.514 164.67 165.667 163.736 164.742C168.722 164.505 168.578 164.488 168.578 164.488L168.967 165.514Z" fill="#B95D4F"/>
<path d="M155.22 152.314C155.22 152.314 147.135 146.051 146.879 153.724C146.622 161.396 152.506 158.497 154.653 158.16C154.653 158.16 156.075 161.748 155.158 164.321C154.242 166.893 147.721 172.824 144.371 170.28C141.021 167.736 134.339 156.977 134.344 151.153C134.35 145.328 136.356 140.331 140.173 137.762C143.989 135.194 158.434 130.626 159.394 125.634C159.818 122.941 163.169 124.519 164.965 127.754C166.76 130.99 169.579 131.966 167.302 134.65C165.026 137.334 155.227 141.601 154.053 142.02C154.753 147.6 158.587 152.119 158.04 152.325C157.493 152.531 156.052 153.615 155.22 152.314Z" fill="#472E05"/>
<path d="M195.574 171.002C195.574 171.002 199.497 170.658 199.346 173.752C199.195 176.845 196.147 177.981 196.147 177.981" fill="#E9A394"/>
<path d="M50.4398 284.111C50.4623 284.385 50.4955 284.652 50.5344 284.918C48.0817 285.683 45.4517 285.664 43.0105 284.863C40.5693 284.063 38.4384 282.521 36.9146 280.453C35.3909 278.384 34.55 275.892 34.5092 273.324C34.4684 270.755 35.2297 268.237 36.687 266.122C38.1443 264.006 40.2251 262.397 42.6396 261.52C45.0542 260.642 47.6823 260.539 50.158 261.226C52.6337 261.912 54.8337 263.353 56.4517 265.349C58.0697 267.344 59.0252 269.795 59.185 272.359C56.5475 272.919 54.2046 274.422 52.5949 276.585C50.9853 278.748 50.2191 281.424 50.4398 284.111Z" fill="#2E2C29" stroke="white" stroke-width="0.732496" stroke-linecap="round" stroke-linejoin="round"/>
<path d="M72.5418 282.299C72.7764 285.16 71.8923 288 70.0756 290.223C68.2589 292.445 65.6512 293.877 62.8007 294.216C59.9502 294.556 57.0792 293.776 54.7915 292.043C52.5037 290.309 50.9775 287.755 50.5337 284.919C53.1728 284.095 55.4594 282.41 57.0277 280.133C58.596 277.856 59.3553 275.119 59.1843 272.36C60.7252 272.032 62.3184 272.036 63.8575 272.372C65.3967 272.708 66.8465 273.368 68.1105 274.309C69.3744 275.249 70.4234 276.448 71.1875 277.826C71.9516 279.204 72.4133 280.729 72.5418 282.299Z" fill="url(#paint6_linear_998_279933)" stroke="white" stroke-width="0.732496" stroke-linecap="round" stroke-linejoin="round"/>
<path d="M373.729 216.858C380.409 216.31 385.379 210.451 384.831 203.772C384.283 197.092 378.424 192.122 371.745 192.67C365.065 193.218 360.095 199.077 360.643 205.756C361.191 212.436 367.05 217.406 373.729 216.858Z" fill="#2E2C29" stroke="white" stroke-width="0.732496" stroke-linecap="round" stroke-linejoin="round"/>
<path d="M379.676 209.628L366.684 210.694C366.684 210.694 366.44 209.201 367.192 208.775C367.945 208.35 367.938 200.904 370.092 199.819C370.427 199.649 370.71 199.506 370.95 199.386C370.864 199.22 370.813 199.039 370.797 198.853C370.78 198.64 370.809 198.425 370.884 198.225C370.959 198.025 371.078 197.843 371.231 197.694C371.385 197.545 371.569 197.432 371.771 197.362C371.974 197.293 372.189 197.269 372.401 197.293C372.614 197.316 372.819 197.387 373.001 197.499C373.183 197.611 373.338 197.762 373.455 197.941C373.572 198.12 373.648 198.323 373.677 198.535C373.706 198.747 373.688 198.962 373.624 199.166C373.878 199.246 374.182 199.341 374.541 199.454C376.841 200.173 378.049 207.521 378.86 207.817C379.672 208.115 379.676 209.628 379.676 209.628Z" fill="#2E2C29" stroke="white" stroke-width="0.732496" stroke-linecap="round" stroke-linejoin="round"/>
<path d="M375.258 209.991C375.303 210.542 375.127 211.088 374.769 211.51C374.411 211.931 373.901 212.194 373.349 212.239C372.798 212.284 372.252 212.109 371.83 211.751C371.408 211.394 371.145 210.883 371.1 210.332L375.258 209.991Z" fill="white" stroke="white" stroke-width="0.732496" stroke-linecap="round" stroke-linejoin="round"/>
<path d="M365.936 381.107L363.814 381.281L364.635 391.281L366.756 391.107L365.936 381.107Z" fill="#2E2C29" stroke="white" stroke-width="0.732496" stroke-linecap="round" stroke-linejoin="round"/>
<path d="M217.399 393.295L215.277 393.469L216.098 403.469L218.219 403.295L217.399 393.295Z" fill="#2E2C29" stroke="white" stroke-width="0.732496" stroke-linecap="round" stroke-linejoin="round"/>
<path d="M163.776 397.693L161.654 397.867L162.475 407.867L164.596 407.693L163.776 397.693Z" fill="#2E2C29" stroke="white" stroke-width="0.732496" stroke-linecap="round" stroke-linejoin="round"/>
<path d="M382.513 106.518L344.33 109.65L345.086 118.863L383.268 115.73L382.513 106.518Z" fill="url(#paint7_linear_998_279933)" stroke="white" stroke-width="0.732496" stroke-linecap="round" stroke-linejoin="round"/>
<path d="M393.878 245.023L355.695 248.156L356.451 257.368L394.634 254.236L393.878 245.023Z" fill="url(#paint8_linear_998_279933)" stroke="white" stroke-width="0.732496" stroke-linecap="round" stroke-linejoin="round"/>
<path d="M392.29 225.689L354.107 228.822L354.863 238.034L393.046 234.902L392.29 225.689Z" fill="url(#paint9_linear_998_279933)" stroke="white" stroke-width="0.732496" stroke-linecap="round" stroke-linejoin="round"/>
<path d="M468.737 254.688L463.457 253.652C463.181 253.597 462.897 253.611 462.627 253.692C462.358 253.772 462.112 253.917 461.911 254.113L458.064 257.875C457.832 258.101 457.542 258.258 457.227 258.328C456.911 258.398 456.582 258.379 456.276 258.271C455.971 258.164 455.702 257.973 455.5 257.721C455.297 257.469 455.169 257.165 455.13 256.844L454.484 251.502C454.451 251.223 454.35 250.956 454.19 250.725C454.03 250.493 453.816 250.304 453.567 250.174L448.801 247.677C448.514 247.527 448.275 247.3 448.111 247.021C447.947 246.742 447.864 246.423 447.872 246.1C447.879 245.776 447.978 245.462 448.155 245.191C448.332 244.92 448.582 244.705 448.875 244.569L453.756 242.304C454.011 242.185 454.234 242.007 454.404 241.783C454.575 241.56 454.689 241.298 454.736 241.021L455.637 235.716C455.691 235.397 455.833 235.1 456.048 234.858C456.262 234.615 456.54 234.438 456.85 234.345C457.16 234.253 457.49 234.249 457.802 234.334C458.114 234.419 458.396 234.59 458.616 234.827L462.279 238.769C462.47 238.975 462.709 239.131 462.974 239.224C463.239 239.318 463.523 239.345 463.801 239.304L469.125 238.522C469.445 238.475 469.772 238.518 470.069 238.647C470.365 238.776 470.62 238.986 470.804 239.252C470.988 239.518 471.093 239.831 471.109 240.154C471.125 240.477 471.049 240.798 470.892 241.081L468.275 245.782C468.138 246.028 468.063 246.303 468.056 246.584C468.049 246.865 468.111 247.143 468.236 247.395L470.625 252.217C470.769 252.507 470.828 252.831 470.797 253.153C470.766 253.475 470.646 253.782 470.449 254.039C470.253 254.296 469.988 254.493 469.686 254.608C469.383 254.723 469.055 254.75 468.737 254.688Z" fill="#2E2C29" stroke="white" stroke-width="0.732496" stroke-linecap="round" stroke-linejoin="round"/>
<path d="M97.38 201.281L69.7598 203.547L72.026 231.167L99.6462 228.901L97.38 201.281Z" fill="#2E2C29" stroke="white" stroke-width="0.732496" stroke-linecap="round" stroke-linejoin="round"/>
<path d="M83.9551 207.131L85.4469 225.313" stroke="white" stroke-width="0.732496" stroke-linecap="round" stroke-linejoin="round"/>
<path d="M75.6445 216.967L93.5342 215.499" stroke="white" stroke-width="0.732496" stroke-linecap="round" stroke-linejoin="round"/>
<path d="M453.974 147.691C463.715 146.892 470.965 138.346 470.166 128.604C469.366 118.862 460.821 111.613 451.079 112.412C441.337 113.211 434.087 121.757 434.887 131.499C435.686 141.241 444.232 148.49 453.974 147.691Z" fill="#2E2C29" stroke="white" stroke-width="0.732496" stroke-linecap="round" stroke-linejoin="round"/>
<path d="M462.247 127.3L460.523 127.442L461.404 138.186L455.872 138.64L455.434 133.301C455.408 132.984 455.32 132.676 455.175 132.393C455.03 132.111 454.831 131.859 454.589 131.654C454.347 131.448 454.067 131.293 453.765 131.195C453.462 131.098 453.144 131.062 452.827 131.088C452.511 131.114 452.203 131.202 451.92 131.347C451.638 131.492 451.387 131.691 451.181 131.934C450.976 132.176 450.821 132.456 450.724 132.758C450.627 133.061 450.59 133.379 450.617 133.696L451.055 139.035L445.521 139.489L444.639 128.745L442.487 128.922L451.419 118.619L462.247 127.3Z" fill="url(#paint10_linear_998_279933)" stroke="white" stroke-width="0.732496" stroke-linecap="round" stroke-linejoin="round"/>
</g>
<defs>
<linearGradient id="paint0_linear_998_279933" x1="425.923" y1="368.667" x2="543.453" y2="362.82" gradientUnits="userSpaceOnUse">
<stop stop-color="#FB8D48"/>
<stop offset="0.2" stop-color="#ED7136"/>
<stop offset="0.3999" stop-color="#C54E47"/>
<stop offset="0.4" stop-color="#C14F49"/>
<stop offset="0.6" stop-color="#9D3863"/>
<stop offset="0.8" stop-color="#5E1F72"/>
</linearGradient>
<linearGradient id="paint1_linear_998_279933" x1="166.232" y1="352.942" x2="385.219" y2="356.926" gradientUnits="userSpaceOnUse">
<stop stop-color="#FB8D48"/>
<stop offset="0.2" stop-color="#ED7136"/>
<stop offset="0.3999" stop-color="#C54E47"/>
<stop offset="0.4" stop-color="#C14F49"/>
<stop offset="0.6" stop-color="#9D3863"/>
<stop offset="0.8" stop-color="#5E1F72"/>
</linearGradient>
<linearGradient id="paint2_linear_998_279933" x1="118.789" y1="433.1" x2="273.473" y2="572.441" gradientUnits="userSpaceOnUse">
<stop stop-color="#FB8D48"/>
<stop offset="0.2" stop-color="#ED7136"/>
<stop offset="0.3999" stop-color="#C54E47"/>
<stop offset="0.4" stop-color="#C14F49"/>
<stop offset="0.6" stop-color="#9D3863"/>
<stop offset="0.8" stop-color="#5E1F72"/>
</linearGradient>
<linearGradient id="paint3_linear_998_279933" x1="127" y1="231.15" x2="128.591" y2="204.558" gradientUnits="userSpaceOnUse">
<stop stop-color="#FB8D48"/>
<stop offset="0.2" stop-color="#ED7136"/>
<stop offset="0.3999" stop-color="#C54E47"/>
<stop offset="0.4" stop-color="#C14F49"/>
<stop offset="0.6" stop-color="#9D3863"/>
<stop offset="0.8" stop-color="#5E1F72"/>
</linearGradient>
<linearGradient id="paint4_linear_998_279933" x1="180.691" y1="185.276" x2="185.597" y2="258.782" gradientUnits="userSpaceOnUse">
<stop offset="0.142705" stop-color="#5E1F72"/>
<stop offset="0.502185" stop-color="#9D3863"/>
<stop offset="0.72267" stop-color="#C14F49"/>
<stop offset="0.896579" stop-color="#ED7136"/>
<stop offset="1" stop-color="#FB8D48"/>
</linearGradient>
<linearGradient id="paint5_linear_998_279933" x1="189" y1="199.15" x2="237.878" y2="191.492" gradientUnits="userSpaceOnUse">
<stop offset="0.138968" stop-color="#5E1F72"/>
<stop offset="0.421507" stop-color="#9D3863"/>
<stop offset="0.6" stop-color="#C14F49"/>
<stop offset="0.664285" stop-color="#C54E47"/>
<stop offset="0.8" stop-color="#ED7136"/>
<stop offset="1" stop-color="#FB8D48"/>
</linearGradient>
<linearGradient id="paint6_linear_998_279933" x1="50.7253" y1="282.544" x2="72.5255" y2="281.179" gradientUnits="userSpaceOnUse">
<stop stop-color="#FB8D48"/>
<stop offset="0.2" stop-color="#ED7136"/>
<stop offset="0.3999" stop-color="#C54E47"/>
<stop offset="0.4" stop-color="#C14F49"/>
<stop offset="0.6" stop-color="#9D3863"/>
<stop offset="0.8" stop-color="#5E1F72"/>
</linearGradient>
<linearGradient id="paint7_linear_998_279933" x1="345.32" y1="113.562" x2="382.987" y2="113.5" gradientUnits="userSpaceOnUse">
<stop stop-color="#FB8D48"/>
<stop offset="0.2" stop-color="#ED7136"/>
<stop offset="0.3999" stop-color="#C54E47"/>
<stop offset="0.4" stop-color="#C14F49"/>
<stop offset="0.6" stop-color="#9D3863"/>
<stop offset="0.8" stop-color="#5E1F72"/>
</linearGradient>
<linearGradient id="paint8_linear_998_279933" x1="356.685" y1="252.068" x2="394.352" y2="252.005" gradientUnits="userSpaceOnUse">
<stop stop-color="#FB8D48"/>
<stop offset="0.2" stop-color="#ED7136"/>
<stop offset="0.3999" stop-color="#C54E47"/>
<stop offset="0.4" stop-color="#C14F49"/>
<stop offset="0.6" stop-color="#9D3863"/>
<stop offset="0.8" stop-color="#5E1F72"/>
</linearGradient>
<linearGradient id="paint9_linear_998_279933" x1="355.097" y1="232.734" x2="392.764" y2="232.671" gradientUnits="userSpaceOnUse">
<stop stop-color="#FB8D48"/>
<stop offset="0.2" stop-color="#ED7136"/>
<stop offset="0.3999" stop-color="#C54E47"/>
<stop offset="0.4" stop-color="#C14F49"/>
<stop offset="0.6" stop-color="#9D3863"/>
<stop offset="0.8" stop-color="#5E1F72"/>
</linearGradient>
<linearGradient id="paint10_linear_998_279933" x1="442.766" y1="128.106" x2="462.28" y2="126.876" gradientUnits="userSpaceOnUse">
<stop stop-color="#FB8D48"/>
<stop offset="0.2" stop-color="#ED7136"/>
<stop offset="0.3999" stop-color="#C54E47"/>
<stop offset="0.4" stop-color="#C14F49"/>
<stop offset="0.6" stop-color="#9D3863"/>
<stop offset="0.8" stop-color="#5E1F72"/>
</linearGradient>
<clipPath id="clip0_998_279933">
<rect width="526.758" height="526.758" fill="white" transform="translate(0 43.2266) rotate(-4.69063)"/>
</clipPath>
</defs>
</svg>
