<svg width="265" height="86" viewBox="0 0 265 86" fill="none" xmlns="http://www.w3.org/2000/svg">
<path d="M55.5696 54.0446L60.0002 51.4629V55.0703L58.7329 55.8136L45.8095 63.3358L41.1529 66.0463L38.1468 67.8005L37.0317 68.4496L35.4796 69.3564L32.3801 71.1602L31.992 70.9421L29.2168 69.3911L26.6773 67.9739L24.6191 66.8193V63.2862L26.3825 64.2723L29.7718 66.1702L31.992 67.4041L32.3162 67.5874L34.9884 66.0314L37.0317 64.8422L37.9945 64.2822L42.6462 61.5667L55.5696 54.0446Z" fill="#5D1F72"/>
<path d="M48.2606 64.7074L60.0002 57.8691V61.7045L51.6204 66.5855L46.9638 69.296L43.9577 71.0502L41.2855 72.6012L38.191 74.4099L37.0317 75.0838L35.4354 76.0154L32.4538 77.7498L31.992 77.4921L29.094 75.8717L26.6429 74.504L24.6191 73.3693V69.965L26.4562 70.9957L29.6245 72.7647L31.992 74.0878L32.0755 74.1374L34.8312 72.5318L37.0317 71.2484L37.9306 70.7281L40.5979 69.1672L43.604 67.418L48.2606 64.7074Z" fill="#5D1F72"/>
<path d="M23.8723 7.91602L23.8821 7.92097V73.1028L22.8113 72.5033L20.2718 71.086L16.8825 69.1882L12.6828 66.8394V25.3537L10.212 26.7907L0 32.742V21.8156L12.6828 14.4322L19.1273 10.6761L23.8723 7.91602Z" fill="url(#paint0_linear_1452_274255)"/>
<path d="M59.9993 26.9139V14.159L45.5875 6.10171L37.0308 1.3149L36.0238 0.75L31.9911 3.09385L24.6182 7.39009V50.7786L31.9911 54.9014L32.4086 55.1393L37.0259 52.4485L45.3272 47.6122L37.0259 42.9691V37.5777L39.4033 38.9057L50.0525 44.857L54.3554 47.2653L49.635 50.0155L37.0259 57.3592L36.7115 57.5426L32.0599 60.2531L31.9862 60.2135L27.752 57.8448L24.6133 56.0907V59.5247L24.7459 59.599L29.0537 62.0073L31.9862 63.6475L32.443 63.9002L35.4491 62.151L37.0259 61.2293L40.1008 59.4355L53.0243 51.9084L57.7447 49.1582L59.9944 47.8451V34.7036L53.1618 30.8831L57.9068 28.1181L59.9944 26.904L59.9993 26.9139ZM49.802 29.01L37.0308 21.8694V16.4583L54.547 26.2499L49.802 29.01Z" fill="url(#paint1_linear_1452_274255)"/>
<path d="M90 41.25V18.45H80.76V13.25H104.84V18.45H91.6V19.57H95.6V41.25H90ZM115.186 25.21L124.466 23.61V28.81L115.186 30.41V40.25H116.306V36.05H128.106V41.25H109.586V13.25H128.106V18.45H111.186V19.57H115.186V25.21ZM147.919 23.49V20.69C147.919 19.17 147.159 18.45 145.679 18.45H141.479C139.999 18.45 139.239 19.21 139.239 20.69V33.81C139.239 35.29 139.999 36.05 141.479 36.05H145.679C147.159 36.05 147.919 35.33 147.919 33.81V31.01L153.559 33.81V35.01C153.559 39.21 151.359 41.25 147.319 41.25H139.879C135.679 41.25 133.639 39.21 133.639 35.01V19.49C133.639 15.29 135.679 13.25 139.879 13.25H147.319C151.519 13.25 153.559 15.29 153.559 19.49V20.69L147.919 23.49ZM178.829 13.25V41.25H173.229V28.49L177.229 26.33V25.21L173.229 27.37L165.069 31.21V41.25H159.469V13.25H165.069V24.69L161.069 26.85V27.97L165.069 25.81L173.229 21.97V13.25H178.829ZM84.84 65.25H79.6V70.93H75.6V72.05H84.84C86.28 72.05 86.96 71.33 86.96 69.93V67.37C86.96 65.97 86.28 65.25 84.84 65.25ZM85.16 54.45H75.6V55.57H79.6V60.05H85.16C86.36 60.05 86.92 59.45 86.92 58.29V56.21C86.92 55.05 86.36 54.45 85.16 54.45ZM74 77.25V49.25H86.72C90.6 49.25 92.52 51.13 92.52 55.01V56.29C92.52 60.17 90.6 62.09 86.72 62.09H82.8V63.21H86.4C90.52 63.21 92.56 65.21 92.56 69.33V71.09C92.56 75.21 90.52 77.25 86.4 77.25H74ZM104.092 49.25V69.81C104.092 71.33 104.812 72.05 106.332 72.05H111.772C113.292 72.05 114.012 71.29 114.012 69.81V49.25H119.612V71.01C119.612 75.21 117.572 77.25 113.372 77.25H104.732C100.532 77.25 98.4922 75.21 98.4922 71.01V49.25H104.092ZM133.194 49.25V77.25H127.594V49.25H133.194ZM147.908 72.05H159.708V77.25H141.188V49.25H146.788V76.25H147.908V72.05ZM176.989 54.45H166.069V55.57H170.069V70.93H166.069V72.05H176.989C178.469 72.05 179.229 71.29 179.229 69.81V56.69C179.229 55.21 178.469 54.45 176.989 54.45ZM164.469 77.25V49.25H178.589C182.789 49.25 184.829 51.29 184.829 55.49V71.01C184.829 75.21 182.789 77.25 178.589 77.25H164.469ZM198.038 61.21L207.318 59.61V64.81L198.038 66.41V76.25H199.158V72.05H210.958V77.25H192.438V49.25H210.958V54.45H194.038V55.57H198.038V61.21ZM228.411 54.45H222.491V61.21H218.491V62.33H228.411C229.891 62.33 230.651 61.61 230.651 60.09V56.69C230.651 55.17 229.891 54.45 228.411 54.45ZM216.891 77.25V49.25H222.491L230.011 49.29C234.171 49.33 236.251 51.41 236.251 55.57V58.13C236.251 62.29 234.171 64.37 230.011 64.37H225.691V65.49H230.011C234.171 65.49 236.251 67.57 236.251 71.73V77.25H230.651V69.77C230.651 68.29 229.891 67.53 228.411 67.53H218.491V68.65H222.491V77.25H216.891ZM246.964 67.65V69.81C246.964 71.29 247.724 72.05 249.204 72.05H254.404C255.604 72.05 256.204 71.45 256.204 70.25V68.25C256.204 67.09 255.604 66.45 254.444 66.29L246.804 65.29C243.164 64.81 241.364 62.73 241.364 59.01V55.49C241.364 51.29 243.404 49.25 247.604 49.25H255.484C259.204 49.25 261.004 51.05 261.004 54.77V55.69L255.404 58.49V56.69C255.404 55.17 254.684 54.45 253.164 54.45H248.764C247.564 54.45 246.964 55.05 246.964 56.25V58.29C246.964 59.49 247.564 60.21 248.764 60.37L256.364 61.33C260.004 61.81 261.804 63.89 261.804 67.61V71.01C261.804 75.21 259.764 77.25 255.564 77.25H246.884C243.204 77.25 241.364 75.41 241.364 71.73V70.41L246.964 67.65Z" fill="white"/>
<defs>
<linearGradient id="paint0_linear_1452_274255" x1="11.7888" y1="23.0495" x2="32.2707" y2="48.5382" gradientUnits="userSpaceOnUse">
<stop stop-color="#FB8D48"/>
<stop offset="0.2" stop-color="#ED7136"/>
<stop offset="0.3999" stop-color="#C54E47"/>
<stop offset="0.4" stop-color="#C14F49"/>
<stop offset="0.6" stop-color="#9D3863"/>
<stop offset="0.8" stop-color="#5E1F72"/>
</linearGradient>
<linearGradient id="paint1_linear_1452_274255" x1="42.2427" y1="3.22765" x2="59.5178" y2="45.1408" gradientUnits="userSpaceOnUse">
<stop stop-color="#FB8D48"/>
<stop offset="0.2" stop-color="#ED7136"/>
<stop offset="0.3999" stop-color="#C54E47"/>
<stop offset="0.4" stop-color="#C14F49"/>
<stop offset="0.6" stop-color="#9D3863"/>
<stop offset="0.8" stop-color="#5E1F72"/>
</linearGradient>
</defs>
</svg>
